<svg width="65" height="75" viewBox="0 0 65 75" fill="none" xmlns="http://www.w3.org/2000/svg">
<g clip-path="url(#clip0_544_560)">
<path d="M35.42 35.2966C35.8594 35.5346 36.018 36.084 35.78 36.5173C35.542 36.9568 34.9928 37.1155 34.5595 36.8774C31.4776 35.1928 28.9816 33.1848 27.6146 30.4077C26.3635 27.8686 26.0828 24.7436 27.1813 20.7275C25.2101 20.935 22.9277 21.6308 20.5782 22.345C16.3856 23.6206 12.0161 24.9512 8.37885 23.883C7.95776 24.7131 7.64042 25.6103 7.40852 26.5625C7.10948 27.7954 6.95692 29.1199 6.9142 30.5115C6.87758 31.7138 6.90809 32.5378 6.9325 33.1787C7.00574 35.0708 7.03015 35.5469 5.41293 38.8489L2.56906 44.6594C2.55076 44.7082 2.52635 44.751 2.49583 44.7937C2.01982 45.52 1.80623 46.1914 1.79402 46.7529C1.78792 47.0764 1.84894 47.3572 1.9649 47.5891C2.06254 47.7905 2.2029 47.9553 2.37988 48.0774C2.39209 48.0835 2.40429 48.0957 2.4165 48.1018C2.63009 48.2422 2.89861 48.3276 3.19764 48.3398C3.22205 48.3398 3.24647 48.3398 3.27088 48.3398L6.59686 48.5351C6.6884 48.4985 6.79214 48.4802 6.90199 48.4741C6.9325 48.4741 6.96302 48.4741 6.99353 48.4741L10.0144 48.7304C10.5087 48.7732 10.881 49.2065 10.8382 49.707C10.7955 50.2014 10.3622 50.5737 9.86181 50.531L9.81298 50.5249L7.83571 50.4089L7.84181 50.9033C7.86012 52.4658 7.88453 54.01 8.01879 55.5725C8.87927 55.9936 9.70924 56.25 10.5087 56.3293C11.4058 56.4209 12.2785 56.2866 13.1268 55.9143C13.5845 55.7129 14.1154 55.9204 14.3168 56.3782C14.5182 56.8359 14.3107 57.3669 13.853 57.5683C12.7179 58.0688 11.5401 58.2458 10.3317 58.1299C9.6177 58.0566 8.89758 57.8796 8.16525 57.605C8.20187 57.9834 8.24459 58.3557 8.29341 58.7341C8.40326 59.5703 8.55583 60.4248 8.74501 61.2915C8.79993 61.5295 8.75111 61.7676 8.62906 61.9629C7.96386 63.2934 7.63432 64.4165 7.57329 65.3442C7.50616 66.3513 7.78688 67.1142 8.32392 67.6636C8.90978 68.2556 9.81299 68.6462 10.9481 68.8598C12.7118 69.1894 14.9637 69.0918 17.4048 68.6523C19.7238 68.2373 22.3235 67.5659 24.7219 66.6382C26.6809 65.8813 28.4934 64.9475 29.8787 63.8366C31.2701 62.7258 31.8987 60.9375 32.4357 59.4116C32.5395 59.1125 32.6432 58.8257 32.6982 58.6792L32.8507 58.2641C33.4976 56.4819 34.6266 53.3813 36.0547 52.2827C36.4452 51.9775 37.0128 52.0508 37.3179 52.4475C37.6231 52.8442 37.5498 53.4057 37.1531 53.7109C36.1401 54.4922 35.127 57.2754 34.5412 58.8806C34.4313 59.1797 34.4374 59.1675 34.3886 59.3017C34.2727 59.613 34.2055 59.8083 34.1323 60.0097C33.5159 61.7615 32.7958 63.8183 31.0016 65.2527C29.4698 66.4795 27.4925 67.4988 25.3688 68.3227C24.8318 68.5303 24.2825 68.7256 23.7272 68.9087C23.7577 69.7082 23.7333 70.5017 23.6539 71.3013C23.5563 72.3327 23.3671 73.3398 23.1047 74.3347C22.9765 74.8169 22.4822 75.1037 22.0001 74.9756C21.518 74.8474 21.2312 74.353 21.3593 73.8708C21.6034 72.9553 21.7743 72.0459 21.8597 71.1304C21.9147 70.581 21.9391 70.0195 21.933 69.458C20.4927 69.8608 19.0586 70.1843 17.7099 70.4284C15.0552 70.9045 12.5836 71.0083 10.6002 70.636C9.11117 70.3552 7.88453 69.7998 7.02405 68.9331C6.12084 68.0176 5.65704 66.7969 5.76078 65.2344C5.83402 64.1296 6.19408 62.854 6.90199 61.3769C6.73722 60.6018 6.60296 59.7961 6.49311 58.966C6.37105 58.0505 6.29172 57.1228 6.26121 56.1828C6.26121 56.1706 6.26121 56.1584 6.26121 56.1462C6.249 56.1035 6.2429 56.0608 6.2429 56.018C6.07812 54.2969 6.05982 52.6245 6.03541 50.9277L6.04151 50.3113L3.17323 50.1404H3.14882C2.49583 50.1159 1.91607 49.9328 1.43396 49.6155C1.41565 49.6033 1.39124 49.591 1.37293 49.5727C0.93964 49.2737 0.591785 48.8708 0.353779 48.3887C0.115774 47.9004 -0.0123835 47.3388 -0.000178031 46.7163C0.0181301 45.8435 0.317163 44.8608 0.964051 43.8537L3.79571 38.0615C5.21154 35.1745 5.19323 34.7839 5.1322 33.2519C5.10779 32.5866 5.07118 31.7322 5.1139 30.4626C5.16272 28.949 5.33359 27.5024 5.65704 26.1474C5.90725 25.1098 6.249 24.1272 6.7006 23.2055L1.33021 20.8618C0.87251 20.6604 0.665018 20.1294 0.866407 19.6777C0.890818 19.6167 0.927434 19.5556 0.964051 19.5068C13.1878 2.84422 26.9738 -1.74563 38.63 0.5554C45.4345 1.89817 51.4945 5.5969 56.0838 10.614C60.6669 15.6311 63.7915 21.9726 64.713 28.6133C66.2326 39.5263 61.8447 51.2146 48.3455 59.1308C48.193 59.2224 48.0221 59.259 47.8573 59.2529C47.8573 61.0107 47.961 62.7136 48.1624 64.3616C48.5469 67.4927 49.2792 70.4223 50.3167 73.1811C50.4937 73.645 50.2557 74.1638 49.7919 74.3408C49.3281 74.5178 48.8093 74.2798 48.6323 73.8159C47.54 70.9167 46.771 67.8467 46.3743 64.5813C45.9777 61.322 45.9472 57.8613 46.3255 54.1748C46.3743 53.6804 46.8198 53.3203 47.3142 53.3691C47.8085 53.418 48.1685 53.8635 48.1197 54.3579C48.016 55.3528 47.9427 56.3354 47.9061 57.2998C60.3007 49.823 64.3407 38.977 62.931 28.8574C62.0583 22.583 59.1046 16.5771 54.7656 11.8286C50.4265 7.08006 44.7083 3.58885 38.2882 2.32542C27.4681 0.195293 14.6524 4.41282 3.1 19.6594L8.2812 21.9177C8.33613 21.936 8.38495 21.9604 8.43987 21.9909C8.45208 21.997 8.46429 22.0093 8.47649 22.0154C11.656 23.1811 15.9523 21.8689 20.0655 20.6177C23.0193 19.7204 25.8814 18.8476 28.3591 18.8598C28.4751 18.8537 28.591 18.8659 28.707 18.9026C29.183 19.0613 29.4393 19.5679 29.2806 20.0439C27.9197 24.176 28.0723 27.2339 29.2379 29.6081C30.4096 32.0068 32.6432 33.7829 35.42 35.2966ZM15.7936 36.9446C14.9088 36.9446 14.1947 37.6587 14.1947 38.5437C14.1947 39.4287 14.9088 40.1428 15.7936 40.1428C16.6785 40.1428 17.3926 39.4287 17.3926 38.5437C17.3926 37.6587 16.6785 36.9446 15.7936 36.9446ZM41.6997 40.4907C41.7912 40.979 41.4678 41.449 40.9734 41.5405C40.4852 41.6321 40.0153 41.3086 39.9238 40.8142C39.7956 40.1245 39.8383 39.4653 40.0031 38.8672C40.2411 38.0249 40.7354 37.2986 41.3823 36.7492C42.017 36.2121 42.8043 35.8398 43.6464 35.6872C44.3482 35.5591 45.0928 35.5835 45.8129 35.7849C47.7658 36.3342 48.5957 37.3169 48.7727 38.562C48.9314 39.6728 48.492 40.8874 47.8817 42.1631C47.3386 43.3044 45.2514 47.6684 43.1887 50.3235C40.4242 53.894 37.7329 55.1819 37.3179 47.5708C37.2935 47.0764 37.678 46.6492 38.1723 46.6247C38.6666 46.6003 39.0938 46.9848 39.1182 47.4792C39.3257 51.2756 40.5279 50.8117 41.7607 49.2187C43.7014 46.7163 45.7214 42.4988 46.2462 41.3879C46.7222 40.3808 47.0762 39.4714 46.9846 38.8C46.9114 38.2751 46.4476 37.8296 45.3247 37.5122C44.8731 37.384 44.4032 37.3718 43.9699 37.4512C43.4389 37.5488 42.9446 37.7807 42.5479 38.1225C42.1635 38.446 41.8766 38.8672 41.7363 39.3555C41.6447 39.7034 41.6264 40.0879 41.6997 40.4907ZM20.328 35.0647C20.7674 35.2966 20.9382 35.8398 20.7063 36.2793C20.4744 36.7187 19.9313 36.8896 19.4919 36.6577C18.369 36.0718 17.2522 35.7239 16.1476 35.6994H16.1415C15.0552 35.675 13.9628 35.9619 12.846 36.6333C12.4188 36.8896 11.8635 36.7554 11.6072 36.3281C11.3509 35.9009 11.4851 35.3454 11.9123 35.0891C13.3343 34.2346 14.7562 33.8684 16.1781 33.8989H16.1842C17.5939 33.9355 18.9671 34.3567 20.328 35.0647Z" fill="black"/>
</g>
<defs>
<clipPath id="clip0_544_560">
<rect width="65" height="75" fill="white"/>
</clipPath>
</defs>
</svg>
