<svg width="217" height="183" viewBox="0 0 217 183" fill="none" xmlns="http://www.w3.org/2000/svg">
<g opacity="0.3">
<rect x="15.3076" y="0.472168" width="187" height="38" rx="6" fill="#FAFAFA"/>
<rect x="25.3076" y="10.4722" width="17" height="17" rx="3" fill="#202020"/>
<path d="M29.2051 18.9722L32.2735 22.0405L38.4102 15.9038" stroke="white" stroke-width="1.5"/>
<path opacity="0.5" d="M49.2314 26.916C48.8337 26.916 48.5205 26.8589 48.292 26.7446V25.8242C48.5924 25.9089 48.9056 25.9512 49.2314 25.9512C49.6504 25.9512 49.9678 25.8242 50.1836 25.5703C50.4036 25.3164 50.5137 24.9504 50.5137 24.4722V15.1919H51.5928V24.3833C51.5928 25.1873 51.3896 25.8094 50.9834 26.2495C50.5771 26.6938 49.9932 26.916 49.2314 26.916ZM60.0382 20.9873C60.0382 22.1214 59.7526 23.008 59.1813 23.647C58.61 24.2817 57.8208 24.5991 56.8136 24.5991C56.1915 24.5991 55.6393 24.4531 55.1569 24.1611C54.6744 23.8691 54.302 23.4502 54.0397 22.9043C53.7773 22.3584 53.6461 21.7194 53.6461 20.9873C53.6461 19.8532 53.9296 18.9709 54.4967 18.3403C55.0638 17.7056 55.8509 17.3882 56.858 17.3882C57.8313 17.3882 58.6036 17.7119 59.1749 18.3594C59.7504 19.0068 60.0382 19.8828 60.0382 20.9873ZM54.7379 20.9873C54.7379 21.876 54.9156 22.5531 55.2711 23.0186C55.6266 23.484 56.1492 23.7168 56.839 23.7168C57.5288 23.7168 58.0514 23.4862 58.4069 23.0249C58.7666 22.5594 58.9464 21.8802 58.9464 20.9873C58.9464 20.1029 58.7666 19.4321 58.4069 18.9751C58.0514 18.5138 57.5245 18.2832 56.8263 18.2832C56.1365 18.2832 55.616 18.5096 55.2648 18.9624C54.9135 19.4152 54.7379 20.0902 54.7379 20.9873ZM64.9607 24.5991C63.9324 24.5991 63.1199 24.286 62.5232 23.6597C61.9307 23.0334 61.6345 22.1637 61.6345 21.0508C61.6345 19.9294 61.9096 19.0386 62.4597 18.3784C63.0141 17.7183 63.7567 17.3882 64.6877 17.3882C65.5595 17.3882 66.2493 17.6759 66.7571 18.2515C67.2649 18.8228 67.5188 19.5781 67.5188 20.5176V21.1841H62.7263C62.7475 22.0008 62.9527 22.6208 63.342 23.0439C63.7356 23.4671 64.2878 23.6787 64.9988 23.6787C65.7478 23.6787 66.4884 23.5221 67.2204 23.209V24.1484C66.8481 24.3092 66.4947 24.4235 66.1604 24.4912C65.8303 24.5632 65.4304 24.5991 64.9607 24.5991ZM64.675 18.2705C64.1164 18.2705 63.67 18.4525 63.3357 18.8164C63.0056 19.1803 62.8109 19.6839 62.7517 20.3271H66.3889C66.3889 19.6628 66.2408 19.1549 65.9446 18.8037C65.6483 18.4482 65.2252 18.2705 64.675 18.2705ZM70.5052 24.4722H69.4515V14.5952H70.5052V24.4722ZM79.1568 24.5991C78.1497 24.5991 77.3689 24.2902 76.8146 23.6724C76.2644 23.0503 75.9894 22.1722 75.9894 21.0381C75.9894 19.8743 76.2687 18.9751 76.8272 18.3403C77.3901 17.7056 78.1899 17.3882 79.2267 17.3882C79.561 17.3882 79.8953 17.4242 80.2296 17.4961C80.5639 17.568 80.8263 17.6527 81.0167 17.75L80.693 18.645C80.4602 18.5519 80.2063 18.4757 79.9312 18.4165C79.6562 18.353 79.4129 18.3213 79.2013 18.3213C77.7879 18.3213 77.0812 19.2227 77.0812 21.0254C77.0812 21.8802 77.2525 22.5361 77.5953 22.9932C77.9423 23.4502 78.4544 23.6787 79.1314 23.6787C79.7112 23.6787 80.3058 23.5539 80.9151 23.3042V24.2373C80.4496 24.4785 79.8635 24.5991 79.1568 24.5991ZM87.4626 24.4722V19.9717C87.4626 19.4046 87.3335 18.9814 87.0754 18.7021C86.8173 18.4229 86.4131 18.2832 85.863 18.2832C85.1309 18.2832 84.5956 18.4821 84.257 18.8799C83.9227 19.2777 83.7556 19.9294 83.7556 20.835V24.4722H82.7019V14.5952H83.7556V17.585C83.7556 17.9447 83.7387 18.243 83.7048 18.48H83.7683C83.9756 18.1457 84.2697 17.8833 84.6506 17.6929C85.0357 17.4982 85.4737 17.4009 85.9646 17.4009C86.8152 17.4009 87.452 17.604 87.8752 18.0103C88.3026 18.4123 88.5163 19.0534 88.5163 19.9336V24.4722H87.4626ZM96.8221 20.9873C96.8221 22.1214 96.5365 23.008 95.9652 23.647C95.3939 24.2817 94.6047 24.5991 93.5975 24.5991C92.9754 24.5991 92.4232 24.4531 91.9408 24.1611C91.4583 23.8691 91.0859 23.4502 90.8236 22.9043C90.5612 22.3584 90.43 21.7194 90.43 20.9873C90.43 19.8532 90.7135 18.9709 91.2806 18.3403C91.8477 17.7056 92.6348 17.3882 93.6419 17.3882C94.6152 17.3882 95.3875 17.7119 95.9588 18.3594C96.5343 19.0068 96.8221 19.8828 96.8221 20.9873ZM91.5218 20.9873C91.5218 21.876 91.6996 22.5531 92.055 23.0186C92.4105 23.484 92.9331 23.7168 93.6229 23.7168C94.3127 23.7168 94.8353 23.4862 95.1908 23.0249C95.5505 22.5594 95.7303 21.8802 95.7303 20.9873C95.7303 20.1029 95.5505 19.4321 95.1908 18.9751C94.8353 18.5138 94.3084 18.2832 93.6102 18.2832C92.9204 18.2832 92.3999 18.5096 92.0487 18.9624C91.6974 19.4152 91.5218 20.0902 91.5218 20.9873ZM103.293 22.5742C103.293 23.2217 103.052 23.721 102.57 24.0723C102.087 24.4235 101.41 24.5991 100.539 24.5991C99.616 24.5991 98.8966 24.4531 98.3803 24.1611V23.1836C98.7146 23.3529 99.0722 23.4862 99.4531 23.5835C99.8382 23.6808 100.208 23.7295 100.564 23.7295C101.114 23.7295 101.537 23.6427 101.833 23.4692C102.13 23.2915 102.278 23.0228 102.278 22.6631C102.278 22.3923 102.159 22.1616 101.922 21.9712C101.69 21.7765 101.233 21.548 100.551 21.2856C99.9038 21.0444 99.4425 20.835 99.1674 20.6572C98.8966 20.4753 98.6935 20.27 98.5581 20.0415C98.4269 19.813 98.3613 19.54 98.3613 19.2227C98.3613 18.6556 98.5919 18.2091 99.0532 17.8833C99.5144 17.5532 100.147 17.3882 100.951 17.3882C101.7 17.3882 102.432 17.5405 103.147 17.8452L102.773 18.7021C102.075 18.4144 101.442 18.2705 100.875 18.2705C100.376 18.2705 99.999 18.3488 99.7451 18.5054C99.4912 18.6619 99.3642 18.8778 99.3642 19.1528C99.3642 19.339 99.4108 19.4977 99.5039 19.6289C99.6012 19.7601 99.7557 19.8849 99.9672 20.0034C100.179 20.1219 100.585 20.2933 101.186 20.5176C102.011 20.818 102.568 21.1206 102.855 21.4253C103.147 21.73 103.293 22.113 103.293 22.5742ZM108.083 24.5991C107.054 24.5991 106.242 24.286 105.645 23.6597C105.053 23.0334 104.756 22.1637 104.756 21.0508C104.756 19.9294 105.031 19.0386 105.582 18.3784C106.136 17.7183 106.879 17.3882 107.81 17.3882C108.681 17.3882 109.371 17.6759 109.879 18.2515C110.387 18.8228 110.641 19.5781 110.641 20.5176V21.1841H105.848C105.869 22.0008 106.075 22.6208 106.464 23.0439C106.857 23.4671 107.41 23.6787 108.121 23.6787C108.87 23.6787 109.61 23.5221 110.342 23.209V24.1484C109.97 24.3092 109.617 24.4235 109.282 24.4912C108.952 24.5632 108.552 24.5991 108.083 24.5991ZM107.797 18.2705C107.238 18.2705 106.792 18.4525 106.458 18.8164C106.128 19.1803 105.933 19.6839 105.874 20.3271H109.511C109.511 19.6628 109.363 19.1549 109.066 18.8037C108.77 18.4482 108.347 18.2705 107.797 18.2705ZM118.327 23.7295C118.514 23.7295 118.694 23.7168 118.867 23.6914C119.041 23.6618 119.178 23.6322 119.28 23.6025V24.4087C119.165 24.4637 118.996 24.5081 118.772 24.542C118.552 24.5801 118.353 24.5991 118.175 24.5991C116.829 24.5991 116.157 23.8903 116.157 22.4727V18.334H115.16V17.8262L116.157 17.3882L116.601 15.9028H117.21V17.5151H119.229V18.334H117.21V22.4282C117.21 22.8472 117.31 23.1688 117.509 23.3931C117.708 23.6174 117.98 23.7295 118.327 23.7295ZM125.567 24.4722V19.9717C125.567 19.4046 125.438 18.9814 125.18 18.7021C124.921 18.4229 124.517 18.2832 123.967 18.2832C123.235 18.2832 122.7 18.4821 122.361 18.8799C122.027 19.2777 121.86 19.9294 121.86 20.835V24.4722H120.806V14.5952H121.86V17.585C121.86 17.9447 121.843 18.243 121.809 18.48H121.872C122.08 18.1457 122.374 17.8833 122.755 17.6929C123.14 17.4982 123.578 17.4009 124.069 17.4009C124.919 17.4009 125.556 17.604 125.979 18.0103C126.407 18.4123 126.621 19.0534 126.621 19.9336V24.4722H125.567ZM129.975 24.4722H128.921V17.5151H129.975V24.4722ZM128.833 15.6299C128.833 15.3887 128.892 15.2131 129.01 15.103C129.129 14.9888 129.277 14.9316 129.455 14.9316C129.624 14.9316 129.77 14.9888 129.893 15.103C130.015 15.2173 130.077 15.3929 130.077 15.6299C130.077 15.8669 130.015 16.0446 129.893 16.1631C129.77 16.2773 129.624 16.3345 129.455 16.3345C129.277 16.3345 129.129 16.2773 129.01 16.1631C128.892 16.0446 128.833 15.8669 128.833 15.6299ZM136.827 22.5742C136.827 23.2217 136.586 23.721 136.104 24.0723C135.621 24.4235 134.944 24.5991 134.072 24.5991C133.15 24.5991 132.431 24.4531 131.914 24.1611V23.1836C132.249 23.3529 132.606 23.4862 132.987 23.5835C133.372 23.6808 133.742 23.7295 134.098 23.7295C134.648 23.7295 135.071 23.6427 135.367 23.4692C135.664 23.2915 135.812 23.0228 135.812 22.6631C135.812 22.3923 135.693 22.1616 135.456 21.9712C135.223 21.7765 134.766 21.548 134.085 21.2856C133.438 21.0444 132.976 20.835 132.701 20.6572C132.431 20.4753 132.227 20.27 132.092 20.0415C131.961 19.813 131.895 19.54 131.895 19.2227C131.895 18.6556 132.126 18.2091 132.587 17.8833C133.048 17.5532 133.681 17.3882 134.485 17.3882C135.234 17.3882 135.966 17.5405 136.681 17.8452L136.307 18.7021C135.609 18.4144 134.976 18.2705 134.409 18.2705C133.91 18.2705 133.533 18.3488 133.279 18.5054C133.025 18.6619 132.898 18.8778 132.898 19.1528C132.898 19.339 132.945 19.4977 133.038 19.6289C133.135 19.7601 133.29 19.8849 133.501 20.0034C133.713 20.1219 134.119 20.2933 134.72 20.5176C135.545 20.818 136.102 21.1206 136.389 21.4253C136.681 21.73 136.827 22.113 136.827 22.5742ZM148.189 20.9873C148.189 22.1214 147.904 23.008 147.332 23.647C146.761 24.2817 145.972 24.5991 144.965 24.5991C144.343 24.5991 143.79 24.4531 143.308 24.1611C142.826 23.8691 142.453 23.4502 142.191 22.9043C141.928 22.3584 141.797 21.7194 141.797 20.9873C141.797 19.8532 142.081 18.9709 142.648 18.3403C143.215 17.7056 144.002 17.3882 145.009 17.3882C145.983 17.3882 146.755 17.7119 147.326 18.3594C147.902 19.0068 148.189 19.8828 148.189 20.9873ZM142.889 20.9873C142.889 21.876 143.067 22.5531 143.422 23.0186C143.778 23.484 144.3 23.7168 144.99 23.7168C145.68 23.7168 146.203 23.4862 146.558 23.0249C146.918 22.5594 147.098 21.8802 147.098 20.9873C147.098 20.1029 146.918 19.4321 146.558 18.9751C146.203 18.5138 145.676 18.2832 144.977 18.2832C144.288 18.2832 143.767 18.5096 143.416 18.9624C143.065 19.4152 142.889 20.0902 142.889 20.9873ZM153.41 24.5991C152.957 24.5991 152.543 24.5166 152.166 24.3516C151.794 24.1823 151.481 23.9242 151.227 23.5771H151.15C151.201 23.9834 151.227 24.3685 151.227 24.7324V27.5952H150.173V17.5151H151.03L151.176 18.4673H151.227C151.497 18.0864 151.813 17.8114 152.172 17.6421C152.532 17.4728 152.945 17.3882 153.41 17.3882C154.333 17.3882 155.044 17.7035 155.543 18.334C156.047 18.9645 156.298 19.849 156.298 20.9873C156.298 22.1299 156.042 23.0186 155.53 23.6533C155.022 24.2839 154.316 24.5991 153.41 24.5991ZM153.258 18.2832C152.547 18.2832 152.033 18.48 151.715 18.8735C151.398 19.2671 151.235 19.8934 151.227 20.7524V20.9873C151.227 21.9648 151.39 22.6652 151.715 23.0884C152.041 23.5073 152.564 23.7168 153.283 23.7168C153.884 23.7168 154.354 23.4735 154.692 22.9868C155.035 22.5002 155.207 21.8294 155.207 20.9746C155.207 20.1071 155.035 19.4427 154.692 18.9814C154.354 18.516 153.876 18.2832 153.258 18.2832ZM160.523 23.7295C160.709 23.7295 160.889 23.7168 161.062 23.6914C161.236 23.6618 161.373 23.6322 161.475 23.6025V24.4087C161.361 24.4637 161.191 24.5081 160.967 24.542C160.747 24.5801 160.548 24.5991 160.37 24.5991C159.025 24.5991 158.352 23.8903 158.352 22.4727V18.334H157.355V17.8262L158.352 17.3882L158.796 15.9028H159.405V17.5151H161.424V18.334H159.405V22.4282C159.405 22.8472 159.505 23.1688 159.704 23.3931C159.903 23.6174 160.176 23.7295 160.523 23.7295ZM164.055 24.4722H163.001V17.5151H164.055V24.4722ZM162.912 15.6299C162.912 15.3887 162.972 15.2131 163.09 15.103C163.209 14.9888 163.357 14.9316 163.534 14.9316C163.704 14.9316 163.85 14.9888 163.972 15.103C164.095 15.2173 164.157 15.3929 164.157 15.6299C164.157 15.8669 164.095 16.0446 163.972 16.1631C163.85 16.2773 163.704 16.3345 163.534 16.3345C163.357 16.3345 163.209 16.2773 163.09 16.1631C162.972 16.0446 162.912 15.8669 162.912 15.6299ZM172.424 20.9873C172.424 22.1214 172.139 23.008 171.567 23.647C170.996 24.2817 170.207 24.5991 169.2 24.5991C168.578 24.5991 168.025 24.4531 167.543 24.1611C167.06 23.8691 166.688 23.4502 166.426 22.9043C166.163 22.3584 166.032 21.7194 166.032 20.9873C166.032 19.8532 166.316 18.9709 166.883 18.3403C167.45 17.7056 168.237 17.3882 169.244 17.3882C170.217 17.3882 170.99 17.7119 171.561 18.3594C172.136 19.0068 172.424 19.8828 172.424 20.9873ZM167.124 20.9873C167.124 21.876 167.302 22.5531 167.657 23.0186C168.013 23.484 168.535 23.7168 169.225 23.7168C169.915 23.7168 170.437 23.4862 170.793 23.0249C171.153 22.5594 171.332 21.8802 171.332 20.9873C171.332 20.1029 171.153 19.4321 170.793 18.9751C170.437 18.5138 169.911 18.2832 169.212 18.2832C168.523 18.2832 168.002 18.5096 167.651 18.9624C167.3 19.4152 167.124 20.0902 167.124 20.9873ZM179.168 24.4722V19.9717C179.168 19.4046 179.039 18.9814 178.781 18.7021C178.523 18.4229 178.119 18.2832 177.569 18.2832C176.841 18.2832 176.308 18.48 175.969 18.8735C175.631 19.2671 175.461 19.9167 175.461 20.8223V24.4722H174.408V17.5151H175.265L175.436 18.4673H175.487C175.703 18.1245 176.005 17.86 176.395 17.6738C176.784 17.4834 177.218 17.3882 177.696 17.3882C178.534 17.3882 179.164 17.5913 179.587 17.9976C180.011 18.3996 180.222 19.0449 180.222 19.9336V24.4722H179.168ZM182.371 23.7993C182.371 23.5158 182.434 23.3021 182.561 23.1582C182.692 23.0101 182.879 22.936 183.12 22.936C183.365 22.936 183.556 23.0101 183.691 23.1582C183.831 23.3021 183.901 23.5158 183.901 23.7993C183.901 24.0744 183.831 24.286 183.691 24.4341C183.551 24.5822 183.361 24.6562 183.12 24.6562C182.904 24.6562 182.724 24.5907 182.58 24.4595C182.441 24.3241 182.371 24.104 182.371 23.7993ZM185.967 23.7993C185.967 23.5158 186.03 23.3021 186.157 23.1582C186.288 23.0101 186.474 22.936 186.716 22.936C186.961 22.936 187.151 23.0101 187.287 23.1582C187.427 23.3021 187.496 23.5158 187.496 23.7993C187.496 24.0744 187.427 24.286 187.287 24.4341C187.147 24.5822 186.957 24.6562 186.716 24.6562C186.5 24.6562 186.32 24.5907 186.176 24.4595C186.036 24.3241 185.967 24.104 185.967 23.7993ZM189.562 23.7993C189.562 23.5158 189.626 23.3021 189.753 23.1582C189.884 23.0101 190.07 22.936 190.311 22.936C190.557 22.936 190.747 23.0101 190.883 23.1582C191.022 23.3021 191.092 23.5158 191.092 23.7993C191.092 24.0744 191.022 24.286 190.883 24.4341C190.743 24.5822 190.553 24.6562 190.311 24.6562C190.096 24.6562 189.916 24.5907 189.772 24.4595C189.632 24.3241 189.562 24.104 189.562 23.7993Z" fill="black"/>
</g>
<g opacity="0.7">
<rect x="0.807617" y="48.4722" width="216" height="38" rx="6" fill="#FAFAFA"/>
<rect x="10.8076" y="58.4722" width="17" height="17" rx="3" fill="#202020"/>
<path d="M14.7051 66.9722L17.7735 70.0405L23.9102 63.9038" stroke="white" stroke-width="1.5"/>
<path opacity="0.5" d="M40.0571 64.0234C39.0373 64.0234 38.2311 64.3641 37.6387 65.0454C37.0505 65.7225 36.7563 66.6514 36.7563 67.832C36.7563 69.0465 37.0399 69.986 37.6069 70.6504C38.1782 71.3105 38.9907 71.6406 40.0444 71.6406C40.6919 71.6406 41.4303 71.5243 42.2598 71.2915V72.2373C41.6165 72.4785 40.8231 72.5991 39.8794 72.5991C38.5125 72.5991 37.4567 72.1844 36.7119 71.355C35.9714 70.5256 35.6011 69.347 35.6011 67.8193C35.6011 66.863 35.7788 66.0251 36.1343 65.3057C36.494 64.5863 37.0103 64.0319 37.6831 63.6426C38.3602 63.2533 39.1558 63.0586 40.0698 63.0586C41.0431 63.0586 41.8937 63.2363 42.6216 63.5918L42.1646 64.5186C41.4621 64.1885 40.7596 64.0234 40.0571 64.0234ZM45.3097 72.4722H44.256V62.5952H45.3097V72.4722ZM50.613 72.5991C49.5847 72.5991 48.7722 72.286 48.1755 71.6597C47.5831 71.0334 47.2869 70.1637 47.2869 69.0508C47.2869 67.9294 47.5619 67.0386 48.1121 66.3784C48.6664 65.7183 49.4091 65.3882 50.3401 65.3882C51.2118 65.3882 51.9016 65.6759 52.4094 66.2515C52.9172 66.8228 53.1711 67.5781 53.1711 68.5176V69.1841H48.3787C48.3998 70.0008 48.6051 70.6208 48.9944 71.0439C49.3879 71.4671 49.9402 71.6787 50.6511 71.6787C51.4001 71.6787 52.1407 71.5221 52.8728 71.209V72.1484C52.5004 72.3092 52.147 72.4235 51.8127 72.4912C51.4827 72.5632 51.0828 72.5991 50.613 72.5991ZM50.3274 66.2705C49.7688 66.2705 49.3223 66.4525 48.988 66.8164C48.6579 67.1803 48.4633 67.6839 48.404 68.3271H52.0413C52.0413 67.6628 51.8931 67.1549 51.5969 66.8037C51.3007 66.4482 50.8775 66.2705 50.3274 66.2705ZM63.9715 72.4722V67.9463C63.9715 67.3919 63.8531 66.9772 63.6161 66.7021C63.3791 66.4229 63.0109 66.2832 62.5116 66.2832C61.8557 66.2832 61.3711 66.4715 61.058 66.8481C60.7448 67.2248 60.5882 67.8045 60.5882 68.5874V72.4722H59.5345V67.9463C59.5345 67.3919 59.416 66.9772 59.1791 66.7021C58.9421 66.4229 58.5718 66.2832 58.0682 66.2832C57.4081 66.2832 56.9235 66.4821 56.6146 66.8799C56.3099 67.2734 56.1576 67.9209 56.1576 68.8223V72.4722H55.1039V65.5151H55.9608L56.1322 66.4673H56.183C56.3819 66.1287 56.6612 65.8643 57.0209 65.6738C57.3848 65.4834 57.791 65.3882 58.2396 65.3882C59.3272 65.3882 60.0381 65.7817 60.3724 66.5688H60.4232C60.6306 66.2049 60.931 65.9172 61.3246 65.7056C61.7181 65.494 62.1667 65.3882 62.6703 65.3882C63.4574 65.3882 64.0456 65.5913 64.4349 65.9976C64.8285 66.3996 65.0253 67.0449 65.0253 67.9336V72.4722H63.9715ZM70.2715 72.5991C69.2431 72.5991 68.4306 72.286 67.834 71.6597C67.2415 71.0334 66.9453 70.1637 66.9453 69.0508C66.9453 67.9294 67.2204 67.0386 67.7705 66.3784C68.3249 65.7183 69.0675 65.3882 69.9985 65.3882C70.8703 65.3882 71.56 65.6759 72.0679 66.2515C72.5757 66.8228 72.8296 67.5781 72.8296 68.5176V69.1841H68.0371C68.0582 70.0008 68.2635 70.6208 68.6528 71.0439C69.0464 71.4671 69.5986 71.6787 70.3096 71.6787C71.0586 71.6787 71.7991 71.5221 72.5312 71.209V72.1484C72.1588 72.3092 71.8055 72.4235 71.4712 72.4912C71.1411 72.5632 70.7412 72.5991 70.2715 72.5991ZM69.9858 66.2705C69.4272 66.2705 68.9808 66.4525 68.6465 66.8164C68.3164 67.1803 68.1217 67.6839 68.0625 68.3271H71.6997C71.6997 67.6628 71.5516 67.1549 71.2554 66.8037C70.9591 66.4482 70.536 66.2705 69.9858 66.2705ZM79.523 72.4722V67.9717C79.523 67.4046 79.394 66.9814 79.1358 66.7021C78.8777 66.4229 78.4736 66.2832 77.9234 66.2832C77.1956 66.2832 76.6624 66.48 76.3238 66.8735C75.9853 67.2671 75.816 67.9167 75.816 68.8223V72.4722H74.7623V65.5151H75.6192L75.7906 66.4673H75.8414C76.0572 66.1245 76.3598 65.86 76.7491 65.6738C77.1384 65.4834 77.5722 65.3882 78.0504 65.3882C78.8883 65.3882 79.5188 65.5913 79.942 65.9976C80.3652 66.3996 80.5768 67.0449 80.5768 67.9336V72.4722H79.523ZM85.1247 71.7295C85.3109 71.7295 85.4908 71.7168 85.6643 71.6914C85.8378 71.6618 85.9753 71.6322 86.0769 71.6025V72.4087C85.9626 72.4637 85.7933 72.5081 85.5691 72.542C85.349 72.5801 85.1501 72.5991 84.9724 72.5991C83.6267 72.5991 82.9538 71.8903 82.9538 70.4727V66.334H81.9572V65.8262L82.9538 65.3882L83.3982 63.9028H84.0075V65.5151H86.0261V66.334H84.0075V70.4282C84.0075 70.8472 84.107 71.1688 84.3059 71.3931C84.5048 71.6174 84.7777 71.7295 85.1247 71.7295ZM93.8906 72.5991C92.8834 72.5991 92.1027 72.2902 91.5483 71.6724C90.9982 71.0503 90.7231 70.1722 90.7231 69.0381C90.7231 67.8743 91.0024 66.9751 91.561 66.3403C92.1238 65.7056 92.9236 65.3882 93.9604 65.3882C94.2947 65.3882 94.629 65.4242 94.9633 65.4961C95.2977 65.568 95.56 65.6527 95.7505 65.75L95.4267 66.645C95.194 66.5519 94.9401 66.4757 94.665 66.4165C94.3899 66.353 94.1466 66.3213 93.935 66.3213C92.5216 66.3213 91.8149 67.2227 91.8149 69.0254C91.8149 69.8802 91.9863 70.5361 92.3291 70.9932C92.6761 71.4502 93.1881 71.6787 93.8652 71.6787C94.4449 71.6787 95.0395 71.5539 95.6489 71.3042V72.2373C95.1834 72.4785 94.5973 72.5991 93.8906 72.5991ZM102.196 72.4722V67.9717C102.196 67.4046 102.067 66.9814 101.809 66.7021C101.551 66.4229 101.147 66.2832 100.597 66.2832C99.8647 66.2832 99.3293 66.4821 98.9908 66.8799C98.6565 67.2777 98.4893 67.9294 98.4893 68.835V72.4722H97.4356V62.5952H98.4893V65.585C98.4893 65.9447 98.4724 66.243 98.4386 66.48H98.502C98.7094 66.1457 99.0035 65.8833 99.3844 65.6929C99.7694 65.4982 100.207 65.4009 100.698 65.4009C101.549 65.4009 102.186 65.604 102.609 66.0103C103.036 66.4123 103.25 67.0534 103.25 67.9336V72.4722H102.196ZM111.556 68.9873C111.556 70.1214 111.27 71.008 110.699 71.647C110.128 72.2817 109.338 72.5991 108.331 72.5991C107.709 72.5991 107.157 72.4531 106.675 72.1611C106.192 71.8691 105.82 71.4502 105.557 70.9043C105.295 70.3584 105.164 69.7194 105.164 68.9873C105.164 67.8532 105.447 66.9709 106.014 66.3403C106.581 65.7056 107.369 65.3882 108.376 65.3882C109.349 65.3882 110.121 65.7119 110.693 66.3594C111.268 67.0068 111.556 67.8828 111.556 68.9873ZM106.256 68.9873C106.256 69.876 106.433 70.5531 106.789 71.0186C107.144 71.484 107.667 71.7168 108.357 71.7168C109.046 71.7168 109.569 71.4862 109.925 71.0249C110.284 70.5594 110.464 69.8802 110.464 68.9873C110.464 68.1029 110.284 67.4321 109.925 66.9751C109.569 66.5138 109.042 66.2832 108.344 66.2832C107.654 66.2832 107.134 66.5096 106.782 66.9624C106.431 67.4152 106.256 68.0902 106.256 68.9873ZM118.027 70.5742C118.027 71.2217 117.786 71.721 117.304 72.0723C116.821 72.4235 116.144 72.5991 115.272 72.5991C114.35 72.5991 113.63 72.4531 113.114 72.1611V71.1836C113.448 71.3529 113.806 71.4862 114.187 71.5835C114.572 71.6808 114.942 71.7295 115.298 71.7295C115.848 71.7295 116.271 71.6427 116.567 71.4692C116.863 71.2915 117.012 71.0228 117.012 70.6631C117.012 70.3923 116.893 70.1616 116.656 69.9712C116.423 69.7765 115.966 69.548 115.285 69.2856C114.638 69.0444 114.176 68.835 113.901 68.6572C113.63 68.4753 113.427 68.27 113.292 68.0415C113.161 67.813 113.095 67.54 113.095 67.2227C113.095 66.6556 113.326 66.2091 113.787 65.8833C114.248 65.5532 114.881 65.3882 115.685 65.3882C116.434 65.3882 117.166 65.5405 117.881 65.8452L117.507 66.7021C116.808 66.4144 116.176 66.2705 115.609 66.2705C115.109 66.2705 114.733 66.3488 114.479 66.5054C114.225 66.6619 114.098 66.8778 114.098 67.1528C114.098 67.339 114.145 67.4977 114.238 67.6289C114.335 67.7601 114.489 67.8849 114.701 68.0034C114.913 68.1219 115.319 68.2933 115.92 68.5176C116.745 68.818 117.301 69.1206 117.589 69.4253C117.881 69.73 118.027 70.113 118.027 70.5742ZM122.816 72.5991C121.788 72.5991 120.976 72.286 120.379 71.6597C119.786 71.0334 119.49 70.1637 119.49 69.0508C119.49 67.9294 119.765 67.0386 120.315 66.3784C120.87 65.7183 121.612 65.3882 122.543 65.3882C123.415 65.3882 124.105 65.6759 124.613 66.2515C125.121 66.8228 125.374 67.5781 125.374 68.5176V69.1841H120.582C120.603 70.0008 120.808 70.6208 121.198 71.0439C121.591 71.4671 122.143 71.6787 122.854 71.6787C123.603 71.6787 124.344 71.5221 125.076 71.209V72.1484C124.704 72.3092 124.35 72.4235 124.016 72.4912C123.686 72.5632 123.286 72.5991 122.816 72.5991ZM122.531 66.2705C121.972 66.2705 121.526 66.4525 121.191 66.8164C120.861 67.1803 120.667 67.6839 120.607 68.3271H124.245C124.245 67.6628 124.096 67.1549 123.8 66.8037C123.504 66.4482 123.081 66.2705 122.531 66.2705ZM133.061 71.7295C133.247 71.7295 133.427 71.7168 133.601 71.6914C133.774 71.6618 133.912 71.6322 134.013 71.6025V72.4087C133.899 72.4637 133.73 72.5081 133.506 72.542C133.285 72.5801 133.087 72.5991 132.909 72.5991C131.563 72.5991 130.89 71.8903 130.89 70.4727V66.334H129.894V65.8262L130.89 65.3882L131.335 63.9028H131.944V65.5151H133.963V66.334H131.944V70.4282C131.944 70.8472 132.043 71.1688 132.242 71.3931C132.441 71.6174 132.714 71.7295 133.061 71.7295ZM140.301 72.4722V67.9717C140.301 67.4046 140.172 66.9814 139.913 66.7021C139.655 66.4229 139.251 66.2832 138.701 66.2832C137.969 66.2832 137.434 66.4821 137.095 66.8799C136.761 67.2777 136.594 67.9294 136.594 68.835V72.4722H135.54V62.5952H136.594V65.585C136.594 65.9447 136.577 66.243 136.543 66.48H136.606C136.814 66.1457 137.108 65.8833 137.489 65.6929C137.874 65.4982 138.312 65.4009 138.803 65.4009C139.653 65.4009 140.29 65.604 140.713 66.0103C141.141 66.4123 141.354 67.0534 141.354 67.9336V72.4722H140.301ZM144.709 72.4722H143.655V65.5151H144.709V72.4722ZM143.566 63.6299C143.566 63.3887 143.626 63.2131 143.744 63.103C143.863 62.9888 144.011 62.9316 144.188 62.9316C144.358 62.9316 144.504 62.9888 144.626 63.103C144.749 63.2173 144.81 63.3929 144.81 63.6299C144.81 63.8669 144.749 64.0446 144.626 64.1631C144.504 64.2773 144.358 64.3345 144.188 64.3345C144.011 64.3345 143.863 64.2773 143.744 64.1631C143.626 64.0446 143.566 63.8669 143.566 63.6299ZM151.561 70.5742C151.561 71.2217 151.32 71.721 150.837 72.0723C150.355 72.4235 149.678 72.5991 148.806 72.5991C147.884 72.5991 147.164 72.4531 146.648 72.1611V71.1836C146.982 71.3529 147.34 71.4862 147.721 71.5835C148.106 71.6808 148.476 71.7295 148.832 71.7295C149.382 71.7295 149.805 71.6427 150.101 71.4692C150.397 71.2915 150.545 71.0228 150.545 70.6631C150.545 70.3923 150.427 70.1616 150.19 69.9712C149.957 69.7765 149.5 69.548 148.819 69.2856C148.171 69.0444 147.71 68.835 147.435 68.6572C147.164 68.4753 146.961 68.27 146.826 68.0415C146.695 67.813 146.629 67.54 146.629 67.2227C146.629 66.6556 146.86 66.2091 147.321 65.8833C147.782 65.5532 148.415 65.3882 149.219 65.3882C149.968 65.3882 150.7 65.5405 151.415 65.8452L151.041 66.7021C150.342 66.4144 149.71 66.2705 149.143 66.2705C148.643 66.2705 148.267 66.3488 148.013 66.5054C147.759 66.6619 147.632 66.8778 147.632 67.1528C147.632 67.339 147.678 67.4977 147.772 67.6289C147.869 67.7601 148.023 67.8849 148.235 68.0034C148.446 68.1219 148.853 68.2933 149.454 68.5176C150.279 68.818 150.835 69.1206 151.123 69.4253C151.415 69.73 151.561 70.113 151.561 70.5742ZM162.923 68.9873C162.923 70.1214 162.637 71.008 162.066 71.647C161.495 72.2817 160.706 72.5991 159.699 72.5991C159.076 72.5991 158.524 72.4531 158.042 72.1611C157.559 71.8691 157.187 71.4502 156.925 70.9043C156.662 70.3584 156.531 69.7194 156.531 68.9873C156.531 67.8532 156.815 66.9709 157.382 66.3403C157.949 65.7056 158.736 65.3882 159.743 65.3882C160.716 65.3882 161.489 65.7119 162.06 66.3594C162.635 67.0068 162.923 67.8828 162.923 68.9873ZM157.623 68.9873C157.623 69.876 157.801 70.5531 158.156 71.0186C158.512 71.484 159.034 71.7168 159.724 71.7168C160.414 71.7168 160.936 71.4862 161.292 71.0249C161.651 70.5594 161.831 69.8802 161.831 68.9873C161.831 68.1029 161.651 67.4321 161.292 66.9751C160.936 66.5138 160.409 66.2832 159.711 66.2832C159.021 66.2832 158.501 66.5096 158.15 66.9624C157.798 67.4152 157.623 68.0902 157.623 68.9873ZM168.144 72.5991C167.691 72.5991 167.276 72.5166 166.9 72.3516C166.527 72.1823 166.214 71.9242 165.96 71.5771H165.884C165.935 71.9834 165.96 72.3685 165.96 72.7324V75.5952H164.907V65.5151H165.764L165.91 66.4673H165.96C166.231 66.0864 166.546 65.8114 166.906 65.6421C167.266 65.4728 167.678 65.3882 168.144 65.3882C169.066 65.3882 169.777 65.7035 170.277 66.334C170.78 66.9645 171.032 67.849 171.032 68.9873C171.032 70.1299 170.776 71.0186 170.264 71.6533C169.756 72.2839 169.05 72.5991 168.144 72.5991ZM167.992 66.2832C167.281 66.2832 166.767 66.48 166.449 66.8735C166.132 67.2671 165.969 67.8934 165.96 68.7524V68.9873C165.96 69.9648 166.123 70.6652 166.449 71.0884C166.775 71.5073 167.298 71.7168 168.017 71.7168C168.618 71.7168 169.088 71.4735 169.426 70.9868C169.769 70.5002 169.94 69.8294 169.94 68.9746C169.94 68.1071 169.769 67.4427 169.426 66.9814C169.088 66.516 168.609 66.2832 167.992 66.2832ZM175.256 71.7295C175.443 71.7295 175.622 71.7168 175.796 71.6914C175.969 71.6618 176.107 71.6322 176.209 71.6025V72.4087C176.094 72.4637 175.925 72.5081 175.701 72.542C175.481 72.5801 175.282 72.5991 175.104 72.5991C173.758 72.5991 173.085 71.8903 173.085 70.4727V66.334H172.089V65.8262L173.085 65.3882L173.53 63.9028H174.139V65.5151H176.158V66.334H174.139V70.4282C174.139 70.8472 174.239 71.1688 174.438 71.3931C174.636 71.6174 174.909 71.7295 175.256 71.7295ZM178.789 72.4722H177.735V65.5151H178.789V72.4722ZM177.646 63.6299C177.646 63.3887 177.705 63.2131 177.824 63.103C177.942 62.9888 178.09 62.9316 178.268 62.9316C178.437 62.9316 178.583 62.9888 178.706 63.103C178.829 63.2173 178.89 63.3929 178.89 63.6299C178.89 63.8669 178.829 64.0446 178.706 64.1631C178.583 64.2773 178.437 64.3345 178.268 64.3345C178.09 64.3345 177.942 64.2773 177.824 64.1631C177.705 64.0446 177.646 63.8669 177.646 63.6299ZM187.158 68.9873C187.158 70.1214 186.872 71.008 186.301 71.647C185.73 72.2817 184.941 72.5991 183.933 72.5991C183.311 72.5991 182.759 72.4531 182.277 72.1611C181.794 71.8691 181.422 71.4502 181.159 70.9043C180.897 70.3584 180.766 69.7194 180.766 68.9873C180.766 67.8532 181.049 66.9709 181.616 66.3403C182.184 65.7056 182.971 65.3882 183.978 65.3882C184.951 65.3882 185.723 65.7119 186.295 66.3594C186.87 67.0068 187.158 67.8828 187.158 68.9873ZM181.858 68.9873C181.858 69.876 182.035 70.5531 182.391 71.0186C182.746 71.484 183.269 71.7168 183.959 71.7168C184.649 71.7168 185.171 71.4862 185.527 71.0249C185.886 70.5594 186.066 69.8802 186.066 68.9873C186.066 68.1029 185.886 67.4321 185.527 66.9751C185.171 66.5138 184.644 66.2832 183.946 66.2832C183.256 66.2832 182.736 66.5096 182.385 66.9624C182.033 67.4152 181.858 68.0902 181.858 68.9873ZM193.902 72.4722V67.9717C193.902 67.4046 193.773 66.9814 193.515 66.7021C193.257 66.4229 192.853 66.2832 192.303 66.2832C191.575 66.2832 191.042 66.48 190.703 66.8735C190.364 67.2671 190.195 67.9167 190.195 68.8223V72.4722H189.141V65.5151H189.998L190.17 66.4673H190.221C190.436 66.1245 190.739 65.86 191.128 65.6738C191.518 65.4834 191.951 65.3882 192.43 65.3882C193.267 65.3882 193.898 65.5913 194.321 65.9976C194.744 66.3996 194.956 67.0449 194.956 67.9336V72.4722H193.902ZM197.104 71.7993C197.104 71.5158 197.168 71.3021 197.295 71.1582C197.426 71.0101 197.612 70.936 197.854 70.936C198.099 70.936 198.289 71.0101 198.425 71.1582C198.564 71.3021 198.634 71.5158 198.634 71.7993C198.634 72.0744 198.564 72.286 198.425 72.4341C198.285 72.5822 198.095 72.6562 197.854 72.6562C197.638 72.6562 197.458 72.5907 197.314 72.4595C197.174 72.3241 197.104 72.104 197.104 71.7993ZM200.7 71.7993C200.7 71.5158 200.764 71.3021 200.891 71.1582C201.022 71.0101 201.208 70.936 201.449 70.936C201.695 70.936 201.885 71.0101 202.021 71.1582C202.16 71.3021 202.23 71.5158 202.23 71.7993C202.23 72.0744 202.16 72.286 202.021 72.4341C201.881 72.5822 201.691 72.6562 201.449 72.6562C201.234 72.6562 201.054 72.5907 200.91 72.4595C200.77 72.3241 200.7 72.104 200.7 71.7993ZM204.296 71.7993C204.296 71.5158 204.36 71.3021 204.487 71.1582C204.618 71.0101 204.804 70.936 205.045 70.936C205.291 70.936 205.481 71.0101 205.616 71.1582C205.756 71.3021 205.826 71.5158 205.826 71.7993C205.826 72.0744 205.756 72.286 205.616 72.4341C205.477 72.5822 205.286 72.6562 205.045 72.6562C204.829 72.6562 204.649 72.5907 204.506 72.4595C204.366 72.3241 204.296 72.104 204.296 71.7993Z" fill="black"/>
</g>
<g opacity="0.9">
<rect x="12.8076" y="96.4722" width="192" height="38" rx="6" fill="#FAFAFA"/>
<rect x="22.8076" y="106.472" width="17" height="17" rx="3" fill="#202020"/>
<path d="M26.7051 114.972L29.7735 118.041L35.9102 111.904" stroke="white" stroke-width="1.5"/>
<path opacity="0.5" d="M53.9678 113.896C53.9678 114.835 53.6462 115.559 53.0029 116.067C52.3639 116.57 51.4478 116.822 50.2544 116.822H49.1626V120.472H48.0835V111.192H50.4893C52.8083 111.192 53.9678 112.093 53.9678 113.896ZM49.1626 115.896H50.1338C51.0902 115.896 51.7821 115.741 52.2095 115.432C52.6369 115.123 52.8506 114.628 52.8506 113.947C52.8506 113.333 52.6496 112.876 52.2476 112.576C51.8455 112.275 51.2192 112.125 50.3687 112.125H49.1626V115.896ZM59.0616 113.388C59.3706 113.388 59.6477 113.414 59.8932 113.464L59.7472 114.442C59.4594 114.378 59.2055 114.347 58.9855 114.347C58.4226 114.347 57.9402 114.575 57.5382 115.032C57.1404 115.489 56.9415 116.058 56.9415 116.74V120.472H55.8878V113.515H56.7574L56.878 114.804H56.9288C57.187 114.351 57.498 114.002 57.8619 113.756C58.2259 113.511 58.6258 113.388 59.0616 113.388ZM65.6028 120.472L65.3933 119.482H65.3425C64.9955 119.918 64.6485 120.214 64.3015 120.371C63.9587 120.523 63.5292 120.599 63.0129 120.599C62.3232 120.599 61.7815 120.421 61.3879 120.066C60.9986 119.71 60.8039 119.205 60.8039 118.549C60.8039 117.144 61.9275 116.408 64.1746 116.34L65.3552 116.302V115.87C65.3552 115.324 65.2367 114.922 64.9997 114.664C64.767 114.402 64.3925 114.271 63.8762 114.271C63.2965 114.271 62.6405 114.448 61.9084 114.804L61.5847 113.998C61.9275 113.811 62.302 113.665 62.7082 113.56C63.1187 113.454 63.5292 113.401 63.9397 113.401C64.7691 113.401 65.3827 113.585 65.7805 113.953C66.1825 114.321 66.3835 114.912 66.3835 115.724V120.472H65.6028ZM63.2224 119.729C63.8783 119.729 64.3925 119.55 64.7649 119.19C65.1415 118.83 65.3298 118.327 65.3298 117.679V117.051L64.2761 117.095C63.4382 117.125 62.8331 117.256 62.4607 117.489C62.0925 117.717 61.9084 118.075 61.9084 118.562C61.9084 118.942 62.0227 119.232 62.2512 119.431C62.484 119.63 62.8077 119.729 63.2224 119.729ZM73.1786 118.574C73.1786 119.222 72.9374 119.721 72.4549 120.072C71.9725 120.424 71.2954 120.599 70.4237 120.599C69.5012 120.599 68.7818 120.453 68.2655 120.161V119.184C68.5998 119.353 68.9574 119.486 69.3382 119.583C69.7233 119.681 70.0936 119.729 70.4491 119.729C70.9992 119.729 71.4224 119.643 71.7186 119.469C72.0148 119.292 72.1629 119.023 72.1629 118.663C72.1629 118.392 72.0445 118.162 71.8075 117.971C71.5747 117.777 71.1177 117.548 70.4364 117.286C69.7889 117.044 69.3277 116.835 69.0526 116.657C68.7818 116.475 68.5786 116.27 68.4432 116.042C68.312 115.813 68.2464 115.54 68.2464 115.223C68.2464 114.656 68.4771 114.209 68.9383 113.883C69.3996 113.553 70.0323 113.388 70.8363 113.388C71.5853 113.388 72.3174 113.541 73.0326 113.845L72.6581 114.702C71.9598 114.414 71.3272 114.271 70.7601 114.271C70.2608 114.271 69.8841 114.349 69.6302 114.505C69.3763 114.662 69.2494 114.878 69.2494 115.153C69.2494 115.339 69.2959 115.498 69.389 115.629C69.4864 115.76 69.6408 115.885 69.8524 116.003C70.064 116.122 70.4702 116.293 71.0712 116.518C71.8963 116.818 72.4528 117.121 72.7406 117.425C73.0326 117.73 73.1786 118.113 73.1786 118.574ZM81.316 120.599C80.3089 120.599 79.5281 120.29 78.9737 119.672C78.4236 119.05 78.1485 118.172 78.1485 117.038C78.1485 115.874 78.4278 114.975 78.9864 114.34C79.5493 113.706 80.3491 113.388 81.3858 113.388C81.7201 113.388 82.0545 113.424 82.3888 113.496C82.7231 113.568 82.9854 113.653 83.1759 113.75L82.8521 114.645C82.6194 114.552 82.3655 114.476 82.0904 114.417C81.8154 114.353 81.572 114.321 81.3604 114.321C79.947 114.321 79.2403 115.223 79.2403 117.025C79.2403 117.88 79.4117 118.536 79.7545 118.993C80.1015 119.45 80.6135 119.679 81.2906 119.679C81.8704 119.679 82.4649 119.554 83.0743 119.304V120.237C82.6088 120.479 82.0227 120.599 81.316 120.599ZM89.6218 120.472V115.972C89.6218 115.405 89.4927 114.981 89.2346 114.702C88.9765 114.423 88.5723 114.283 88.0222 114.283C87.2901 114.283 86.7548 114.482 86.4162 114.88C86.0819 115.278 85.9148 115.929 85.9148 116.835V120.472H84.8611V110.595H85.9148V113.585C85.9148 113.945 85.8978 114.243 85.864 114.48H85.9275C86.1348 114.146 86.4289 113.883 86.8098 113.693C87.1949 113.498 87.6329 113.401 88.1237 113.401C88.9743 113.401 89.6112 113.604 90.0344 114.01C90.4618 114.412 90.6755 115.053 90.6755 115.934V120.472H89.6218ZM98.9813 116.987C98.9813 118.121 98.6956 119.008 98.1244 119.647C97.5531 120.282 96.7638 120.599 95.7567 120.599C95.1346 120.599 94.5824 120.453 94.0999 120.161C93.6175 119.869 93.2451 119.45 92.9828 118.904C92.7204 118.358 92.5892 117.719 92.5892 116.987C92.5892 115.853 92.8727 114.971 93.4398 114.34C94.0068 113.706 94.794 113.388 95.8011 113.388C96.7744 113.388 97.5467 113.712 98.118 114.359C98.6935 115.007 98.9813 115.883 98.9813 116.987ZM93.681 116.987C93.681 117.876 93.8587 118.553 94.2142 119.019C94.5697 119.484 95.0923 119.717 95.7821 119.717C96.4718 119.717 96.9945 119.486 97.3499 119.025C97.7096 118.559 97.8895 117.88 97.8895 116.987C97.8895 116.103 97.7096 115.432 97.3499 114.975C96.9945 114.514 96.4676 114.283 95.7694 114.283C95.0796 114.283 94.5591 114.51 94.2079 114.962C93.8566 115.415 93.681 116.09 93.681 116.987ZM105.453 118.574C105.453 119.222 105.211 119.721 104.729 120.072C104.247 120.424 103.569 120.599 102.698 120.599C101.775 120.599 101.056 120.453 100.54 120.161V119.184C100.874 119.353 101.231 119.486 101.612 119.583C101.997 119.681 102.368 119.729 102.723 119.729C103.273 119.729 103.696 119.643 103.993 119.469C104.289 119.292 104.437 119.023 104.437 118.663C104.437 118.392 104.318 118.162 104.082 117.971C103.849 117.777 103.392 117.548 102.71 117.286C102.063 117.044 101.602 116.835 101.327 116.657C101.056 116.475 100.853 116.27 100.717 116.042C100.586 115.813 100.52 115.54 100.52 115.223C100.52 114.656 100.751 114.209 101.212 113.883C101.674 113.553 102.306 113.388 103.11 113.388C103.859 113.388 104.591 113.541 105.307 113.845L104.932 114.702C104.234 114.414 103.601 114.271 103.034 114.271C102.535 114.271 102.158 114.349 101.904 114.505C101.65 114.662 101.523 114.878 101.523 115.153C101.523 115.339 101.57 115.498 101.663 115.629C101.76 115.76 101.915 115.885 102.126 116.003C102.338 116.122 102.744 116.293 103.345 116.518C104.17 116.818 104.727 117.121 105.015 117.425C105.307 117.73 105.453 118.113 105.453 118.574ZM110.242 120.599C109.213 120.599 108.401 120.286 107.804 119.66C107.212 119.033 106.916 118.164 106.916 117.051C106.916 115.929 107.191 115.039 107.741 114.378C108.295 113.718 109.038 113.388 109.969 113.388C110.841 113.388 111.53 113.676 112.038 114.251C112.546 114.823 112.8 115.578 112.8 116.518V117.184H108.007C108.029 118.001 108.234 118.621 108.623 119.044C109.017 119.467 109.569 119.679 110.28 119.679C111.029 119.679 111.769 119.522 112.502 119.209V120.148C112.129 120.309 111.776 120.424 111.441 120.491C111.111 120.563 110.712 120.599 110.242 120.599ZM109.956 114.271C109.398 114.271 108.951 114.452 108.617 114.816C108.287 115.18 108.092 115.684 108.033 116.327H111.67C111.67 115.663 111.522 115.155 111.226 114.804C110.929 114.448 110.506 114.271 109.956 114.271ZM120.487 119.729C120.673 119.729 120.853 119.717 121.026 119.691C121.2 119.662 121.337 119.632 121.439 119.603V120.409C121.325 120.464 121.155 120.508 120.931 120.542C120.711 120.58 120.512 120.599 120.334 120.599C118.989 120.599 118.316 119.89 118.316 118.473V114.334H117.319V113.826L118.316 113.388L118.76 111.903H119.369V113.515H121.388V114.334H119.369V118.428C119.369 118.847 119.469 119.169 119.668 119.393C119.867 119.617 120.14 119.729 120.487 119.729ZM127.726 120.472V115.972C127.726 115.405 127.597 114.981 127.339 114.702C127.081 114.423 126.677 114.283 126.126 114.283C125.394 114.283 124.859 114.482 124.52 114.88C124.186 115.278 124.019 115.929 124.019 116.835V120.472H122.965V110.595H124.019V113.585C124.019 113.945 124.002 114.243 123.968 114.48H124.032C124.239 114.146 124.533 113.883 124.914 113.693C125.299 113.498 125.737 113.401 126.228 113.401C127.079 113.401 127.715 113.604 128.139 114.01C128.566 114.412 128.78 115.053 128.78 115.934V120.472H127.726ZM132.134 120.472H131.081V113.515H132.134V120.472ZM130.992 111.63C130.992 111.389 131.051 111.213 131.169 111.103C131.288 110.989 131.436 110.932 131.614 110.932C131.783 110.932 131.929 110.989 132.052 111.103C132.175 111.217 132.236 111.393 132.236 111.63C132.236 111.867 132.175 112.045 132.052 112.163C131.929 112.277 131.783 112.334 131.614 112.334C131.436 112.334 131.288 112.277 131.169 112.163C131.051 112.045 130.992 111.867 130.992 111.63ZM138.987 118.574C138.987 119.222 138.745 119.721 138.263 120.072C137.78 120.424 137.103 120.599 136.232 120.599C135.309 120.599 134.59 120.453 134.073 120.161V119.184C134.408 119.353 134.765 119.486 135.146 119.583C135.531 119.681 135.902 119.729 136.257 119.729C136.807 119.729 137.23 119.643 137.527 119.469C137.823 119.292 137.971 119.023 137.971 118.663C137.971 118.392 137.852 118.162 137.615 117.971C137.383 117.777 136.926 117.548 136.244 117.286C135.597 117.044 135.136 116.835 134.861 116.657C134.59 116.475 134.387 116.27 134.251 116.042C134.12 115.813 134.054 115.54 134.054 115.223C134.054 114.656 134.285 114.209 134.746 113.883C135.208 113.553 135.84 113.388 136.644 113.388C137.393 113.388 138.125 113.541 138.841 113.845L138.466 114.702C137.768 114.414 137.135 114.271 136.568 114.271C136.069 114.271 135.692 114.349 135.438 114.505C135.184 114.662 135.057 114.878 135.057 115.153C135.057 115.339 135.104 115.498 135.197 115.629C135.294 115.76 135.449 115.885 135.66 116.003C135.872 116.122 136.278 116.293 136.879 116.518C137.704 116.818 138.261 117.121 138.549 117.425C138.841 117.73 138.987 118.113 138.987 118.574ZM150.349 116.987C150.349 118.121 150.063 119.008 149.492 119.647C148.92 120.282 148.131 120.599 147.124 120.599C146.502 120.599 145.95 120.453 145.467 120.161C144.985 119.869 144.612 119.45 144.35 118.904C144.088 118.358 143.956 117.719 143.956 116.987C143.956 115.853 144.24 114.971 144.807 114.34C145.374 113.706 146.161 113.388 147.168 113.388C148.142 113.388 148.914 113.712 149.485 114.359C150.061 115.007 150.349 115.883 150.349 116.987ZM145.048 116.987C145.048 117.876 145.226 118.553 145.581 119.019C145.937 119.484 146.46 119.717 147.149 119.717C147.839 119.717 148.362 119.486 148.717 119.025C149.077 118.559 149.257 117.88 149.257 116.987C149.257 116.103 149.077 115.432 148.717 114.975C148.362 114.514 147.835 114.283 147.137 114.283C146.447 114.283 145.926 114.51 145.575 114.962C145.224 115.415 145.048 116.09 145.048 116.987ZM155.569 120.599C155.117 120.599 154.702 120.517 154.325 120.352C153.953 120.182 153.64 119.924 153.386 119.577H153.31C153.36 119.983 153.386 120.368 153.386 120.732V123.595H152.332V113.515H153.189L153.335 114.467H153.386C153.657 114.086 153.972 113.811 154.332 113.642C154.691 113.473 155.104 113.388 155.569 113.388C156.492 113.388 157.203 113.703 157.702 114.334C158.206 114.965 158.458 115.849 158.458 116.987C158.458 118.13 158.202 119.019 157.689 119.653C157.182 120.284 156.475 120.599 155.569 120.599ZM155.417 114.283C154.706 114.283 154.192 114.48 153.875 114.874C153.557 115.267 153.394 115.893 153.386 116.752V116.987C153.386 117.965 153.549 118.665 153.875 119.088C154.2 119.507 154.723 119.717 155.442 119.717C156.043 119.717 156.513 119.473 156.852 118.987C157.194 118.5 157.366 117.829 157.366 116.975C157.366 116.107 157.194 115.443 156.852 114.981C156.513 114.516 156.035 114.283 155.417 114.283ZM162.682 119.729C162.868 119.729 163.048 119.717 163.221 119.691C163.395 119.662 163.532 119.632 163.634 119.603V120.409C163.52 120.464 163.35 120.508 163.126 120.542C162.906 120.58 162.707 120.599 162.529 120.599C161.184 120.599 160.511 119.89 160.511 118.473V114.334H159.514V113.826L160.511 113.388L160.955 111.903H161.565V113.515H163.583V114.334H161.565V118.428C161.565 118.847 161.664 119.169 161.863 119.393C162.062 119.617 162.335 119.729 162.682 119.729ZM166.214 120.472H165.16V113.515H166.214V120.472ZM165.072 111.63C165.072 111.389 165.131 111.213 165.249 111.103C165.368 110.989 165.516 110.932 165.694 110.932C165.863 110.932 166.009 110.989 166.132 111.103C166.254 111.217 166.316 111.393 166.316 111.63C166.316 111.867 166.254 112.045 166.132 112.163C166.009 112.277 165.863 112.334 165.694 112.334C165.516 112.334 165.368 112.277 165.249 112.163C165.131 112.045 165.072 111.867 165.072 111.63ZM174.583 116.987C174.583 118.121 174.298 119.008 173.726 119.647C173.155 120.282 172.366 120.599 171.359 120.599C170.737 120.599 170.184 120.453 169.702 120.161C169.22 119.869 168.847 119.45 168.585 118.904C168.322 118.358 168.191 117.719 168.191 116.987C168.191 115.853 168.475 114.971 169.042 114.34C169.609 113.706 170.396 113.388 171.403 113.388C172.377 113.388 173.149 113.712 173.72 114.359C174.296 115.007 174.583 115.883 174.583 116.987ZM169.283 116.987C169.283 117.876 169.461 118.553 169.816 119.019C170.172 119.484 170.694 119.717 171.384 119.717C172.074 119.717 172.597 119.486 172.952 119.025C173.312 118.559 173.492 117.88 173.492 116.987C173.492 116.103 173.312 115.432 172.952 114.975C172.597 114.514 172.07 114.283 171.371 114.283C170.682 114.283 170.161 114.51 169.81 114.962C169.459 115.415 169.283 116.09 169.283 116.987ZM181.328 120.472V115.972C181.328 115.405 181.199 114.981 180.94 114.702C180.682 114.423 180.278 114.283 179.728 114.283C179 114.283 178.467 114.48 178.128 114.874C177.79 115.267 177.621 115.917 177.621 116.822V120.472H176.567V113.515H177.424L177.595 114.467H177.646C177.862 114.125 178.164 113.86 178.554 113.674C178.943 113.483 179.377 113.388 179.855 113.388C180.693 113.388 181.323 113.591 181.747 113.998C182.17 114.4 182.381 115.045 182.381 115.934V120.472H181.328ZM184.53 119.799C184.53 119.516 184.593 119.302 184.72 119.158C184.852 119.01 185.038 118.936 185.279 118.936C185.524 118.936 185.715 119.01 185.85 119.158C185.99 119.302 186.06 119.516 186.06 119.799C186.06 120.074 185.99 120.286 185.85 120.434C185.711 120.582 185.52 120.656 185.279 120.656C185.063 120.656 184.883 120.591 184.739 120.459C184.6 120.324 184.53 120.104 184.53 119.799ZM188.126 119.799C188.126 119.516 188.189 119.302 188.316 119.158C188.447 119.01 188.634 118.936 188.875 118.936C189.12 118.936 189.311 119.01 189.446 119.158C189.586 119.302 189.656 119.516 189.656 119.799C189.656 120.074 189.586 120.286 189.446 120.434C189.306 120.582 189.116 120.656 188.875 120.656C188.659 120.656 188.479 120.591 188.335 120.459C188.196 120.324 188.126 120.104 188.126 119.799ZM191.722 119.799C191.722 119.516 191.785 119.302 191.912 119.158C192.043 119.01 192.229 118.936 192.471 118.936C192.716 118.936 192.906 119.01 193.042 119.158C193.182 119.302 193.251 119.516 193.251 119.799C193.251 120.074 193.182 120.286 193.042 120.434C192.902 120.582 192.712 120.656 192.471 120.656C192.255 120.656 192.075 120.591 191.931 120.459C191.791 120.324 191.722 120.104 191.722 119.799Z" fill="black"/>
</g>
<rect x="36.8076" y="144.472" width="144" height="38" rx="6" fill="#FAFAFA"/>
<rect x="46.8076" y="154.472" width="17" height="17" rx="3" fill="#F3F3F3"/>
<path opacity="0.5" d="M79.1294 168.472H78.0503V164.105H73.1626V168.472H72.0835V159.192H73.1626V163.14H78.0503V159.192H79.1294V168.472ZM87.6573 164.987C87.6573 166.121 87.3717 167.008 86.8004 167.647C86.2291 168.282 85.4399 168.599 84.4327 168.599C83.8107 168.599 83.2584 168.453 82.776 168.161C82.2936 167.869 81.9212 167.45 81.6588 166.904C81.3964 166.358 81.2653 165.719 81.2653 164.987C81.2653 163.853 81.5488 162.971 82.1158 162.34C82.6829 161.706 83.47 161.388 84.4772 161.388C85.4505 161.388 86.2228 161.712 86.7941 162.359C87.3696 163.007 87.6573 163.883 87.6573 164.987ZM82.3571 164.987C82.3571 165.876 82.5348 166.553 82.8903 167.019C83.2457 167.484 83.7683 167.717 84.4581 167.717C85.1479 167.717 85.6705 167.486 86.026 167.025C86.3857 166.559 86.5655 165.88 86.5655 164.987C86.5655 164.103 86.3857 163.432 86.026 162.975C85.6705 162.514 85.1437 162.283 84.4454 162.283C83.7557 162.283 83.2351 162.51 82.8839 162.962C82.5327 163.415 82.3571 164.09 82.3571 164.987ZM95.322 168.472L94.0461 164.391C93.9657 164.141 93.8155 163.574 93.5954 162.689H93.5447C93.3754 163.43 93.2273 164.001 93.1003 164.403L91.7864 168.472H90.5676L88.6697 161.515H89.7742C90.2227 163.263 90.5634 164.594 90.7961 165.508C91.0331 166.422 91.1685 167.038 91.2024 167.355H91.2532C91.2997 167.114 91.3738 166.803 91.4753 166.422C91.5811 166.037 91.6721 165.732 91.7483 165.508L93.0242 161.515H94.1667L95.4109 165.508C95.6479 166.236 95.8087 166.847 95.8933 167.342H95.9441C95.961 167.19 96.0054 166.955 96.0774 166.638C96.1536 166.32 96.5958 164.613 97.404 161.515H98.4958L96.5725 168.472H95.322ZM107.674 168.472L107.465 167.482H107.414C107.067 167.918 106.72 168.214 106.373 168.371C106.03 168.523 105.601 168.599 105.084 168.599C104.395 168.599 103.853 168.421 103.459 168.066C103.07 167.71 102.875 167.205 102.875 166.549C102.875 165.144 103.999 164.408 106.246 164.34L107.427 164.302V163.87C107.427 163.324 107.308 162.922 107.071 162.664C106.839 162.402 106.464 162.271 105.948 162.271C105.368 162.271 104.712 162.448 103.98 162.804L103.656 161.998C103.999 161.811 104.374 161.665 104.78 161.56C105.19 161.454 105.601 161.401 106.011 161.401C106.841 161.401 107.454 161.585 107.852 161.953C108.254 162.321 108.455 162.912 108.455 163.724V168.472H107.674ZM105.294 167.729C105.95 167.729 106.464 167.55 106.836 167.19C107.213 166.83 107.401 166.327 107.401 165.679V165.051L106.348 165.095C105.51 165.125 104.905 165.256 104.532 165.489C104.164 165.717 103.98 166.075 103.98 166.562C103.98 166.942 104.094 167.232 104.323 167.431C104.555 167.63 104.879 167.729 105.294 167.729ZM114 161.401C114.914 161.401 115.622 161.714 116.126 162.34C116.634 162.962 116.888 163.845 116.888 164.987C116.888 166.13 116.632 167.019 116.12 167.653C115.612 168.284 114.905 168.599 114 168.599C113.547 168.599 113.132 168.517 112.755 168.352C112.383 168.182 112.07 167.924 111.816 167.577H111.74L111.518 168.472H110.762V158.595H111.816V160.995C111.816 161.532 111.799 162.014 111.765 162.442H111.816C112.307 161.748 113.035 161.401 114 161.401ZM113.847 162.283C113.128 162.283 112.609 162.491 112.292 162.905C111.975 163.316 111.816 164.01 111.816 164.987C111.816 165.965 111.979 166.665 112.305 167.088C112.631 167.507 113.153 167.717 113.873 167.717C114.52 167.717 115.003 167.482 115.32 167.012C115.637 166.538 115.796 165.859 115.796 164.975C115.796 164.069 115.637 163.394 115.32 162.95C115.003 162.505 114.512 162.283 113.847 162.283ZM124.87 164.987C124.87 166.121 124.584 167.008 124.013 167.647C123.442 168.282 122.652 168.599 121.645 168.599C121.023 168.599 120.471 168.453 119.988 168.161C119.506 167.869 119.134 167.45 118.871 166.904C118.609 166.358 118.478 165.719 118.478 164.987C118.478 163.853 118.761 162.971 119.328 162.34C119.895 161.706 120.683 161.388 121.69 161.388C122.663 161.388 123.435 161.712 124.007 162.359C124.582 163.007 124.87 163.883 124.87 164.987ZM119.57 164.987C119.57 165.876 119.747 166.553 120.103 167.019C120.458 167.484 120.981 167.717 121.671 167.717C122.36 167.717 122.883 167.486 123.238 167.025C123.598 166.559 123.778 165.88 123.778 164.987C123.778 164.103 123.598 163.432 123.238 162.975C122.883 162.514 122.356 162.283 121.658 162.283C120.968 162.283 120.448 162.51 120.096 162.962C119.745 163.415 119.57 164.09 119.57 164.987ZM127.844 161.515V166.028C127.844 166.595 127.973 167.019 128.231 167.298C128.489 167.577 128.893 167.717 129.443 167.717C130.171 167.717 130.702 167.518 131.036 167.12C131.375 166.722 131.544 166.073 131.544 165.171V161.515H132.598V168.472H131.728L131.576 167.539H131.519C131.303 167.882 131.003 168.144 130.618 168.326C130.237 168.508 129.801 168.599 129.31 168.599C128.464 168.599 127.829 168.398 127.406 167.996C126.987 167.594 126.777 166.951 126.777 166.066V161.515H127.844ZM137.216 167.729C137.402 167.729 137.582 167.717 137.755 167.691C137.929 167.662 138.066 167.632 138.168 167.603V168.409C138.054 168.464 137.884 168.508 137.66 168.542C137.44 168.58 137.241 168.599 137.063 168.599C135.718 168.599 135.045 167.89 135.045 166.473V162.334H134.048V161.826L135.045 161.388L135.489 159.903H136.099V161.515H138.117V162.334H136.099V166.428C136.099 166.847 136.198 167.169 136.397 167.393C136.596 167.617 136.869 167.729 137.216 167.729ZM142.097 161.515H143.227L144.75 165.482C145.085 166.388 145.292 167.042 145.372 167.444H145.423C145.478 167.228 145.592 166.86 145.766 166.339C145.944 165.815 146.519 164.207 147.492 161.515H148.622L145.633 169.437C145.336 170.22 144.989 170.774 144.592 171.1C144.198 171.43 143.713 171.595 143.138 171.595C142.816 171.595 142.499 171.559 142.186 171.487V170.643C142.418 170.694 142.679 170.719 142.967 170.719C143.69 170.719 144.206 170.313 144.515 169.5L144.903 168.51L142.097 161.515ZM155.887 164.987C155.887 166.121 155.601 167.008 155.03 167.647C154.459 168.282 153.67 168.599 152.662 168.599C152.04 168.599 151.488 168.453 151.006 168.161C150.523 167.869 150.151 167.45 149.888 166.904C149.626 166.358 149.495 165.719 149.495 164.987C149.495 163.853 149.778 162.971 150.346 162.34C150.913 161.706 151.7 161.388 152.707 161.388C153.68 161.388 154.452 161.712 155.024 162.359C155.599 163.007 155.887 163.883 155.887 164.987ZM150.587 164.987C150.587 165.876 150.764 166.553 151.12 167.019C151.475 167.484 151.998 167.717 152.688 167.717C153.378 167.717 153.9 167.486 154.256 167.025C154.615 166.559 154.795 165.88 154.795 164.987C154.795 164.103 154.615 163.432 154.256 162.975C153.9 162.514 153.373 162.283 152.675 162.283C151.985 162.283 151.465 162.51 151.114 162.962C150.762 163.415 150.587 164.09 150.587 164.987ZM158.861 161.515V166.028C158.861 166.595 158.99 167.019 159.248 167.298C159.506 167.577 159.91 167.717 160.46 167.717C161.188 167.717 161.719 167.518 162.054 167.12C162.392 166.722 162.561 166.073 162.561 165.171V161.515H163.615V168.472H162.746L162.593 167.539H162.536C162.32 167.882 162.02 168.144 161.635 168.326C161.254 168.508 160.818 168.599 160.327 168.599C159.481 168.599 158.846 168.398 158.423 167.996C158.004 167.594 157.794 166.951 157.794 166.066V161.515H158.861ZM166.703 165.914V165.571C166.703 165.076 166.779 164.67 166.932 164.353C167.084 164.031 167.368 163.692 167.782 163.337C168.358 162.85 168.72 162.484 168.868 162.239C169.02 161.993 169.096 161.697 169.096 161.35C169.096 160.918 168.957 160.586 168.677 160.354C168.402 160.117 168.004 159.998 167.484 159.998C167.15 159.998 166.824 160.038 166.506 160.119C166.189 160.195 165.825 160.337 165.415 160.544L165.04 159.687C165.84 159.268 166.676 159.059 167.547 159.059C168.356 159.059 168.984 159.257 169.433 159.655C169.881 160.053 170.106 160.614 170.106 161.337C170.106 161.646 170.063 161.919 169.979 162.156C169.898 162.389 169.778 162.611 169.617 162.823C169.456 163.03 169.109 163.367 168.576 163.832C168.148 164.196 167.865 164.499 167.725 164.74C167.59 164.981 167.522 165.303 167.522 165.705V165.914H166.703ZM166.392 167.799C166.392 167.224 166.646 166.936 167.154 166.936C167.399 166.936 167.588 167.01 167.719 167.158C167.854 167.306 167.922 167.52 167.922 167.799C167.922 168.07 167.854 168.282 167.719 168.434C167.583 168.582 167.395 168.656 167.154 168.656C166.934 168.656 166.752 168.591 166.608 168.459C166.464 168.324 166.392 168.104 166.392 167.799Z" fill="black"/>
</svg>
