<svg width="201" height="23" viewBox="0 0 201 23" fill="none" xmlns="http://www.w3.org/2000/svg">
<g clip-path="url(#clip0_474_707)">
<path d="M182.528 6.34227V17.264C182.528 19.8727 184.631 22.0293 187.19 22.0293C189.293 22.0293 190.941 20.7423 191.536 18.8988L192.027 19.7684C192.903 21.2293 194.446 22.0293 196.023 22.0293C198.582 22.0293 200.615 20.0119 200.615 17.438C200.615 16.5684 200.405 15.7336 199.914 14.9684L198.091 12.0814C199.423 11.0727 200.229 9.47271 200.229 7.52488C200.229 3.94227 197.355 1.15967 193.675 1.15967H187.611C184.316 1.15967 182.528 2.93358 182.528 6.34227Z" fill="#787878"/>
<path d="M181.137 18.0303C181.137 16.0311 179.858 14.5229 178.095 14.1722C178.89 13.6461 179.374 12.7692 179.374 11.6118C179.374 10.4543 178.925 9.57744 178.095 9.05132C179.893 8.70058 181.137 7.22747 181.137 5.19318C181.137 2.94844 179.34 1.15967 177.162 1.15967H169.904C166.586 1.15967 164.789 2.94844 164.789 6.35062V16.8378C164.789 20.2751 166.586 22.0288 169.904 22.0288H177.162C179.34 22.0638 181.137 20.275 181.137 18.0303Z" fill="#787878"/>
<path d="M159.154 17.3336V10.1336C161.485 10.0292 163.398 8.0814 163.398 5.64662C163.398 3.14227 161.38 1.15967 158.911 1.15967H149.45C146.98 1.15967 144.963 3.10749 144.963 5.64662C144.963 8.0814 146.876 9.99445 149.206 10.1336V17.3336C149.206 19.9075 151.398 22.0293 154.111 22.0293C156.998 22.0293 159.154 19.9075 159.154 17.3336Z" fill="#787878"/>
<path d="M126.528 6.34227V17.264C126.528 19.8727 128.631 22.0293 131.19 22.0293C133.293 22.0293 134.941 20.7423 135.536 18.8988L136.027 19.7684C136.904 21.2293 138.446 22.0293 140.023 22.0293C142.582 22.0293 144.615 20.0119 144.615 17.438C144.615 16.5684 144.405 15.7336 143.914 14.9684L142.091 12.0814C143.423 11.0727 144.229 9.47271 144.229 7.52488C144.229 3.94227 141.355 1.15967 137.675 1.15967H131.611C128.351 1.15967 126.528 2.93358 126.528 6.34227Z" fill="#787878"/>
<path d="M115.022 18.0536C116.209 20.5068 117.884 21.6815 119.943 21.6815C123.643 21.6815 126.26 18.33 124.655 14.5638L120.362 4.61276C119.315 2.15955 117.744 0.812012 115.057 0.812012C112.404 0.812012 110.834 2.15955 109.752 4.61276L105.459 14.5638C103.818 18.33 106.471 21.6815 110.136 21.6815C112.16 21.6815 113.835 20.5068 115.022 18.0536Z" fill="#787878"/>
<path d="M102.798 17.3336V10.1336C105.133 10.0292 107.05 8.0814 107.05 5.64662C107.05 3.14227 105.029 1.15967 102.554 1.15967H93.1106C90.6364 1.15967 88.6152 3.10749 88.6152 5.64662C88.6152 8.0814 90.5319 9.99445 92.8667 10.1336V17.3336C92.8667 19.9075 95.0621 22.0293 97.7803 22.0293C100.603 22.0293 102.798 19.9075 102.798 17.3336Z" fill="#787878"/>
<path d="M88.6151 15.2593C88.6151 13.1655 87.5694 11.6998 86.001 10.304L84.7113 9.1524C86.5935 8.87323 87.8483 7.61694 87.8483 5.76739C87.8483 2.66156 85.3736 0.812012 80.1453 0.812012C75.0216 0.812012 72.024 3.39439 72.024 7.47735C72.024 9.57117 73.1045 11.0019 74.673 12.4327L75.9278 13.5843H75.8929C73.5576 13.5843 71.9194 14.9453 71.9194 17.074C71.9194 20.1449 74.4987 22.0294 80.0059 22.0294C85.4084 22.0294 88.6151 19.4121 88.6151 15.2593Z" fill="#787878"/>
<path d="M70.8764 17.0089C70.8764 16.0399 70.5955 15.1054 69.9987 14.2748L67.7518 11.1946L69.9987 8.11449C70.5955 7.31848 70.8764 6.34944 70.8764 5.38039C70.8764 2.81933 68.7348 0.846621 66.2071 0.846621C64.7325 0.846621 63.2579 1.57341 62.3451 2.81933L61.2569 4.34212C60.8356 2.3002 59.0451 0.812012 56.7631 0.812012C54.13 0.812012 52.0938 2.88855 52.0938 5.4496V17.0435C52.0938 19.6046 54.1651 21.6811 56.7631 21.6811C59.01 21.6811 60.7654 20.2968 61.2218 18.2895L62.2048 19.6738C63.1175 20.989 64.6272 21.6811 66.1017 21.6811C68.7348 21.7157 70.8764 19.57 70.8764 17.0089Z" fill="#787878"/>
<path d="M50.3543 15.9459C50.3543 13.7345 49.2478 12.1797 47.0347 11.2468C49.2478 10.3139 50.3543 8.79359 50.3543 6.54769C50.3543 3.19612 47.5534 0.812012 43.0581 0.812012C37.0413 0.812012 32.6152 5.26926 32.6152 11.2468C32.6152 17.2243 37.0413 21.6815 43.0581 21.6815C47.5534 21.6815 50.3543 19.2974 50.3543 15.9459Z" fill="#787878"/>
<path d="M25.85 0.812012C23.0384 0.812012 20.7891 3.10004 20.7891 5.80407V16.6895C20.7891 19.4282 23.0384 21.6815 25.8148 21.6815C28.6615 21.6815 30.8757 19.3935 30.8757 16.6895V5.80407C30.9108 3.10004 28.6615 0.812012 25.85 0.812012Z" fill="#787878"/>
<path d="M19.3978 17.0089C19.3978 16.0399 19.1175 15.1054 18.5218 14.2748L16.2791 11.1946L18.5218 8.11449C19.1175 7.31848 19.3978 6.34944 19.3978 5.38039C19.3978 2.81933 17.2602 0.846621 14.7372 0.846621C13.2654 0.846621 11.7937 1.57341 10.8826 2.81933L9.76124 4.34212C9.34073 2.3002 7.55358 0.812012 5.27584 0.812012C2.64768 0.812012 0.615234 2.88855 0.615234 5.4496V17.0435C0.615234 19.6046 2.68272 21.6811 5.27584 21.6811C7.51854 21.6811 9.27065 20.2968 9.7262 18.2895L10.7073 19.6738C11.6184 20.989 13.1253 21.6811 14.597 21.6811C17.2602 21.7157 19.3978 19.57 19.3978 17.0089Z" fill="#787878"/>
</g>
<defs>
<clipPath id="clip0_474_707">
<rect width="200" height="22" fill="white" transform="translate(0.615234 0.370605)"/>
</clipPath>
</defs>
</svg>
