<svg width="284" height="56" viewBox="0 0 284 56" fill="none" xmlns="http://www.w3.org/2000/svg">
<rect x="0.182617" width="283.25" height="56" rx="6" fill="#F3F3F3"/>
<path d="M25.1567 33H28.8848C32.0342 33 33.8872 31.0371 33.8872 27.6973V27.6826C33.8872 24.3574 32.0195 22.4312 28.8848 22.4312H25.1567V33ZM26.7974 31.5791V23.8447H28.731C30.9575 23.8447 32.21 25.2144 32.21 27.6973V27.7119C32.21 30.2095 30.9722 31.5791 28.731 31.5791H26.7974ZM38.7247 33.1538C40.9293 33.1538 42.3795 31.6304 42.3795 29.1475V29.1328C42.3795 26.6646 40.9146 25.1484 38.7174 25.1484C36.5274 25.1484 35.0699 26.6719 35.0699 29.1328V29.1475C35.0699 31.623 36.5128 33.1538 38.7247 33.1538ZM38.732 31.8281C37.4942 31.8281 36.6886 30.854 36.6886 29.1475V29.1328C36.6886 27.4482 37.5016 26.4741 38.7174 26.4741C39.9552 26.4741 40.7608 27.4482 40.7608 29.1328V29.1475C40.7608 30.8467 39.9698 31.8281 38.732 31.8281ZM43.7526 33H45.3347V28.5103C45.3347 27.3091 46.0524 26.5034 47.1657 26.5034C48.2644 26.5034 48.8063 27.1553 48.8063 28.3125V33H50.3957V28.0122C50.3957 26.2397 49.4216 25.1484 47.7297 25.1484C46.5651 25.1484 45.7741 25.6758 45.3713 26.4595H45.3347V25.2949H43.7526V33ZM54.3396 33.1392C55.3577 33.1392 56.2513 32.6118 56.698 31.7842H56.7273V33H58.3167V27.6899C58.3167 26.1445 57.1229 25.1484 55.2405 25.1484C53.3436 25.1484 52.1937 26.1665 52.0838 27.4922L52.0765 27.5728H53.5706L53.5853 27.5068C53.7171 26.8916 54.2811 26.4595 55.1966 26.4595C56.178 26.4595 56.7273 26.9722 56.7273 27.8218V28.4004L54.6326 28.5249C52.8089 28.6348 51.7688 29.4551 51.7688 30.7954V30.8101C51.7688 32.1943 52.8016 33.1392 54.3396 33.1392ZM53.3655 30.7734V30.7588C53.3655 30.1069 53.8929 29.6895 54.845 29.6309L56.7273 29.5137V30.1143C56.7273 31.1177 55.8851 31.8721 54.7718 31.8721C53.9222 31.8721 53.3655 31.4473 53.3655 30.7734ZM62.7074 33.1538C63.0297 33.1538 63.33 33.1172 63.5131 33.0879V31.8647C63.3959 31.8794 63.2567 31.894 63.0883 31.894C62.4218 31.894 62.0702 31.6597 62.0702 30.876V26.5547H63.5131V25.2949H62.0702V23.2881H60.4516V25.2949H59.3456V26.5547H60.4516V30.9712C60.4516 32.5093 61.184 33.1538 62.7074 33.1538ZM68.0723 33.1538C69.9399 33.1538 71.1265 32.0405 71.3755 30.8174L71.3901 30.7368H69.8887L69.8667 30.7954C69.6689 31.374 69.0464 31.8574 68.1089 31.8574C66.8491 31.8574 66.0508 31.0078 66.0215 29.5503H71.478V29.0156C71.478 26.7012 70.1523 25.1484 67.9917 25.1484C65.8311 25.1484 64.4395 26.7598 64.4395 29.1694V29.1768C64.4395 31.6084 65.8091 33.1538 68.0723 33.1538ZM67.999 26.4448C69.0317 26.4448 69.7788 27.0967 69.9106 28.4297H66.0435C66.1826 27.1406 66.9736 26.4448 67.999 26.4448ZM76.2458 33H77.8718V25.1704H77.9157L83.3576 33H84.8664V22.4312H83.2404V30.2461H83.1965L77.7619 22.4312H76.2458V33ZM90.0921 33.1538C92.2967 33.1538 93.7469 31.6304 93.7469 29.1475V29.1328C93.7469 26.6646 92.282 25.1484 90.0848 25.1484C87.8948 25.1484 86.4373 26.6719 86.4373 29.1328V29.1475C86.4373 31.623 87.8802 33.1538 90.0921 33.1538ZM90.0994 31.8281C88.8616 31.8281 88.056 30.854 88.056 29.1475V29.1328C88.056 27.4482 88.8689 26.4741 90.0848 26.4741C91.3226 26.4741 92.1282 27.4482 92.1282 29.1328V29.1475C92.1282 30.8467 91.3372 31.8281 90.0994 31.8281ZM96.6068 33H98.2401L99.8441 27.2285H99.8808L101.499 33H103.147L105.257 25.2949H103.689L102.283 31.3594H102.246L100.635 25.2949H99.1117L97.5077 31.3594H97.4784L96.0722 25.2949H94.4901L96.6068 33Z" fill="#787878"/>
<path d="M245.625 28.375L259.375 28.375" stroke="#787878" stroke-width="1.5" stroke-linecap="round" stroke-linejoin="round"/>
<path d="M253.75 34L259.375 28.375L253.75 22.75" stroke="#787878" stroke-width="1.5" stroke-linecap="round" stroke-linejoin="round"/>
</svg>
