<svg width="214" height="118" viewBox="0 0 214 118" fill="none" xmlns="http://www.w3.org/2000/svg">
<rect x="0.5" width="213" height="118" rx="10" fill="#F3F3F3"/>
<rect x="16.5" y="16" width="17" height="17" rx="3" fill="#787878"/>
<path d="M20.3975 24.5L23.4658 27.5683L29.6025 21.4316" stroke="white" stroke-width="1.5"/>
<path d="M47.5903 30L46.4478 27.0547H42.728L41.5918 30H40.5L44.1309 20.6816H45.1021L48.7075 30H47.5903ZM46.124 26.0962L45.0386 23.1699C45.0132 23.0938 44.9709 22.9689 44.9116 22.7954C44.8566 22.6219 44.7995 22.4421 44.7402 22.2559C44.681 22.0697 44.6323 21.9194 44.5942 21.8052C44.5519 21.9787 44.5054 22.1522 44.4546 22.3257C44.408 22.495 44.3615 22.6536 44.3149 22.8018C44.2684 22.9456 44.2282 23.0684 44.1943 23.1699L43.0898 26.0962H46.124ZM52.443 30.127C51.5628 30.127 50.8645 29.8265 50.3483 29.2256C49.8362 28.6247 49.5802 27.7318 49.5802 26.5469C49.5802 25.3493 49.8426 24.4458 50.3673 23.8364C50.892 23.2228 51.5903 22.916 52.462 22.916C52.8302 22.916 53.1518 22.9647 53.4269 23.062C53.7019 23.1593 53.9389 23.2905 54.1378 23.4556C54.3367 23.6164 54.5039 23.8005 54.6393 24.0078H54.7154C54.6985 23.8766 54.6816 23.6968 54.6647 23.4683C54.6477 23.2397 54.6393 23.0535 54.6393 22.9097V20.123H55.693V30H54.8424L54.6837 29.0098H54.6393C54.5081 29.2171 54.3409 29.4054 54.1378 29.5747C53.9389 29.744 53.6998 29.8794 53.4205 29.981C53.1455 30.0783 52.8196 30.127 52.443 30.127ZM52.608 29.251C53.3528 29.251 53.8797 29.0394 54.1886 28.6162C54.4975 28.193 54.652 27.5646 54.652 26.731V26.5405C54.652 25.6561 54.5039 24.9769 54.2076 24.5029C53.9156 24.029 53.3824 23.792 52.608 23.792C51.9606 23.792 51.476 24.0417 51.1544 24.541C50.8328 25.0361 50.672 25.7132 50.672 26.5723C50.672 27.4271 50.8307 28.0872 51.1481 28.5527C51.4697 29.0182 51.9563 29.251 52.608 29.251ZM60.5329 30.127C59.6527 30.127 58.9545 29.8265 58.4382 29.2256C57.9262 28.6247 57.6702 27.7318 57.6702 26.5469C57.6702 25.3493 57.9325 24.4458 58.4573 23.8364C58.982 23.2228 59.6802 22.916 60.552 22.916C60.9202 22.916 61.2418 22.9647 61.5168 23.062C61.7919 23.1593 62.0289 23.2905 62.2278 23.4556C62.4267 23.6164 62.5938 23.8005 62.7292 24.0078H62.8054C62.7885 23.8766 62.7716 23.6968 62.7546 23.4683C62.7377 23.2397 62.7292 23.0535 62.7292 22.9097V20.123H63.7829V30H62.9324L62.7737 29.0098H62.7292C62.5981 29.2171 62.4309 29.4054 62.2278 29.5747C62.0289 29.744 61.7898 29.8794 61.5105 29.981C61.2354 30.0783 60.9096 30.127 60.5329 30.127ZM60.698 29.251C61.4428 29.251 61.9696 29.0394 62.2786 28.6162C62.5875 28.193 62.7419 27.5646 62.7419 26.731V26.5405C62.7419 25.6561 62.5938 24.9769 62.2976 24.5029C62.0056 24.029 61.4724 23.792 60.698 23.792C60.0505 23.792 59.566 24.0417 59.2444 24.541C58.9228 25.0361 58.762 25.7132 58.762 26.5723C58.762 27.4271 58.9206 28.0872 59.238 28.5527C59.5596 29.0182 60.0463 29.251 60.698 29.251ZM72.6631 30H71.5776V21.6719H68.6577V20.7197H75.5703V21.6719H72.6631V30ZM77.9981 20.123V23.0747C77.9981 23.244 77.9939 23.4154 77.9855 23.5889C77.977 23.7581 77.9622 23.9147 77.941 24.0586H78.0108C78.1547 23.8132 78.3367 23.6079 78.5567 23.4429C78.781 23.2736 79.0349 23.1466 79.3185 23.062C79.602 22.9731 79.9024 22.9287 80.2198 22.9287C80.7784 22.9287 81.2439 23.0176 81.6163 23.1953C81.9929 23.373 82.2744 23.6481 82.4605 24.0205C82.651 24.3929 82.7462 24.8753 82.7462 25.4678V30H81.7052V25.5376C81.7052 24.9578 81.5719 24.5241 81.3053 24.2363C81.0429 23.9486 80.6388 23.8047 80.0929 23.8047C79.5766 23.8047 79.164 23.9041 78.8551 24.103C78.5504 24.2977 78.3303 24.5854 78.1949 24.9663C78.0637 25.3472 77.9981 25.8127 77.9981 26.3628V30H76.9444V20.123H77.9981ZM86.1008 23.043V30H85.0471V23.043H86.1008ZM85.5866 20.4404C85.7601 20.4404 85.9083 20.4976 86.031 20.6118C86.1579 20.7218 86.2214 20.8953 86.2214 21.1323C86.2214 21.3651 86.1579 21.5386 86.031 21.6528C85.9083 21.7671 85.7601 21.8242 85.5866 21.8242C85.4047 21.8242 85.2523 21.7671 85.1296 21.6528C85.0111 21.5386 84.9519 21.3651 84.9519 21.1323C84.9519 20.8953 85.0111 20.7218 85.1296 20.6118C85.2523 20.4976 85.4047 20.4404 85.5866 20.4404ZM92.9657 28.0957C92.9657 28.54 92.8535 28.9146 92.6292 29.2192C92.4092 29.5197 92.0918 29.7461 91.6771 29.8984C91.2666 30.0508 90.7757 30.127 90.2044 30.127C89.7178 30.127 89.2967 30.0889 88.9412 30.0127C88.5858 29.9365 88.2747 29.8286 88.0081 29.689V28.7178C88.2917 28.8574 88.6302 28.9844 89.0238 29.0986C89.4173 29.2129 89.8193 29.27 90.2298 29.27C90.8307 29.27 91.2666 29.1727 91.5374 28.978C91.8083 28.7834 91.9437 28.5189 91.9437 28.1846C91.9437 27.9941 91.8887 27.827 91.7787 27.6831C91.6729 27.535 91.493 27.3932 91.2391 27.2578C90.9852 27.1182 90.634 26.9658 90.1854 26.8008C89.7411 26.6315 89.356 26.4644 89.0301 26.2993C88.7085 26.13 88.4588 25.9248 88.2811 25.6836C88.1076 25.4424 88.0208 25.1292 88.0208 24.7441C88.0208 24.1559 88.2578 23.7052 88.7318 23.3921C89.21 23.0747 89.8363 22.916 90.6107 22.916C91.0296 22.916 91.4211 22.9583 91.785 23.043C92.1532 23.1234 92.4959 23.2334 92.8133 23.373L92.4579 24.2173C92.1701 24.0946 91.8633 23.9909 91.5374 23.9062C91.2116 23.8216 90.8794 23.7793 90.5409 23.7793C90.0542 23.7793 89.6797 23.8597 89.4173 24.0205C89.1592 24.1813 89.0301 24.4014 89.0301 24.6807C89.0301 24.8965 89.0894 25.0742 89.2079 25.2139C89.3306 25.3535 89.5252 25.4847 89.7918 25.6074C90.0584 25.7301 90.4097 25.874 90.8455 26.0391C91.2814 26.1999 91.658 26.367 91.9754 26.5405C92.2928 26.7098 92.5361 26.9172 92.7054 27.1626C92.8789 27.4038 92.9657 27.7148 92.9657 28.0957ZM105.826 25.271C105.826 26.3162 105.635 27.1901 105.254 27.8926C104.874 28.5908 104.321 29.1177 103.598 29.4731C102.878 29.8244 102.004 30 100.976 30H98.4561V20.7197H101.255C102.199 20.7197 103.012 20.8932 103.693 21.2402C104.374 21.583 104.899 22.0929 105.267 22.77C105.64 23.4429 105.826 24.2765 105.826 25.271ZM104.69 25.3091C104.69 24.4754 104.55 23.7878 104.271 23.2461C103.996 22.7044 103.589 22.3024 103.052 22.04C102.519 21.7734 101.865 21.6401 101.09 21.6401H99.5352V29.0732H100.849C102.127 29.0732 103.086 28.758 103.725 28.1274C104.368 27.4969 104.69 26.5575 104.69 25.3091ZM113.859 26.5088C113.859 27.0801 113.785 27.59 113.636 28.0386C113.488 28.4871 113.275 28.8659 112.995 29.1748C112.716 29.4837 112.377 29.7207 111.98 29.8857C111.586 30.0465 111.14 30.127 110.64 30.127C110.175 30.127 109.747 30.0465 109.358 29.8857C108.973 29.7207 108.639 29.4837 108.355 29.1748C108.076 28.8659 107.858 28.4871 107.701 28.0386C107.549 27.59 107.473 27.0801 107.473 26.5088C107.473 25.7471 107.602 25.0996 107.86 24.5664C108.118 24.029 108.486 23.6206 108.965 23.3413C109.447 23.0578 110.02 22.916 110.685 22.916C111.32 22.916 111.874 23.0578 112.348 23.3413C112.826 23.6248 113.196 24.0353 113.459 24.5728C113.725 25.106 113.859 25.7513 113.859 26.5088ZM108.565 26.5088C108.565 27.0674 108.639 27.5519 108.787 27.9624C108.935 28.3729 109.163 28.6903 109.472 28.9146C109.781 29.1388 110.179 29.251 110.666 29.251C111.148 29.251 111.544 29.1388 111.853 28.9146C112.166 28.6903 112.397 28.3729 112.545 27.9624C112.693 27.5519 112.767 27.0674 112.767 26.5088C112.767 25.9544 112.693 25.4762 112.545 25.0742C112.397 24.668 112.168 24.3548 111.859 24.1348C111.55 23.9147 111.15 23.8047 110.659 23.8047C109.936 23.8047 109.405 24.0438 109.066 24.522C108.732 25.0002 108.565 25.6624 108.565 26.5088ZM119.105 22.916C119.93 22.916 120.554 23.1191 120.977 23.5254C121.401 23.9274 121.612 24.5749 121.612 25.4678V30H120.571V25.5376C120.571 24.9578 120.438 24.5241 120.171 24.2363C119.909 23.9486 119.505 23.8047 118.959 23.8047C118.189 23.8047 117.647 24.0226 117.334 24.4585C117.021 24.8944 116.864 25.527 116.864 26.3564V30H115.81V23.043H116.661L116.82 24.0459H116.877C117.025 23.8005 117.213 23.5952 117.442 23.4302C117.67 23.2609 117.926 23.134 118.21 23.0493C118.493 22.9604 118.792 22.916 119.105 22.916ZM126.516 22.9287C127.345 22.9287 127.961 23.1149 128.363 23.4873C128.765 23.8597 128.966 24.4543 128.966 25.271V30H128.198L127.995 28.9717H127.944C127.749 29.2256 127.546 29.4393 127.334 29.6128C127.123 29.7821 126.877 29.9111 126.598 30C126.323 30.0846 125.984 30.127 125.582 30.127C125.159 30.127 124.783 30.0529 124.453 29.9048C124.127 29.7567 123.869 29.5324 123.678 29.2319C123.492 28.9315 123.399 28.5506 123.399 28.0894C123.399 27.3953 123.674 26.8621 124.224 26.4897C124.774 26.1174 125.612 25.9142 126.738 25.8804L127.937 25.8296V25.4043C127.937 24.8034 127.808 24.3823 127.55 24.1411C127.292 23.8999 126.928 23.7793 126.458 23.7793C126.095 23.7793 125.747 23.8322 125.417 23.938C125.087 24.0438 124.774 24.1686 124.478 24.3125L124.154 23.5127C124.467 23.3519 124.827 23.2144 125.233 23.1001C125.64 22.9858 126.067 22.9287 126.516 22.9287ZM127.925 26.5723L126.865 26.6167C125.997 26.6506 125.386 26.7923 125.03 27.042C124.675 27.2917 124.497 27.645 124.497 28.1021C124.497 28.4998 124.618 28.7939 124.859 28.9844C125.1 29.1748 125.42 29.27 125.817 29.27C126.435 29.27 126.941 29.0986 127.334 28.7559C127.728 28.4131 127.925 27.8989 127.925 27.2134V26.5723ZM133.514 29.2637C133.687 29.2637 133.865 29.2489 134.047 29.2192C134.229 29.1896 134.377 29.1536 134.491 29.1113V29.9302C134.369 29.9852 134.197 30.0317 133.977 30.0698C133.761 30.1079 133.55 30.127 133.342 30.127C132.974 30.127 132.64 30.0635 132.339 29.9365C132.039 29.8053 131.798 29.5853 131.616 29.2764C131.438 28.9674 131.349 28.54 131.349 27.9941V23.8682H130.359V23.354L131.356 22.9414L131.774 21.4307H132.409V23.043H134.447V23.8682H132.409V27.9624C132.409 28.3983 132.509 28.7241 132.708 28.9399C132.911 29.1558 133.179 29.2637 133.514 29.2637ZM137.084 23.043V30H136.03V23.043H137.084ZM136.57 20.4404C136.744 20.4404 136.892 20.4976 137.014 20.6118C137.141 20.7218 137.205 20.8953 137.205 21.1323C137.205 21.3651 137.141 21.5386 137.014 21.6528C136.892 21.7671 136.744 21.8242 136.57 21.8242C136.388 21.8242 136.236 21.7671 136.113 21.6528C135.994 21.5386 135.935 21.3651 135.935 21.1323C135.935 20.8953 135.994 20.7218 136.113 20.6118C136.236 20.4976 136.388 20.4404 136.57 20.4404ZM145.447 26.5088C145.447 27.0801 145.373 27.59 145.225 28.0386C145.077 28.4871 144.863 28.8659 144.584 29.1748C144.304 29.4837 143.966 29.7207 143.568 29.8857C143.175 30.0465 142.728 30.127 142.229 30.127C141.763 30.127 141.336 30.0465 140.947 29.8857C140.561 29.7207 140.227 29.4837 139.944 29.1748C139.664 28.8659 139.446 28.4871 139.29 28.0386C139.137 27.59 139.061 27.0801 139.061 26.5088C139.061 25.7471 139.19 25.0996 139.449 24.5664C139.707 24.029 140.075 23.6206 140.553 23.3413C141.035 23.0578 141.609 22.916 142.273 22.916C142.908 22.916 143.462 23.0578 143.936 23.3413C144.415 23.6248 144.785 24.0353 145.047 24.5728C145.314 25.106 145.447 25.7513 145.447 26.5088ZM140.153 26.5088C140.153 27.0674 140.227 27.5519 140.375 27.9624C140.523 28.3729 140.752 28.6903 141.061 28.9146C141.37 29.1388 141.768 29.251 142.254 29.251C142.737 29.251 143.132 29.1388 143.441 28.9146C143.754 28.6903 143.985 28.3729 144.133 27.9624C144.281 27.5519 144.355 27.0674 144.355 26.5088C144.355 25.9544 144.281 25.4762 144.133 25.0742C143.985 24.668 143.756 24.3548 143.448 24.1348C143.139 23.9147 142.739 23.8047 142.248 23.8047C141.524 23.8047 140.993 24.0438 140.655 24.522C140.32 25.0002 140.153 25.6624 140.153 26.5088ZM150.693 22.916C151.518 22.916 152.143 23.1191 152.566 23.5254C152.989 23.9274 153.201 24.5749 153.201 25.4678V30H152.16V25.5376C152.16 24.9578 152.026 24.5241 151.76 24.2363C151.497 23.9486 151.093 23.8047 150.547 23.8047C149.777 23.8047 149.235 24.0226 148.922 24.4585C148.609 24.8944 148.453 25.527 148.453 26.3564V30H147.399V23.043H148.249L148.408 24.0459H148.465C148.613 23.8005 148.802 23.5952 149.03 23.4302C149.259 23.2609 149.515 23.134 149.798 23.0493C150.082 22.9604 150.38 22.916 150.693 22.916Z" fill="#787878"/>
<rect x="16.5" y="50" width="17" height="17" rx="3" fill="#787878"/>
<path d="M20.3975 58.5L23.4658 61.5683L29.6025 55.4316" stroke="white" stroke-width="1.5"/>
<path d="M47.6094 64L46.4541 61.0483H42.7344L41.5918 64H40.5L44.1689 54.6816H45.0767L48.7266 64H47.6094ZM46.1177 60.0771L45.0386 57.2017C44.8989 56.8377 44.755 56.3913 44.6069 55.8623C44.5138 56.2686 44.3805 56.715 44.207 57.2017L43.1152 60.0771H46.1177ZM54.7091 63.0669H54.652C54.1653 63.7736 53.4375 64.127 52.4684 64.127C51.5585 64.127 50.8497 63.8159 50.3419 63.1938C49.8383 62.5718 49.5865 61.6873 49.5865 60.5405C49.5865 59.3937 49.8404 58.5029 50.3483 57.8682C50.8561 57.2334 51.5628 56.916 52.4684 56.916C53.4121 56.916 54.1357 57.2588 54.6393 57.9443H54.7218L54.6774 57.4429L54.652 56.9541V54.123H55.7057V64H54.8488L54.7091 63.0669ZM52.6017 63.2446C53.3211 63.2446 53.8416 63.05 54.1632 62.6606C54.489 62.2671 54.652 61.6344 54.652 60.7627V60.5405C54.652 59.5545 54.4869 58.8521 54.1569 58.4331C53.831 58.0099 53.3084 57.7983 52.589 57.7983C51.9711 57.7983 51.4972 58.0396 51.1671 58.522C50.8413 59.0002 50.6783 59.6772 50.6783 60.5532C50.6783 61.4419 50.8413 62.1126 51.1671 62.5654C51.493 63.0182 51.9711 63.2446 52.6017 63.2446ZM62.8118 63.0669H62.7546C62.268 63.7736 61.5401 64.127 60.571 64.127C59.6612 64.127 58.9524 63.8159 58.4446 63.1938C57.941 62.5718 57.6892 61.6873 57.6892 60.5405C57.6892 59.3937 57.9431 58.5029 58.4509 57.8682C58.9587 57.2334 59.6654 56.916 60.571 56.916C61.5147 56.916 62.2384 57.2588 62.7419 57.9443H62.8245L62.78 57.4429L62.7546 56.9541V54.123H63.8083V64H62.9514L62.8118 63.0669ZM60.7043 63.2446C61.4237 63.2446 61.9442 63.05 62.2659 62.6606C62.5917 62.2671 62.7546 61.6344 62.7546 60.7627V60.5405C62.7546 59.5545 62.5896 58.8521 62.2595 58.4331C61.9337 58.0099 61.411 57.7983 60.6916 57.7983C60.0738 57.7983 59.5998 58.0396 59.2698 58.522C58.9439 59.0002 58.781 59.6772 58.781 60.5532C58.781 61.4419 58.9439 62.1126 59.2698 62.5654C59.5956 63.0182 60.0738 63.2446 60.7043 63.2446ZM72.7012 64H71.6221V55.6782H68.6831V54.7197H75.6401V55.6782H72.7012V64ZM81.775 64V59.4995C81.775 58.9325 81.6459 58.5093 81.3878 58.23C81.1297 57.9507 80.7255 57.811 80.1754 57.811C79.4433 57.811 78.908 58.0099 78.5694 58.4077C78.2351 58.8055 78.068 59.4572 78.068 60.3628V64H77.0143V54.123H78.068V57.1128C78.068 57.4725 78.051 57.7708 78.0172 58.0078H78.0807C78.288 57.6735 78.5821 57.4111 78.963 57.2207C79.3481 57.026 79.7861 56.9287 80.277 56.9287C81.1275 56.9287 81.7644 57.1318 82.1876 57.5381C82.615 57.9401 82.8287 58.5812 82.8287 59.4614V64H81.775ZM86.1833 64H85.1296V57.043H86.1833V64ZM85.0407 55.1577C85.0407 54.9165 85.1 54.7409 85.2185 54.6309C85.337 54.5166 85.4851 54.4595 85.6628 54.4595C85.8321 54.4595 85.9781 54.5166 86.1008 54.6309C86.2235 54.7451 86.2849 54.9207 86.2849 55.1577C86.2849 55.3947 86.2235 55.5724 86.1008 55.6909C85.9781 55.8052 85.8321 55.8623 85.6628 55.8623C85.4851 55.8623 85.337 55.8052 85.2185 55.6909C85.1 55.5724 85.0407 55.3947 85.0407 55.1577ZM93.0355 62.1021C93.0355 62.7495 92.7943 63.2489 92.3119 63.6001C91.8294 63.9513 91.1524 64.127 90.2806 64.127C89.3581 64.127 88.6387 63.981 88.1224 63.689V62.7114C88.4567 62.8807 88.8143 63.014 89.1952 63.1113C89.5802 63.2087 89.9505 63.2573 90.306 63.2573C90.8561 63.2573 91.2793 63.1706 91.5755 62.9971C91.8718 62.8193 92.0199 62.5506 92.0199 62.1909C92.0199 61.9201 91.9014 61.6895 91.6644 61.499C91.4316 61.3044 90.9746 61.0758 90.2933 60.8135C89.6458 60.5723 89.1846 60.3628 88.9095 60.1851C88.6387 60.0031 88.4356 59.7979 88.3001 59.5693C88.169 59.3408 88.1034 59.0679 88.1034 58.7505C88.1034 58.1834 88.334 57.737 88.7953 57.4111C89.2565 57.0811 89.8892 56.916 90.6932 56.916C91.4422 56.916 92.1743 57.0684 92.8895 57.373L92.515 58.23C91.8167 57.9422 91.1841 57.7983 90.617 57.7983C90.1177 57.7983 89.7411 57.8766 89.4871 58.0332C89.2332 58.1898 89.1063 58.4056 89.1063 58.6807C89.1063 58.8669 89.1528 59.0256 89.2459 59.1567C89.3433 59.2879 89.4977 59.4128 89.7093 59.5312C89.9209 59.6497 90.3272 59.8211 90.9281 60.0454C91.7533 60.3459 92.3097 60.6484 92.5975 60.9531C92.8895 61.2578 93.0355 61.6408 93.0355 62.1021ZM101.408 64H100.329V55.6782H97.3897V54.7197H104.347V55.6782H101.408V64ZM111.726 60.5151C111.726 61.6493 111.44 62.5358 110.869 63.1748C110.298 63.8096 109.508 64.127 108.501 64.127C107.879 64.127 107.327 63.981 106.844 63.689C106.362 63.397 105.99 62.978 105.727 62.4321C105.465 61.8862 105.334 61.2472 105.334 60.5151C105.334 59.381 105.617 58.4987 106.184 57.8682C106.751 57.2334 107.538 56.916 108.546 56.916C109.519 56.916 110.291 57.2397 110.863 57.8872C111.438 58.5347 111.726 59.4106 111.726 60.5151ZM106.425 60.5151C106.425 61.4038 106.603 62.0809 106.959 62.5464C107.314 63.0119 107.837 63.2446 108.527 63.2446C109.216 63.2446 109.739 63.014 110.094 62.5527C110.454 62.0872 110.634 61.408 110.634 60.5151C110.634 59.6307 110.454 58.96 110.094 58.5029C109.739 58.0417 109.212 57.811 108.514 57.811C107.824 57.811 107.304 58.0374 106.952 58.4902C106.601 58.943 106.425 59.618 106.425 60.5151ZM119.714 60.5151C119.714 61.6493 119.429 62.5358 118.857 63.1748C118.286 63.8096 117.497 64.127 116.49 64.127C115.868 64.127 115.315 63.981 114.833 63.689C114.35 63.397 113.978 62.978 113.716 62.4321C113.453 61.8862 113.322 61.2472 113.322 60.5151C113.322 59.381 113.606 58.4987 114.173 57.8682C114.74 57.2334 115.527 56.916 116.534 56.916C117.507 56.916 118.28 57.2397 118.851 57.8872C119.426 58.5347 119.714 59.4106 119.714 60.5151ZM114.414 60.5151C114.414 61.4038 114.592 62.0809 114.947 62.5464C115.303 63.0119 115.825 63.2446 116.515 63.2446C117.205 63.2446 117.727 63.014 118.083 62.5527C118.443 62.0872 118.622 61.408 118.622 60.5151C118.622 59.6307 118.443 58.96 118.083 58.5029C117.727 58.0417 117.201 57.811 116.502 57.811C115.812 57.811 115.292 58.0374 114.941 58.4902C114.59 58.943 114.414 59.618 114.414 60.5151Z" fill="#787878"/>
<rect x="16.5" y="84" width="17" height="17" rx="3" fill="#787878"/>
<path d="M20.3975 92.5L23.4658 95.5683L29.6025 89.4316" stroke="white" stroke-width="1.5"/>
<path d="M48.8218 98H47.7427V93.6328H42.855V98H41.7759V88.7197H42.855V92.668H47.7427V88.7197H48.8218V98ZM57.3497 94.5151C57.3497 95.6493 57.0641 96.5358 56.4928 97.1748C55.9215 97.8096 55.1323 98.127 54.1251 98.127C53.503 98.127 52.9508 97.981 52.4684 97.689C51.986 97.397 51.6136 96.978 51.3512 96.4321C51.0888 95.8862 50.9576 95.2472 50.9576 94.5151C50.9576 93.381 51.2412 92.4987 51.8082 91.8682C52.3753 91.2334 53.1624 90.916 54.1696 90.916C55.1429 90.916 55.9152 91.2397 56.4864 91.8872C57.062 92.5347 57.3497 93.4106 57.3497 94.5151ZM52.0494 94.5151C52.0494 95.4038 52.2272 96.0809 52.5826 96.5464C52.9381 97.0119 53.4607 97.2446 54.1505 97.2446C54.8403 97.2446 55.3629 97.014 55.7184 96.5527C56.0781 96.0872 56.2579 95.408 56.2579 94.5151C56.2579 93.6307 56.0781 92.96 55.7184 92.5029C55.3629 92.0417 54.8361 91.811 54.1378 91.811C53.448 91.811 52.9275 92.0374 52.5763 92.4902C52.2251 92.943 52.0494 93.618 52.0494 94.5151ZM65.0144 98L63.7385 93.9185C63.6581 93.6688 63.5079 93.1017 63.2878 92.2173H63.2371C63.0678 92.9578 62.9197 93.5291 62.7927 93.9312L61.4788 98H60.26L58.3621 91.043H59.4665C59.9151 92.7907 60.2558 94.1216 60.4885 95.0356C60.7255 95.9497 60.8609 96.5654 60.8948 96.8828H60.9455C60.9921 96.6416 61.0662 96.3306 61.1677 95.9497C61.2735 95.5646 61.3645 95.2599 61.4407 95.0356L62.7165 91.043H63.8591L65.1033 95.0356C65.3402 95.7635 65.501 96.375 65.5857 96.8701H65.6365C65.6534 96.7178 65.6978 96.4829 65.7698 96.1655C65.8459 95.8481 66.2882 94.1406 67.0964 91.043H68.1882L66.2649 98H65.0144ZM77.3667 98L77.1572 97.0098H77.1064C76.7594 97.4456 76.4124 97.7419 76.0654 97.8984C75.7226 98.0508 75.2931 98.127 74.7768 98.127C74.0871 98.127 73.5454 97.9492 73.1518 97.5938C72.7625 97.2383 72.5679 96.7326 72.5679 96.0767C72.5679 94.6717 73.6914 93.9354 75.9385 93.8677L77.1191 93.8296V93.3979C77.1191 92.8521 77.0006 92.45 76.7637 92.1919C76.5309 91.9295 76.1564 91.7983 75.6401 91.7983C75.0604 91.7983 74.4044 91.9761 73.6723 92.3315L73.3486 91.5254C73.6914 91.3392 74.0659 91.1932 74.4721 91.0874C74.8826 90.9816 75.2931 90.9287 75.7036 90.9287C76.533 90.9287 77.1466 91.1128 77.5444 91.481C77.9464 91.8491 78.1474 92.4395 78.1474 93.252V98H77.3667ZM74.9863 97.2573C75.6422 97.2573 76.1564 97.0775 76.5288 96.7178C76.9054 96.3581 77.0937 95.8545 77.0937 95.207V94.5786L76.04 94.623C75.2021 94.6527 74.597 94.7839 74.2246 95.0166C73.8564 95.2451 73.6723 95.6027 73.6723 96.0894C73.6723 96.4702 73.7866 96.7601 74.0151 96.959C74.2479 97.1579 74.5716 97.2573 74.9863 97.2573ZM83.692 90.9287C84.6061 90.9287 85.3149 91.2419 85.8185 91.8682C86.3263 92.4902 86.5802 93.3726 86.5802 94.5151C86.5802 95.6577 86.3242 96.5464 85.8121 97.1812C85.3043 97.8117 84.5976 98.127 83.692 98.127C83.2392 98.127 82.8245 98.0444 82.4479 97.8794C82.0755 97.7101 81.7623 97.452 81.5084 97.105H81.4322L81.2101 98H80.4547V88.123H81.5084V90.5225C81.5084 91.0599 81.4915 91.5423 81.4576 91.9697H81.5084C81.9993 91.2757 82.7271 90.9287 83.692 90.9287ZM83.5396 91.811C82.8202 91.811 82.3019 92.0184 81.9845 92.4331C81.6671 92.8436 81.5084 93.5376 81.5084 94.5151C81.5084 95.4927 81.6713 96.193 81.9972 96.6162C82.323 97.0352 82.8456 97.2446 83.565 97.2446C84.2125 97.2446 84.6949 97.0098 85.0123 96.54C85.3297 96.0661 85.4884 95.3869 85.4884 94.5024C85.4884 93.5968 85.3297 92.9219 85.0123 92.4775C84.6949 92.0332 84.204 91.811 83.5396 91.811ZM94.5622 94.5151C94.5622 95.6493 94.2766 96.5358 93.7053 97.1748C93.134 97.8096 92.3448 98.127 91.3376 98.127C90.7155 98.127 90.1633 97.981 89.6809 97.689C89.1985 97.397 88.8261 96.978 88.5637 96.4321C88.3013 95.8862 88.1701 95.2472 88.1701 94.5151C88.1701 93.381 88.4537 92.4987 89.0207 91.8682C89.5878 91.2334 90.3749 90.916 91.382 90.916C92.3554 90.916 93.1277 91.2397 93.6989 91.8872C94.2745 92.5347 94.5622 93.4106 94.5622 94.5151ZM89.2619 94.5151C89.2619 95.4038 89.4397 96.0809 89.7951 96.5464C90.1506 97.0119 90.6732 97.2446 91.363 97.2446C92.0528 97.2446 92.5754 97.014 92.9309 96.5527C93.2906 96.0872 93.4704 95.408 93.4704 94.5151C93.4704 93.6307 93.2906 92.96 92.9309 92.5029C92.5754 92.0417 92.0486 91.811 91.3503 91.811C90.6605 91.811 90.14 92.0374 89.7888 92.4902C89.4376 92.943 89.2619 93.618 89.2619 94.5151ZM97.536 91.043V95.5562C97.536 96.1232 97.665 96.5464 97.9232 96.8257C98.1813 97.105 98.5855 97.2446 99.1356 97.2446C99.8635 97.2446 100.395 97.0457 100.729 96.6479C101.067 96.2502 101.237 95.6006 101.237 94.6992V91.043H102.29V98H101.421L101.268 97.0669H101.211C100.995 97.4097 100.695 97.672 100.31 97.854C99.929 98.036 99.4932 98.127 99.0023 98.127C98.1559 98.127 97.5212 97.9259 97.098 97.5239C96.679 97.1219 96.4696 96.4787 96.4696 95.5942V91.043H97.536ZM106.908 97.2573C107.094 97.2573 107.274 97.2446 107.448 97.2192C107.621 97.1896 107.759 97.16 107.86 97.1304V97.9365C107.746 97.9915 107.577 98.036 107.353 98.0698C107.132 98.1079 106.934 98.127 106.756 98.127C105.41 98.127 104.737 97.4181 104.737 96.0005V91.8618H103.741V91.354L104.737 90.916L105.182 89.4307H105.791V91.043H107.81V91.8618H105.791V95.9561C105.791 96.375 105.89 96.6966 106.089 96.9209C106.288 97.1452 106.561 97.2573 106.908 97.2573ZM115.141 97.2573C115.327 97.2573 115.507 97.2446 115.68 97.2192C115.854 97.1896 115.991 97.16 116.093 97.1304V97.9365C115.979 97.9915 115.809 98.036 115.585 98.0698C115.365 98.1079 115.166 98.127 114.988 98.127C113.643 98.127 112.97 97.4181 112.97 96.0005V91.8618H111.973V91.354L112.97 90.916L113.414 89.4307H114.024V91.043H116.042V91.8618H114.024V95.9561C114.024 96.375 114.123 96.6966 114.322 96.9209C114.521 97.1452 114.794 97.2573 115.141 97.2573ZM122.38 98V93.4995C122.38 92.9325 122.251 92.5093 121.993 92.23C121.735 91.9507 121.331 91.811 120.781 91.811C120.048 91.811 119.513 92.0099 119.175 92.4077C118.84 92.8055 118.673 93.4572 118.673 94.3628V98H117.619V88.123H118.673V91.1128C118.673 91.4725 118.656 91.7708 118.622 92.0078H118.686C118.893 91.6735 119.187 91.4111 119.568 91.2207C119.953 91.026 120.391 90.9287 120.882 90.9287C121.733 90.9287 122.37 91.1318 122.793 91.5381C123.22 91.9401 123.434 92.5812 123.434 93.4614V98H122.38ZM126.789 98H125.735V91.043H126.789V98ZM125.646 89.1577C125.646 88.9165 125.705 88.7409 125.824 88.6309C125.942 88.5166 126.09 88.4595 126.268 88.4595C126.437 88.4595 126.583 88.5166 126.706 88.6309C126.829 88.7451 126.89 88.9207 126.89 89.1577C126.89 89.3947 126.829 89.5724 126.706 89.6909C126.583 89.8052 126.437 89.8623 126.268 89.8623C126.09 89.8623 125.942 89.8052 125.824 89.6909C125.705 89.5724 125.646 89.3947 125.646 89.1577ZM133.641 96.1021C133.641 96.7495 133.399 97.2489 132.917 97.6001C132.435 97.9513 131.758 98.127 130.886 98.127C129.963 98.127 129.244 97.981 128.728 97.689V96.7114C129.062 96.8807 129.419 97.014 129.8 97.1113C130.185 97.2087 130.556 97.2573 130.911 97.2573C131.461 97.2573 131.885 97.1706 132.181 96.9971C132.477 96.8193 132.625 96.5506 132.625 96.1909C132.625 95.9201 132.507 95.6895 132.27 95.499C132.037 95.3044 131.58 95.0758 130.898 94.8135C130.251 94.5723 129.79 94.3628 129.515 94.1851C129.244 94.0031 129.041 93.7979 128.905 93.5693C128.774 93.3408 128.709 93.0679 128.709 92.7505C128.709 92.1834 128.939 91.737 129.4 91.4111C129.862 91.0811 130.494 90.916 131.298 90.916C132.047 90.916 132.78 91.0684 133.495 91.373L133.12 92.23C132.422 91.9422 131.789 91.7983 131.222 91.7983C130.723 91.7983 130.346 91.8766 130.092 92.0332C129.838 92.1898 129.711 92.4056 129.711 92.6807C129.711 92.8669 129.758 93.0256 129.851 93.1567C129.948 93.2879 130.103 93.4128 130.315 93.5312C130.526 93.6497 130.932 93.8211 131.533 94.0454C132.358 94.3459 132.915 94.6484 133.203 94.9531C133.495 95.2578 133.641 95.6408 133.641 96.1021ZM136.208 95.4419V95.0991C136.208 94.604 136.284 94.1978 136.437 93.8804C136.589 93.5588 136.873 93.2202 137.287 92.8647C137.863 92.3781 138.225 92.012 138.373 91.7666C138.525 91.5212 138.601 91.2249 138.601 90.8779C138.601 90.4463 138.462 90.1141 138.182 89.8813C137.907 89.6444 137.509 89.5259 136.989 89.5259C136.655 89.5259 136.329 89.5661 136.011 89.6465C135.694 89.7227 135.33 89.8644 134.92 90.0718L134.545 89.2148C135.345 88.7959 136.181 88.5864 137.052 88.5864C137.861 88.5864 138.489 88.7853 138.938 89.1831C139.386 89.5809 139.611 90.1416 139.611 90.8652C139.611 91.1742 139.568 91.4471 139.484 91.6841C139.403 91.9168 139.283 92.139 139.122 92.3506C138.961 92.5579 138.614 92.8944 138.081 93.3599C137.653 93.7238 137.37 94.0264 137.23 94.2676C137.095 94.5088 137.027 94.8304 137.027 95.2324V95.4419H136.208ZM135.897 97.3271C135.897 96.7516 136.151 96.4639 136.659 96.4639C136.904 96.4639 137.093 96.5379 137.224 96.686C137.359 96.8341 137.427 97.0479 137.427 97.3271C137.427 97.598 137.359 97.8096 137.224 97.9619C137.088 98.11 136.9 98.1841 136.659 98.1841C136.439 98.1841 136.257 98.1185 136.113 97.9873C135.969 97.8519 135.897 97.6318 135.897 97.3271Z" fill="#787878"/>
</svg>
