<svg width="324" height="70" viewBox="0 0 324 70" fill="none" xmlns="http://www.w3.org/2000/svg">
<rect x="0.5" width="323" height="70" rx="10" fill="#F3F3F3"/>
<rect x="16.5" y="16" width="291" height="38" rx="3" fill="white"/>
<path opacity="0.5" d="M35.1836 35.271C35.1836 36.8029 34.7668 37.9751 33.9331 38.7876C33.1037 39.5959 31.9082 40 30.3467 40H27.7759V30.7197H30.6196C32.0627 30.7197 33.1841 31.1196 33.9839 31.9194C34.7837 32.7192 35.1836 33.8364 35.1836 35.271ZM34.041 35.3091C34.041 34.0988 33.7363 33.1868 33.127 32.5732C32.5218 31.9596 31.6204 31.6528 30.4229 31.6528H28.855V39.0669H30.1689C31.4554 39.0669 32.4224 38.7516 33.0698 38.1211C33.7173 37.4863 34.041 36.549 34.041 35.3091ZM43.2355 36.5151C43.2355 37.6493 42.9498 38.5358 42.3785 39.1748C41.8072 39.8096 41.018 40.127 40.0109 40.127C39.3888 40.127 38.8365 39.981 38.3541 39.689C37.8717 39.397 37.4993 38.978 37.2369 38.4321C36.9746 37.8862 36.8434 37.2472 36.8434 36.5151C36.8434 35.381 37.1269 34.4987 37.694 33.8682C38.261 33.2334 39.0481 32.916 40.0553 32.916C41.0286 32.916 41.8009 33.2397 42.3722 33.8872C42.9477 34.5347 43.2355 35.4106 43.2355 36.5151ZM37.9352 36.5151C37.9352 37.4038 38.1129 38.0809 38.4684 38.5464C38.8238 39.0119 39.3465 39.2446 40.0363 39.2446C40.726 39.2446 41.2487 39.014 41.6041 38.5527C41.9638 38.0872 42.1437 37.408 42.1437 36.5151C42.1437 35.6307 41.9638 34.96 41.6041 34.5029C41.2487 34.0417 40.7218 33.811 40.0236 33.811C39.3338 33.811 38.8133 34.0374 38.462 34.4902C38.1108 34.943 37.9352 35.618 37.9352 36.5151ZM49.9797 40V35.4995C49.9797 34.9325 49.8507 34.5093 49.5925 34.23C49.3344 33.9507 48.9302 33.811 48.3801 33.811C47.6523 33.811 47.119 34.0078 46.7805 34.4014C46.442 34.7949 46.2727 35.4445 46.2727 36.3501V40H45.219V33.043H46.0759L46.2473 33.9951H46.2981C46.5139 33.6523 46.8165 33.3879 47.2058 33.2017C47.5951 33.0112 48.0289 32.916 48.5071 32.916C49.345 32.916 49.9755 33.1191 50.3987 33.5254C50.8218 33.9274 51.0334 34.5728 51.0334 35.4614V40H49.9797ZM57.6127 40L57.4032 39.0098H57.3524C57.0054 39.4456 56.6584 39.7419 56.3114 39.8984C55.9686 40.0508 55.5391 40.127 55.0228 40.127C54.333 40.127 53.7914 39.9492 53.3978 39.5938C53.0085 39.2383 52.8138 38.7326 52.8138 38.0767C52.8138 36.6717 53.9374 35.9354 56.1844 35.8677L57.3651 35.8296V35.3979C57.3651 34.8521 57.2466 34.45 57.0096 34.1919C56.7769 33.9295 56.4024 33.7983 55.8861 33.7983C55.3063 33.7983 54.6504 33.9761 53.9183 34.3315L53.5946 33.5254C53.9374 33.3392 54.3119 33.1932 54.7181 33.0874C55.1286 32.9816 55.5391 32.9287 55.9496 32.9287C56.779 32.9287 57.3926 33.1128 57.7904 33.481C58.1924 33.8491 58.3934 34.4395 58.3934 35.252V40H57.6127ZM55.2323 39.2573C55.8882 39.2573 56.4024 39.0775 56.7748 38.7178C57.1514 38.3581 57.3397 37.8545 57.3397 37.207V36.5786L56.286 36.623C55.4481 36.6527 54.843 36.7839 54.4706 37.0166C54.1024 37.2451 53.9183 37.6027 53.9183 38.0894C53.9183 38.4702 54.0326 38.7601 54.2611 38.959C54.4938 39.1579 54.8176 39.2573 55.2323 39.2573ZM62.9477 39.2573C63.1339 39.2573 63.3138 39.2446 63.4873 39.2192C63.6608 39.1896 63.7983 39.16 63.8999 39.1304V39.9365C63.7856 39.9915 63.6164 40.036 63.3921 40.0698C63.172 40.1079 62.9731 40.127 62.7954 40.127C61.4497 40.127 60.7768 39.4181 60.7768 38.0005V33.8618H59.7803V33.354L60.7768 32.916L61.2212 31.4307H61.8305V33.043H63.8491V33.8618H61.8305V37.9561C61.8305 38.375 61.93 38.6966 62.1289 38.9209C62.3278 39.1452 62.6007 39.2573 62.9477 39.2573ZM66.4801 40H65.4264V33.043H66.4801V40ZM65.3375 31.1577C65.3375 30.9165 65.3967 30.7409 65.5152 30.6309C65.6337 30.5166 65.7818 30.4595 65.9596 30.4595C66.1288 30.4595 66.2748 30.5166 66.3976 30.6309C66.5203 30.7451 66.5816 30.9207 66.5816 31.1577C66.5816 31.3947 66.5203 31.5724 66.3976 31.6909C66.2748 31.8052 66.1288 31.8623 65.9596 31.8623C65.7818 31.8623 65.6337 31.8052 65.5152 31.6909C65.3967 31.5724 65.3375 31.3947 65.3375 31.1577ZM74.8493 36.5151C74.8493 37.6493 74.5637 38.5358 73.9924 39.1748C73.4211 39.8096 72.6319 40.127 71.6247 40.127C71.0027 40.127 70.4504 39.981 69.968 39.689C69.4856 39.397 69.1132 38.978 68.8508 38.4321C68.5884 37.8862 68.4572 37.2472 68.4572 36.5151C68.4572 35.381 68.7408 34.4987 69.3078 33.8682C69.8749 33.2334 70.662 32.916 71.6692 32.916C72.6425 32.916 73.4148 33.2397 73.9861 33.8872C74.5616 34.5347 74.8493 35.4106 74.8493 36.5151ZM69.549 36.5151C69.549 37.4038 69.7268 38.0809 70.0822 38.5464C70.4377 39.0119 70.9603 39.2446 71.6501 39.2446C72.3399 39.2446 72.8625 39.014 73.218 38.5527C73.5777 38.0872 73.7575 37.408 73.7575 36.5151C73.7575 35.6307 73.5777 34.96 73.218 34.5029C72.8625 34.0417 72.3357 33.811 71.6374 33.811C70.9476 33.811 70.4271 34.0374 70.0759 34.4902C69.7247 34.943 69.549 35.618 69.549 36.5151ZM81.5936 40V35.4995C81.5936 34.9325 81.4645 34.5093 81.2064 34.23C80.9482 33.9507 80.5441 33.811 79.994 33.811C79.2661 33.811 78.7329 34.0078 78.3944 34.4014C78.0558 34.7949 77.8866 35.4445 77.8866 36.3501V40H76.8329V33.043H77.6898L77.8612 33.9951H77.912C78.1278 33.6523 78.4303 33.3879 78.8197 33.2017C79.209 33.0112 79.6427 32.916 80.1209 32.916C80.9588 32.916 81.5894 33.1191 82.0125 33.5254C82.4357 33.9274 82.6473 34.5728 82.6473 35.4614V40H81.5936ZM92.7335 40L92.524 39.0098H92.4732C92.1262 39.4456 91.7792 39.7419 91.4322 39.8984C91.0894 40.0508 90.6599 40.127 90.1436 40.127C89.4539 40.127 88.9122 39.9492 88.5186 39.5938C88.1293 39.2383 87.9346 38.7326 87.9346 38.0767C87.9346 36.6717 89.0582 35.9354 91.3053 35.8677L92.4859 35.8296V35.3979C92.4859 34.8521 92.3674 34.45 92.1304 34.1919C91.8977 33.9295 91.5232 33.7983 91.0069 33.7983C90.4272 33.7983 89.7712 33.9761 89.0391 34.3315L88.7154 33.5254C89.0582 33.3392 89.4327 33.1932 89.8389 33.0874C90.2494 32.9816 90.6599 32.9287 91.0704 32.9287C91.8998 32.9287 92.5134 33.1128 92.9112 33.481C93.3132 33.8491 93.5142 34.4395 93.5142 35.252V40H92.7335ZM90.3531 39.2573C91.009 39.2573 91.5232 39.0775 91.8956 38.7178C92.2722 38.3581 92.4605 37.8545 92.4605 37.207V36.5786L91.4068 36.623C90.5689 36.6527 89.9638 36.7839 89.5914 37.0166C89.2232 37.2451 89.0391 37.6027 89.0391 38.0894C89.0391 38.4702 89.1534 38.7601 89.3819 38.959C89.6147 39.1579 89.9384 39.2573 90.3531 39.2573ZM104.689 40V35.4741C104.689 34.9198 104.571 34.505 104.334 34.23C104.097 33.9507 103.729 33.811 103.229 33.811C102.573 33.811 102.089 33.9993 101.776 34.376C101.462 34.7526 101.306 35.3324 101.306 36.1152V40H100.252V35.4741C100.252 34.9198 100.134 34.505 99.8967 34.23C99.6597 33.9507 99.2894 33.811 98.7858 33.811C98.1257 33.811 97.6411 34.0099 97.3322 34.4077C97.0275 34.8013 96.8752 35.4487 96.8752 36.3501V40H95.8215V33.043H96.6784L96.8498 33.9951H96.9006C97.0995 33.6566 97.3788 33.3921 97.7385 33.2017C98.1024 33.0112 98.5087 32.916 98.9572 32.916C100.045 32.916 100.756 33.3096 101.09 34.0967H101.141C101.348 33.7327 101.649 33.445 102.042 33.2334C102.436 33.0218 102.884 32.916 103.388 32.916C104.175 32.916 104.763 33.1191 105.153 33.5254C105.546 33.9274 105.743 34.5728 105.743 35.4614V40H104.689ZM114.055 36.5151C114.055 37.6493 113.769 38.5358 113.198 39.1748C112.627 39.8096 111.838 40.127 110.83 40.127C110.208 40.127 109.656 39.981 109.174 39.689C108.691 39.397 108.319 38.978 108.056 38.4321C107.794 37.8862 107.663 37.2472 107.663 36.5151C107.663 35.381 107.946 34.4987 108.513 33.8682C109.081 33.2334 109.868 32.916 110.875 32.916C111.848 32.916 112.62 33.2397 113.192 33.8872C113.767 34.5347 114.055 35.4106 114.055 36.5151ZM108.755 36.5151C108.755 37.4038 108.932 38.0809 109.288 38.5464C109.643 39.0119 110.166 39.2446 110.856 39.2446C111.546 39.2446 112.068 39.014 112.424 38.5527C112.783 38.0872 112.963 37.408 112.963 36.5151C112.963 35.6307 112.783 34.96 112.424 34.5029C112.068 34.0417 111.541 33.811 110.843 33.811C110.153 33.811 109.633 34.0374 109.282 34.4902C108.93 34.943 108.755 35.618 108.755 36.5151ZM117.029 33.043V37.5562C117.029 38.1232 117.158 38.5464 117.416 38.8257C117.674 39.105 118.078 39.2446 118.628 39.2446C119.356 39.2446 119.887 39.0457 120.222 38.6479C120.56 38.2502 120.729 37.6006 120.729 36.6992V33.043H121.783V40H120.914L120.761 39.0669H120.704C120.488 39.4097 120.188 39.672 119.803 39.854C119.422 40.036 118.986 40.127 118.495 40.127C117.649 40.127 117.014 39.9259 116.591 39.5239C116.172 39.1219 115.962 38.4787 115.962 37.5942V33.043H117.029ZM128.915 40V35.4995C128.915 34.9325 128.786 34.5093 128.527 34.23C128.269 33.9507 127.865 33.811 127.315 33.811C126.587 33.811 126.054 34.0078 125.715 34.4014C125.377 34.7949 125.208 35.4445 125.208 36.3501V40H124.154V33.043H125.011L125.182 33.9951H125.233C125.449 33.6523 125.751 33.3879 126.141 33.2017C126.53 33.0112 126.964 32.916 127.442 32.916C128.28 32.916 128.91 33.1191 129.334 33.5254C129.757 33.9274 129.968 34.5728 129.968 35.4614V40H128.915ZM134.516 39.2573C134.702 39.2573 134.882 39.2446 135.056 39.2192C135.229 39.1896 135.367 39.16 135.468 39.1304V39.9365C135.354 39.9915 135.185 40.036 134.961 40.0698C134.741 40.1079 134.542 40.127 134.364 40.127C133.018 40.127 132.345 39.4181 132.345 38.0005V33.8618H131.349V33.354L132.345 32.916L132.79 31.4307H133.399V33.043H135.418V33.8618H133.399V37.9561C133.399 38.375 133.499 38.6966 133.697 38.9209C133.896 39.1452 134.169 39.2573 134.516 39.2573ZM139.905 36.439C139.905 35.3175 140.068 34.2681 140.394 33.2905C140.724 32.313 141.198 31.4561 141.816 30.7197H142.844C142.235 31.5365 141.776 32.4336 141.467 33.4111C141.162 34.3887 141.01 35.3937 141.01 36.4263C141.01 37.4419 141.166 38.4342 141.479 39.4033C141.793 40.3724 142.243 41.2568 142.831 42.0566H141.816C141.194 41.3372 140.72 40.4972 140.394 39.5366C140.068 38.576 139.905 37.5435 139.905 36.439ZM147.418 40.127C146.389 40.127 145.577 39.8138 144.98 39.1875C144.388 38.5612 144.091 37.6916 144.091 36.5786C144.091 35.4572 144.366 34.5664 144.917 33.9062C145.471 33.2461 146.214 32.916 147.145 32.916C148.016 32.916 148.706 33.2038 149.214 33.7793C149.722 34.3506 149.976 35.106 149.976 36.0454V36.7119H145.183C145.204 37.5286 145.41 38.1486 145.799 38.5718C146.192 38.995 146.745 39.2065 147.456 39.2065C148.205 39.2065 148.945 39.05 149.677 38.7368V39.6763C149.305 39.8371 148.952 39.9513 148.617 40.019C148.287 40.091 147.887 40.127 147.418 40.127ZM147.132 33.7983C146.573 33.7983 146.127 33.9803 145.793 34.3442C145.462 34.7082 145.268 35.2118 145.209 35.855H148.846C148.846 35.1906 148.698 34.6828 148.401 34.3315C148.105 33.9761 147.682 33.7983 147.132 33.7983ZM151.756 39.3271C151.756 39.0436 151.819 38.8299 151.946 38.686C152.078 38.5379 152.264 38.4639 152.505 38.4639C152.75 38.4639 152.941 38.5379 153.076 38.686C153.216 38.8299 153.286 39.0436 153.286 39.3271C153.286 39.6022 153.216 39.8138 153.076 39.9619C152.937 40.11 152.746 40.1841 152.505 40.1841C152.289 40.1841 152.109 40.1185 151.965 39.9873C151.826 39.8519 151.756 39.6318 151.756 39.3271ZM161.198 33.043V33.7095L159.909 33.8618C160.028 34.0099 160.134 34.2046 160.227 34.4458C160.32 34.6828 160.366 34.9515 160.366 35.252C160.366 35.9333 160.134 36.4771 159.668 36.8833C159.203 37.2896 158.564 37.4927 157.751 37.4927C157.544 37.4927 157.349 37.4757 157.167 37.4419C156.719 37.6789 156.494 37.9772 156.494 38.3369C156.494 38.5273 156.573 38.6691 156.729 38.7622C156.886 38.8511 157.155 38.8955 157.535 38.8955H158.767C159.52 38.8955 160.098 39.0542 160.5 39.3716C160.906 39.689 161.109 40.1502 161.109 40.7554C161.109 41.5256 160.8 42.1117 160.182 42.5137C159.565 42.9199 158.663 43.123 157.478 43.123C156.568 43.123 155.866 42.9538 155.371 42.6152C154.88 42.2767 154.635 41.7985 154.635 41.1807C154.635 40.7575 154.77 40.3914 155.041 40.0825C155.312 39.7736 155.692 39.5641 156.183 39.4541C156.006 39.3737 155.855 39.2489 155.733 39.0796C155.614 38.9103 155.555 38.7135 155.555 38.4893C155.555 38.2354 155.623 38.0132 155.758 37.8228C155.894 37.6323 156.107 37.4482 156.399 37.2705C156.039 37.1224 155.745 36.8706 155.517 36.5151C155.293 36.1597 155.18 35.7534 155.18 35.2964C155.18 34.5347 155.409 33.9486 155.866 33.5381C156.323 33.1234 156.97 32.916 157.808 32.916C158.172 32.916 158.5 32.9583 158.792 33.043H161.198ZM155.65 41.168C155.65 41.5446 155.809 41.8302 156.126 42.0249C156.444 42.2196 156.899 42.3169 157.491 42.3169C158.375 42.3169 159.029 42.1836 159.452 41.917C159.88 41.6546 160.094 41.297 160.094 40.8442C160.094 40.4676 159.977 40.2052 159.744 40.0571C159.512 39.9132 159.074 39.8413 158.43 39.8413H157.167C156.689 39.8413 156.317 39.9556 156.05 40.1841C155.783 40.4126 155.65 40.7406 155.65 41.168ZM156.221 35.271C156.221 35.7576 156.359 36.1258 156.634 36.3755C156.909 36.6252 157.292 36.75 157.783 36.75C158.811 36.75 159.325 36.2507 159.325 35.252C159.325 34.2067 158.805 33.6841 157.764 33.6841C157.269 33.6841 156.888 33.8174 156.621 34.084C156.355 34.3506 156.221 34.7463 156.221 35.271ZM162.604 39.3271C162.604 39.0436 162.667 38.8299 162.794 38.686C162.926 38.5379 163.112 38.4639 163.353 38.4639C163.598 38.4639 163.789 38.5379 163.924 38.686C164.064 38.8299 164.134 39.0436 164.134 39.3271C164.134 39.6022 164.064 39.8138 163.924 39.9619C163.785 40.11 163.594 40.1841 163.353 40.1841C163.137 40.1841 162.957 40.1185 162.813 39.9873C162.674 39.8519 162.604 39.6318 162.604 39.3271ZM173.28 40H172.252V33.3857C172.252 32.8356 172.269 32.3151 172.303 31.8242C172.214 31.9131 172.115 32.0062 172.005 32.1035C171.895 32.2008 171.391 32.6134 170.494 33.3413L169.935 32.6177L172.392 30.7197H173.28V40ZM183.097 35.3472C183.097 36.951 182.843 38.1486 182.335 38.9399C181.832 39.7313 181.059 40.127 180.018 40.127C179.02 40.127 178.26 39.7228 177.74 38.9146C177.219 38.1021 176.959 36.9129 176.959 35.3472C176.959 33.7306 177.211 32.5309 177.714 31.748C178.218 30.9652 178.986 30.5737 180.018 30.5737C181.025 30.5737 181.789 30.9821 182.31 31.7988C182.835 32.6156 183.097 33.7983 183.097 35.3472ZM178.025 35.3472C178.025 36.6971 178.184 37.681 178.501 38.2988C178.819 38.9124 179.324 39.2192 180.018 39.2192C180.721 39.2192 181.229 38.9082 181.542 38.2861C181.859 37.6598 182.018 36.6802 182.018 35.3472C182.018 34.0142 181.859 33.0387 181.542 32.4209C181.229 31.7988 180.721 31.4878 180.018 31.4878C179.324 31.4878 178.819 31.7946 178.501 32.4082C178.184 33.0176 178.025 33.9972 178.025 35.3472ZM187.207 36.439C187.207 37.5519 187.042 38.5887 186.712 39.5493C186.386 40.5099 185.914 41.3457 185.296 42.0566H184.281C184.869 41.2611 185.32 40.3787 185.633 39.4097C185.946 38.4364 186.102 37.4419 186.102 36.4263C186.102 35.3937 185.948 34.3887 185.639 33.4111C185.334 32.4336 184.877 31.5365 184.268 30.7197H185.296C185.918 31.4603 186.392 32.3215 186.718 33.3032C187.044 34.2808 187.207 35.326 187.207 36.439Z" fill="#323232"/>
</svg>
