<svg width="354" height="405" viewBox="0 0 354 405" fill="none" xmlns="http://www.w3.org/2000/svg">
<g clip-path="url(#clip0_490_572)">
<g opacity="0.3">
<rect x="276.046" y="112.615" width="323" height="70" rx="10" fill="#F3F3F3"/>
<rect x="292.046" y="128.615" width="291" height="38" rx="3" fill="white"/>
<path opacity="0.5" d="M310.685 147.886C310.685 148.932 310.495 149.806 310.114 150.508C309.733 151.206 309.181 151.733 308.457 152.089C307.738 152.44 306.864 152.615 305.835 152.615H303.315V143.335H306.115C307.058 143.335 307.871 143.509 308.552 143.856C309.234 144.198 309.758 144.708 310.126 145.385C310.499 146.058 310.685 146.892 310.685 147.886ZM309.549 147.925C309.549 147.091 309.409 146.403 309.13 145.862C308.855 145.32 308.449 144.918 307.911 144.656C307.378 144.389 306.724 144.256 305.95 144.256H304.395V151.689H305.708C306.986 151.689 307.945 151.373 308.584 150.743C309.227 150.112 309.549 149.173 309.549 147.925ZM318.718 149.124C318.718 149.696 318.644 150.205 318.496 150.654C318.348 151.103 318.134 151.481 317.855 151.79C317.575 152.099 317.237 152.336 316.839 152.501C316.445 152.662 315.999 152.742 315.5 152.742C315.034 152.742 314.607 152.662 314.217 152.501C313.832 152.336 313.498 152.099 313.214 151.79C312.935 151.481 312.717 151.103 312.561 150.654C312.408 150.205 312.332 149.696 312.332 149.124C312.332 148.363 312.461 147.715 312.719 147.182C312.977 146.644 313.346 146.236 313.824 145.957C314.306 145.673 314.88 145.531 315.544 145.531C316.179 145.531 316.733 145.673 317.207 145.957C317.685 146.24 318.056 146.651 318.318 147.188C318.585 147.721 318.718 148.367 318.718 149.124ZM313.424 149.124C313.424 149.683 313.498 150.167 313.646 150.578C313.794 150.988 314.023 151.306 314.332 151.53C314.641 151.754 315.038 151.866 315.525 151.866C316.007 151.866 316.403 151.754 316.712 151.53C317.025 151.306 317.256 150.988 317.404 150.578C317.552 150.167 317.626 149.683 317.626 149.124C317.626 148.57 317.552 148.092 317.404 147.69C317.256 147.283 317.027 146.97 316.718 146.75C316.409 146.53 316.01 146.42 315.519 146.42C314.795 146.42 314.264 146.659 313.925 147.137C313.591 147.616 313.424 148.278 313.424 149.124ZM323.964 145.531C324.789 145.531 325.413 145.735 325.837 146.141C326.26 146.543 326.471 147.19 326.471 148.083V152.615H325.43V148.153C325.43 147.573 325.297 147.14 325.031 146.852C324.768 146.564 324.364 146.42 323.818 146.42C323.048 146.42 322.506 146.638 322.193 147.074C321.88 147.51 321.723 148.142 321.723 148.972V152.615H320.67V145.658H321.52L321.679 146.661H321.736C321.884 146.416 322.073 146.211 322.301 146.046C322.53 145.876 322.786 145.749 323.069 145.665C323.353 145.576 323.651 145.531 323.964 145.531ZM331.375 145.544C332.204 145.544 332.82 145.73 333.222 146.103C333.624 146.475 333.825 147.07 333.825 147.886V152.615H333.057L332.854 151.587H332.803C332.608 151.841 332.405 152.055 332.194 152.228C331.982 152.398 331.737 152.527 331.457 152.615C331.182 152.7 330.844 152.742 330.442 152.742C330.019 152.742 329.642 152.668 329.312 152.52C328.986 152.372 328.728 152.148 328.537 151.847C328.351 151.547 328.258 151.166 328.258 150.705C328.258 150.011 328.533 149.478 329.083 149.105C329.633 148.733 330.471 148.53 331.597 148.496L332.797 148.445V148.02C332.797 147.419 332.668 146.998 332.41 146.757C332.151 146.515 331.787 146.395 331.318 146.395C330.954 146.395 330.607 146.448 330.277 146.553C329.947 146.659 329.633 146.784 329.337 146.928L329.014 146.128C329.327 145.967 329.686 145.83 330.093 145.716C330.499 145.601 330.926 145.544 331.375 145.544ZM332.784 149.188L331.724 149.232C330.856 149.266 330.245 149.408 329.89 149.657C329.534 149.907 329.356 150.26 329.356 150.718C329.356 151.115 329.477 151.409 329.718 151.6C329.959 151.79 330.279 151.885 330.677 151.885C331.294 151.885 331.8 151.714 332.194 151.371C332.587 151.029 332.784 150.514 332.784 149.829V149.188ZM338.373 151.879C338.547 151.879 338.724 151.864 338.906 151.835C339.088 151.805 339.236 151.769 339.351 151.727V152.546C339.228 152.601 339.056 152.647 338.836 152.685C338.621 152.723 338.409 152.742 338.202 152.742C337.833 152.742 337.499 152.679 337.199 152.552C336.898 152.421 336.657 152.201 336.475 151.892C336.297 151.583 336.208 151.156 336.208 150.61V146.484H335.218V145.969L336.215 145.557L336.634 144.046H337.269V145.658H339.306V146.484H337.269V150.578C337.269 151.014 337.368 151.34 337.567 151.555C337.77 151.771 338.039 151.879 338.373 151.879ZM341.943 145.658V152.615H340.89V145.658H341.943ZM341.429 143.056C341.603 143.056 341.751 143.113 341.874 143.227C342.001 143.337 342.064 143.511 342.064 143.748C342.064 143.981 342.001 144.154 341.874 144.268C341.751 144.383 341.603 144.44 341.429 144.44C341.247 144.44 341.095 144.383 340.972 144.268C340.854 144.154 340.795 143.981 340.795 143.748C340.795 143.511 340.854 143.337 340.972 143.227C341.095 143.113 341.247 143.056 341.429 143.056ZM350.306 149.124C350.306 149.696 350.232 150.205 350.084 150.654C349.936 151.103 349.722 151.481 349.443 151.79C349.164 152.099 348.825 152.336 348.427 152.501C348.034 152.662 347.587 152.742 347.088 152.742C346.623 152.742 346.195 152.662 345.806 152.501C345.421 152.336 345.086 152.099 344.803 151.79C344.524 151.481 344.306 151.103 344.149 150.654C343.997 150.205 343.921 149.696 343.921 149.124C343.921 148.363 344.05 147.715 344.308 147.182C344.566 146.644 344.934 146.236 345.412 145.957C345.895 145.673 346.468 145.531 347.133 145.531C347.767 145.531 348.322 145.673 348.796 145.957C349.274 146.24 349.644 146.651 349.906 147.188C350.173 147.721 350.306 148.367 350.306 149.124ZM345.012 149.124C345.012 149.683 345.086 150.167 345.235 150.578C345.383 150.988 345.611 151.306 345.92 151.53C346.229 151.754 346.627 151.866 347.113 151.866C347.596 151.866 347.992 151.754 348.301 151.53C348.614 151.306 348.844 150.988 348.992 150.578C349.141 150.167 349.215 149.683 349.215 149.124C349.215 148.57 349.141 148.092 348.992 147.69C348.844 147.283 348.616 146.97 348.307 146.75C347.998 146.53 347.598 146.42 347.107 146.42C346.384 146.42 345.852 146.659 345.514 147.137C345.18 147.616 345.012 148.278 345.012 149.124ZM355.553 145.531C356.378 145.531 357.002 145.735 357.425 146.141C357.848 146.543 358.06 147.19 358.06 148.083V152.615H357.019V148.153C357.019 147.573 356.886 147.14 356.619 146.852C356.357 146.564 355.952 146.42 355.407 146.42C354.636 146.42 354.095 146.638 353.782 147.074C353.468 147.51 353.312 148.142 353.312 148.972V152.615H352.258V145.658H353.109L353.267 146.661H353.325C353.473 146.416 353.661 146.211 353.889 146.046C354.118 145.876 354.374 145.749 354.658 145.665C354.941 145.576 355.239 145.531 355.553 145.531ZM366.47 145.544C367.3 145.544 367.915 145.73 368.317 146.103C368.719 146.475 368.92 147.07 368.92 147.886V152.615H368.152L367.949 151.587H367.899C367.704 151.841 367.501 152.055 367.289 152.228C367.078 152.398 366.832 152.527 366.553 152.615C366.278 152.7 365.939 152.742 365.537 152.742C365.114 152.742 364.737 152.668 364.407 152.52C364.081 152.372 363.823 152.148 363.633 151.847C363.447 151.547 363.354 151.166 363.354 150.705C363.354 150.011 363.629 149.478 364.179 149.105C364.729 148.733 365.567 148.53 366.692 148.496L367.892 148.445V148.02C367.892 147.419 367.763 146.998 367.505 146.757C367.247 146.515 366.883 146.395 366.413 146.395C366.049 146.395 365.702 146.448 365.372 146.553C365.042 146.659 364.729 146.784 364.433 146.928L364.109 146.128C364.422 145.967 364.782 145.83 365.188 145.716C365.594 145.601 366.022 145.544 366.47 145.544ZM367.879 149.188L366.819 149.232C365.952 149.266 365.34 149.408 364.985 149.657C364.629 149.907 364.452 150.26 364.452 150.718C364.452 151.115 364.572 151.409 364.814 151.6C365.055 151.79 365.374 151.885 365.772 151.885C366.39 151.885 366.896 151.714 367.289 151.371C367.683 151.029 367.879 150.514 367.879 149.829V149.188ZM378.775 145.531C379.541 145.531 380.119 145.733 380.508 146.135C380.897 146.532 381.092 147.173 381.092 148.058V152.615H380.051V148.109C380.051 147.546 379.928 147.125 379.683 146.845C379.442 146.562 379.082 146.42 378.604 146.42C377.931 146.42 377.442 146.615 377.137 147.004C376.833 147.393 376.68 147.967 376.68 148.724V152.615H375.633V148.109C375.633 147.732 375.578 147.419 375.468 147.169C375.362 146.92 375.201 146.733 374.986 146.611C374.774 146.484 374.505 146.42 374.179 146.42C373.718 146.42 373.348 146.515 373.069 146.706C372.789 146.896 372.586 147.18 372.459 147.556C372.336 147.929 372.275 148.388 372.275 148.934V152.615H371.221V145.658H372.072L372.231 146.642H372.288C372.427 146.401 372.603 146.198 372.815 146.033C373.026 145.868 373.263 145.743 373.526 145.658C373.788 145.574 374.067 145.531 374.363 145.531C374.892 145.531 375.335 145.631 375.69 145.83C376.05 146.024 376.31 146.323 376.471 146.725H376.528C376.757 146.323 377.07 146.024 377.467 145.83C377.865 145.631 378.301 145.531 378.775 145.531ZM389.385 149.124C389.385 149.696 389.311 150.205 389.163 150.654C389.015 151.103 388.801 151.481 388.522 151.79C388.243 152.099 387.904 152.336 387.506 152.501C387.113 152.662 386.666 152.742 386.167 152.742C385.701 152.742 385.274 152.662 384.885 152.501C384.499 152.336 384.165 152.099 383.882 151.79C383.602 151.481 383.384 151.103 383.228 150.654C383.076 150.205 382.999 149.696 382.999 149.124C382.999 148.363 383.128 147.715 383.387 147.182C383.645 146.644 384.013 146.236 384.491 145.957C384.973 145.673 385.547 145.531 386.211 145.531C386.846 145.531 387.4 145.673 387.874 145.957C388.353 146.24 388.723 146.651 388.985 147.188C389.252 147.721 389.385 148.367 389.385 149.124ZM384.091 149.124C384.091 149.683 384.165 150.167 384.313 150.578C384.461 150.988 384.69 151.306 384.999 151.53C385.308 151.754 385.706 151.866 386.192 151.866C386.675 151.866 387.07 151.754 387.379 151.53C387.692 151.306 387.923 150.988 388.071 150.578C388.219 150.167 388.293 149.683 388.293 149.124C388.293 148.57 388.219 148.092 388.071 147.69C387.923 147.283 387.694 146.97 387.386 146.75C387.077 146.53 386.677 146.42 386.186 146.42C385.462 146.42 384.931 146.659 384.593 147.137C384.258 147.616 384.091 148.278 384.091 149.124ZM397.081 145.658V152.615H396.218L396.066 151.638H396.009C395.865 151.879 395.679 152.082 395.45 152.247C395.222 152.412 394.963 152.535 394.676 152.615C394.392 152.7 394.09 152.742 393.768 152.742C393.218 152.742 392.757 152.654 392.384 152.476C392.012 152.298 391.73 152.023 391.54 151.651C391.354 151.278 391.261 150.8 391.261 150.216V145.658H392.327V150.14C392.327 150.72 392.458 151.153 392.721 151.441C392.983 151.725 393.383 151.866 393.92 151.866C394.437 151.866 394.847 151.769 395.152 151.574C395.461 151.38 395.683 151.094 395.818 150.718C395.954 150.337 396.021 149.871 396.021 149.321V145.658H397.081ZM402.734 145.531C403.559 145.531 404.183 145.735 404.607 146.141C405.03 146.543 405.241 147.19 405.241 148.083V152.615H404.2V148.153C404.2 147.573 404.067 147.14 403.8 146.852C403.538 146.564 403.134 146.42 402.588 146.42C401.818 146.42 401.276 146.638 400.963 147.074C400.65 147.51 400.493 148.142 400.493 148.972V152.615H399.44V145.658H400.29L400.449 146.661H400.506C400.654 146.416 400.842 146.211 401.071 146.046C401.299 145.876 401.555 145.749 401.839 145.665C402.122 145.576 402.421 145.531 402.734 145.531ZM409.789 151.879C409.963 151.879 410.14 151.864 410.322 151.835C410.504 151.805 410.653 151.769 410.767 151.727V152.546C410.644 152.601 410.473 152.647 410.253 152.685C410.037 152.723 409.825 152.742 409.618 152.742C409.25 152.742 408.915 152.679 408.615 152.552C408.314 152.421 408.073 152.201 407.891 151.892C407.714 151.583 407.625 151.156 407.625 150.61V146.484H406.634V145.969L407.631 145.557L408.05 144.046H408.685V145.658H410.722V146.484H408.685V150.578C408.685 151.014 408.784 151.34 408.983 151.555C409.186 151.771 409.455 151.879 409.789 151.879ZM415.223 149.054C415.223 148.339 415.29 147.643 415.426 146.966C415.565 146.289 415.777 145.644 416.06 145.03C416.344 144.416 416.702 143.851 417.133 143.335H418.143C417.529 144.139 417.068 145.032 416.759 146.014C416.45 146.996 416.295 148.005 416.295 149.042C416.295 149.719 416.363 150.387 416.498 151.048C416.638 151.704 416.843 152.336 417.114 152.946C417.389 153.555 417.728 154.13 418.13 154.672H417.133C416.702 154.164 416.344 153.61 416.06 153.009C415.777 152.412 415.565 151.78 415.426 151.111C415.29 150.442 415.223 149.757 415.223 149.054ZM422.456 145.531C423.048 145.531 423.556 145.663 423.979 145.925C424.402 146.187 424.726 146.556 424.95 147.03C425.175 147.499 425.287 148.049 425.287 148.68V149.334H420.481C420.494 150.15 420.697 150.773 421.091 151.2C421.484 151.627 422.039 151.841 422.754 151.841C423.194 151.841 423.583 151.801 423.922 151.72C424.26 151.64 424.612 151.522 424.976 151.365V152.292C424.624 152.448 424.275 152.563 423.928 152.635C423.585 152.706 423.179 152.742 422.71 152.742C422.041 152.742 421.457 152.607 420.958 152.336C420.462 152.061 420.077 151.659 419.802 151.13C419.527 150.601 419.39 149.954 419.39 149.188C419.39 148.439 419.515 147.791 419.764 147.245C420.018 146.695 420.374 146.272 420.831 145.976C421.292 145.68 421.834 145.531 422.456 145.531ZM422.443 146.395C421.88 146.395 421.432 146.579 421.097 146.947C420.763 147.315 420.564 147.829 420.501 148.49H424.182C424.178 148.075 424.112 147.711 423.985 147.398C423.863 147.08 423.674 146.835 423.42 146.661C423.167 146.484 422.841 146.395 422.443 146.395ZM427.048 151.955C427.048 151.659 427.12 151.45 427.264 151.327C427.408 151.2 427.583 151.136 427.791 151.136C428.007 151.136 428.188 151.2 428.337 151.327C428.485 151.45 428.559 151.659 428.559 151.955C428.559 152.247 428.485 152.461 428.337 152.596C428.188 152.728 428.007 152.793 427.791 152.793C427.583 152.793 427.408 152.728 427.264 152.596C427.12 152.461 427.048 152.247 427.048 151.955ZM432.694 155.739C431.78 155.739 431.075 155.567 430.58 155.224C430.085 154.886 429.838 154.41 429.838 153.796C429.838 153.36 429.975 152.988 430.25 152.679C430.53 152.37 430.915 152.165 431.406 152.063C431.224 151.979 431.067 151.852 430.936 151.682C430.809 151.513 430.745 151.318 430.745 151.098C430.745 150.844 430.815 150.622 430.955 150.432C431.099 150.237 431.317 150.051 431.609 149.873C431.245 149.725 430.949 149.476 430.72 149.124C430.496 148.769 430.384 148.356 430.384 147.886C430.384 147.387 430.487 146.962 430.695 146.611C430.902 146.255 431.202 145.984 431.596 145.798C431.99 145.612 432.466 145.519 433.024 145.519C433.147 145.519 433.27 145.525 433.392 145.538C433.519 145.546 433.64 145.561 433.754 145.582C433.868 145.599 433.968 145.62 434.053 145.646H436.439V146.325L435.157 146.484C435.284 146.649 435.39 146.848 435.474 147.08C435.559 147.313 435.601 147.571 435.601 147.855C435.601 148.549 435.366 149.101 434.897 149.511C434.427 149.918 433.782 150.121 432.961 150.121C432.766 150.121 432.567 150.104 432.364 150.07C432.157 150.184 431.998 150.311 431.888 150.451C431.782 150.591 431.729 150.751 431.729 150.933C431.729 151.069 431.769 151.177 431.85 151.257C431.935 151.337 432.055 151.397 432.212 151.435C432.368 151.469 432.557 151.486 432.777 151.486H434.002C434.759 151.486 435.339 151.644 435.741 151.962C436.147 152.279 436.35 152.742 436.35 153.352C436.35 154.122 436.037 154.712 435.411 155.123C434.785 155.533 433.879 155.739 432.694 155.739ZM432.726 154.913C433.301 154.913 433.777 154.854 434.154 154.736C434.535 154.621 434.818 154.454 435.005 154.234C435.195 154.018 435.29 153.76 435.29 153.46C435.29 153.18 435.227 152.969 435.1 152.825C434.973 152.685 434.787 152.592 434.541 152.546C434.296 152.495 433.995 152.469 433.64 152.469H432.434C432.121 152.469 431.848 152.518 431.615 152.615C431.382 152.713 431.202 152.857 431.075 153.047C430.953 153.238 430.891 153.475 430.891 153.758C430.891 154.135 431.05 154.42 431.367 154.615C431.685 154.814 432.138 154.913 432.726 154.913ZM432.999 149.353C433.502 149.353 433.881 149.226 434.135 148.972C434.389 148.718 434.516 148.348 434.516 147.861C434.516 147.341 434.387 146.951 434.129 146.693C433.871 146.431 433.49 146.3 432.986 146.3C432.504 146.3 432.131 146.435 431.869 146.706C431.611 146.972 431.482 147.364 431.482 147.88C431.482 148.354 431.613 148.718 431.875 148.972C432.138 149.226 432.512 149.353 432.999 149.353ZM437.782 151.955C437.782 151.659 437.854 151.45 437.997 151.327C438.141 151.2 438.317 151.136 438.524 151.136C438.74 151.136 438.922 151.2 439.07 151.327C439.218 151.45 439.292 151.659 439.292 151.955C439.292 152.247 439.218 152.461 439.07 152.596C438.922 152.728 438.74 152.793 438.524 152.793C438.317 152.793 438.141 152.728 437.997 152.596C437.854 152.461 437.782 152.247 437.782 151.955ZM448.445 152.615H447.417V146.039C447.417 145.79 447.417 145.576 447.417 145.398C447.421 145.216 447.426 145.051 447.43 144.903C447.438 144.751 447.449 144.596 447.462 144.44C447.33 144.575 447.208 144.691 447.093 144.789C446.979 144.882 446.837 144.998 446.668 145.138L445.608 145.989L445.056 145.271L447.569 143.335H448.445V152.615ZM458.224 147.963C458.224 148.716 458.167 149.389 458.053 149.981C457.938 150.574 457.758 151.075 457.513 151.486C457.268 151.896 456.95 152.209 456.561 152.425C456.171 152.637 455.704 152.742 455.158 152.742C454.468 152.742 453.897 152.554 453.444 152.177C452.996 151.801 452.659 151.257 452.435 150.546C452.215 149.831 452.105 148.97 452.105 147.963C452.105 146.972 452.204 146.122 452.403 145.411C452.606 144.696 452.932 144.148 453.381 143.767C453.829 143.382 454.422 143.189 455.158 143.189C455.856 143.189 456.432 143.38 456.885 143.76C457.337 144.137 457.674 144.683 457.894 145.398C458.114 146.109 458.224 146.964 458.224 147.963ZM453.165 147.963C453.165 148.826 453.23 149.545 453.362 150.121C453.493 150.696 453.704 151.128 453.996 151.416C454.293 151.699 454.68 151.841 455.158 151.841C455.636 151.841 456.021 151.699 456.313 151.416C456.609 151.132 456.823 150.703 456.954 150.127C457.09 149.552 457.157 148.83 457.157 147.963C457.157 147.112 457.092 146.401 456.961 145.83C456.83 145.254 456.618 144.823 456.326 144.535C456.034 144.243 455.645 144.097 455.158 144.097C454.671 144.097 454.282 144.243 453.99 144.535C453.698 144.823 453.486 145.254 453.355 145.83C453.228 146.401 453.165 147.112 453.165 147.963ZM462.334 149.042C462.334 149.748 462.264 150.438 462.124 151.111C461.989 151.78 461.78 152.414 461.496 153.015C461.217 153.616 460.859 154.169 460.423 154.672H459.427C459.833 154.135 460.171 153.559 460.442 152.946C460.717 152.332 460.923 151.697 461.058 151.041C461.198 150.381 461.267 149.712 461.267 149.035C461.267 148.346 461.198 147.666 461.058 146.998C460.918 146.329 460.711 145.686 460.436 145.068C460.165 144.45 459.824 143.873 459.414 143.335H460.423C460.859 143.856 461.217 144.423 461.496 145.036C461.78 145.646 461.989 146.289 462.124 146.966C462.264 147.639 462.334 148.331 462.334 149.042Z" fill="#323232"/>
</g>
<rect x="16.1636" y="245.733" width="291" height="78.2358" rx="10" fill="white"/>
<path d="M32.1636 269.29C32.1636 267.69 33.4612 266.392 35.062 266.392L285.142 266.392C286.743 266.392 288.041 267.69 288.041 269.29V269.29C288.041 270.891 286.743 272.189 285.142 272.189H35.0619C33.4612 272.189 32.1636 270.891 32.1636 269.29V269.29Z" fill="#EEEEEE"/>
<rect x="32.1636" y="266.392" width="190.899" height="5.79675" rx="2.89838" fill="#202020"/>
<circle cx="220.161" cy="269.292" r="7.55896" fill="#202020"/>
<circle cx="220.161" cy="269.292" r="4.5011" fill="white"/>
<path d="M32.1636 300.409C32.1636 298.808 33.4612 297.51 35.062 297.51L285.142 297.51C286.743 297.51 288.041 298.808 288.041 300.409V300.409C288.041 302.009 286.743 303.307 285.142 303.307H35.0619C33.4612 303.307 32.1636 302.009 32.1636 300.409V300.409Z" fill="#EEEEEE"/>
<rect x="32.1636" y="297.51" width="91.5654" height="5.79675" rx="2.89838" fill="#202020"/>
<circle cx="123.357" cy="300.411" r="7.55896" fill="#202020"/>
<circle cx="123.357" cy="300.41" r="4.5011" fill="white"/>
<g opacity="0.3">
<rect x="15.1133" y="88.6155" width="213" height="118" rx="10" fill="white"/>
<rect x="31.1133" y="104.615" width="17" height="17" rx="3" fill="#202020"/>
<path d="M35.0107 113.115L38.0791 116.184L44.2158 110.047" stroke="white" stroke-width="1.5"/>
<path d="M62.2036 118.615L61.061 115.67H57.3413L56.2051 118.615H55.1133L58.7441 109.297H59.7153L63.3208 118.615H62.2036ZM60.7373 114.712L59.6519 111.785C59.6265 111.709 59.5841 111.584 59.5249 111.411C59.4699 111.237 59.4128 111.058 59.3535 110.871C59.2943 110.685 59.2456 110.535 59.2075 110.421C59.1652 110.594 59.1187 110.768 59.0679 110.941C59.0213 111.11 58.9748 111.269 58.9282 111.417C58.8817 111.561 58.8415 111.684 58.8076 111.785L57.7031 114.712H60.7373ZM67.0563 118.742C66.1761 118.742 65.4778 118.442 64.9615 117.841C64.4495 117.24 64.1935 116.347 64.1935 115.162C64.1935 113.965 64.4558 113.061 64.9806 112.452C65.5053 111.838 66.2036 111.531 67.0753 111.531C67.4435 111.531 67.7651 111.58 68.0402 111.677C68.3152 111.775 68.5522 111.906 68.7511 112.071C68.95 112.232 69.1171 112.416 69.2526 112.623H69.3287C69.3118 112.492 69.2949 112.312 69.2779 112.084C69.261 111.855 69.2526 111.669 69.2526 111.525V108.739H70.3063V118.615H69.4557L69.297 117.625H69.2526C69.1214 117.833 68.9542 118.021 68.7511 118.19C68.5522 118.359 68.3131 118.495 68.0338 118.596C67.7587 118.694 67.4329 118.742 67.0563 118.742ZM67.2213 117.866C67.9661 117.866 68.493 117.655 68.8019 117.232C69.1108 116.809 69.2653 116.18 69.2653 115.346V115.156C69.2653 114.272 69.1171 113.592 68.8209 113.118C68.5289 112.644 67.9957 112.407 67.2213 112.407C66.5738 112.407 66.0893 112.657 65.7677 113.156C65.4461 113.652 65.2853 114.329 65.2853 115.188C65.2853 116.043 65.444 116.703 65.7613 117.168C66.083 117.634 66.5696 117.866 67.2213 117.866ZM75.1462 118.742C74.266 118.742 73.5678 118.442 73.0515 117.841C72.5395 117.24 72.2834 116.347 72.2834 115.162C72.2834 113.965 72.5458 113.061 73.0705 112.452C73.5953 111.838 74.2935 111.531 75.1653 111.531C75.5334 111.531 75.8551 111.58 76.1301 111.677C76.4052 111.775 76.6422 111.906 76.8411 112.071C77.0399 112.232 77.2071 112.416 77.3425 112.623H77.4187C77.4018 112.492 77.3848 112.312 77.3679 112.084C77.351 111.855 77.3425 111.669 77.3425 111.525V108.739H78.3962V118.615H77.5456L77.387 117.625H77.3425C77.2113 117.833 77.0442 118.021 76.8411 118.19C76.6422 118.359 76.4031 118.495 76.1238 118.596C75.8487 118.694 75.5229 118.742 75.1462 118.742ZM75.3113 117.866C76.0561 117.866 76.5829 117.655 76.8918 117.232C77.2008 116.809 77.3552 116.18 77.3552 115.346V115.156C77.3552 114.272 77.2071 113.592 76.9109 113.118C76.6189 112.644 76.0857 112.407 75.3113 112.407C74.6638 112.407 74.1793 112.657 73.8577 113.156C73.536 113.652 73.3752 114.329 73.3752 115.188C73.3752 116.043 73.5339 116.703 73.8513 117.168C74.1729 117.634 74.6596 117.866 75.3113 117.866ZM87.2763 118.615H86.1909V110.287H83.271V109.335H90.1836V110.287H87.2763V118.615ZM92.6114 108.739V111.69C92.6114 111.859 92.6072 112.031 92.5987 112.204C92.5903 112.374 92.5755 112.53 92.5543 112.674H92.6241C92.768 112.429 92.95 112.223 93.17 112.058C93.3943 111.889 93.6482 111.762 93.9317 111.677C94.2153 111.589 94.5157 111.544 94.8331 111.544C95.3917 111.544 95.8572 111.633 96.2296 111.811C96.6062 111.989 96.8876 112.264 97.0738 112.636C97.2643 113.008 97.3595 113.491 97.3595 114.083V118.615H96.3185V114.153C96.3185 113.573 96.1852 113.14 95.9186 112.852C95.6562 112.564 95.2521 112.42 94.7062 112.42C94.1899 112.42 93.7773 112.52 93.4684 112.719C93.1637 112.913 92.9436 113.201 92.8082 113.582C92.677 113.963 92.6114 114.428 92.6114 114.978V118.615H91.5577V108.739H92.6114ZM100.714 111.658V118.615H99.6604V111.658H100.714ZM100.2 109.056C100.373 109.056 100.522 109.113 100.644 109.227C100.771 109.337 100.835 109.511 100.835 109.748C100.835 109.981 100.771 110.154 100.644 110.268C100.522 110.383 100.373 110.44 100.2 110.44C100.018 110.44 99.8656 110.383 99.7429 110.268C99.6244 110.154 99.5652 109.981 99.5652 109.748C99.5652 109.511 99.6244 109.337 99.7429 109.227C99.8656 109.113 100.018 109.056 100.2 109.056ZM107.579 116.711C107.579 117.156 107.467 117.53 107.243 117.835C107.022 118.135 106.705 118.362 106.29 118.514C105.88 118.666 105.389 118.742 104.818 118.742C104.331 118.742 103.91 118.704 103.555 118.628C103.199 118.552 102.888 118.444 102.621 118.304V117.333C102.905 117.473 103.243 117.6 103.637 117.714C104.031 117.828 104.433 117.885 104.843 117.885C105.444 117.885 105.88 117.788 106.151 117.594C106.422 117.399 106.557 117.134 106.557 116.8C106.557 116.61 106.502 116.442 106.392 116.299C106.286 116.15 106.106 116.009 105.852 115.873C105.598 115.734 105.247 115.581 104.799 115.416C104.354 115.247 103.969 115.08 103.643 114.915C103.322 114.746 103.072 114.54 102.894 114.299C102.721 114.058 102.634 113.745 102.634 113.36C102.634 112.771 102.871 112.321 103.345 112.008C103.823 111.69 104.45 111.531 105.224 111.531C105.643 111.531 106.034 111.574 106.398 111.658C106.766 111.739 107.109 111.849 107.427 111.989L107.071 112.833C106.783 112.71 106.477 112.606 106.151 112.522C105.825 112.437 105.493 112.395 105.154 112.395C104.667 112.395 104.293 112.475 104.031 112.636C103.772 112.797 103.643 113.017 103.643 113.296C103.643 113.512 103.703 113.69 103.821 113.829C103.944 113.969 104.139 114.1 104.405 114.223C104.672 114.346 105.023 114.49 105.459 114.655C105.895 114.815 106.271 114.983 106.589 115.156C106.906 115.325 107.149 115.533 107.319 115.778C107.492 116.019 107.579 116.33 107.579 116.711ZM120.439 113.886C120.439 114.932 120.249 115.806 119.868 116.508C119.487 117.206 118.935 117.733 118.211 118.089C117.492 118.44 116.618 118.615 115.589 118.615H113.069V109.335H115.869C116.812 109.335 117.625 109.509 118.306 109.856C118.988 110.198 119.512 110.708 119.88 111.385C120.253 112.058 120.439 112.892 120.439 113.886ZM119.303 113.925C119.303 113.091 119.163 112.403 118.884 111.862C118.609 111.32 118.203 110.918 117.665 110.656C117.132 110.389 116.478 110.256 115.704 110.256H114.149V117.689H115.462C116.74 117.689 117.699 117.373 118.338 116.743C118.981 116.112 119.303 115.173 119.303 113.925ZM128.472 115.124C128.472 115.696 128.398 116.205 128.25 116.654C128.102 117.103 127.888 117.481 127.609 117.79C127.329 118.099 126.991 118.336 126.593 118.501C126.199 118.662 125.753 118.742 125.254 118.742C124.788 118.742 124.361 118.662 123.971 118.501C123.586 118.336 123.252 118.099 122.968 117.79C122.689 117.481 122.471 117.103 122.315 116.654C122.162 116.205 122.086 115.696 122.086 115.124C122.086 114.363 122.215 113.715 122.473 113.182C122.731 112.644 123.1 112.236 123.578 111.957C124.06 111.673 124.634 111.531 125.298 111.531C125.933 111.531 126.487 111.673 126.961 111.957C127.439 112.24 127.81 112.651 128.072 113.188C128.339 113.721 128.472 114.367 128.472 115.124ZM123.178 115.124C123.178 115.683 123.252 116.167 123.4 116.578C123.548 116.988 123.777 117.306 124.086 117.53C124.395 117.754 124.792 117.866 125.279 117.866C125.761 117.866 126.157 117.754 126.466 117.53C126.779 117.306 127.01 116.988 127.158 116.578C127.306 116.167 127.38 115.683 127.38 115.124C127.38 114.57 127.306 114.092 127.158 113.69C127.01 113.283 126.781 112.97 126.472 112.75C126.163 112.53 125.764 112.42 125.273 112.42C124.549 112.42 124.018 112.659 123.679 113.137C123.345 113.616 123.178 114.278 123.178 115.124ZM133.718 111.531C134.543 111.531 135.167 111.735 135.591 112.141C136.014 112.543 136.225 113.19 136.225 114.083V118.615H135.184V114.153C135.184 113.573 135.051 113.14 134.784 112.852C134.522 112.564 134.118 112.42 133.572 112.42C132.802 112.42 132.26 112.638 131.947 113.074C131.634 113.51 131.477 114.142 131.477 114.972V118.615H130.424V111.658H131.274L131.433 112.661H131.49C131.638 112.416 131.826 112.211 132.055 112.046C132.284 111.876 132.54 111.749 132.823 111.665C133.107 111.576 133.405 111.531 133.718 111.531ZM141.129 111.544C141.958 111.544 142.574 111.73 142.976 112.103C143.378 112.475 143.579 113.07 143.579 113.886V118.615H142.811L142.608 117.587H142.557C142.362 117.841 142.159 118.055 141.948 118.228C141.736 118.398 141.491 118.527 141.211 118.615C140.936 118.7 140.598 118.742 140.196 118.742C139.773 118.742 139.396 118.668 139.066 118.52C138.74 118.372 138.482 118.148 138.291 117.847C138.105 117.547 138.012 117.166 138.012 116.705C138.012 116.011 138.287 115.478 138.837 115.105C139.387 114.733 140.225 114.53 141.351 114.496L142.551 114.445V114.02C142.551 113.419 142.422 112.998 142.164 112.757C141.905 112.515 141.541 112.395 141.072 112.395C140.708 112.395 140.361 112.448 140.031 112.553C139.701 112.659 139.387 112.784 139.091 112.928L138.768 112.128C139.081 111.967 139.44 111.83 139.847 111.716C140.253 111.601 140.68 111.544 141.129 111.544ZM142.538 115.188L141.478 115.232C140.61 115.266 139.999 115.408 139.643 115.657C139.288 115.907 139.11 116.26 139.11 116.718C139.11 117.115 139.231 117.409 139.472 117.6C139.713 117.79 140.033 117.885 140.431 117.885C141.048 117.885 141.554 117.714 141.948 117.371C142.341 117.029 142.538 116.514 142.538 115.829V115.188ZM148.127 117.879C148.301 117.879 148.478 117.864 148.66 117.835C148.842 117.805 148.99 117.769 149.105 117.727V118.546C148.982 118.601 148.81 118.647 148.59 118.685C148.375 118.723 148.163 118.742 147.956 118.742C147.587 118.742 147.253 118.679 146.953 118.552C146.652 118.421 146.411 118.201 146.229 117.892C146.051 117.583 145.962 117.156 145.962 116.61V112.484H144.972V111.969L145.969 111.557L146.388 110.046H147.023V111.658H149.06V112.484H147.023V116.578C147.023 117.014 147.122 117.34 147.321 117.555C147.524 117.771 147.793 117.879 148.127 117.879ZM151.697 111.658V118.615H150.644V111.658H151.697ZM151.183 109.056C151.357 109.056 151.505 109.113 151.628 109.227C151.755 109.337 151.818 109.511 151.818 109.748C151.818 109.981 151.755 110.154 151.628 110.268C151.505 110.383 151.357 110.44 151.183 110.44C151.001 110.44 150.849 110.383 150.726 110.268C150.608 110.154 150.549 109.981 150.549 109.748C150.549 109.511 150.608 109.337 150.726 109.227C150.849 109.113 151.001 109.056 151.183 109.056ZM160.06 115.124C160.06 115.696 159.986 116.205 159.838 116.654C159.69 117.103 159.476 117.481 159.197 117.79C158.918 118.099 158.579 118.336 158.181 118.501C157.788 118.662 157.341 118.742 156.842 118.742C156.377 118.742 155.949 118.662 155.56 118.501C155.175 118.336 154.84 118.099 154.557 117.79C154.278 117.481 154.06 117.103 153.903 116.654C153.751 116.205 153.675 115.696 153.675 115.124C153.675 114.363 153.804 113.715 154.062 113.182C154.32 112.644 154.688 112.236 155.166 111.957C155.649 111.673 156.222 111.531 156.887 111.531C157.521 111.531 158.076 111.673 158.55 111.957C159.028 112.24 159.398 112.651 159.66 113.188C159.927 113.721 160.06 114.367 160.06 115.124ZM154.766 115.124C154.766 115.683 154.84 116.167 154.989 116.578C155.137 116.988 155.365 117.306 155.674 117.53C155.983 117.754 156.381 117.866 156.867 117.866C157.35 117.866 157.746 117.754 158.054 117.53C158.368 117.306 158.598 116.988 158.746 116.578C158.894 116.167 158.969 115.683 158.969 115.124C158.969 114.57 158.894 114.092 158.746 113.69C158.598 113.283 158.37 112.97 158.061 112.75C157.752 112.53 157.352 112.42 156.861 112.42C156.137 112.42 155.606 112.659 155.268 113.137C154.934 113.616 154.766 114.278 154.766 115.124ZM165.307 111.531C166.132 111.531 166.756 111.735 167.179 112.141C167.602 112.543 167.814 113.19 167.814 114.083V118.615H166.773V114.153C166.773 113.573 166.64 113.14 166.373 112.852C166.111 112.564 165.706 112.42 165.161 112.42C164.39 112.42 163.849 112.638 163.536 113.074C163.222 113.51 163.066 114.142 163.066 114.972V118.615H162.012V111.658H162.863L163.021 112.661H163.079C163.227 112.416 163.415 112.211 163.643 112.046C163.872 111.876 164.128 111.749 164.412 111.665C164.695 111.576 164.993 111.531 165.307 111.531Z" fill="#202020"/>
<rect x="31.1133" y="138.615" width="17" height="17" rx="3" fill="#202020"/>
<path d="M35.0107 147.115L38.0791 150.184L44.2158 144.047" stroke="white" stroke-width="1.5"/>
<path d="M62.2036 152.615L61.061 149.67H57.3413L56.2051 152.615H55.1133L58.7441 143.297H59.7153L63.3208 152.615H62.2036ZM60.7373 148.712L59.6519 145.785C59.6265 145.709 59.5841 145.584 59.5249 145.411C59.4699 145.237 59.4128 145.058 59.3535 144.871C59.2943 144.685 59.2456 144.535 59.2075 144.421C59.1652 144.594 59.1187 144.768 59.0679 144.941C59.0213 145.11 58.9748 145.269 58.9282 145.417C58.8817 145.561 58.8415 145.684 58.8076 145.785L57.7031 148.712H60.7373ZM67.0563 152.742C66.1761 152.742 65.4778 152.442 64.9615 151.841C64.4495 151.24 64.1935 150.347 64.1935 149.162C64.1935 147.965 64.4558 147.061 64.9806 146.452C65.5053 145.838 66.2036 145.531 67.0753 145.531C67.4435 145.531 67.7651 145.58 68.0402 145.677C68.3152 145.775 68.5522 145.906 68.7511 146.071C68.95 146.232 69.1171 146.416 69.2526 146.623H69.3287C69.3118 146.492 69.2949 146.312 69.2779 146.084C69.261 145.855 69.2526 145.669 69.2526 145.525V142.739H70.3063V152.615H69.4557L69.297 151.625H69.2526C69.1214 151.833 68.9542 152.021 68.7511 152.19C68.5522 152.359 68.3131 152.495 68.0338 152.596C67.7587 152.694 67.4329 152.742 67.0563 152.742ZM67.2213 151.866C67.9661 151.866 68.493 151.655 68.8019 151.232C69.1108 150.809 69.2653 150.18 69.2653 149.346V149.156C69.2653 148.272 69.1171 147.592 68.8209 147.118C68.5289 146.644 67.9957 146.407 67.2213 146.407C66.5738 146.407 66.0893 146.657 65.7677 147.156C65.4461 147.652 65.2853 148.329 65.2853 149.188C65.2853 150.043 65.444 150.703 65.7613 151.168C66.083 151.634 66.5696 151.866 67.2213 151.866ZM75.1462 152.742C74.266 152.742 73.5678 152.442 73.0515 151.841C72.5395 151.24 72.2834 150.347 72.2834 149.162C72.2834 147.965 72.5458 147.061 73.0705 146.452C73.5953 145.838 74.2935 145.531 75.1653 145.531C75.5334 145.531 75.8551 145.58 76.1301 145.677C76.4052 145.775 76.6422 145.906 76.8411 146.071C77.0399 146.232 77.2071 146.416 77.3425 146.623H77.4187C77.4018 146.492 77.3848 146.312 77.3679 146.084C77.351 145.855 77.3425 145.669 77.3425 145.525V142.739H78.3962V152.615H77.5456L77.387 151.625H77.3425C77.2113 151.833 77.0442 152.021 76.8411 152.19C76.6422 152.359 76.4031 152.495 76.1238 152.596C75.8487 152.694 75.5229 152.742 75.1462 152.742ZM75.3113 151.866C76.0561 151.866 76.5829 151.655 76.8918 151.232C77.2008 150.809 77.3552 150.18 77.3552 149.346V149.156C77.3552 148.272 77.2071 147.592 76.9109 147.118C76.6189 146.644 76.0857 146.407 75.3113 146.407C74.6638 146.407 74.1793 146.657 73.8577 147.156C73.536 147.652 73.3752 148.329 73.3752 149.188C73.3752 150.043 73.5339 150.703 73.8513 151.168C74.1729 151.634 74.6596 151.866 75.3113 151.866ZM87.2763 152.615H86.1909V144.287H83.271V143.335H90.1836V144.287H87.2763V152.615ZM92.6114 142.739V145.69C92.6114 145.859 92.6072 146.031 92.5987 146.204C92.5903 146.374 92.5755 146.53 92.5543 146.674H92.6241C92.768 146.429 92.95 146.223 93.17 146.058C93.3943 145.889 93.6482 145.762 93.9317 145.677C94.2153 145.589 94.5157 145.544 94.8331 145.544C95.3917 145.544 95.8572 145.633 96.2296 145.811C96.6062 145.989 96.8876 146.264 97.0738 146.636C97.2643 147.008 97.3595 147.491 97.3595 148.083V152.615H96.3185V148.153C96.3185 147.573 96.1852 147.14 95.9186 146.852C95.6562 146.564 95.2521 146.42 94.7062 146.42C94.1899 146.42 93.7773 146.52 93.4684 146.719C93.1637 146.913 92.9436 147.201 92.8082 147.582C92.677 147.963 92.6114 148.428 92.6114 148.978V152.615H91.5577V142.739H92.6114ZM100.714 145.658V152.615H99.6604V145.658H100.714ZM100.2 143.056C100.373 143.056 100.522 143.113 100.644 143.227C100.771 143.337 100.835 143.511 100.835 143.748C100.835 143.981 100.771 144.154 100.644 144.268C100.522 144.383 100.373 144.44 100.2 144.44C100.018 144.44 99.8656 144.383 99.7429 144.268C99.6244 144.154 99.5652 143.981 99.5652 143.748C99.5652 143.511 99.6244 143.337 99.7429 143.227C99.8656 143.113 100.018 143.056 100.2 143.056ZM107.579 150.711C107.579 151.156 107.467 151.53 107.243 151.835C107.022 152.135 106.705 152.362 106.29 152.514C105.88 152.666 105.389 152.742 104.818 152.742C104.331 152.742 103.91 152.704 103.555 152.628C103.199 152.552 102.888 152.444 102.621 152.304V151.333C102.905 151.473 103.243 151.6 103.637 151.714C104.031 151.828 104.433 151.885 104.843 151.885C105.444 151.885 105.88 151.788 106.151 151.594C106.422 151.399 106.557 151.134 106.557 150.8C106.557 150.61 106.502 150.442 106.392 150.299C106.286 150.15 106.106 150.009 105.852 149.873C105.598 149.734 105.247 149.581 104.799 149.416C104.354 149.247 103.969 149.08 103.643 148.915C103.322 148.746 103.072 148.54 102.894 148.299C102.721 148.058 102.634 147.745 102.634 147.36C102.634 146.771 102.871 146.321 103.345 146.008C103.823 145.69 104.45 145.531 105.224 145.531C105.643 145.531 106.034 145.574 106.398 145.658C106.766 145.739 107.109 145.849 107.427 145.989L107.071 146.833C106.783 146.71 106.477 146.606 106.151 146.522C105.825 146.437 105.493 146.395 105.154 146.395C104.667 146.395 104.293 146.475 104.031 146.636C103.772 146.797 103.643 147.017 103.643 147.296C103.643 147.512 103.703 147.69 103.821 147.829C103.944 147.969 104.139 148.1 104.405 148.223C104.672 148.346 105.023 148.49 105.459 148.655C105.895 148.815 106.271 148.983 106.589 149.156C106.906 149.325 107.149 149.533 107.319 149.778C107.492 150.019 107.579 150.33 107.579 150.711ZM115.92 152.615H114.834V144.287H111.914V143.335H118.827V144.287H115.92V152.615ZM126.199 149.124C126.199 149.696 126.125 150.205 125.977 150.654C125.829 151.103 125.615 151.481 125.336 151.79C125.057 152.099 124.718 152.336 124.321 152.501C123.927 152.662 123.481 152.742 122.981 152.742C122.516 152.742 122.088 152.662 121.699 152.501C121.314 152.336 120.98 152.099 120.696 151.79C120.417 151.481 120.199 151.103 120.042 150.654C119.89 150.205 119.814 149.696 119.814 149.124C119.814 148.363 119.943 147.715 120.201 147.182C120.459 146.644 120.827 146.236 121.305 145.957C121.788 145.673 122.361 145.531 123.026 145.531C123.66 145.531 124.215 145.673 124.689 145.957C125.167 146.24 125.537 146.651 125.8 147.188C126.066 147.721 126.199 148.367 126.199 149.124ZM120.905 149.124C120.905 149.683 120.98 150.167 121.128 150.578C121.276 150.988 121.504 151.306 121.813 151.53C122.122 151.754 122.52 151.866 123.007 151.866C123.489 151.866 123.885 151.754 124.194 151.53C124.507 151.306 124.737 150.988 124.885 150.578C125.034 150.167 125.108 149.683 125.108 149.124C125.108 148.57 125.034 148.092 124.885 147.69C124.737 147.283 124.509 146.97 124.2 146.75C123.891 146.53 123.491 146.42 123 146.42C122.277 146.42 121.745 146.659 121.407 147.137C121.073 147.616 120.905 148.278 120.905 149.124ZM134.15 149.124C134.15 149.696 134.076 150.205 133.928 150.654C133.779 151.103 133.566 151.481 133.286 151.79C133.007 152.099 132.669 152.336 132.271 152.501C131.877 152.662 131.431 152.742 130.931 152.742C130.466 152.742 130.039 152.662 129.649 152.501C129.264 152.336 128.93 152.099 128.646 151.79C128.367 151.481 128.149 151.103 127.993 150.654C127.84 150.205 127.764 149.696 127.764 149.124C127.764 148.363 127.893 147.715 128.151 147.182C128.409 146.644 128.777 146.236 129.256 145.957C129.738 145.673 130.312 145.531 130.976 145.531C131.611 145.531 132.165 145.673 132.639 145.957C133.117 146.24 133.487 146.651 133.75 147.188C134.016 147.721 134.15 148.367 134.15 149.124ZM128.856 149.124C128.856 149.683 128.93 150.167 129.078 150.578C129.226 150.988 129.455 151.306 129.763 151.53C130.072 151.754 130.47 151.866 130.957 151.866C131.439 151.866 131.835 151.754 132.144 151.53C132.457 151.306 132.688 150.988 132.836 150.578C132.984 150.167 133.058 149.683 133.058 149.124C133.058 148.57 132.984 148.092 132.836 147.69C132.688 147.283 132.459 146.97 132.15 146.75C131.841 146.53 131.441 146.42 130.951 146.42C130.227 146.42 129.696 146.659 129.357 147.137C129.023 147.616 128.856 148.278 128.856 149.124Z" fill="#202020"/>
<rect x="31.1133" y="172.615" width="17" height="17" rx="3" fill="#202020"/>
<path d="M35.0107 181.115L38.0791 184.184L44.2158 178.047" stroke="white" stroke-width="1.5"/>
<path d="M63.416 186.615H62.3369V182.242H57.4619V186.615H56.3828V177.335H57.4619V181.29H62.3369V177.335H63.416V186.615ZM71.9376 183.124C71.9376 183.696 71.8636 184.205 71.7154 184.654C71.5673 185.103 71.3536 185.481 71.0743 185.79C70.795 186.099 70.4565 186.336 70.0587 186.501C69.6652 186.662 69.2187 186.742 68.7194 186.742C68.2539 186.742 67.8265 186.662 67.4371 186.501C67.052 186.336 66.7177 186.099 66.4342 185.79C66.1549 185.481 65.937 185.103 65.7804 184.654C65.628 184.205 65.5519 183.696 65.5519 183.124C65.5519 182.363 65.6809 181.715 65.9391 181.182C66.1972 180.644 66.5654 180.236 67.0436 179.957C67.526 179.673 68.0994 179.531 68.7638 179.531C69.3986 179.531 69.9529 179.673 70.4269 179.957C70.9051 180.24 71.2753 180.651 71.5377 181.188C71.8043 181.721 71.9376 182.367 71.9376 183.124ZM66.6437 183.124C66.6437 183.683 66.7177 184.167 66.8658 184.578C67.014 184.988 67.2425 185.306 67.5514 185.53C67.8603 185.754 68.2581 185.866 68.7447 185.866C69.2272 185.866 69.6228 185.754 69.9318 185.53C70.2449 185.306 70.4755 184.988 70.6237 184.578C70.7718 184.167 70.8458 183.683 70.8458 183.124C70.8458 182.57 70.7718 182.092 70.6237 181.69C70.4755 181.283 70.247 180.97 69.9381 180.75C69.6292 180.53 69.2293 180.42 68.7384 180.42C68.0148 180.42 67.4837 180.659 67.1451 181.137C66.8108 181.616 66.6437 182.278 66.6437 183.124ZM79.5515 186.603L78.3137 182.553C78.2587 182.379 78.2058 182.21 78.155 182.045C78.1085 181.876 78.064 181.715 78.0217 181.563C77.9836 181.406 77.9477 181.262 77.9138 181.131C77.8842 180.996 77.8588 180.879 77.8376 180.782H77.7932C77.7763 180.879 77.753 180.996 77.7234 181.131C77.6938 181.262 77.6578 181.406 77.6155 181.563C77.5774 181.719 77.5351 181.884 77.4885 182.058C77.442 182.227 77.3891 182.399 77.3298 182.572L76.0349 186.603H74.8479L72.9309 179.646H74.0227L75.0256 183.486C75.0933 183.74 75.1568 183.992 75.2161 184.241C75.2795 184.487 75.3324 184.72 75.3747 184.94C75.4213 185.156 75.4551 185.344 75.4763 185.505H75.5271C75.5525 185.399 75.58 185.272 75.6096 185.124C75.6435 184.976 75.6794 184.819 75.7175 184.654C75.7598 184.485 75.8043 184.318 75.8508 184.153C75.8974 183.983 75.9439 183.825 75.9905 183.677L77.2727 179.646H78.4089L79.6467 183.67C79.7102 183.873 79.7716 184.085 79.8308 184.305C79.8943 184.525 79.9514 184.739 80.0022 184.946C80.053 185.149 80.0889 185.331 80.1101 185.492H80.1609C80.1778 185.348 80.2095 185.17 80.2561 184.959C80.3026 184.747 80.3555 184.514 80.4148 184.26C80.4783 184.007 80.5439 183.748 80.6116 183.486L81.6272 179.646H82.6999L80.7766 186.603H79.5515ZM90.209 179.544C91.0384 179.544 91.6541 179.73 92.0561 180.103C92.4582 180.475 92.6592 181.07 92.6592 181.886V186.615H91.8911L91.688 185.587H91.6372C91.4425 185.841 91.2394 186.055 91.0278 186.228C90.8162 186.398 90.5708 186.527 90.2915 186.615C90.0164 186.7 89.6779 186.742 89.2759 186.742C88.8527 186.742 88.4761 186.668 88.146 186.52C87.8201 186.372 87.562 186.148 87.3716 185.847C87.1854 185.547 87.0923 185.166 87.0923 184.705C87.0923 184.011 87.3673 183.478 87.9175 183.105C88.4676 182.733 89.3055 182.53 90.4311 182.496L91.6308 182.445V182.02C91.6308 181.419 91.5018 180.998 91.2436 180.757C90.9855 180.515 90.6216 180.395 90.1518 180.395C89.7879 180.395 89.4409 180.448 89.1108 180.553C88.7807 180.659 88.4676 180.784 88.1714 180.928L87.8476 180.128C88.1608 179.967 88.5205 179.83 88.9267 179.716C89.333 179.601 89.7604 179.544 90.209 179.544ZM91.6181 183.188L90.5581 183.232C89.6906 183.266 89.0791 183.408 88.7236 183.657C88.3681 183.907 88.1904 184.26 88.1904 184.718C88.1904 185.115 88.311 185.409 88.5522 185.6C88.7934 185.79 89.1129 185.885 89.5107 185.885C90.1286 185.885 90.6343 185.714 91.0278 185.371C91.4214 185.029 91.6181 184.514 91.6181 183.829V183.188ZM96.0138 176.739V179.208C96.0138 179.491 96.0053 179.766 95.9884 180.033C95.9757 180.3 95.9651 180.507 95.9566 180.655H96.0138C96.2042 180.342 96.4793 180.077 96.839 179.862C97.1987 179.646 97.6578 179.538 98.2164 179.538C99.0882 179.538 99.7822 179.84 100.298 180.446C100.819 181.046 101.079 181.941 101.079 183.131C101.079 183.913 100.961 184.574 100.724 185.111C100.487 185.649 100.152 186.055 99.7208 186.33C99.2892 186.605 98.7792 186.742 98.191 186.742C97.6409 186.742 97.1881 186.641 96.8326 186.438C96.4814 186.23 96.2105 185.979 96.0201 185.682H95.9376L95.7218 186.615H94.9601V176.739H96.0138ZM98.045 180.42C97.5414 180.42 97.1415 180.52 96.8453 180.719C96.5491 180.913 96.3354 181.209 96.2042 181.607C96.0772 182.001 96.0138 182.5 96.0138 183.105V183.162C96.0138 184.038 96.1598 184.709 96.4518 185.175C96.7438 185.636 97.2748 185.866 98.045 185.866C98.6925 185.866 99.177 185.629 99.4986 185.156C99.8245 184.682 99.9874 184.004 99.9874 183.124C99.9874 182.227 99.8266 181.552 99.505 181.099C99.1876 180.647 98.7009 180.42 98.045 180.42ZM109.049 183.124C109.049 183.696 108.974 184.205 108.826 184.654C108.678 185.103 108.465 185.481 108.185 185.79C107.906 186.099 107.567 186.336 107.17 186.501C106.776 186.662 106.33 186.742 105.83 186.742C105.365 186.742 104.937 186.662 104.548 186.501C104.163 186.336 103.829 186.099 103.545 185.79C103.266 185.481 103.048 185.103 102.891 184.654C102.739 184.205 102.663 183.696 102.663 183.124C102.663 182.363 102.792 181.715 103.05 181.182C103.308 180.644 103.676 180.236 104.155 179.957C104.637 179.673 105.21 179.531 105.875 179.531C106.509 179.531 107.064 179.673 107.538 179.957C108.016 180.24 108.386 180.651 108.649 181.188C108.915 181.721 109.049 182.367 109.049 183.124ZM103.755 183.124C103.755 183.683 103.829 184.167 103.977 184.578C104.125 184.988 104.353 185.306 104.662 185.53C104.971 185.754 105.369 185.866 105.856 185.866C106.338 185.866 106.734 185.754 107.043 185.53C107.356 185.306 107.586 184.988 107.735 184.578C107.883 184.167 107.957 183.683 107.957 183.124C107.957 182.57 107.883 182.092 107.735 181.69C107.586 181.283 107.358 180.97 107.049 180.75C106.74 180.53 106.34 180.42 105.849 180.42C105.126 180.42 104.595 180.659 104.256 181.137C103.922 181.616 103.755 182.278 103.755 183.124ZM116.745 179.658V186.615H115.882L115.729 185.638H115.672C115.528 185.879 115.342 186.082 115.114 186.247C114.885 186.412 114.627 186.535 114.339 186.615C114.056 186.7 113.753 186.742 113.431 186.742C112.881 186.742 112.42 186.654 112.048 186.476C111.675 186.298 111.394 186.023 111.203 185.651C111.017 185.278 110.924 184.8 110.924 184.216V179.658H111.991V184.14C111.991 184.72 112.122 185.153 112.384 185.441C112.646 185.725 113.046 185.866 113.584 185.866C114.1 185.866 114.511 185.769 114.815 185.574C115.124 185.38 115.346 185.094 115.482 184.718C115.617 184.337 115.685 183.871 115.685 183.321V179.658H116.745ZM121.35 185.879C121.524 185.879 121.701 185.864 121.883 185.835C122.065 185.805 122.213 185.769 122.328 185.727V186.546C122.205 186.601 122.033 186.647 121.813 186.685C121.598 186.723 121.386 186.742 121.179 186.742C120.811 186.742 120.476 186.679 120.176 186.552C119.875 186.421 119.634 186.201 119.452 185.892C119.274 185.583 119.186 185.156 119.186 184.61V180.484H118.195V179.969L119.192 179.557L119.611 178.046H120.246V179.658H122.283V180.484H120.246V184.578C120.246 185.014 120.345 185.34 120.544 185.555C120.747 185.771 121.016 185.879 121.35 185.879ZM129.621 185.879C129.794 185.879 129.972 185.864 130.154 185.835C130.336 185.805 130.484 185.769 130.598 185.727V186.546C130.476 186.601 130.304 186.647 130.084 186.685C129.868 186.723 129.657 186.742 129.449 186.742C129.081 186.742 128.747 186.679 128.446 186.552C128.146 186.421 127.905 186.201 127.723 185.892C127.545 185.583 127.456 185.156 127.456 184.61V180.484H126.466V179.969L127.463 179.557L127.882 178.046H128.516V179.658H130.554V180.484H128.516V184.578C128.516 185.014 128.616 185.34 128.815 185.555C129.018 185.771 129.286 185.879 129.621 185.879ZM133.191 176.739V179.69C133.191 179.859 133.187 180.031 133.179 180.204C133.17 180.374 133.155 180.53 133.134 180.674H133.204C133.348 180.429 133.53 180.223 133.75 180.058C133.974 179.889 134.228 179.762 134.512 179.677C134.795 179.589 135.096 179.544 135.413 179.544C135.972 179.544 136.437 179.633 136.809 179.811C137.186 179.989 137.467 180.264 137.654 180.636C137.844 181.008 137.939 181.491 137.939 182.083V186.615H136.898V182.153C136.898 181.573 136.765 181.14 136.498 180.852C136.236 180.564 135.832 180.42 135.286 180.42C134.77 180.42 134.357 180.52 134.048 180.719C133.743 180.913 133.523 181.201 133.388 181.582C133.257 181.963 133.191 182.428 133.191 182.978V186.615H132.138V176.739H133.191ZM141.294 179.658V186.615H140.24V179.658H141.294ZM140.78 177.056C140.953 177.056 141.101 177.113 141.224 177.227C141.351 177.337 141.414 177.511 141.414 177.748C141.414 177.981 141.351 178.154 141.224 178.268C141.101 178.383 140.953 178.44 140.78 178.44C140.598 178.44 140.445 178.383 140.323 178.268C140.204 178.154 140.145 177.981 140.145 177.748C140.145 177.511 140.204 177.337 140.323 177.227C140.445 177.113 140.598 177.056 140.78 177.056ZM148.159 184.711C148.159 185.156 148.047 185.53 147.822 185.835C147.602 186.135 147.285 186.362 146.87 186.514C146.46 186.666 145.969 186.742 145.398 186.742C144.911 186.742 144.49 186.704 144.134 186.628C143.779 186.552 143.468 186.444 143.201 186.304V185.333C143.485 185.473 143.823 185.6 144.217 185.714C144.61 185.828 145.012 185.885 145.423 185.885C146.024 185.885 146.46 185.788 146.731 185.594C147.001 185.399 147.137 185.134 147.137 184.8C147.137 184.61 147.082 184.442 146.972 184.299C146.866 184.15 146.686 184.009 146.432 183.873C146.178 183.734 145.827 183.581 145.378 183.416C144.934 183.247 144.549 183.08 144.223 182.915C143.902 182.746 143.652 182.54 143.474 182.299C143.301 182.058 143.214 181.745 143.214 181.36C143.214 180.771 143.451 180.321 143.925 180.008C144.403 179.69 145.029 179.531 145.804 179.531C146.223 179.531 146.614 179.574 146.978 179.658C147.346 179.739 147.689 179.849 148.006 179.989L147.651 180.833C147.363 180.71 147.056 180.606 146.731 180.522C146.405 180.437 146.072 180.395 145.734 180.395C145.247 180.395 144.873 180.475 144.61 180.636C144.352 180.797 144.223 181.017 144.223 181.296C144.223 181.512 144.282 181.69 144.401 181.829C144.524 181.969 144.718 182.1 144.985 182.223C145.252 182.346 145.603 182.49 146.039 182.655C146.475 182.815 146.851 182.983 147.169 183.156C147.486 183.325 147.729 183.533 147.898 183.778C148.072 184.019 148.159 184.33 148.159 184.711ZM150.701 184.038V183.708C150.701 183.37 150.733 183.08 150.796 182.839C150.86 182.593 150.97 182.365 151.126 182.153C151.287 181.941 151.509 181.717 151.793 181.48C152.123 181.205 152.383 180.972 152.573 180.782C152.768 180.587 152.908 180.393 152.992 180.198C153.077 180.003 153.119 179.768 153.119 179.493C153.119 179.053 152.978 178.717 152.694 178.484C152.41 178.247 152.011 178.129 151.494 178.129C151.075 178.129 150.703 178.182 150.377 178.287C150.051 178.393 149.738 178.52 149.438 178.668L149.07 177.818C149.417 177.636 149.793 177.488 150.199 177.373C150.606 177.259 151.058 177.202 151.558 177.202C152.375 177.202 153.007 177.405 153.456 177.811C153.904 178.213 154.129 178.768 154.129 179.474C154.129 179.868 154.065 180.204 153.938 180.484C153.811 180.759 153.631 181.013 153.399 181.245C153.166 181.474 152.891 181.717 152.573 181.975C152.294 182.212 152.08 182.422 151.932 182.604C151.784 182.781 151.683 182.966 151.628 183.156C151.573 183.342 151.545 183.566 151.545 183.829V184.038H150.701ZM150.422 185.955C150.422 185.659 150.491 185.45 150.631 185.327C150.771 185.2 150.951 185.136 151.171 185.136C151.378 185.136 151.554 185.2 151.697 185.327C151.846 185.45 151.92 185.659 151.92 185.955C151.92 186.247 151.846 186.461 151.697 186.596C151.554 186.728 151.378 186.793 151.171 186.793C150.951 186.793 150.771 186.728 150.631 186.596C150.491 186.461 150.422 186.247 150.422 185.955Z" fill="#202020"/>
</g>
<rect opacity="0.3" x="0.291016" y="76.0078" width="243.39" height="144.578" stroke="#202020" stroke-dasharray="2 2"/>
<rect opacity="0.3" x="254.096" y="76.0078" width="243.39" height="144.578" stroke="#202020" stroke-dasharray="2 2"/>
<rect x="0.291016" y="232.622" width="322" height="104.766" stroke="#202020" stroke-dasharray="2 2"/>
<rect opacity="0.3" x="332.671" y="232.622" width="324.62" height="104.766" stroke="#202020" stroke-dasharray="2 2"/>
<rect width="82" height="28" transform="translate(240.791 332.969)" fill="black"/>
<path d="M253.816 341.401V351.969H257.369C260.511 351.969 262.356 350.014 262.356 346.681C262.356 343.356 260.503 341.401 257.369 341.401H253.816ZM255.135 342.587H257.281C259.683 342.587 261.009 344.052 261.009 346.696C261.009 349.318 259.676 350.783 257.281 350.783H255.135V342.587ZM267.004 345.326C268.205 345.326 269.003 346.235 269.032 347.509H264.894C264.975 346.242 265.81 345.326 267.004 345.326ZM269.003 349.787C268.791 350.505 268.08 350.995 267.113 350.995C265.744 350.995 264.887 350.036 264.887 348.578V348.505H270.351V348.022C270.351 345.715 269.084 344.22 267.025 344.22C264.923 344.22 263.576 345.824 263.576 348.19C263.576 350.585 264.901 352.101 267.084 352.101C268.747 352.101 270.036 351.12 270.255 349.787H269.003ZM271.658 346.454C271.658 347.494 272.317 348.183 273.657 348.527L274.998 348.871C275.855 349.098 276.17 349.391 276.17 349.933C276.17 350.622 275.532 351.061 274.5 351.061C273.467 351.061 272.866 350.636 272.727 349.845H271.453C271.585 351.193 272.749 352.101 274.419 352.101C276.199 352.101 277.451 351.164 277.451 349.838C277.451 348.718 276.895 348.161 275.357 347.773L274.177 347.487C273.313 347.267 272.91 346.916 272.91 346.388C272.91 345.722 273.526 345.26 274.456 345.26C275.393 345.26 275.987 345.715 276.074 346.447H277.29C277.232 345.158 276.074 344.22 274.5 344.22C272.822 344.22 271.658 345.151 271.658 346.454ZM278.993 351.969H280.267V344.352H278.993V351.969ZM279.63 343.071C280.07 343.071 280.429 342.712 280.429 342.28C280.429 341.84 280.07 341.489 279.63 341.489C279.198 341.489 278.839 341.84 278.839 342.28C278.839 342.712 279.198 343.071 279.63 343.071ZM285.237 350.907C283.926 350.907 283.069 349.838 283.069 348.132C283.069 346.425 283.926 345.341 285.237 345.341C286.562 345.341 287.449 346.454 287.449 348.132C287.449 349.809 286.562 350.907 285.237 350.907ZM285.281 354.841C287.383 354.841 288.723 353.632 288.723 351.816V344.352H287.507V345.634H287.485C286.98 344.748 286.086 344.22 285.01 344.22C283.039 344.22 281.765 345.744 281.765 348.132C281.765 350.497 283.039 352.028 284.98 352.028C286.05 352.028 286.951 351.486 287.419 350.658H287.449V351.86C287.449 352.995 286.65 353.757 285.332 353.757C284.38 353.757 283.625 353.295 283.376 352.599H282.065C282.278 353.896 283.603 354.841 285.281 354.841ZM290.536 351.969H291.81V347.487C291.81 346.198 292.594 345.348 293.795 345.348C294.967 345.348 295.545 346.022 295.545 347.253V351.969H296.82V347.026C296.82 345.297 295.853 344.22 294.183 344.22C293.004 344.22 292.191 344.748 291.766 345.568H291.737V344.352H290.536V351.969ZM301.65 345.326C302.851 345.326 303.65 346.235 303.679 347.509H299.541C299.621 346.242 300.456 345.326 301.65 345.326ZM303.65 349.787C303.437 350.505 302.727 350.995 301.76 350.995C300.39 350.995 299.533 350.036 299.533 348.578V348.505H304.997V348.022C304.997 345.715 303.73 344.22 301.672 344.22C299.57 344.22 298.222 345.824 298.222 348.19C298.222 350.585 299.548 352.101 301.731 352.101C303.393 352.101 304.682 351.12 304.902 349.787H303.65ZM306.436 351.969H307.711V347.223C307.711 346.147 308.355 345.436 309.344 345.436C309.652 345.436 309.923 345.473 310.025 345.51V344.272C309.923 344.257 309.732 344.22 309.512 344.22C308.619 344.22 307.916 344.755 307.667 345.597H307.637V344.352H306.436V351.969Z" fill="white"/>
<g clip-path="url(#clip1_490_572)">
<path fill-rule="evenodd" clip-rule="evenodd" d="M218.604 309.458L227.17 333.97L231.748 324.411L241.973 321.276L218.604 309.458Z" fill="black"/>
<path d="M227.17 333.97L226.532 334.187L227.072 335.733L227.78 334.255L227.17 333.97ZM218.604 309.458L218.912 308.865L217.419 308.11L217.966 309.676L218.604 309.458ZM231.748 324.411L231.548 323.774L231.265 323.861L231.138 324.126L231.748 324.411ZM241.973 321.276L242.173 321.913L243.755 321.428L242.281 320.683L241.973 321.276ZM227.808 333.752L219.242 309.241L217.966 309.676L226.532 334.187L227.808 333.752ZM231.138 324.126L226.56 333.684L227.78 334.255L232.359 324.696L231.138 324.126ZM231.948 325.048L242.173 321.913L241.773 320.639L231.548 323.774L231.948 325.048ZM242.281 320.683L218.912 308.865L218.297 310.052L241.666 321.87L242.281 320.683Z" fill="white"/>
</g>
</g>
<defs>
<clipPath id="clip0_490_572">
<rect width="354" height="405" fill="white"/>
</clipPath>
<clipPath id="clip1_490_572">
<rect width="27" height="28" fill="white" transform="translate(216.791 307.969)"/>
</clipPath>
</defs>
</svg>
