<svg width="390" height="405" viewBox="0 0 390 405" fill="none" xmlns="http://www.w3.org/2000/svg">
<rect x="22.9487" y="89" width="343" height="209.236" rx="10" fill="white"/>
<path d="M44.5005 119.183C47.0933 119.183 48.9023 117.689 49.1514 115.331H46.998C46.7637 116.583 45.8188 117.352 44.5078 117.352C42.8159 117.352 41.7539 115.96 41.7539 113.705C41.7539 111.478 42.8306 110.079 44.5005 110.079C45.7896 110.079 46.7856 110.929 46.9907 112.225H49.144C48.9756 109.859 47.042 108.248 44.5005 108.248C41.439 108.248 39.498 110.306 39.498 113.712C39.498 117.125 41.4243 119.183 44.5005 119.183ZM50.5392 119H52.6778V114.518C52.6778 113.485 53.2711 112.774 54.2818 112.774C55.256 112.774 55.754 113.39 55.754 114.4V119H57.8927V113.946C57.8927 112.13 56.8966 111.002 55.1534 111.002C53.9596 111.002 53.1026 111.559 52.6852 112.547H52.6412V108.431H50.5392V119ZM63.0158 119.168C65.3889 119.168 66.905 117.652 66.905 115.067C66.905 112.518 65.3669 110.98 63.0158 110.98C60.6647 110.98 59.1267 112.525 59.1267 115.067C59.1267 117.645 60.6428 119.168 63.0158 119.168ZM63.0158 117.535C61.9611 117.535 61.2946 116.649 61.2946 115.074C61.2946 113.514 61.9758 112.613 63.0158 112.613C64.0559 112.613 64.7297 113.514 64.7297 115.074C64.7297 116.649 64.0632 117.535 63.0158 117.535ZM71.7645 119.168C74.1375 119.168 75.6536 117.652 75.6536 115.067C75.6536 112.518 74.1155 110.98 71.7645 110.98C69.4134 110.98 67.8753 112.525 67.8753 115.067C67.8753 117.645 69.3914 119.168 71.7645 119.168ZM71.7645 117.535C70.7098 117.535 70.0433 116.649 70.0433 115.074C70.0433 113.514 70.7244 112.613 71.7645 112.613C72.8045 112.613 73.4783 113.514 73.4783 115.074C73.4783 116.649 72.8118 117.535 71.7645 117.535ZM76.7777 113.456C76.7777 114.613 77.5395 115.389 79.0263 115.726L80.4765 116.048C81.1796 116.217 81.4433 116.437 81.4433 116.832C81.4433 117.345 80.9525 117.667 80.1395 117.667C79.2899 117.667 78.7699 117.286 78.6674 116.627H76.58C76.6972 118.158 77.9862 119.168 80.081 119.168C82.1537 119.168 83.5746 118.15 83.5746 116.605C83.5746 115.433 82.9374 114.811 81.3627 114.459L79.8612 114.137C79.1728 113.976 78.8358 113.712 78.8358 113.324C78.8358 112.818 79.3192 112.481 80.059 112.481C80.85 112.481 81.3554 112.87 81.3993 113.5H83.3695C83.3402 111.976 82.0585 110.98 80.0883 110.98C78.0741 110.98 76.7777 111.961 76.7777 113.456ZM88.3169 112.562C89.269 112.562 89.9209 113.25 89.9648 114.254H86.6323C86.7056 113.272 87.3794 112.562 88.3169 112.562ZM89.9941 116.598C89.7964 117.198 89.1958 117.586 88.4121 117.586C87.3208 117.586 86.6104 116.817 86.6104 115.697V115.565H92.0229V114.913C92.0229 112.525 90.5801 110.98 88.2949 110.98C85.9731 110.98 84.5083 112.606 84.5083 115.111C84.5083 117.623 85.9585 119.168 88.3755 119.168C90.3164 119.168 91.7227 118.136 91.957 116.598H89.9941ZM96.5856 108.431V119H100.621C103.793 119 105.66 117.03 105.66 113.675C105.66 110.321 103.793 108.431 100.621 108.431H96.5856ZM98.7976 110.255H100.358C102.306 110.255 103.404 111.471 103.404 113.683C103.404 115.968 102.335 117.169 100.358 117.169H98.7976V110.255ZM107.092 119H109.231V111.148H107.092V119ZM108.161 110.284C108.806 110.284 109.304 109.793 109.304 109.178C109.304 108.556 108.806 108.072 108.161 108.072C107.517 108.072 107.019 108.556 107.019 109.178C107.019 109.793 107.517 110.284 108.161 110.284ZM110.677 113.456C110.677 114.613 111.439 115.389 112.926 115.726L114.376 116.048C115.079 116.217 115.343 116.437 115.343 116.832C115.343 117.345 114.852 117.667 114.039 117.667C113.189 117.667 112.669 117.286 112.567 116.627H110.479C110.597 118.158 111.886 119.168 113.98 119.168C116.053 119.168 117.474 118.15 117.474 116.605C117.474 115.433 116.837 114.811 115.262 114.459L113.761 114.137C113.072 113.976 112.735 113.712 112.735 113.324C112.735 112.818 113.219 112.481 113.958 112.481C114.749 112.481 115.255 112.87 115.299 113.5H117.269C117.24 111.976 115.958 110.98 113.988 110.98C111.974 110.98 110.677 111.961 110.677 113.456ZM125.827 114.071C125.732 112.291 124.384 110.98 122.26 110.98C119.909 110.98 118.408 112.547 118.408 115.067C118.408 117.63 119.909 119.168 122.275 119.168C124.34 119.168 125.725 117.975 125.834 116.122H123.842C123.71 116.979 123.154 117.491 122.297 117.491C121.235 117.491 120.576 116.612 120.576 115.067C120.576 113.551 121.235 112.657 122.29 112.657C123.168 112.657 123.718 113.243 123.842 114.071H125.827ZM130.621 119.168C132.994 119.168 134.51 117.652 134.51 115.067C134.51 112.518 132.972 110.98 130.621 110.98C128.27 110.98 126.732 112.525 126.732 115.067C126.732 117.645 128.248 119.168 130.621 119.168ZM130.621 117.535C129.566 117.535 128.9 116.649 128.9 115.074C128.9 113.514 129.581 112.613 130.621 112.613C131.661 112.613 132.335 113.514 132.335 115.074C132.335 116.649 131.668 117.535 130.621 117.535ZM143.017 111.148H140.878V115.646C140.878 116.686 140.285 117.367 139.333 117.367C138.388 117.367 137.868 116.81 137.868 115.763V111.148H135.729V116.209C135.729 118.041 136.857 119.146 138.556 119.146C139.743 119.146 140.519 118.575 140.907 117.586H140.951V119H143.017V111.148ZM144.558 119H146.697V114.496C146.697 113.478 147.305 112.774 148.264 112.774C149.224 112.774 149.707 113.36 149.707 114.386V119H151.846V113.939C151.846 112.101 150.865 111.002 149.121 111.002C147.913 111.002 147.085 111.573 146.668 112.547H146.624V111.148H144.558V119ZM153.922 109.339V111.148H152.816V112.76H153.922V116.883C153.922 118.414 154.64 119.029 156.486 119.029C156.918 119.029 157.284 118.993 157.504 118.941V117.367C157.372 117.389 157.174 117.403 156.984 117.403C156.354 117.403 156.061 117.118 156.061 116.517V112.76H157.511V111.148H156.061V109.339H153.922ZM162.528 119H164.667V112.76H166.175V111.185H164.615V110.665C164.615 110.108 164.923 109.801 165.626 109.801C165.838 109.801 166.051 109.815 166.205 109.845V108.431C165.956 108.38 165.509 108.336 165.113 108.336C163.253 108.336 162.528 109.054 162.528 110.592V111.185H161.459V112.76H162.528V119ZM170.837 119.168C173.21 119.168 174.726 117.652 174.726 115.067C174.726 112.518 173.188 110.98 170.837 110.98C168.486 110.98 166.948 112.525 166.948 115.067C166.948 117.645 168.464 119.168 170.837 119.168ZM170.837 117.535C169.782 117.535 169.116 116.649 169.116 115.074C169.116 113.514 169.797 112.613 170.837 112.613C171.877 112.613 172.551 113.514 172.551 115.074C172.551 116.649 171.884 117.535 170.837 117.535ZM175.982 119H178.121V114.613C178.121 113.507 178.736 112.862 179.791 112.862C180.098 112.862 180.391 112.914 180.567 112.987V111.104C180.421 111.061 180.208 111.024 179.959 111.024C179.036 111.024 178.37 111.566 178.092 112.562H178.048V111.148H175.982V119ZM187.02 119V112.079H187.085L192.029 119H193.86V108.431H191.744V115.316H191.685L186.749 108.431H184.903V119H187.02ZM199.115 112.562C200.067 112.562 200.719 113.25 200.763 114.254H197.431C197.504 113.272 198.178 112.562 199.115 112.562ZM200.793 116.598C200.595 117.198 199.994 117.586 199.211 117.586C198.119 117.586 197.409 116.817 197.409 115.697V115.565H202.821V114.913C202.821 112.525 201.379 110.98 199.093 110.98C196.772 110.98 195.307 112.606 195.307 115.111C195.307 117.623 196.757 119.168 199.174 119.168C201.115 119.168 202.521 118.136 202.755 116.598H200.793ZM207.19 116.275L208.684 119H211.006L208.574 115.03L211.028 111.148H208.699L207.307 113.8H207.263L205.85 111.148H203.44L205.886 115.089L203.425 119H205.674L207.146 116.275H207.19ZM212.606 109.339V111.148H211.5V112.76H212.606V116.883C212.606 118.414 213.324 119.029 215.17 119.029C215.602 119.029 215.968 118.993 216.188 118.941V117.367C216.056 117.389 215.858 117.403 215.668 117.403C215.038 117.403 214.745 117.118 214.745 116.517V112.76H216.195V111.148H214.745V109.339H212.606ZM220.824 108.431V119H223.036V115.667H225.013C227.24 115.667 228.785 114.217 228.785 112.049C228.785 109.874 227.291 108.431 225.123 108.431H220.824ZM223.036 110.182H224.537C225.804 110.182 226.537 110.855 226.537 112.057C226.537 113.265 225.797 113.939 224.53 113.939H223.036V110.182ZM233.322 112.562C234.275 112.562 234.926 113.25 234.97 114.254H231.638C231.711 113.272 232.385 112.562 233.322 112.562ZM235 116.598C234.802 117.198 234.201 117.586 233.418 117.586C232.326 117.586 231.616 116.817 231.616 115.697V115.565H237.028V114.913C237.028 112.525 235.586 110.98 233.3 110.98C230.979 110.98 229.514 112.606 229.514 115.111C229.514 117.623 230.964 119.168 233.381 119.168C235.322 119.168 236.728 118.136 236.962 116.598H235ZM238.284 119H240.423V114.613C240.423 113.507 241.038 112.862 242.093 112.862C242.401 112.862 242.694 112.914 242.869 112.987V111.104C242.723 111.061 242.51 111.024 242.261 111.024C241.339 111.024 240.672 111.566 240.394 112.562H240.35V111.148H238.284V119ZM243.766 113.456C243.766 114.613 244.528 115.389 246.015 115.726L247.465 116.048C248.168 116.217 248.432 116.437 248.432 116.832C248.432 117.345 247.941 117.667 247.128 117.667C246.279 117.667 245.759 117.286 245.656 116.627H243.569C243.686 118.158 244.975 119.168 247.07 119.168C249.142 119.168 250.563 118.15 250.563 116.605C250.563 115.433 249.926 114.811 248.351 114.459L246.85 114.137C246.161 113.976 245.825 113.712 245.825 113.324C245.825 112.818 246.308 112.481 247.048 112.481C247.839 112.481 248.344 112.87 248.388 113.5H250.358C250.329 111.976 249.047 110.98 247.077 110.98C245.063 110.98 243.766 111.961 243.766 113.456ZM255.386 119.168C257.759 119.168 259.275 117.652 259.275 115.067C259.275 112.518 257.737 110.98 255.386 110.98C253.035 110.98 251.497 112.525 251.497 115.067C251.497 117.645 253.013 119.168 255.386 119.168ZM255.386 117.535C254.331 117.535 253.665 116.649 253.665 115.074C253.665 113.514 254.346 112.613 255.386 112.613C256.426 112.613 257.1 113.514 257.1 115.074C257.1 116.649 256.434 117.535 255.386 117.535ZM260.531 119H262.67V114.496C262.67 113.478 263.278 112.774 264.237 112.774C265.197 112.774 265.68 113.36 265.68 114.386V119H267.819V113.939C267.819 112.101 266.837 111.002 265.094 111.002C263.886 111.002 263.058 111.573 262.641 112.547H262.597V111.148H260.531V119Z" fill="#323232"/>
<rect x="38.9487" y="139" width="311" height="1" fill="#D9D9D9" fill-opacity="0.4"/>
<path d="M44.1855 168.138H47.4292V172.638C46.9425 172.803 46.4411 172.926 45.9248 173.006C45.4128 173.087 44.8394 173.127 44.2046 173.127C43.2397 173.127 42.4251 172.934 41.7607 172.549C41.1006 172.164 40.5991 171.616 40.2563 170.905C39.9136 170.19 39.7422 169.342 39.7422 168.36C39.7422 167.399 39.9305 166.561 40.3071 165.846C40.688 165.131 41.236 164.577 41.9512 164.183C42.6706 163.785 43.5339 163.586 44.541 163.586C45.0573 163.586 45.5461 163.635 46.0073 163.732C46.4728 163.826 46.9045 163.959 47.3022 164.132L46.8896 165.072C46.5469 164.924 46.1681 164.797 45.7534 164.691C45.3429 164.585 44.9176 164.532 44.4775 164.532C43.7201 164.532 43.0705 164.689 42.5288 165.002C41.9914 165.315 41.5788 165.757 41.291 166.329C41.0075 166.9 40.8657 167.577 40.8657 168.36C40.8657 169.134 40.9906 169.809 41.2402 170.385C41.4899 170.956 41.8792 171.4 42.4082 171.718C42.9372 172.035 43.6185 172.194 44.4521 172.194C44.8711 172.194 45.2308 172.171 45.5312 172.124C45.8317 172.073 46.1047 172.014 46.3501 171.946V169.103H44.1855V168.138ZM50.7013 166.043V173H49.6476V166.043H50.7013ZM50.1871 163.44C50.3606 163.44 50.5087 163.498 50.6315 163.612C50.7584 163.722 50.8219 163.895 50.8219 164.132C50.8219 164.365 50.7584 164.539 50.6315 164.653C50.5087 164.767 50.3606 164.824 50.1871 164.824C50.0052 164.824 49.8528 164.767 49.7301 164.653C49.6116 164.539 49.5524 164.365 49.5524 164.132C49.5524 163.895 49.6116 163.722 49.7301 163.612C49.8528 163.498 50.0052 163.44 50.1871 163.44ZM54.5954 173L51.9548 166.043H53.0847L54.6145 170.251C54.7203 170.539 54.8282 170.857 54.9382 171.204C55.0482 171.551 55.1244 171.83 55.1667 172.042H55.2112C55.262 171.83 55.3466 171.551 55.4651 171.204C55.5836 170.852 55.6915 170.535 55.7888 170.251L57.3186 166.043H58.4485L55.8015 173H54.5954ZM62.3744 165.916C62.9668 165.916 63.4746 166.047 63.8978 166.31C64.321 166.572 64.6447 166.94 64.869 167.414C65.0933 167.884 65.2054 168.434 65.2054 169.064V169.718H60.4003C60.4129 170.535 60.6161 171.157 61.0096 171.584C61.4032 172.012 61.9575 172.226 62.6727 172.226C63.1128 172.226 63.5021 172.185 63.8407 172.105C64.1792 172.025 64.5305 171.906 64.8944 171.75V172.676C64.5432 172.833 64.194 172.947 63.847 173.019C63.5043 173.091 63.098 173.127 62.6283 173.127C61.9597 173.127 61.3757 172.992 60.8763 172.721C60.3812 172.446 59.9961 172.044 59.7211 171.515C59.446 170.986 59.3085 170.338 59.3085 169.572C59.3085 168.823 59.4333 168.176 59.683 167.63C59.9369 167.08 60.2923 166.657 60.7494 166.36C61.2106 166.064 61.7523 165.916 62.3744 165.916ZM62.3617 166.779C61.7989 166.779 61.3503 166.963 61.016 167.332C60.6817 167.7 60.4828 168.214 60.4193 168.874H64.1009C64.0967 168.459 64.0311 168.095 63.9042 167.782C63.7814 167.465 63.5931 167.219 63.3392 167.046C63.0853 166.868 62.7595 166.779 62.3617 166.779ZM73.235 165.929C74.0644 165.929 74.6801 166.115 75.0821 166.487C75.4841 166.86 75.6852 167.454 75.6852 168.271V173H74.9171L74.714 171.972H74.6632C74.4685 172.226 74.2654 172.439 74.0538 172.613C73.8422 172.782 73.5968 172.911 73.3175 173C73.0424 173.085 72.7039 173.127 72.3019 173.127C71.8787 173.127 71.5021 173.053 71.172 172.905C70.8461 172.757 70.588 172.532 70.3976 172.232C70.2114 171.931 70.1183 171.551 70.1183 171.089C70.1183 170.395 70.3933 169.862 70.9435 169.49C71.4936 169.117 72.3315 168.914 73.4571 168.88L74.6568 168.83V168.404C74.6568 167.803 74.5278 167.382 74.2696 167.141C74.0115 166.9 73.6476 166.779 73.1778 166.779C72.8139 166.779 72.4669 166.832 72.1368 166.938C71.8067 167.044 71.4936 167.169 71.1974 167.312L70.8736 166.513C71.1868 166.352 71.5465 166.214 71.9527 166.1C72.359 165.986 72.7864 165.929 73.235 165.929ZM74.6441 169.572L73.5841 169.617C72.7166 169.651 72.1051 169.792 71.7496 170.042C71.3941 170.292 71.2164 170.645 71.2164 171.102C71.2164 171.5 71.337 171.794 71.5782 171.984C71.8194 172.175 72.1389 172.27 72.5367 172.27C73.1546 172.27 73.6603 172.099 74.0538 171.756C74.4474 171.413 74.6441 170.899 74.6441 170.213V169.572ZM83.9686 173.127C83.0884 173.127 82.3901 172.826 81.8739 172.226C81.3618 171.625 81.1058 170.732 81.1058 169.547C81.1058 168.349 81.3682 167.446 81.8929 166.836C82.4176 166.223 83.1159 165.916 83.9876 165.916C84.3558 165.916 84.6774 165.965 84.9525 166.062C85.2275 166.159 85.4645 166.291 85.6634 166.456C85.8623 166.616 86.0295 166.8 86.1649 167.008H86.2411C86.2241 166.877 86.2072 166.697 86.1903 166.468C86.1733 166.24 86.1649 166.054 86.1649 165.91V163.123H87.2186V173H86.368L86.2093 172.01H86.1649C86.0337 172.217 85.8665 172.405 85.6634 172.575C85.4645 172.744 85.2254 172.879 84.9461 172.981C84.6711 173.078 84.3452 173.127 83.9686 173.127ZM84.1336 172.251C84.8784 172.251 85.4053 172.039 85.7142 171.616C86.0231 171.193 86.1776 170.565 86.1776 169.731V169.541C86.1776 168.656 86.0295 167.977 85.7332 167.503C85.4412 167.029 84.908 166.792 84.1336 166.792C83.4862 166.792 83.0016 167.042 82.68 167.541C82.3584 168.036 82.1976 168.713 82.1976 169.572C82.1976 170.427 82.3563 171.087 82.6737 171.553C82.9953 172.018 83.4819 172.251 84.1336 172.251ZM90.6367 166.043V173H89.583V166.043H90.6367ZM90.1225 163.44C90.296 163.44 90.4441 163.498 90.5669 163.612C90.6938 163.722 90.7573 163.895 90.7573 164.132C90.7573 164.365 90.6938 164.539 90.5669 164.653C90.4441 164.767 90.296 164.824 90.1225 164.824C89.9406 164.824 89.7882 164.767 89.6655 164.653C89.547 164.539 89.4878 164.365 89.4878 164.132C89.4878 163.895 89.547 163.722 89.6655 163.612C89.7882 163.498 89.9406 163.44 90.1225 163.44ZM97.5015 171.096C97.5015 171.54 97.3894 171.915 97.1651 172.219C96.9451 172.52 96.6277 172.746 96.213 172.898C95.8025 173.051 95.3116 173.127 94.7403 173.127C94.2537 173.127 93.8326 173.089 93.4771 173.013C93.1217 172.937 92.8106 172.829 92.544 172.689V171.718C92.8276 171.857 93.1661 171.984 93.5596 172.099C93.9532 172.213 94.3552 172.27 94.7657 172.27C95.3666 172.27 95.8025 172.173 96.0733 171.978C96.3442 171.783 96.4796 171.519 96.4796 171.185C96.4796 170.994 96.4246 170.827 96.3145 170.683C96.2087 170.535 96.0289 170.393 95.775 170.258C95.5211 170.118 95.1698 169.966 94.7213 169.801C94.2769 169.632 93.8918 169.464 93.566 169.299C93.2444 169.13 92.9947 168.925 92.817 168.684C92.6435 168.442 92.5567 168.129 92.5567 167.744C92.5567 167.156 92.7937 166.705 93.2677 166.392C93.7458 166.075 94.3721 165.916 95.1466 165.916C95.5655 165.916 95.9569 165.958 96.3209 166.043C96.689 166.123 97.0318 166.233 97.3492 166.373L96.9937 167.217C96.706 167.095 96.3992 166.991 96.0733 166.906C95.7475 166.822 95.4153 166.779 95.0767 166.779C94.5901 166.779 94.2156 166.86 93.9532 167.021C93.6951 167.181 93.566 167.401 93.566 167.681C93.566 167.896 93.6252 168.074 93.7437 168.214C93.8664 168.354 94.0611 168.485 94.3277 168.607C94.5943 168.73 94.9456 168.874 95.3814 169.039C95.8173 169.2 96.1939 169.367 96.5113 169.541C96.8287 169.71 97.072 169.917 97.2413 170.163C97.4148 170.404 97.5015 170.715 97.5015 171.096ZM102.113 173.127C101.487 173.127 100.934 172.998 100.456 172.74C99.9781 172.482 99.6057 172.088 99.3391 171.559C99.0725 171.03 98.9392 170.364 98.9392 169.56C98.9392 168.717 99.0788 168.03 99.3581 167.497C99.6416 166.959 100.031 166.561 100.526 166.303C101.021 166.045 101.584 165.916 102.215 165.916C102.562 165.916 102.896 165.952 103.217 166.024C103.543 166.092 103.81 166.178 104.017 166.284L103.7 167.167C103.488 167.082 103.243 167.006 102.964 166.938C102.689 166.87 102.43 166.836 102.189 166.836C101.707 166.836 101.305 166.94 100.983 167.147C100.666 167.355 100.427 167.66 100.266 168.062C100.109 168.464 100.031 168.959 100.031 169.547C100.031 170.11 100.107 170.59 100.259 170.988C100.416 171.386 100.647 171.69 100.951 171.902C101.26 172.109 101.645 172.213 102.107 172.213C102.475 172.213 102.807 172.175 103.103 172.099C103.399 172.018 103.668 171.925 103.909 171.819V172.759C103.677 172.877 103.416 172.968 103.129 173.032C102.845 173.095 102.507 173.127 102.113 173.127ZM111.688 169.509C111.688 170.08 111.614 170.59 111.466 171.039C111.318 171.487 111.104 171.866 110.825 172.175C110.546 172.484 110.207 172.721 109.809 172.886C109.416 173.047 108.969 173.127 108.47 173.127C108.005 173.127 107.577 173.047 107.188 172.886C106.803 172.721 106.468 172.484 106.185 172.175C105.906 171.866 105.688 171.487 105.531 171.039C105.379 170.59 105.303 170.08 105.303 169.509C105.303 168.747 105.432 168.1 105.69 167.566C105.948 167.029 106.316 166.621 106.794 166.341C107.277 166.058 107.85 165.916 108.514 165.916C109.149 165.916 109.704 166.058 110.178 166.341C110.656 166.625 111.026 167.035 111.288 167.573C111.555 168.106 111.688 168.751 111.688 169.509ZM106.394 169.509C106.394 170.067 106.468 170.552 106.617 170.962C106.765 171.373 106.993 171.69 107.302 171.915C107.611 172.139 108.009 172.251 108.495 172.251C108.978 172.251 109.374 172.139 109.682 171.915C109.996 171.69 110.226 171.373 110.374 170.962C110.522 170.552 110.597 170.067 110.597 169.509C110.597 168.954 110.522 168.476 110.374 168.074C110.226 167.668 109.998 167.355 109.689 167.135C109.38 166.915 108.98 166.805 108.489 166.805C107.765 166.805 107.234 167.044 106.896 167.522C106.562 168 106.394 168.662 106.394 169.509ZM119.385 166.043V173H118.521L118.369 172.022H118.312C118.168 172.264 117.982 172.467 117.753 172.632C117.525 172.797 117.267 172.92 116.979 173C116.695 173.085 116.393 173.127 116.071 173.127C115.521 173.127 115.06 173.038 114.687 172.86C114.315 172.683 114.034 172.408 113.843 172.035C113.657 171.663 113.564 171.185 113.564 170.601V166.043H114.63V170.524C114.63 171.104 114.761 171.538 115.024 171.826C115.286 172.109 115.686 172.251 116.224 172.251C116.74 172.251 117.15 172.154 117.455 171.959C117.764 171.764 117.986 171.479 118.122 171.102C118.257 170.721 118.325 170.256 118.325 169.706V166.043H119.385ZM125.037 165.916C125.862 165.916 126.487 166.119 126.91 166.525C127.333 166.927 127.544 167.575 127.544 168.468V173H126.503V168.538C126.503 167.958 126.37 167.524 126.104 167.236C125.841 166.949 125.437 166.805 124.891 166.805C124.121 166.805 123.579 167.023 123.266 167.458C122.953 167.894 122.796 168.527 122.796 169.356V173H121.743V166.043H122.593L122.752 167.046H122.809C122.957 166.8 123.146 166.595 123.374 166.43C123.603 166.261 123.859 166.134 124.142 166.049C124.426 165.96 124.724 165.916 125.037 165.916ZM132.092 172.264C132.266 172.264 132.444 172.249 132.626 172.219C132.808 172.19 132.956 172.154 133.07 172.111V172.93C132.947 172.985 132.776 173.032 132.556 173.07C132.34 173.108 132.128 173.127 131.921 173.127C131.553 173.127 131.219 173.063 130.918 172.937C130.618 172.805 130.376 172.585 130.195 172.276C130.017 171.967 129.928 171.54 129.928 170.994V166.868H128.938V166.354L129.934 165.941L130.353 164.431H130.988V166.043H133.026V166.868H130.988V170.962C130.988 171.398 131.087 171.724 131.286 171.94C131.489 172.156 131.758 172.264 132.092 172.264ZM139.17 166.043V173H138.116V166.043H139.17ZM138.656 163.44C138.829 163.44 138.977 163.498 139.1 163.612C139.227 163.722 139.29 163.895 139.29 164.132C139.29 164.365 139.227 164.539 139.1 164.653C138.977 164.767 138.829 164.824 138.656 164.824C138.474 164.824 138.321 164.767 138.199 164.653C138.08 164.539 138.021 164.365 138.021 164.132C138.021 163.895 138.08 163.722 138.199 163.612C138.321 163.498 138.474 163.44 138.656 163.44ZM144.632 166.868H142.899V173H141.845V166.868H140.614V166.36L141.845 166.011V165.548C141.845 164.964 141.932 164.49 142.106 164.126C142.279 163.758 142.531 163.487 142.861 163.313C143.191 163.14 143.593 163.053 144.067 163.053C144.334 163.053 144.577 163.076 144.797 163.123C145.021 163.17 145.218 163.222 145.387 163.282L145.114 164.113C144.97 164.067 144.807 164.024 144.626 163.986C144.448 163.944 144.266 163.923 144.08 163.923C143.678 163.923 143.379 164.054 143.185 164.316C142.994 164.575 142.899 164.981 142.899 165.535V166.043H144.632V166.868ZM151.798 172.264C151.972 172.264 152.149 172.249 152.331 172.219C152.513 172.19 152.661 172.154 152.776 172.111V172.93C152.653 172.985 152.482 173.032 152.262 173.07C152.046 173.108 151.834 173.127 151.627 173.127C151.259 173.127 150.924 173.063 150.624 172.937C150.323 172.805 150.082 172.585 149.9 172.276C149.722 171.967 149.634 171.54 149.634 170.994V166.868H148.643V166.354L149.64 165.941L150.059 164.431H150.694V166.043H152.731V166.868H150.694V170.962C150.694 171.398 150.793 171.724 150.992 171.94C151.195 172.156 151.464 172.264 151.798 172.264ZM155.369 163.123V166.075C155.369 166.244 155.364 166.415 155.356 166.589C155.347 166.758 155.333 166.915 155.311 167.059H155.381C155.525 166.813 155.707 166.608 155.927 166.443C156.151 166.274 156.405 166.147 156.689 166.062C156.972 165.973 157.273 165.929 157.59 165.929C158.149 165.929 158.614 166.018 158.987 166.195C159.363 166.373 159.645 166.648 159.831 167.021C160.021 167.393 160.117 167.875 160.117 168.468V173H159.076V168.538C159.076 167.958 158.942 167.524 158.676 167.236C158.413 166.949 158.009 166.805 157.463 166.805C156.947 166.805 156.534 166.904 156.225 167.103C155.921 167.298 155.701 167.585 155.565 167.966C155.434 168.347 155.369 168.813 155.369 169.363V173H154.315V163.123H155.369ZM165.096 165.916C165.689 165.916 166.196 166.047 166.62 166.31C167.043 166.572 167.367 166.94 167.591 167.414C167.815 167.884 167.927 168.434 167.927 169.064V169.718H163.122C163.135 170.535 163.338 171.157 163.731 171.584C164.125 172.012 164.679 172.226 165.395 172.226C165.835 172.226 166.224 172.185 166.563 172.105C166.901 172.025 167.252 171.906 167.616 171.75V172.676C167.265 172.833 166.916 172.947 166.569 173.019C166.226 173.091 165.82 173.127 165.35 173.127C164.682 173.127 164.098 172.992 163.598 172.721C163.103 172.446 162.718 172.044 162.443 171.515C162.168 170.986 162.03 170.338 162.03 169.572C162.03 168.823 162.155 168.176 162.405 167.63C162.659 167.08 163.014 166.657 163.471 166.36C163.932 166.064 164.474 165.916 165.096 165.916ZM165.084 166.779C164.521 166.779 164.072 166.963 163.738 167.332C163.404 167.7 163.205 168.214 163.141 168.874H166.823C166.819 168.459 166.753 168.095 166.626 167.782C166.503 167.465 166.315 167.219 166.061 167.046C165.807 166.868 165.481 166.779 165.084 166.779ZM168.749 166.043H169.879L171.415 170.08C171.504 170.317 171.587 170.546 171.663 170.766C171.739 170.981 171.807 171.189 171.866 171.388C171.925 171.587 171.972 171.779 172.006 171.965H172.05C172.109 171.754 172.194 171.477 172.304 171.134C172.414 170.787 172.532 170.433 172.659 170.074L174.113 166.043H175.249L172.221 174.022C172.061 174.449 171.872 174.822 171.656 175.139C171.445 175.457 171.187 175.7 170.882 175.869C170.577 176.043 170.209 176.129 169.777 176.129C169.579 176.129 169.403 176.117 169.251 176.091C169.098 176.07 168.967 176.045 168.857 176.015V175.171C168.95 175.192 169.062 175.211 169.193 175.228C169.329 175.245 169.469 175.253 169.612 175.253C169.875 175.253 170.101 175.203 170.292 175.101C170.486 175.004 170.653 174.86 170.793 174.669C170.933 174.479 171.053 174.253 171.155 173.99L171.536 173.013L168.749 166.043ZM182.473 173.127C181.592 173.127 180.894 172.826 180.378 172.226C179.866 171.625 179.61 170.732 179.61 169.547C179.61 168.349 179.872 167.446 180.397 166.836C180.922 166.223 181.62 165.916 182.492 165.916C182.86 165.916 183.181 165.965 183.456 166.062C183.731 166.159 183.968 166.291 184.167 166.456C184.366 166.616 184.533 166.8 184.669 167.008H184.745C184.728 166.877 184.711 166.697 184.694 166.468C184.677 166.24 184.669 166.054 184.669 165.91V163.123H185.723V173H184.872L184.713 172.01H184.669C184.538 172.217 184.37 172.405 184.167 172.575C183.968 172.744 183.729 172.879 183.45 172.981C183.175 173.078 182.849 173.127 182.473 173.127ZM182.638 172.251C183.382 172.251 183.909 172.039 184.218 171.616C184.527 171.193 184.682 170.565 184.682 169.731V169.541C184.682 168.656 184.533 167.977 184.237 167.503C183.945 167.029 183.412 166.792 182.638 166.792C181.99 166.792 181.506 167.042 181.184 167.541C180.862 168.036 180.702 168.713 180.702 169.572C180.702 170.427 180.86 171.087 181.178 171.553C181.499 172.018 181.986 172.251 182.638 172.251ZM194.085 169.509C194.085 170.08 194.011 170.59 193.863 171.039C193.715 171.487 193.501 171.866 193.222 172.175C192.943 172.484 192.604 172.721 192.207 172.886C191.813 173.047 191.367 173.127 190.867 173.127C190.402 173.127 189.974 173.047 189.585 172.886C189.2 172.721 188.866 172.484 188.582 172.175C188.303 171.866 188.085 171.487 187.928 171.039C187.776 170.59 187.7 170.08 187.7 169.509C187.7 168.747 187.829 168.1 188.087 167.566C188.345 167.029 188.713 166.621 189.191 166.341C189.674 166.058 190.247 165.916 190.912 165.916C191.546 165.916 192.101 166.058 192.575 166.341C193.053 166.625 193.423 167.035 193.686 167.573C193.952 168.106 194.085 168.751 194.085 169.509ZM188.792 169.509C188.792 170.067 188.866 170.552 189.014 170.962C189.162 171.373 189.39 171.69 189.699 171.915C190.008 172.139 190.406 172.251 190.893 172.251C191.375 172.251 191.771 172.139 192.08 171.915C192.393 171.69 192.623 171.373 192.771 170.962C192.92 170.552 192.994 170.067 192.994 169.509C192.994 168.954 192.92 168.476 192.771 168.074C192.623 167.668 192.395 167.355 192.086 167.135C191.777 166.915 191.377 166.805 190.886 166.805C190.163 166.805 189.632 167.044 189.293 167.522C188.959 168 188.792 168.662 188.792 169.509ZM199.332 165.916C200.157 165.916 200.781 166.119 201.204 166.525C201.627 166.927 201.839 167.575 201.839 168.468V173H200.798V168.538C200.798 167.958 200.665 167.524 200.398 167.236C200.136 166.949 199.732 166.805 199.186 166.805C198.415 166.805 197.874 167.023 197.561 167.458C197.248 167.894 197.091 168.527 197.091 169.356V173H196.037V166.043H196.888L197.047 167.046H197.104C197.252 166.8 197.44 166.595 197.669 166.43C197.897 166.261 198.153 166.134 198.437 166.049C198.72 165.96 199.019 165.916 199.332 165.916ZM206.742 165.929C207.572 165.929 208.188 166.115 208.59 166.487C208.992 166.86 209.193 167.454 209.193 168.271V173H208.425L208.221 171.972H208.171C207.976 172.226 207.773 172.439 207.561 172.613C207.35 172.782 207.104 172.911 206.825 173C206.55 173.085 206.211 173.127 205.809 173.127C205.386 173.127 205.01 173.053 204.679 172.905C204.354 172.757 204.095 172.532 203.905 172.232C203.719 171.931 203.626 171.551 203.626 171.089C203.626 170.395 203.901 169.862 204.451 169.49C205.001 169.117 205.839 168.914 206.965 168.88L208.164 168.83V168.404C208.164 167.803 208.035 167.382 207.777 167.141C207.519 166.9 207.155 166.779 206.685 166.779C206.321 166.779 205.974 166.832 205.644 166.938C205.314 167.044 205.001 167.169 204.705 167.312L204.381 166.513C204.694 166.352 205.054 166.214 205.46 166.1C205.866 165.986 206.294 165.929 206.742 165.929ZM208.152 169.572L207.092 169.617C206.224 169.651 205.613 169.792 205.257 170.042C204.902 170.292 204.724 170.645 204.724 171.102C204.724 171.5 204.844 171.794 205.086 171.984C205.327 172.175 205.646 172.27 206.044 172.27C206.662 172.27 207.168 172.099 207.561 171.756C207.955 171.413 208.152 170.899 208.152 170.213V169.572ZM213.741 172.264C213.914 172.264 214.092 172.249 214.274 172.219C214.456 172.19 214.604 172.154 214.718 172.111V172.93C214.595 172.985 214.424 173.032 214.204 173.07C213.988 173.108 213.777 173.127 213.569 173.127C213.201 173.127 212.867 173.063 212.566 172.937C212.266 172.805 212.025 172.585 211.843 172.276C211.665 171.967 211.576 171.54 211.576 170.994V166.868H210.586V166.354L211.582 165.941L212.001 164.431H212.636V166.043H214.674V166.868H212.636V170.962C212.636 171.398 212.736 171.724 212.934 171.94C213.138 172.156 213.406 172.264 213.741 172.264ZM218.936 165.916C219.528 165.916 220.036 166.047 220.459 166.31C220.883 166.572 221.206 166.94 221.431 167.414C221.655 167.884 221.767 168.434 221.767 169.064V169.718H216.962C216.975 170.535 217.178 171.157 217.571 171.584C217.965 172.012 218.519 172.226 219.234 172.226C219.674 172.226 220.064 172.185 220.402 172.105C220.741 172.025 221.092 171.906 221.456 171.75V172.676C221.105 172.833 220.756 172.947 220.409 173.019C220.066 173.091 219.66 173.127 219.19 173.127C218.521 173.127 217.937 172.992 217.438 172.721C216.943 172.446 216.558 172.044 216.283 171.515C216.008 170.986 215.87 170.338 215.87 169.572C215.87 168.823 215.995 168.176 216.245 167.63C216.499 167.08 216.854 166.657 217.311 166.36C217.772 166.064 218.314 165.916 218.936 165.916ZM218.923 166.779C218.36 166.779 217.912 166.963 217.578 167.332C217.243 167.7 217.044 168.214 216.981 168.874H220.663C220.658 168.459 220.593 168.095 220.466 167.782C220.343 167.465 220.155 167.219 219.901 167.046C219.647 166.868 219.321 166.779 218.923 166.779ZM234.748 165.916C235.514 165.916 236.091 166.117 236.481 166.519C236.87 166.917 237.065 167.558 237.065 168.442V173H236.024V168.493C236.024 167.93 235.901 167.509 235.655 167.23C235.414 166.946 235.055 166.805 234.576 166.805C233.904 166.805 233.415 166.999 233.11 167.389C232.805 167.778 232.653 168.351 232.653 169.109V173H231.606V168.493C231.606 168.117 231.551 167.803 231.441 167.554C231.335 167.304 231.174 167.118 230.958 166.995C230.747 166.868 230.478 166.805 230.152 166.805C229.691 166.805 229.321 166.9 229.041 167.09C228.762 167.281 228.559 167.564 228.432 167.941C228.309 168.313 228.248 168.772 228.248 169.318V173H227.194V166.043H228.045L228.203 167.027H228.26C228.4 166.786 228.576 166.583 228.787 166.417C228.999 166.252 229.236 166.128 229.498 166.043C229.761 165.958 230.04 165.916 230.336 165.916C230.865 165.916 231.307 166.015 231.663 166.214C232.023 166.409 232.283 166.707 232.444 167.109H232.501C232.729 166.707 233.042 166.409 233.44 166.214C233.838 166.015 234.274 165.916 234.748 165.916ZM245.358 169.509C245.358 170.08 245.284 170.59 245.136 171.039C244.987 171.487 244.774 171.866 244.494 172.175C244.215 172.484 243.877 172.721 243.479 172.886C243.085 173.047 242.639 173.127 242.139 173.127C241.674 173.127 241.247 173.047 240.857 172.886C240.472 172.721 240.138 172.484 239.854 172.175C239.575 171.866 239.357 171.487 239.201 171.039C239.048 170.59 238.972 170.08 238.972 169.509C238.972 168.747 239.101 168.1 239.359 167.566C239.617 167.029 239.986 166.621 240.464 166.341C240.946 166.058 241.52 165.916 242.184 165.916C242.819 165.916 243.373 166.058 243.847 166.341C244.325 166.625 244.695 167.035 244.958 167.573C245.224 168.106 245.358 168.751 245.358 169.509ZM240.064 169.509C240.064 170.067 240.138 170.552 240.286 170.962C240.434 171.373 240.663 171.69 240.972 171.915C241.28 172.139 241.678 172.251 242.165 172.251C242.647 172.251 243.043 172.139 243.352 171.915C243.665 171.69 243.896 171.373 244.044 170.962C244.192 170.552 244.266 170.067 244.266 169.509C244.266 168.954 244.192 168.476 244.044 168.074C243.896 167.668 243.667 167.355 243.358 167.135C243.049 166.915 242.649 166.805 242.159 166.805C241.435 166.805 240.904 167.044 240.565 167.522C240.231 168 240.064 168.662 240.064 169.509ZM250.471 165.916C250.61 165.916 250.756 165.924 250.909 165.941C251.061 165.954 251.196 165.973 251.315 165.999L251.182 166.976C251.067 166.946 250.94 166.923 250.801 166.906C250.661 166.889 250.53 166.881 250.407 166.881C250.128 166.881 249.863 166.938 249.614 167.052C249.368 167.162 249.152 167.323 248.966 167.535C248.78 167.742 248.634 167.994 248.528 168.29C248.422 168.582 248.37 168.908 248.37 169.268V173H247.31V166.043H248.186L248.3 167.325H248.344C248.488 167.067 248.662 166.832 248.865 166.621C249.068 166.405 249.303 166.233 249.569 166.106C249.84 165.979 250.141 165.916 250.471 165.916ZM255.438 165.916C256.03 165.916 256.538 166.047 256.961 166.31C257.384 166.572 257.708 166.94 257.932 167.414C258.156 167.884 258.269 168.434 258.269 169.064V169.718H253.463C253.476 170.535 253.679 171.157 254.073 171.584C254.466 172.012 255.021 172.226 255.736 172.226C256.176 172.226 256.565 172.185 256.904 172.105C257.242 172.025 257.594 171.906 257.958 171.75V172.676C257.606 172.833 257.257 172.947 256.91 173.019C256.567 173.091 256.161 173.127 255.691 173.127C255.023 173.127 254.439 172.992 253.94 172.721C253.444 172.446 253.059 172.044 252.784 171.515C252.509 170.986 252.372 170.338 252.372 169.572C252.372 168.823 252.496 168.176 252.746 167.63C253 167.08 253.356 166.657 253.813 166.36C254.274 166.064 254.816 165.916 255.438 165.916ZM255.425 166.779C254.862 166.779 254.413 166.963 254.079 167.332C253.745 167.7 253.546 168.214 253.482 168.874H257.164C257.16 168.459 257.094 168.095 256.967 167.782C256.845 167.465 256.656 167.219 256.402 167.046C256.149 166.868 255.823 166.779 255.425 166.779ZM265.943 172.264C266.116 172.264 266.294 172.249 266.476 172.219C266.658 172.19 266.806 172.154 266.92 172.111V172.93C266.798 172.985 266.626 173.032 266.406 173.07C266.19 173.108 265.979 173.127 265.771 173.127C265.403 173.127 265.069 173.063 264.768 172.937C264.468 172.805 264.227 172.585 264.045 172.276C263.867 171.967 263.778 171.54 263.778 170.994V166.868H262.788V166.354L263.784 165.941L264.203 164.431H264.838V166.043H266.876V166.868H264.838V170.962C264.838 171.398 264.938 171.724 265.137 171.94C265.34 172.156 265.608 172.264 265.943 172.264ZM269.513 163.123V166.075C269.513 166.244 269.509 166.415 269.5 166.589C269.492 166.758 269.477 166.915 269.456 167.059H269.526C269.67 166.813 269.852 166.608 270.072 166.443C270.296 166.274 270.55 166.147 270.833 166.062C271.117 165.973 271.417 165.929 271.735 165.929C272.293 165.929 272.759 166.018 273.131 166.195C273.508 166.373 273.789 166.648 273.976 167.021C274.166 167.393 274.261 167.875 274.261 168.468V173H273.22V168.538C273.22 167.958 273.087 167.524 272.82 167.236C272.558 166.949 272.154 166.805 271.608 166.805C271.092 166.805 270.679 166.904 270.37 167.103C270.065 167.298 269.845 167.585 269.71 167.966C269.579 168.347 269.513 168.813 269.513 169.363V173H268.459V163.123H269.513ZM279.165 165.929C279.994 165.929 280.61 166.115 281.012 166.487C281.414 166.86 281.615 167.454 281.615 168.271V173H280.847L280.644 171.972H280.593C280.398 172.226 280.195 172.439 279.983 172.613C279.772 172.782 279.526 172.911 279.247 173C278.972 173.085 278.634 173.127 278.232 173.127C277.808 173.127 277.432 173.053 277.102 172.905C276.776 172.757 276.518 172.532 276.327 172.232C276.141 171.931 276.048 171.551 276.048 171.089C276.048 170.395 276.323 169.862 276.873 169.49C277.423 169.117 278.261 168.914 279.387 168.88L280.586 168.83V168.404C280.586 167.803 280.457 167.382 280.199 167.141C279.941 166.9 279.577 166.779 279.107 166.779C278.744 166.779 278.397 166.832 278.066 166.938C277.736 167.044 277.423 167.169 277.127 167.312L276.803 166.513C277.116 166.352 277.476 166.214 277.882 166.1C278.289 165.986 278.716 165.929 279.165 165.929ZM280.574 169.572L279.514 169.617C278.646 169.651 278.035 169.792 277.679 170.042C277.324 170.292 277.146 170.645 277.146 171.102C277.146 171.5 277.267 171.794 277.508 171.984C277.749 172.175 278.069 172.27 278.466 172.27C279.084 172.27 279.59 172.099 279.983 171.756C280.377 171.413 280.574 170.899 280.574 170.213V169.572ZM287.21 165.916C288.035 165.916 288.66 166.119 289.083 166.525C289.506 166.927 289.717 167.575 289.717 168.468V173H288.676V168.538C288.676 167.958 288.543 167.524 288.277 167.236C288.014 166.949 287.61 166.805 287.064 166.805C286.294 166.805 285.752 167.023 285.439 167.458C285.126 167.894 284.969 168.527 284.969 169.356V173H283.916V166.043H284.766L284.925 167.046H284.982C285.13 166.8 285.319 166.595 285.547 166.43C285.776 166.261 286.032 166.134 286.315 166.049C286.599 165.96 286.897 165.916 287.21 165.916Z" fill="#323232"/>
<rect x="300.949" y="156" width="48" height="24" rx="3" fill="#F3F3F3"/>
<path d="M319.048 172.803V172.012C320.695 171.877 321.662 170.998 321.662 169.609C321.662 168.426 320.976 167.717 319.546 167.336L319.048 167.213V164.348C319.916 164.453 320.496 165.01 320.519 165.736H321.515C321.474 164.471 320.513 163.562 319.048 163.439V162.625H318.263V163.445C316.769 163.592 315.837 164.465 315.837 165.748C315.837 166.838 316.541 167.605 317.794 167.934L318.263 168.062V171.109C317.296 170.992 316.699 170.471 316.634 169.686H315.632C315.638 170.992 316.681 171.9 318.263 172.018V172.803H319.048ZM320.648 169.691C320.648 170.547 320.068 171.074 319.048 171.127V168.221C320.156 168.455 320.648 168.918 320.648 169.691ZM316.845 165.689C316.845 164.951 317.443 164.395 318.263 164.348V167.043C317.337 166.85 316.845 166.387 316.845 165.689ZM325.125 172H326.144V163.545H325.113L322.863 165.162V166.275L325.101 164.664H325.125V172ZM331.248 172.141C333.216 172.141 334.353 170.436 334.353 167.764C334.353 165.109 333.21 163.404 331.248 163.404C329.285 163.404 328.13 165.121 328.13 167.77C328.13 170.441 329.273 172.141 331.248 172.141ZM331.248 171.221C329.923 171.221 329.191 169.873 329.191 167.764C329.191 165.701 329.941 164.33 331.248 164.33C332.554 164.33 333.292 165.689 333.292 167.77C333.292 169.879 332.566 171.221 331.248 171.221Z" fill="#787878"/>
<rect x="38.9487" y="200.659" width="309.366" height="5.79675" rx="2.89838" fill="#EEEEEE"/>
<rect x="38.9487" y="200.659" width="62.3528" height="5.79675" rx="2.89838" fill="#202020"/>
<circle cx="99.5204" cy="203.559" r="7.55896" fill="#202020"/>
<circle cx="99.5204" cy="203.559" r="4.5011" fill="#F3F3F3"/>
<path d="M42.5859 239.49L45.0552 234.838H46.2168L43.1255 240.519V244.118H42.0464V240.57L38.9487 234.838H40.1294L42.5859 239.49ZM53.4625 240.627C53.4625 241.198 53.3885 241.708 53.2404 242.156C53.0922 242.605 52.8785 242.984 52.5992 243.293C52.3199 243.602 51.9814 243.839 51.5836 244.004C51.1901 244.164 50.7436 244.245 50.2443 244.245C49.7788 244.245 49.3514 244.164 48.962 244.004C48.5769 243.839 48.2426 243.602 47.9591 243.293C47.6798 242.984 47.4619 242.605 47.3053 242.156C47.1529 241.708 47.0768 241.198 47.0768 240.627C47.0768 239.865 47.2058 239.218 47.464 238.684C47.7221 238.147 48.0903 237.739 48.5685 237.459C49.0509 237.176 49.6243 237.034 50.2887 237.034C50.9235 237.034 51.4778 237.176 51.9518 237.459C52.43 237.743 52.8002 238.153 53.0626 238.691C53.3292 239.224 53.4625 239.869 53.4625 240.627ZM48.1686 240.627C48.1686 241.185 48.2426 241.67 48.3907 242.08C48.5389 242.491 48.7674 242.808 49.0763 243.032C49.3852 243.257 49.783 243.369 50.2696 243.369C50.7521 243.369 51.1477 243.257 51.4567 243.032C51.7698 242.808 52.0004 242.491 52.1486 242.08C52.2967 241.67 52.3707 241.185 52.3707 240.627C52.3707 240.072 52.2967 239.594 52.1486 239.192C52.0004 238.786 51.7719 238.473 51.463 238.253C51.1541 238.033 50.7542 237.923 50.2633 237.923C49.5397 237.923 49.0086 238.162 48.67 238.64C48.3357 239.118 48.1686 239.78 48.1686 240.627ZM61.1589 237.161V244.118H60.2956L60.1433 243.14H60.0862C59.9423 243.382 59.7561 243.585 59.5276 243.75C59.2991 243.915 59.0409 244.038 58.7532 244.118C58.4696 244.203 58.1671 244.245 57.8454 244.245C57.2953 244.245 56.8341 244.156 56.4617 243.978C56.0893 243.801 55.8079 243.525 55.6174 243.153C55.4312 242.781 55.3381 242.302 55.3381 241.719V237.161H56.4045V241.642C56.4045 242.222 56.5357 242.656 56.7981 242.944C57.0605 243.227 57.4604 243.369 57.9978 243.369C58.5141 243.369 58.9246 243.272 59.2292 243.077C59.5382 242.882 59.7603 242.597 59.8957 242.22C60.0312 241.839 60.0989 241.374 60.0989 240.823V237.161H61.1589ZM72.686 244.105L71.4482 240.055C71.3932 239.882 71.3403 239.713 71.2895 239.548C71.243 239.378 71.1985 239.218 71.1562 239.065C71.1181 238.909 71.0822 238.765 71.0483 238.634C71.0187 238.498 70.9933 238.382 70.9721 238.284H70.9277C70.9108 238.382 70.8875 238.498 70.8579 238.634C70.8283 238.765 70.7923 238.909 70.75 239.065C70.7119 239.222 70.6696 239.387 70.623 239.56C70.5765 239.73 70.5236 239.901 70.4643 240.074L69.1694 244.105H67.9824L66.0654 237.148H67.1572L68.1601 240.989C68.2278 241.242 68.2913 241.494 68.3506 241.744C68.414 241.989 68.4669 242.222 68.5093 242.442C68.5558 242.658 68.5897 242.846 68.6108 243.007H68.6616C68.687 242.901 68.7145 242.774 68.7441 242.626C68.778 242.478 68.8139 242.322 68.852 242.156C68.8943 241.987 68.9388 241.82 68.9853 241.655C69.0319 241.486 69.0784 241.327 69.125 241.179L70.4072 237.148H71.5434L72.7812 241.173C72.8447 241.376 72.9061 241.587 72.9653 241.807C73.0288 242.027 73.0859 242.241 73.1367 242.448C73.1875 242.652 73.2235 242.834 73.2446 242.994H73.2954C73.3123 242.851 73.3441 242.673 73.3906 242.461C73.4372 242.25 73.4901 242.017 73.5493 241.763C73.6128 241.509 73.6784 241.251 73.7461 240.989L74.7617 237.148H75.8345L73.9111 244.105H72.686ZM78.2877 237.161V244.118H77.234V237.161H78.2877ZM77.7735 234.558C77.947 234.558 78.0952 234.615 78.2179 234.73C78.3448 234.84 78.4083 235.013 78.4083 235.25C78.4083 235.483 78.3448 235.656 78.2179 235.771C78.0952 235.885 77.947 235.942 77.7735 235.942C77.5916 235.942 77.4392 235.885 77.3165 235.771C77.198 235.656 77.1388 235.483 77.1388 235.25C77.1388 235.013 77.198 234.84 77.3165 234.73C77.4392 234.615 77.5916 234.558 77.7735 234.558ZM81.7121 244.118H80.6521V234.241H81.7121V244.118ZM85.1302 244.118H84.0702V234.241H85.1302V244.118ZM92.0489 234.241V237.193C92.0489 237.362 92.0447 237.533 92.0362 237.707C92.0277 237.876 92.0129 238.033 91.9918 238.177H92.0616C92.2055 237.931 92.3874 237.726 92.6075 237.561C92.8318 237.392 93.0857 237.265 93.3692 237.18C93.6527 237.091 93.9532 237.047 94.2706 237.047C94.8292 237.047 95.2947 237.135 95.6671 237.313C96.0437 237.491 96.3251 237.766 96.5113 238.138C96.7017 238.511 96.797 238.993 96.797 239.586V244.118H95.7559V239.656C95.7559 239.076 95.6226 238.642 95.356 238.354C95.0937 238.066 94.6895 237.923 94.1436 237.923C93.6274 237.923 93.2148 238.022 92.9058 238.221C92.6012 238.416 92.3811 238.703 92.2457 239.084C92.1145 239.465 92.0489 239.931 92.0489 240.481V244.118H90.9952V234.241H92.0489ZM101.7 237.047C102.53 237.047 103.146 237.233 103.548 237.605C103.95 237.978 104.151 238.572 104.151 239.389V244.118H103.383L103.179 243.09H103.129C102.934 243.344 102.731 243.557 102.519 243.731C102.308 243.9 102.062 244.029 101.783 244.118C101.508 244.203 101.169 244.245 100.767 244.245C100.344 244.245 99.9675 244.171 99.6374 244.023C99.3116 243.875 99.0534 243.65 98.863 243.35C98.6768 243.049 98.5837 242.669 98.5837 242.207C98.5837 241.513 98.8588 240.98 99.4089 240.608C99.959 240.235 100.797 240.032 101.923 239.998L103.122 239.948V239.522C103.122 238.921 102.993 238.5 102.735 238.259C102.477 238.018 102.113 237.897 101.643 237.897C101.279 237.897 100.932 237.95 100.602 238.056C100.272 238.162 99.959 238.287 99.6628 238.43L99.3391 237.631C99.6522 237.47 100.012 237.332 100.418 237.218C100.824 237.104 101.252 237.047 101.7 237.047ZM103.11 240.69L102.05 240.735C101.182 240.768 100.571 240.91 100.215 241.16C99.8596 241.41 99.6818 241.763 99.6818 242.22C99.6818 242.618 99.8024 242.912 100.044 243.102C100.285 243.293 100.604 243.388 101.002 243.388C101.62 243.388 102.126 243.217 102.519 242.874C102.913 242.531 103.11 242.017 103.11 241.331V240.69ZM107.981 244.118L105.341 237.161H106.471L108 241.369C108.106 241.657 108.214 241.975 108.324 242.322C108.434 242.669 108.51 242.948 108.553 243.159H108.597C108.648 242.948 108.732 242.669 108.851 242.322C108.969 241.97 109.077 241.653 109.175 241.369L110.704 237.161H111.834L109.187 244.118H107.981ZM115.76 237.034C116.353 237.034 116.86 237.165 117.284 237.427C117.707 237.69 118.031 238.058 118.255 238.532C118.479 239.002 118.591 239.552 118.591 240.182V240.836H113.786C113.799 241.653 114.002 242.275 114.395 242.702C114.789 243.13 115.343 243.344 116.059 243.344C116.499 243.344 116.888 243.303 117.227 243.223C117.565 243.142 117.916 243.024 118.28 242.867V243.794C117.929 243.951 117.58 244.065 117.233 244.137C116.89 244.209 116.484 244.245 116.014 244.245C115.345 244.245 114.761 244.109 114.262 243.839C113.767 243.564 113.382 243.162 113.107 242.633C112.832 242.104 112.694 241.456 112.694 240.69C112.694 239.941 112.819 239.294 113.069 238.748C113.323 238.198 113.678 237.774 114.135 237.478C114.596 237.182 115.138 237.034 115.76 237.034ZM115.747 237.897C115.185 237.897 114.736 238.081 114.402 238.449C114.067 238.818 113.869 239.332 113.805 239.992H117.487C117.483 239.577 117.417 239.213 117.29 238.9C117.167 238.583 116.979 238.337 116.725 238.164C116.471 237.986 116.145 237.897 115.747 237.897ZM126.265 243.382C126.439 243.382 126.617 243.367 126.799 243.337C126.98 243.308 127.129 243.272 127.243 243.229V244.048C127.12 244.103 126.949 244.15 126.729 244.188C126.513 244.226 126.301 244.245 126.094 244.245C125.726 244.245 125.391 244.181 125.091 244.054C124.791 243.923 124.549 243.703 124.367 243.394C124.19 243.085 124.101 242.658 124.101 242.112V237.986H123.111V237.472L124.107 237.059L124.526 235.549H125.161V237.161H127.198V237.986H125.161V242.08C125.161 242.516 125.26 242.842 125.459 243.058C125.662 243.274 125.931 243.382 126.265 243.382ZM134.781 240.627C134.781 241.198 134.707 241.708 134.558 242.156C134.41 242.605 134.197 242.984 133.917 243.293C133.638 243.602 133.299 243.839 132.902 244.004C132.508 244.164 132.062 244.245 131.562 244.245C131.097 244.245 130.669 244.164 130.28 244.004C129.895 243.839 129.561 243.602 129.277 243.293C128.998 242.984 128.78 242.605 128.623 242.156C128.471 241.708 128.395 241.198 128.395 240.627C128.395 239.865 128.524 239.218 128.782 238.684C129.04 238.147 129.408 237.739 129.887 237.459C130.369 237.176 130.942 237.034 131.607 237.034C132.242 237.034 132.796 237.176 133.27 237.459C133.748 237.743 134.118 238.153 134.381 238.691C134.647 239.224 134.781 239.869 134.781 240.627ZM129.487 240.627C129.487 241.185 129.561 241.67 129.709 242.08C129.857 242.491 130.085 242.808 130.394 243.032C130.703 243.257 131.101 243.369 131.588 243.369C132.07 243.369 132.466 243.257 132.775 243.032C133.088 242.808 133.318 242.491 133.467 242.08C133.615 241.67 133.689 241.185 133.689 240.627C133.689 240.072 133.615 239.594 133.467 239.192C133.318 238.786 133.09 238.473 132.781 238.253C132.472 238.033 132.072 237.923 131.581 237.923C130.858 237.923 130.327 238.162 129.988 238.64C129.654 239.118 129.487 239.78 129.487 240.627ZM143.026 244.245C142.4 244.245 141.847 244.116 141.369 243.858C140.891 243.6 140.519 243.206 140.252 242.677C139.985 242.148 139.852 241.482 139.852 240.677C139.852 239.835 139.992 239.148 140.271 238.615C140.555 238.077 140.944 237.679 141.439 237.421C141.934 237.163 142.497 237.034 143.127 237.034C143.474 237.034 143.809 237.07 144.13 237.142C144.456 237.21 144.723 237.296 144.93 237.402L144.613 238.284C144.401 238.2 144.156 238.124 143.877 238.056C143.601 237.988 143.343 237.954 143.102 237.954C142.62 237.954 142.218 238.058 141.896 238.265C141.579 238.473 141.34 238.777 141.179 239.179C141.022 239.581 140.944 240.077 140.944 240.665C140.944 241.228 141.02 241.708 141.172 242.106C141.329 242.503 141.56 242.808 141.864 243.02C142.173 243.227 142.558 243.331 143.02 243.331C143.388 243.331 143.72 243.293 144.016 243.217C144.312 243.136 144.581 243.043 144.822 242.937V243.877C144.59 243.995 144.329 244.086 144.042 244.15C143.758 244.213 143.419 244.245 143.026 244.245ZM152.601 240.627C152.601 241.198 152.527 241.708 152.379 242.156C152.231 242.605 152.017 242.984 151.738 243.293C151.459 243.602 151.12 243.839 150.722 244.004C150.329 244.164 149.882 244.245 149.383 244.245C148.917 244.245 148.49 244.164 148.101 244.004C147.716 243.839 147.381 243.602 147.098 243.293C146.819 242.984 146.601 242.605 146.444 242.156C146.292 241.708 146.215 241.198 146.215 240.627C146.215 239.865 146.345 239.218 146.603 238.684C146.861 238.147 147.229 237.739 147.707 237.459C148.19 237.176 148.763 237.034 149.427 237.034C150.062 237.034 150.617 237.176 151.09 237.459C151.569 237.743 151.939 238.153 152.201 238.691C152.468 239.224 152.601 239.869 152.601 240.627ZM147.307 240.627C147.307 241.185 147.381 241.67 147.529 242.08C147.678 242.491 147.906 242.808 148.215 243.032C148.524 243.257 148.922 243.369 149.408 243.369C149.891 243.369 150.286 243.257 150.595 243.032C150.909 242.808 151.139 242.491 151.287 242.08C151.435 241.67 151.509 241.185 151.509 240.627C151.509 240.072 151.435 239.594 151.287 239.192C151.139 238.786 150.911 238.473 150.602 238.253C150.293 238.033 149.893 237.923 149.402 237.923C148.678 237.923 148.147 238.162 147.809 238.64C147.474 239.118 147.307 239.78 147.307 240.627ZM157.847 237.034C158.673 237.034 159.297 237.237 159.72 237.643C160.143 238.045 160.355 238.693 160.355 239.586V244.118H159.314V239.656C159.314 239.076 159.18 238.642 158.914 238.354C158.651 238.066 158.247 237.923 157.701 237.923C156.931 237.923 156.39 238.141 156.076 238.576C155.763 239.012 155.607 239.645 155.607 240.474V244.118H154.553V237.161H155.404L155.562 238.164H155.619C155.768 237.918 155.956 237.713 156.184 237.548C156.413 237.379 156.669 237.252 156.952 237.167C157.236 237.078 157.534 237.034 157.847 237.034ZM164.903 243.382C165.076 243.382 165.254 243.367 165.436 243.337C165.618 243.308 165.766 243.272 165.88 243.229V244.048C165.758 244.103 165.586 244.15 165.366 244.188C165.15 244.226 164.939 244.245 164.731 244.245C164.363 244.245 164.029 244.181 163.728 244.054C163.428 243.923 163.187 243.703 163.005 243.394C162.827 243.085 162.738 242.658 162.738 242.112V237.986H161.748V237.472L162.745 237.059L163.163 235.549H163.798V237.161H165.836V237.986H163.798V242.08C163.798 242.516 163.898 242.842 164.097 243.058C164.3 243.274 164.568 243.382 164.903 243.382ZM170.581 237.034C170.72 237.034 170.866 237.042 171.019 237.059C171.171 237.072 171.306 237.091 171.425 237.116L171.292 238.094C171.177 238.064 171.05 238.041 170.911 238.024C170.771 238.007 170.64 237.999 170.517 237.999C170.238 237.999 169.973 238.056 169.724 238.17C169.478 238.28 169.262 238.441 169.076 238.653C168.89 238.86 168.744 239.112 168.638 239.408C168.532 239.7 168.48 240.026 168.48 240.385V244.118H167.419V237.161H168.295L168.41 238.443H168.454C168.598 238.185 168.772 237.95 168.975 237.739C169.178 237.523 169.413 237.351 169.679 237.224C169.95 237.097 170.251 237.034 170.581 237.034ZM173.923 237.161V244.118H172.869V237.161H173.923ZM173.408 234.558C173.582 234.558 173.73 234.615 173.853 234.73C173.98 234.84 174.043 235.013 174.043 235.25C174.043 235.483 173.98 235.656 173.853 235.771C173.73 235.885 173.582 235.942 173.408 235.942C173.226 235.942 173.074 235.885 172.951 235.771C172.833 235.656 172.774 235.483 172.774 235.25C172.774 235.013 172.833 234.84 172.951 234.73C173.074 234.615 173.226 234.558 173.408 234.558ZM177.341 234.241V236.71C177.341 236.994 177.332 237.269 177.315 237.535C177.303 237.802 177.292 238.009 177.283 238.157H177.341C177.531 237.844 177.806 237.58 178.166 237.364C178.525 237.148 178.985 237.04 179.543 237.04C180.415 237.04 181.109 237.343 181.625 237.948C182.146 238.549 182.406 239.444 182.406 240.633C182.406 241.416 182.288 242.076 182.051 242.614C181.814 243.151 181.479 243.557 181.048 243.832C180.616 244.107 180.106 244.245 179.518 244.245C178.968 244.245 178.515 244.143 178.159 243.94C177.808 243.733 177.537 243.481 177.347 243.185H177.264L177.049 244.118H176.287V234.241H177.341ZM179.372 237.923C178.868 237.923 178.468 238.022 178.172 238.221C177.876 238.416 177.662 238.712 177.531 239.11C177.404 239.503 177.341 240.003 177.341 240.608V240.665C177.341 241.541 177.487 242.212 177.779 242.677C178.071 243.138 178.602 243.369 179.372 243.369C180.019 243.369 180.504 243.132 180.825 242.658C181.151 242.184 181.314 241.507 181.314 240.627C181.314 239.73 181.153 239.055 180.832 238.602C180.514 238.149 180.028 237.923 179.372 237.923ZM190.121 237.161V244.118H189.258L189.106 243.14H189.049C188.905 243.382 188.719 243.585 188.49 243.75C188.262 243.915 188.003 244.038 187.716 244.118C187.432 244.203 187.13 244.245 186.808 244.245C186.258 244.245 185.797 244.156 185.424 243.978C185.052 243.801 184.77 243.525 184.58 243.153C184.394 242.781 184.301 242.302 184.301 241.719V237.161H185.367V241.642C185.367 242.222 185.498 242.656 185.761 242.944C186.023 243.227 186.423 243.369 186.96 243.369C187.477 243.369 187.887 243.272 188.192 243.077C188.501 242.882 188.723 242.597 188.858 242.22C188.994 241.839 189.061 241.374 189.061 240.823V237.161H190.121ZM194.727 243.382C194.9 243.382 195.078 243.367 195.26 243.337C195.442 243.308 195.59 243.272 195.704 243.229V244.048C195.581 244.103 195.41 244.15 195.19 244.188C194.974 244.226 194.763 244.245 194.555 244.245C194.187 244.245 193.853 244.181 193.552 244.054C193.252 243.923 193.011 243.703 192.829 243.394C192.651 243.085 192.562 242.658 192.562 242.112V237.986H191.572V237.472L192.568 237.059L192.987 235.549H193.622V237.161H195.66V237.986H193.622V242.08C193.622 242.516 193.722 242.842 193.92 243.058C194.124 243.274 194.392 243.382 194.727 243.382ZM199.922 237.034C200.514 237.034 201.022 237.165 201.445 237.427C201.869 237.69 202.192 238.058 202.417 238.532C202.641 239.002 202.753 239.552 202.753 240.182V240.836H197.948C197.961 241.653 198.164 242.275 198.557 242.702C198.951 243.13 199.505 243.344 200.22 243.344C200.66 243.344 201.05 243.303 201.388 243.223C201.727 243.142 202.078 243.024 202.442 242.867V243.794C202.091 243.951 201.742 244.065 201.395 244.137C201.052 244.209 200.646 244.245 200.176 244.245C199.507 244.245 198.923 244.109 198.424 243.839C197.929 243.564 197.544 243.162 197.269 242.633C196.994 242.104 196.856 241.456 196.856 240.69C196.856 239.941 196.981 239.294 197.231 238.748C197.484 238.198 197.84 237.774 198.297 237.478C198.758 237.182 199.3 237.034 199.922 237.034ZM199.909 237.897C199.346 237.897 198.898 238.081 198.564 238.449C198.229 238.818 198.03 239.332 197.967 239.992H201.649C201.644 239.577 201.579 239.213 201.452 238.9C201.329 238.583 201.141 238.337 200.887 238.164C200.633 237.986 200.307 237.897 199.909 237.897Z" fill="#323232"/>
<rect x="213.949" y="227.118" width="51" height="24" rx="3" fill="#F3F3F3"/>
<path d="M228.785 237.1V237.106H229.804V237.1C229.804 236.157 230.554 235.442 231.544 235.442C232.476 235.442 233.22 236.093 233.22 236.907C233.22 237.61 232.951 238.061 231.814 239.257L228.837 242.391V243.118H234.416V242.18H230.296V242.157L232.435 239.948C233.847 238.489 234.275 237.786 234.275 236.843C234.275 235.548 233.085 234.522 231.574 234.522C229.98 234.522 228.785 235.624 228.785 237.1ZM238.541 243.259C240.304 243.259 241.552 242.069 241.552 240.37C241.552 238.729 240.38 237.54 238.757 237.54C237.949 237.54 237.246 237.844 236.865 238.354H236.841L237.099 235.6H241.072V234.663H236.232L235.769 239.397H236.759C237.105 238.805 237.779 238.448 238.57 238.448C239.695 238.448 240.498 239.262 240.498 240.399C240.498 241.536 239.701 242.333 238.552 242.333C237.539 242.333 236.771 241.712 236.677 240.809H235.64C235.728 242.251 236.923 243.259 238.541 243.259ZM245.812 236.661C245.812 235.384 245.109 234.557 244.037 234.557C242.964 234.557 242.261 235.384 242.261 236.661C242.261 237.938 242.964 238.764 244.037 238.764C245.109 238.764 245.812 237.938 245.812 236.661ZM244.037 238.05C243.521 238.05 243.199 237.522 243.199 236.661C243.199 235.8 243.521 235.272 244.037 235.272C244.552 235.272 244.875 235.8 244.875 236.661C244.875 237.522 244.552 238.05 244.037 238.05ZM243.779 243.118L246.779 239.01L249.955 234.663H248.947L246.023 238.659L242.759 243.118H243.779ZM250.458 241.102C250.458 239.825 249.755 238.999 248.683 238.999C247.611 238.999 246.908 239.825 246.908 241.102C246.908 242.38 247.611 243.206 248.683 243.206C249.755 243.206 250.458 242.38 250.458 241.102ZM248.683 242.491C248.167 242.491 247.845 241.964 247.845 241.102C247.845 240.241 248.167 239.714 248.683 239.714C249.199 239.714 249.521 240.241 249.521 241.102C249.521 241.964 249.199 242.491 248.683 242.491Z" fill="#787878"/>
<rect x="38.9487" y="271.776" width="309.366" height="5.79675" rx="2.89838" fill="#EEEEEE"/>
<rect x="38.9487" y="271.776" width="253" height="5.79675" rx="2.89838" fill="#202020"/>
<circle cx="291.949" cy="274.677" r="7.55896" fill="#202020"/>
<circle cx="291.949" cy="274.677" r="4.5011" fill="#F3F3F3"/>
<rect width="82" height="28" transform="translate(274.625 299.675)" fill="black"/>
<path d="M287.65 308.106V318.675H291.203C294.345 318.675 296.19 316.719 296.19 313.387C296.19 310.062 294.337 308.106 291.203 308.106H287.65ZM288.969 309.292H291.115C293.517 309.292 294.843 310.757 294.843 313.401C294.843 316.023 293.51 317.488 291.115 317.488H288.969V309.292ZM300.837 312.032C302.039 312.032 302.837 312.94 302.866 314.214H298.728C298.809 312.947 299.644 312.032 300.837 312.032ZM302.837 316.492C302.625 317.21 301.914 317.701 300.947 317.701C299.578 317.701 298.721 316.741 298.721 315.284V315.21H304.185V314.727C304.185 312.42 302.918 310.926 300.859 310.926C298.757 310.926 297.41 312.53 297.41 314.896C297.41 317.291 298.735 318.807 300.918 318.807C302.581 318.807 303.87 317.825 304.089 316.492H302.837ZM305.492 313.16C305.492 314.2 306.151 314.888 307.491 315.232L308.832 315.577C309.689 315.804 310.004 316.097 310.004 316.639C310.004 317.327 309.366 317.767 308.334 317.767C307.301 317.767 306.7 317.342 306.561 316.551H305.287C305.419 317.898 306.583 318.807 308.253 318.807C310.033 318.807 311.285 317.869 311.285 316.543C311.285 315.423 310.729 314.866 309.191 314.478L308.011 314.192C307.147 313.973 306.744 313.621 306.744 313.094C306.744 312.427 307.36 311.966 308.29 311.966C309.227 311.966 309.821 312.42 309.908 313.152H311.124C311.066 311.863 309.908 310.926 308.334 310.926C306.656 310.926 305.492 311.856 305.492 313.16ZM312.827 318.675H314.101V311.058H312.827V318.675ZM313.464 309.776C313.904 309.776 314.263 309.417 314.263 308.985C314.263 308.545 313.904 308.194 313.464 308.194C313.032 308.194 312.673 308.545 312.673 308.985C312.673 309.417 313.032 309.776 313.464 309.776ZM319.071 317.613C317.76 317.613 316.903 316.543 316.903 314.837C316.903 313.13 317.76 312.046 319.071 312.046C320.396 312.046 321.283 313.16 321.283 314.837C321.283 316.514 320.396 317.613 319.071 317.613ZM319.115 321.546C321.217 321.546 322.557 320.337 322.557 318.521V311.058H321.341V312.339H321.319C320.814 311.453 319.92 310.926 318.844 310.926C316.873 310.926 315.599 312.449 315.599 314.837C315.599 317.203 316.873 318.733 318.814 318.733C319.884 318.733 320.785 318.191 321.253 317.364H321.283V318.565C321.283 319.7 320.484 320.462 319.166 320.462C318.214 320.462 317.459 320 317.21 319.305H315.899C316.112 320.601 317.437 321.546 319.115 321.546ZM324.37 318.675H325.644V314.192C325.644 312.903 326.428 312.054 327.629 312.054C328.801 312.054 329.379 312.728 329.379 313.958V318.675H330.654V313.731C330.654 312.002 329.687 310.926 328.017 310.926C326.838 310.926 326.025 311.453 325.6 312.273H325.571V311.058H324.37V318.675ZM335.484 312.032C336.685 312.032 337.483 312.94 337.513 314.214H333.375C333.455 312.947 334.29 312.032 335.484 312.032ZM337.483 316.492C337.271 317.21 336.561 317.701 335.594 317.701C334.224 317.701 333.367 316.741 333.367 315.284V315.21H338.831V314.727C338.831 312.42 337.564 310.926 335.506 310.926C333.404 310.926 332.056 312.53 332.056 314.896C332.056 317.291 333.382 318.807 335.565 318.807C337.227 318.807 338.516 317.825 338.736 316.492H337.483ZM340.27 318.675H341.545V313.929C341.545 312.852 342.189 312.142 343.178 312.142C343.486 312.142 343.757 312.178 343.859 312.215V310.977C343.757 310.962 343.566 310.926 343.346 310.926C342.453 310.926 341.75 311.46 341.501 312.303H341.471V311.058H340.27V318.675Z" fill="white"/>
<g clip-path="url(#clip0_490_694)">
<path fill-rule="evenodd" clip-rule="evenodd" d="M252.438 276.164L261.004 300.675L265.582 291.116L275.807 287.982L252.438 276.164Z" fill="black"/>
<path d="M261.004 300.675L260.366 300.892L260.906 302.438L261.614 300.96L261.004 300.675ZM252.438 276.164L252.746 275.57L251.253 274.815L251.8 276.381L252.438 276.164ZM265.582 291.116L265.382 290.479L265.099 290.566L264.972 290.831L265.582 291.116ZM275.807 287.982L276.007 288.618L277.589 288.133L276.115 287.388L275.807 287.982ZM261.642 300.457L253.076 275.946L251.8 276.381L260.366 300.892L261.642 300.457ZM264.972 290.831L260.394 300.39L261.614 300.96L266.192 291.401L264.972 290.831ZM265.782 291.753L276.007 288.618L275.607 287.345L265.382 290.479L265.782 291.753ZM276.115 287.388L252.746 275.57L252.13 276.757L275.499 288.575L276.115 287.388Z" fill="white"/>
</g>
<rect x="12.4385" y="190.233" width="365.123" height="26" stroke="#202020" stroke-dasharray="2 2"/>
<rect x="12.4385" y="101" width="365.123" height="26" stroke="#202020" stroke-dasharray="2 2"/>
<rect x="12.4385" y="261.675" width="365.123" height="26" stroke="#202020" stroke-dasharray="2 2"/>
<defs>
<clipPath id="clip0_490_694">
<rect width="27" height="28" fill="white" transform="translate(250.625 274.675)"/>
</clipPath>
</defs>
</svg>
