<svg width="292" height="80" viewBox="0 0 292 80" fill="none" xmlns="http://www.w3.org/2000/svg">
<rect x="0.5" y="0.88208" width="291" height="78.2358" rx="10" fill="#F3F3F3"/>
<path d="M16.5 24.4391C16.5 22.8384 17.7976 21.5408 19.3984 21.5408L269.479 21.5408C271.079 21.5408 272.377 22.8384 272.377 24.4391C272.377 26.0399 271.079 27.3375 269.479 27.3375H19.3984C17.7976 27.3375 16.5 26.0399 16.5 24.4391Z" fill="#FAFAFA"/>
<rect x="16.5" y="21.5408" width="190.899" height="5.79675" rx="2.89838" fill="#787878"/>
<circle cx="204.497" cy="24.441" r="7.55896" fill="#787878"/>
<circle cx="204.497" cy="24.4408" r="4.5011" fill="#F3F3F3"/>
<path d="M16.5 55.5571C16.5 53.9563 17.7976 52.6587 19.3984 52.6587L269.479 52.6587C271.079 52.6587 272.377 53.9563 272.377 55.5571C272.377 57.1578 271.079 58.4554 269.479 58.4554H19.3984C17.7976 58.4554 16.5 57.1578 16.5 55.5571Z" fill="#FAFAFA"/>
<rect x="16.5" y="52.6587" width="91.5654" height="5.79675" rx="2.89838" fill="#787878"/>
<circle cx="107.693" cy="55.559" r="7.55896" fill="#787878"/>
<circle cx="107.693" cy="55.5587" r="4.5011" fill="#F3F3F3"/>
</svg>
