<svg width="307" height="307" viewBox="0 0 307 307" fill="none" xmlns="http://www.w3.org/2000/svg">
<circle cx="153.373" cy="153.831" r="153" fill="#F3F3F3"/>
<path d="M306.373 153.831C306.373 173.923 302.416 193.818 294.727 212.381C287.038 230.944 275.768 247.811 261.561 262.018C247.353 276.225 230.487 287.495 211.924 295.184C193.361 302.873 173.466 306.831 153.373 306.831L153.373 153.831H306.373Z" fill="#DBDBDB"/>
<path d="M0.373335 153.831C0.373337 133.738 4.3308 113.843 12.0198 95.2801C19.7087 76.7173 30.9786 59.8507 45.186 45.6434C59.3934 31.436 76.26 20.1661 94.8228 12.4771C113.386 4.78816 133.281 0.830703 153.373 0.830706L153.373 153.831L0.373335 153.831Z" fill="#DBDBDB"/>
<path d="M66.9822 88.1407V87.2838C68.7659 87.1378 69.8132 86.1857 69.8132 84.6813C69.8132 83.399 69.0706 82.631 67.5217 82.2184L66.9822 82.0851V78.9811C67.9216 79.0953 68.55 79.6984 68.5754 80.4855H69.6545C69.6101 79.1144 68.5691 78.1305 66.9822 77.9972V77.1149H66.1316V78.0035C64.5129 78.1622 63.5037 79.108 63.5037 80.4982C63.5037 81.6788 64.2654 82.5104 65.6238 82.8658L66.1316 83.0055V86.3063C65.0842 86.1793 64.4368 85.6144 64.3669 84.7638H63.2815C63.2878 86.1793 64.4177 87.1632 66.1316 87.2902V88.1407H66.9822ZM68.7151 84.7701C68.7151 85.6969 68.0867 86.2682 66.9822 86.3253V83.1769C68.1819 83.4308 68.7151 83.9323 68.7151 84.7701ZM64.5955 80.4347C64.5955 79.6349 65.2429 79.0319 66.1316 78.9811V81.901C65.1287 81.6915 64.5955 81.1901 64.5955 80.4347ZM74.3772 87.4235C76.2878 87.4235 77.6399 86.1349 77.6399 84.2941C77.6399 82.5167 76.3704 81.2281 74.6121 81.2281C73.7361 81.2281 72.9744 81.5582 72.5618 82.1105H72.5364L72.8157 79.1271H77.1194V78.1115H71.8762L71.3748 83.2404H72.4475C72.822 82.5992 73.552 82.212 74.4089 82.212C75.6277 82.212 76.4973 83.0944 76.4973 84.3258C76.4973 85.5573 75.634 86.4205 74.3899 86.4205C73.2917 86.4205 72.4602 85.7477 72.3586 84.7701H71.2351C71.3303 86.3317 72.6252 87.4235 74.3772 87.4235ZM85.511 77.9591C82.9148 77.9591 81.2898 79.7872 81.2898 82.6945C81.2898 85.6017 82.9148 87.4235 85.511 87.4235C88.1072 87.4235 89.7322 85.6017 89.7322 82.6945C89.7322 79.7872 88.1072 77.9591 85.511 77.9591ZM85.511 79.0128C87.3835 79.0128 88.5579 80.4347 88.5579 82.6945C88.5579 84.9479 87.3835 86.3698 85.511 86.3698C83.6384 86.3698 82.4641 84.9479 82.4641 82.6945C82.4641 80.4347 83.6384 79.0128 85.511 79.0128ZM91.3381 87.2711H92.4426V81.5773H93.7883V80.6696H92.4363V79.9396C92.4363 79.2858 92.7219 78.9684 93.3186 78.9684C93.5027 78.9684 93.6868 78.9874 93.8201 79.0065V78.1115C93.6614 78.0861 93.3948 78.0607 93.1472 78.0607C91.9285 78.0607 91.3381 78.6637 91.3381 79.9332V80.6696H90.4177V81.5773H91.3381V87.2711ZM95.2864 87.2711H96.3909V81.5773H97.7366V80.6696H96.3845V79.9396C96.3845 79.2858 96.6702 78.9684 97.2668 78.9684C97.4509 78.9684 97.635 78.9874 97.7683 79.0065V78.1115C97.6096 78.0861 97.343 78.0607 97.0955 78.0607C95.8767 78.0607 95.2864 78.6637 95.2864 79.9332V80.6696H94.366V81.5773H95.2864V87.2711ZM56.6736 100.751C56.7815 102.37 58.1272 103.423 60.0696 103.423C62.177 103.423 63.4973 102.376 63.4973 100.7C63.4973 99.3864 62.7292 98.6564 60.8313 98.1803L59.8728 97.9264C58.6287 97.6027 58.1208 97.1901 58.1208 96.4982C58.1208 95.6031 58.946 94.9874 60.1331 94.9874C61.3264 94.9874 62.1199 95.5905 62.2214 96.5743H63.364C63.3132 95.0382 61.9929 93.9591 60.1711 93.9591C58.2668 93.9591 56.9338 95.0255 56.9338 96.549C56.9338 97.7931 57.6829 98.5358 59.3713 98.9674L60.5457 99.2721C61.7771 99.5895 62.3167 100.066 62.3167 100.84C62.3167 101.741 61.4153 102.395 60.1775 102.395C58.8699 102.395 57.9304 101.741 57.8225 100.751H56.6736ZM64.7161 103.271H65.8206V99.4244C65.8206 98.2819 66.4998 97.5328 67.5979 97.5328C68.6326 97.5328 69.1594 98.1613 69.1594 99.2086V103.271H70.2639V99.0055C70.2639 97.5328 69.3879 96.5553 67.9407 96.5553C66.9377 96.5553 66.2141 96.9869 65.8459 97.7233H65.8206V94.1115H64.7161V103.271ZM71.7239 103.271H72.8284V96.6696H71.7239V103.271ZM72.2761 95.5587C72.657 95.5587 72.968 95.2477 72.968 94.8732C72.968 94.4923 72.657 94.1876 72.2761 94.1876C71.9016 94.1876 71.5906 94.4923 71.5906 94.8732C71.5906 95.2477 71.9016 95.5587 72.2761 95.5587ZM77.5256 96.5553C76.5671 96.5553 75.7991 97.0441 75.3928 97.7867H75.3674V96.6696H74.3201V105.474H75.4246V102.198H75.45C75.8435 102.922 76.6052 103.385 77.551 103.385C79.2141 103.385 80.3503 102.04 80.3503 99.9703C80.3503 97.901 79.2078 96.5553 77.5256 96.5553ZM77.3098 102.414C76.1799 102.414 75.4182 101.443 75.4182 99.9703C75.4182 98.504 76.1799 97.5265 77.3098 97.5265C78.4841 97.5265 79.2205 98.4786 79.2205 99.9703C79.2205 101.468 78.4841 102.414 77.3098 102.414ZM84.6731 96.5553C83.7146 96.5553 82.9465 97.0441 82.5403 97.7867H82.5149V96.6696H81.4675V105.474H82.572V102.198H82.5974C82.991 102.922 83.7527 103.385 84.6985 103.385C86.3616 103.385 87.4978 102.04 87.4978 99.9703C87.4978 97.901 86.3552 96.5553 84.6731 96.5553ZM84.4573 102.414C83.3274 102.414 82.5657 101.443 82.5657 99.9703C82.5657 98.504 83.3274 97.5265 84.4573 97.5265C85.6316 97.5265 86.3679 98.4786 86.3679 99.9703C86.3679 101.468 85.6316 102.414 84.4573 102.414ZM88.6721 103.271H89.7766V96.6696H88.6721V103.271ZM89.2244 95.5587C89.6052 95.5587 89.9163 95.2477 89.9163 94.8732C89.9163 94.4923 89.6052 94.1876 89.2244 94.1876C88.8499 94.1876 88.5388 94.4923 88.5388 94.8732C88.5388 95.2477 88.8499 95.5587 89.2244 95.5587ZM91.2683 103.271H92.3728V99.3864C92.3728 98.2692 93.052 97.5328 94.093 97.5328C95.1086 97.5328 95.6101 98.1168 95.6101 99.1832V103.271H96.7146V98.9865C96.7146 97.4884 95.8767 96.5553 94.4294 96.5553C93.4075 96.5553 92.7029 97.0123 92.3347 97.7233H92.3093V96.6696H91.2683V103.271ZM100.809 102.351C99.6726 102.351 98.9299 101.424 98.9299 99.9449C98.9299 98.4659 99.6726 97.5265 100.809 97.5265C101.958 97.5265 102.726 98.4913 102.726 99.9449C102.726 101.399 101.958 102.351 100.809 102.351ZM100.847 105.759C102.669 105.759 103.83 104.712 103.83 103.138V96.6696H102.777V97.7804H102.758C102.32 97.0123 101.545 96.5553 100.612 96.5553C98.9045 96.5553 97.8 97.8756 97.8 99.9449C97.8 101.995 98.9045 103.322 100.587 103.322C101.513 103.322 102.294 102.852 102.7 102.135H102.726V103.176C102.726 104.16 102.034 104.82 100.891 104.82C100.066 104.82 99.4124 104.42 99.1965 103.817H98.0603C98.2444 104.941 99.3933 105.759 100.847 105.759ZM61.1741 119.271H62.2786V113.577H63.6243V112.67H62.2722V111.94C62.2722 111.286 62.5579 110.968 63.1545 110.968C63.3386 110.968 63.5227 110.987 63.656 111.006V110.111C63.4973 110.086 63.2307 110.061 62.9832 110.061C61.7644 110.061 61.1741 110.664 61.1741 111.933V112.67H60.2537V113.577H61.1741V119.271ZM67.1853 119.385C69.0071 119.385 70.2385 118.071 70.2385 115.97C70.2385 113.863 69.0071 112.555 67.1853 112.555C65.3572 112.555 64.1257 113.863 64.1257 115.97C64.1257 118.071 65.3572 119.385 67.1853 119.385ZM67.1853 118.414C66.0173 118.414 65.2493 117.526 65.2493 115.97C65.2493 114.415 66.0173 113.526 67.1853 113.526C68.3533 113.526 69.115 114.415 69.115 115.97C69.115 117.526 68.3533 118.414 67.1853 118.414ZM71.3557 119.271H72.4602V115.158C72.4602 114.225 73.0188 113.609 73.8757 113.609C74.1423 113.609 74.3772 113.641 74.4661 113.672V112.6C74.3772 112.587 74.2122 112.555 74.0217 112.555C73.2473 112.555 72.6379 113.019 72.4221 113.749H72.3967V112.67H71.3557V119.271ZM78.5793 121.74C79.7727 121.74 80.3186 121.277 80.8835 119.734L83.4797 112.67H82.3181L80.49 118.167H80.4709L78.6428 112.67H77.4622L79.8997 119.277L79.7473 119.741C79.4934 120.509 79.1506 120.807 78.5349 120.807C78.3953 120.807 78.2239 120.801 78.1033 120.776V121.702C78.2239 121.728 78.446 121.74 78.5793 121.74ZM86.9011 119.385C88.7229 119.385 89.9543 118.071 89.9543 115.97C89.9543 113.863 88.7229 112.555 86.9011 112.555C85.073 112.555 83.8416 113.863 83.8416 115.97C83.8416 118.071 85.073 119.385 86.9011 119.385ZM86.9011 118.414C85.7332 118.414 84.9651 117.526 84.9651 115.97C84.9651 114.415 85.7332 113.526 86.9011 113.526C88.0691 113.526 88.8308 114.415 88.8308 115.97C88.8308 117.526 88.0691 118.414 86.9011 118.414ZM96.4924 112.67H95.3879V116.548C95.3879 117.672 94.7405 118.408 93.6677 118.408C92.6458 118.408 92.1443 117.83 92.1443 116.757V112.67H91.0398V116.954C91.0398 118.452 91.884 119.385 93.325 119.385C94.3406 119.385 95.0261 118.96 95.4197 118.198H95.4451V119.271H96.4924V112.67ZM98.3713 110.111L98.4475 116.231H99.4377L99.5139 110.111H98.3713ZM98.9426 119.335C99.3552 119.335 99.6663 119.017 99.6663 118.611C99.6663 118.198 99.3552 117.887 98.9426 117.887C98.5364 117.887 98.219 118.198 98.219 118.611C98.219 119.017 98.5364 119.335 98.9426 119.335Z" fill="#3E3E3E"/>
<path d="M216.56 206.956V206.099C218.344 205.953 219.391 205.001 219.391 203.496C219.391 202.214 218.648 201.446 217.099 201.033L216.56 200.9V197.796C217.499 197.91 218.128 198.513 218.153 199.3H219.232C219.188 197.929 218.147 196.945 216.56 196.812V195.93H215.709V196.818C214.091 196.977 213.081 197.923 213.081 199.313C213.081 200.494 213.843 201.325 215.201 201.681L215.709 201.82V205.121C214.662 204.994 214.014 204.429 213.945 203.579H212.859C212.865 204.994 213.995 205.978 215.709 206.105V206.956H216.56ZM218.293 203.585C218.293 204.512 217.664 205.083 216.56 205.14V201.992C217.76 202.246 218.293 202.747 218.293 203.585ZM214.173 199.25C214.173 198.45 214.821 197.847 215.709 197.796V200.716C214.706 200.506 214.173 200.005 214.173 199.25ZM223.955 206.238C225.865 206.238 227.218 204.95 227.218 203.109C227.218 201.332 225.948 200.043 224.19 200.043C223.314 200.043 222.552 200.373 222.139 200.925H222.114L222.393 197.942H226.697V196.926H221.454L220.952 202.055H222.025C222.4 201.414 223.13 201.027 223.987 201.027C225.205 201.027 226.075 201.909 226.075 203.141C226.075 204.372 225.212 205.235 223.968 205.235C222.869 205.235 222.038 204.563 221.936 203.585H220.813C220.908 205.147 222.203 206.238 223.955 206.238ZM235.089 196.774C232.492 196.774 230.867 198.602 230.867 201.509C230.867 204.417 232.492 206.238 235.089 206.238C237.685 206.238 239.31 204.417 239.31 201.509C239.31 198.602 237.685 196.774 235.089 196.774ZM235.089 197.828C236.961 197.828 238.135 199.25 238.135 201.509C238.135 203.763 236.961 205.185 235.089 205.185C233.216 205.185 232.042 203.763 232.042 201.509C232.042 199.25 233.216 197.828 235.089 197.828ZM240.916 206.086H242.02V200.392H243.366V199.484H242.014V198.755C242.014 198.101 242.3 197.783 242.896 197.783C243.08 197.783 243.264 197.802 243.398 197.821V196.926C243.239 196.901 242.972 196.876 242.725 196.876C241.506 196.876 240.916 197.479 240.916 198.748V199.484H239.995V200.392H240.916V206.086ZM244.864 206.086H245.969V200.392H247.314V199.484H245.962V198.755C245.962 198.101 246.248 197.783 246.844 197.783C247.029 197.783 247.213 197.802 247.346 197.821V196.926C247.187 196.901 246.921 196.876 246.673 196.876C245.454 196.876 244.864 197.479 244.864 198.748V199.484H243.944V200.392H244.864V206.086ZM206.251 219.566C206.359 221.185 207.705 222.238 209.647 222.238C211.755 222.238 213.075 221.191 213.075 219.515C213.075 218.201 212.307 217.471 210.409 216.995L209.45 216.741C208.206 216.418 207.698 216.005 207.698 215.313C207.698 214.418 208.524 213.802 209.711 213.802C210.904 213.802 211.698 214.405 211.799 215.389H212.942C212.891 213.853 211.571 212.774 209.749 212.774C207.844 212.774 206.511 213.84 206.511 215.364C206.511 216.608 207.26 217.351 208.949 217.782L210.123 218.087C211.355 218.404 211.894 218.88 211.894 219.655C211.894 220.556 210.993 221.21 209.755 221.21C208.448 221.21 207.508 220.556 207.4 219.566H206.251ZM214.294 222.086H215.398V218.239C215.398 217.097 216.077 216.348 217.176 216.348C218.21 216.348 218.737 216.976 218.737 218.024V222.086H219.842V217.82C219.842 216.348 218.966 215.37 217.518 215.37C216.515 215.37 215.792 215.802 215.424 216.538H215.398V212.926H214.294V222.086ZM221.302 222.086H222.406V215.484H221.302V222.086ZM221.854 214.374C222.235 214.374 222.546 214.063 222.546 213.688C222.546 213.307 222.235 213.003 221.854 213.003C221.479 213.003 221.168 213.307 221.168 213.688C221.168 214.063 221.479 214.374 221.854 214.374ZM227.103 215.37C226.145 215.37 225.377 215.859 224.97 216.602H224.945V215.484H223.898V224.289H225.002V221.013H225.028C225.421 221.737 226.183 222.2 227.129 222.2C228.792 222.2 229.928 220.855 229.928 218.785C229.928 216.716 228.785 215.37 227.103 215.37ZM226.887 221.229C225.758 221.229 224.996 220.258 224.996 218.785C224.996 217.319 225.758 216.341 226.887 216.341C228.062 216.341 228.798 217.294 228.798 218.785C228.798 220.283 228.062 221.229 226.887 221.229ZM234.251 215.37C233.292 215.37 232.524 215.859 232.118 216.602H232.093V215.484H231.045V224.289H232.15V221.013H232.175C232.569 221.737 233.33 222.2 234.276 222.2C235.939 222.2 237.075 220.855 237.075 218.785C237.075 216.716 235.933 215.37 234.251 215.37ZM234.035 221.229C232.905 221.229 232.143 220.258 232.143 218.785C232.143 217.319 232.905 216.341 234.035 216.341C235.209 216.341 235.946 217.294 235.946 218.785C235.946 220.283 235.209 221.229 234.035 221.229ZM238.25 222.086H239.354V215.484H238.25V222.086ZM238.802 214.374C239.183 214.374 239.494 214.063 239.494 213.688C239.494 213.307 239.183 213.003 238.802 213.003C238.427 213.003 238.116 213.307 238.116 213.688C238.116 214.063 238.427 214.374 238.802 214.374ZM240.846 222.086H241.95V218.201C241.95 217.084 242.63 216.348 243.671 216.348C244.686 216.348 245.188 216.932 245.188 217.998V222.086H246.292V217.801C246.292 216.303 245.454 215.37 244.007 215.37C242.985 215.37 242.281 215.827 241.912 216.538H241.887V215.484H240.846V222.086ZM250.386 221.166C249.25 221.166 248.508 220.239 248.508 218.76C248.508 217.281 249.25 216.341 250.386 216.341C251.535 216.341 252.303 217.306 252.303 218.76C252.303 220.214 251.535 221.166 250.386 221.166ZM250.425 224.574C252.246 224.574 253.408 223.527 253.408 221.953V215.484H252.354V216.595H252.335C251.897 215.827 251.123 215.37 250.19 215.37C248.482 215.37 247.378 216.691 247.378 218.76C247.378 220.81 248.482 222.137 250.164 222.137C251.091 222.137 251.872 221.667 252.278 220.95H252.303V221.991C252.303 222.975 251.612 223.635 250.469 223.635C249.644 223.635 248.99 223.235 248.774 222.632H247.638C247.822 223.755 248.971 224.574 250.425 224.574ZM210.752 238.086H211.856V232.392H213.202V231.484H211.85V230.755C211.85 230.101 212.135 229.783 212.732 229.783C212.916 229.783 213.1 229.802 213.234 229.821V228.926C213.075 228.901 212.808 228.876 212.561 228.876C211.342 228.876 210.752 229.479 210.752 230.748V231.484H209.831V232.392H210.752V238.086ZM216.763 238.2C218.585 238.2 219.816 236.886 219.816 234.785C219.816 232.678 218.585 231.37 216.763 231.37C214.935 231.37 213.703 232.678 213.703 234.785C213.703 236.886 214.935 238.2 216.763 238.2ZM216.763 237.229C215.595 237.229 214.827 236.34 214.827 234.785C214.827 233.23 215.595 232.341 216.763 232.341C217.931 232.341 218.693 233.23 218.693 234.785C218.693 236.34 217.931 237.229 216.763 237.229ZM220.933 238.086H222.038V233.973C222.038 233.04 222.596 232.424 223.453 232.424C223.72 232.424 223.955 232.456 224.044 232.487V231.415C223.955 231.402 223.79 231.37 223.599 231.37C222.825 231.37 222.216 231.834 222 232.564H221.974V231.484H220.933V238.086ZM228.157 240.555C229.35 240.555 229.896 240.092 230.461 238.549L233.057 231.484H231.896L230.068 236.982H230.049L228.22 231.484H227.04L229.477 238.092L229.325 238.556C229.071 239.324 228.728 239.622 228.113 239.622C227.973 239.622 227.802 239.616 227.681 239.59V240.517C227.802 240.543 228.024 240.555 228.157 240.555ZM236.479 238.2C238.301 238.2 239.532 236.886 239.532 234.785C239.532 232.678 238.301 231.37 236.479 231.37C234.651 231.37 233.419 232.678 233.419 234.785C233.419 236.886 234.651 238.2 236.479 238.2ZM236.479 237.229C235.311 237.229 234.543 236.34 234.543 234.785C234.543 233.23 235.311 232.341 236.479 232.341C237.647 232.341 238.408 233.23 238.408 234.785C238.408 236.34 237.647 237.229 236.479 237.229ZM246.07 231.484H244.966V235.363C244.966 236.486 244.318 237.223 243.245 237.223C242.223 237.223 241.722 236.645 241.722 235.572V231.484H240.617V235.769C240.617 237.267 241.462 238.2 242.903 238.2C243.918 238.2 244.604 237.775 244.997 237.013H245.023V238.086H246.07V231.484ZM247.949 228.926L248.025 235.046H249.015L249.092 228.926H247.949ZM248.52 238.15C248.933 238.15 249.244 237.832 249.244 237.426C249.244 237.013 248.933 236.702 248.52 236.702C248.114 236.702 247.797 237.013 247.797 237.426C247.797 237.832 248.114 238.15 248.52 238.15Z" fill="#3E3E3E"/>
<path d="M215.877 87.2711H217.077L213.7 78.1115H212.57L209.193 87.2711H210.393L211.313 84.6495H214.957L215.877 87.2711ZM213.116 79.5016H213.154L214.621 83.6783H211.65L213.116 79.5016ZM220.505 82.4913C220.505 83.3927 221.076 83.9894 222.238 84.2877L223.399 84.5861C224.142 84.7828 224.415 85.0367 224.415 85.5065C224.415 86.1031 223.863 86.484 222.968 86.484C222.073 86.484 221.552 86.1158 221.432 85.4303H220.327C220.441 86.5983 221.451 87.3854 222.898 87.3854C224.44 87.3854 225.526 86.5729 225.526 85.424C225.526 84.4528 225.043 83.9703 223.71 83.6339L222.688 83.3864C221.939 83.1959 221.59 82.8912 221.59 82.4342C221.59 81.8566 222.124 81.4567 222.93 81.4567C223.742 81.4567 224.256 81.8502 224.333 82.485H225.386C225.335 81.3678 224.333 80.5553 222.968 80.5553C221.514 80.5553 220.505 81.3615 220.505 82.4913ZM226.675 87.2711H227.779V83.1324C227.779 82.2184 228.414 81.5328 229.29 81.5328C230.109 81.5328 230.642 82.0533 230.642 82.8468V87.2711H231.747V83.0753C231.747 82.1803 232.362 81.5328 233.238 81.5328C234.108 81.5328 234.609 82.066 234.609 82.9674V87.2711H235.714V82.7135C235.714 81.4059 234.87 80.5553 233.562 80.5553C232.635 80.5553 231.861 81.025 231.493 81.8121H231.467C231.182 81.0123 230.515 80.5553 229.614 80.5553C228.725 80.5553 228.052 81.025 227.741 81.7233H227.716V80.6696H226.675V87.2711ZM239.3 86.4459C238.507 86.4459 237.98 86.0333 237.98 85.4049C237.98 84.7828 238.488 84.3893 239.376 84.3322L241.141 84.2242V84.7638C241.141 85.7159 240.341 86.4459 239.3 86.4459ZM239.053 87.3854C239.941 87.3854 240.779 86.8903 241.173 86.1349H241.198V87.2711H242.246V82.7072C242.246 81.3932 241.268 80.5553 239.719 80.5553C238.158 80.5553 237.18 81.4313 237.104 82.5739H238.17C238.31 81.9264 238.843 81.5265 239.694 81.5265C240.608 81.5265 241.141 82.0089 241.141 82.8151V83.3673L239.25 83.4752C237.726 83.5641 236.856 84.275 236.856 85.4049C236.856 86.5919 237.739 87.3854 239.053 87.3854ZM243.706 87.2711H244.81V78.1115H243.706V87.2711ZM246.359 87.2711H247.463V78.1115H246.359V87.2711ZM204.198 103.385C205.15 103.385 205.905 102.916 206.331 102.154H206.35V103.271H207.403V94.1115H206.299V97.7423H206.273C205.88 97.0187 205.118 96.5553 204.172 96.5553C202.509 96.5553 201.373 97.901 201.373 99.9703C201.373 102.04 202.516 103.385 204.198 103.385ZM204.407 97.5265C205.543 97.5265 206.305 98.4977 206.305 99.9703C206.305 101.449 205.543 102.414 204.407 102.414C203.239 102.414 202.503 101.468 202.503 99.9703C202.503 98.4786 203.239 97.5265 204.407 97.5265ZM211.631 103.385C213.453 103.385 214.684 102.071 214.684 99.9703C214.684 97.8629 213.453 96.5553 211.631 96.5553C209.803 96.5553 208.571 97.8629 208.571 99.9703C208.571 102.071 209.803 103.385 211.631 103.385ZM211.631 102.414C210.463 102.414 209.695 101.526 209.695 99.9703C209.695 98.4152 210.463 97.5265 211.631 97.5265C212.799 97.5265 213.561 98.4152 213.561 99.9703C213.561 101.526 212.799 102.414 211.631 102.414ZM215.801 103.271H216.906V99.3864C216.906 98.2692 217.585 97.5328 218.626 97.5328C219.642 97.5328 220.143 98.1168 220.143 99.1832V103.271H221.248V98.9865C221.248 97.4884 220.41 96.5553 218.962 96.5553C217.94 96.5553 217.236 97.0123 216.868 97.7233H216.842V96.6696H215.801V103.271ZM224.834 102.446C224.041 102.446 223.514 102.033 223.514 101.405C223.514 100.783 224.021 100.389 224.91 100.332L226.675 100.224V100.764C226.675 101.716 225.875 102.446 224.834 102.446ZM224.586 103.385C225.475 103.385 226.313 102.89 226.707 102.135H226.732V103.271H227.779V98.7072C227.779 97.3932 226.802 96.5553 225.253 96.5553C223.691 96.5553 222.714 97.4313 222.638 98.5739H223.704C223.844 97.9264 224.377 97.5265 225.228 97.5265C226.142 97.5265 226.675 98.0089 226.675 98.8151V99.3673L224.783 99.4752C223.26 99.5641 222.39 100.275 222.39 101.405C222.39 102.592 223.272 103.385 224.586 103.385ZM229.538 95.0763V96.6696H228.554V97.5773H229.538V101.557C229.538 102.827 230.007 103.322 231.22 103.322C231.48 103.322 231.785 103.303 231.918 103.271V102.344C231.842 102.357 231.588 102.376 231.461 102.376C230.896 102.376 230.642 102.103 230.642 101.5V97.5773H231.924V96.6696H230.642V95.0763H229.538ZM233.162 103.271H234.267V96.6696H233.162V103.271ZM233.714 95.5587C234.095 95.5587 234.406 95.2477 234.406 94.8732C234.406 94.4923 234.095 94.1876 233.714 94.1876C233.34 94.1876 233.029 94.4923 233.029 94.8732C233.029 95.2477 233.34 95.5587 233.714 95.5587ZM238.494 103.385C240.316 103.385 241.547 102.071 241.547 99.9703C241.547 97.8629 240.316 96.5553 238.494 96.5553C236.666 96.5553 235.435 97.8629 235.435 99.9703C235.435 102.071 236.666 103.385 238.494 103.385ZM238.494 102.414C237.326 102.414 236.558 101.526 236.558 99.9703C236.558 98.4152 237.326 97.5265 238.494 97.5265C239.662 97.5265 240.424 98.4152 240.424 99.9703C240.424 101.526 239.662 102.414 238.494 102.414ZM242.665 103.271H243.769V99.3864C243.769 98.2692 244.448 97.5328 245.489 97.5328C246.505 97.5328 247.006 98.1168 247.006 99.1832V103.271H248.111V98.9865C248.111 97.4884 247.273 96.5553 245.826 96.5553C244.804 96.5553 244.099 97.0123 243.731 97.7233H243.706V96.6696H242.665V103.271ZM253.119 103.335C253.525 103.335 253.843 103.017 253.843 102.611C253.843 102.205 253.525 101.887 253.119 101.887C252.713 101.887 252.396 102.205 252.396 102.611C252.396 103.017 252.713 103.335 253.119 103.335ZM253.119 98.6627C253.525 98.6627 253.843 98.3453 253.843 97.9391C253.843 97.5328 253.525 97.2155 253.119 97.2155C252.713 97.2155 252.396 97.5328 252.396 97.9391C252.396 98.3453 252.713 98.6627 253.119 98.6627ZM257.753 99.6656C257.753 96.7648 256.788 95.1779 255.95 94.1115H255.023C255.576 94.7526 256.629 96.7902 256.629 99.6656C256.629 102.541 255.582 104.572 255.023 105.22H255.95C256.788 104.153 257.753 102.567 257.753 99.6656Z" fill="#3E3E3E"/>
<path d="M68.2461 206.087H69.4458L66.0688 196.927H64.939L61.562 206.087H62.7617L63.6821 203.465H67.3257L68.2461 206.087ZM65.4849 198.317H65.5229L66.9893 202.494H64.0186L65.4849 198.317ZM72.8735 201.307C72.8735 202.208 73.4448 202.805 74.6064 203.103L75.7681 203.401C76.5107 203.598 76.7837 203.852 76.7837 204.322C76.7837 204.919 76.2314 205.299 75.3364 205.299C74.4414 205.299 73.9209 204.931 73.8003 204.246H72.6958C72.8101 205.414 73.8193 206.201 75.2666 206.201C76.8091 206.201 77.8945 205.388 77.8945 204.239C77.8945 203.268 77.4121 202.786 76.0791 202.449L75.0571 202.202C74.3081 202.011 73.959 201.707 73.959 201.25C73.959 200.672 74.4922 200.272 75.2983 200.272C76.1108 200.272 76.625 200.666 76.7012 201.3H77.7549C77.7041 200.183 76.7012 199.371 75.3364 199.371C73.8828 199.371 72.8735 200.177 72.8735 201.307ZM79.0435 206.087H80.1479V201.948C80.1479 201.034 80.7827 200.348 81.6587 200.348C82.4775 200.348 83.0107 200.869 83.0107 201.662V206.087H84.1152V201.891C84.1152 200.996 84.731 200.348 85.6069 200.348C86.4766 200.348 86.978 200.881 86.978 201.783V206.087H88.0825V201.529C88.0825 200.221 87.2383 199.371 85.9307 199.371C85.0039 199.371 84.2295 199.84 83.8613 200.628H83.8359C83.5503 199.828 82.8838 199.371 81.9824 199.371C81.0938 199.371 80.4209 199.84 80.1099 200.539H80.0845V199.485H79.0435V206.087ZM91.6689 205.261C90.8755 205.261 90.3486 204.849 90.3486 204.22C90.3486 203.598 90.8564 203.205 91.7451 203.148L93.5098 203.04V203.579C93.5098 204.531 92.71 205.261 91.6689 205.261ZM91.4214 206.201C92.3101 206.201 93.1479 205.706 93.5415 204.95H93.5669V206.087H94.6143V201.523C94.6143 200.209 93.6367 199.371 92.0879 199.371C90.5264 199.371 89.5488 200.247 89.4727 201.389H90.5391C90.6787 200.742 91.2119 200.342 92.0625 200.342C92.9766 200.342 93.5098 200.824 93.5098 201.63V202.183L91.6182 202.291C90.0947 202.38 89.2251 203.09 89.2251 204.22C89.2251 205.407 90.1074 206.201 91.4214 206.201ZM96.0742 206.087H97.1787V196.927H96.0742V206.087ZM98.7275 206.087H99.832V196.927H98.7275V206.087ZM56.5664 222.201C57.5186 222.201 58.2739 221.731 58.6992 220.969H58.7183V222.087H59.772V212.927H58.6675V216.558H58.6421C58.2485 215.834 57.4868 215.371 56.541 215.371C54.8779 215.371 53.7417 216.716 53.7417 218.786C53.7417 220.855 54.8843 222.201 56.5664 222.201ZM56.7759 216.342C57.9121 216.342 58.6738 217.313 58.6738 218.786C58.6738 220.265 57.9121 221.23 56.7759 221.23C55.6079 221.23 54.8716 220.284 54.8716 218.786C54.8716 217.294 55.6079 216.342 56.7759 216.342ZM63.9995 222.201C65.8213 222.201 67.0527 220.887 67.0527 218.786C67.0527 216.678 65.8213 215.371 63.9995 215.371C62.1714 215.371 60.9399 216.678 60.9399 218.786C60.9399 220.887 62.1714 222.201 63.9995 222.201ZM63.9995 221.23C62.8315 221.23 62.0635 220.341 62.0635 218.786C62.0635 217.231 62.8315 216.342 63.9995 216.342C65.1675 216.342 65.9292 217.231 65.9292 218.786C65.9292 220.341 65.1675 221.23 63.9995 221.23ZM68.1699 222.087H69.2744V218.202C69.2744 217.085 69.9536 216.348 70.9946 216.348C72.0103 216.348 72.5117 216.932 72.5117 217.999V222.087H73.6162V217.802C73.6162 216.304 72.7783 215.371 71.3311 215.371C70.3091 215.371 69.6045 215.828 69.2363 216.539H69.2109V215.485H68.1699V222.087ZM77.2026 221.261C76.4092 221.261 75.8823 220.849 75.8823 220.22C75.8823 219.598 76.3901 219.205 77.2788 219.148L79.0435 219.04V219.579C79.0435 220.531 78.2437 221.261 77.2026 221.261ZM76.9551 222.201C77.8438 222.201 78.6816 221.706 79.0752 220.95H79.1006V222.087H80.1479V217.523C80.1479 216.209 79.1704 215.371 77.6216 215.371C76.0601 215.371 75.0825 216.247 75.0063 217.389H76.0728C76.2124 216.742 76.7456 216.342 77.5962 216.342C78.5103 216.342 79.0435 216.824 79.0435 217.63V218.183L77.1519 218.291C75.6284 218.38 74.7588 219.09 74.7588 220.22C74.7588 221.407 75.6411 222.201 76.9551 222.201ZM81.9062 213.892V215.485H80.9224V216.393H81.9062V220.373C81.9062 221.642 82.376 222.137 83.5884 222.137C83.8486 222.137 84.1533 222.118 84.2866 222.087V221.16C84.2104 221.172 83.9565 221.192 83.8296 221.192C83.2646 221.192 83.0107 220.919 83.0107 220.316V216.393H84.293V215.485H83.0107V213.892H81.9062ZM85.5308 222.087H86.6353V215.485H85.5308V222.087ZM86.083 214.374C86.4639 214.374 86.7749 214.063 86.7749 213.689C86.7749 213.308 86.4639 213.003 86.083 213.003C85.7085 213.003 85.3975 213.308 85.3975 213.689C85.3975 214.063 85.7085 214.374 86.083 214.374ZM90.8628 222.201C92.6846 222.201 93.916 220.887 93.916 218.786C93.916 216.678 92.6846 215.371 90.8628 215.371C89.0347 215.371 87.8032 216.678 87.8032 218.786C87.8032 220.887 89.0347 222.201 90.8628 222.201ZM90.8628 221.23C89.6948 221.23 88.9268 220.341 88.9268 218.786C88.9268 217.231 89.6948 216.342 90.8628 216.342C92.0308 216.342 92.7925 217.231 92.7925 218.786C92.7925 220.341 92.0308 221.23 90.8628 221.23ZM95.0332 222.087H96.1377V218.202C96.1377 217.085 96.8169 216.348 97.8579 216.348C98.8735 216.348 99.375 216.932 99.375 217.999V222.087H100.479V217.802C100.479 216.304 99.6416 215.371 98.1943 215.371C97.1724 215.371 96.4678 215.828 96.0996 216.539H96.0742V215.485H95.0332V222.087ZM105.488 222.15C105.894 222.15 106.211 221.833 106.211 221.426C106.211 221.02 105.894 220.703 105.488 220.703C105.082 220.703 104.764 221.02 104.764 221.426C104.764 221.833 105.082 222.15 105.488 222.15ZM105.488 217.478C105.894 217.478 106.211 217.161 106.211 216.755C106.211 216.348 105.894 216.031 105.488 216.031C105.082 216.031 104.764 216.348 104.764 216.755C104.764 217.161 105.082 217.478 105.488 217.478ZM110.122 218.481C110.122 215.58 109.157 213.993 108.319 212.927H107.392C107.944 213.568 108.998 215.606 108.998 218.481C108.998 221.357 107.951 223.388 107.392 224.035H108.319C109.157 222.969 110.122 221.382 110.122 218.481Z" fill="#3E3E3E"/>
</svg>
