<svg width="97" height="199" viewBox="0 0 97 199" fill="none" xmlns="http://www.w3.org/2000/svg">
<rect x="47.0195" y="0.596436" width="3.76615" height="153.471" rx="1.88308" fill="#787878"/>
<circle cx="48.9025" cy="150.301" r="48.0185" fill="#787878"/>
<path d="M34.4626 152.219C34.5198 153.939 35.9226 154.986 38.1252 154.986C40.3977 154.986 41.8386 153.863 41.8386 152.085C41.8386 150.689 41.0388 149.902 39.2043 149.508L38.0935 149.273C37.0398 149.032 36.5955 148.715 36.5955 148.15C36.5955 147.471 37.2302 147.02 38.176 147.02C39.1345 147.02 39.8137 147.49 39.8772 148.264H41.6736C41.6418 146.607 40.3025 145.509 38.1697 145.509C36.1257 145.509 34.6658 146.626 34.6658 148.315C34.6658 149.654 35.4973 150.511 37.1858 150.873L38.3792 151.133C39.4836 151.381 39.9216 151.711 39.9216 152.308C39.9216 152.98 39.2234 153.469 38.2014 153.469C37.1858 153.469 36.3987 152.974 36.3098 152.219H34.4626ZM46.8342 147.915C45.8503 147.915 45.095 148.41 44.7268 149.21H44.6887V148.023H42.8606V157.049H44.7141V153.685H44.7522C45.114 154.453 45.8757 154.936 46.866 154.936C48.5671 154.936 49.6208 153.615 49.6208 151.425C49.6208 149.229 48.5608 147.915 46.8342 147.915ZM46.2122 153.444C45.3044 153.444 44.7078 152.657 44.7078 151.425C44.7078 150.207 45.3044 149.4 46.2122 149.4C47.1389 149.4 47.7229 150.194 47.7229 151.425C47.7229 152.663 47.1389 153.444 46.2122 153.444ZM50.6111 154.828H52.4646V148.023H50.6111V154.828ZM51.5378 147.274C52.0964 147.274 52.5281 146.849 52.5281 146.315C52.5281 145.776 52.0964 145.357 51.5378 145.357C50.9792 145.357 50.5476 145.776 50.5476 146.315C50.5476 146.849 50.9792 147.274 51.5378 147.274ZM53.7024 154.828H55.5559V150.924C55.5559 150.042 56.0828 149.432 56.9143 149.432C57.7458 149.432 58.1648 149.94 58.1648 150.829V154.828H60.0183V150.441C60.0183 148.848 59.1677 147.896 57.657 147.896C56.6096 147.896 55.8923 148.391 55.5305 149.235H55.4924V148.023H53.7024V154.828ZM61.6941 145.668L61.8464 151.812H63.446L63.5984 145.668H61.6941ZM62.6462 154.986C63.2239 154.986 63.6809 154.548 63.6809 153.99C63.6809 153.431 63.2239 152.993 62.6462 152.993C62.0686 152.993 61.6116 153.431 61.6116 153.99C61.6116 154.548 62.0686 154.986 62.6462 154.986Z" fill="#F3F3F3"/>
</svg>
