<?xml version="1.0" encoding="UTF-8"?><svg id="Layer_1" xmlns="http://www.w3.org/2000/svg" viewBox="0 0 71.5 71.5"><path d="M62.27,0H9.22C4.13,0,0,4.13,0,9.22V62.27c0,5.09,4.13,9.22,9.22,9.22H62.27c5.09,0,9.22-4.13,9.22-9.22V9.22c0-5.09-4.13-9.22-9.22-9.22Zm-18.86,27.27c-1.05,2.31-1.87,5.03-2.56,7.36-.2,.67-.81,1.13-1.51,1.13h-8.21c-1.24,.06-4.1,.54-4.97,3.64-.02,.09-.05,.18-.07,.27,0,.02-.01,.04-.02,.06-.42,1.78-.78,3.58-1.08,5.4-.12,.76-.78,1.32-1.55,1.32H13.28c-.98,0-1.72-.88-1.56-1.84,.44-2.62,1.02-5.2,1.73-7.72,.19-.68,.81-1.14,1.51-1.14h6.4s.09,0,.13,0c.64-.05,5.65-.58,6.92-3.86,0-.02,.02-.04,.03-.06,.04-.1,.07-.21,.11-.31,.57-1.56,1.24-3.8,2.19-5.63,.27-.52,.81-.86,1.4-.86h9.83c1.15,0,1.91,1.19,1.43,2.23Zm14.81,19.19h-10.17c-.77,0-1.43-.56-1.55-1.32-.4-2.51-.93-4.97-1.58-7.39-.27-1,.48-1.99,1.52-1.99h10.1c.7,0,1.32,.46,1.51,1.14,.71,2.52,1.29,5.1,1.73,7.72,.16,.96-.58,1.84-1.56,1.84Z"/></svg>