<?xml version="1.0" encoding="utf-8"?>
<!-- Generator: Adobe Illustrator 26.3.1, SVG Export Plug-In . SVG Version: 6.00 Build 0)  -->
<svg version="1.1" id="Layer_1" xmlns="http://www.w3.org/2000/svg" xmlns:xlink="http://www.w3.org/1999/xlink" x="0px" y="0px"
	 viewBox="0 0 292.1 116.3" style="enable-background:new 0 0 292.1 116.3;" xml:space="preserve">
<g>
	<path d="M22.4,48.1c0-0.5,0.3-0.8,0.8-0.9l11-1.6c0.5-0.1,0.9-0.3,1.3-0.7c0.4-0.4,0.6-0.9,0.6-1.3v-1.4c0-0.5-0.2-0.9-0.5-1.2
		c-0.4-0.3-0.8-0.4-1.3-0.3l-12,1.7c-0.5,0.1-0.9,0.3-1.3,0.7s-0.5,0.8-0.5,1.4v10.4c0,0.5,0.2,0.9,0.5,1.2c0.4,0.3,0.8,0.4,1.3,0.4
		l12-1.7c0.5-0.1,0.9-0.3,1.3-0.7c0.4-0.4,0.5-0.9,0.5-1.4v-1.2c0-0.5,0.3-0.8,0.8-0.9l2.4-0.3c0.5-0.1,0.8,0.2,0.8,0.7v1.2
		c0,0.5-0.3,0.9-0.8,1.1l-2.5,1c-0.5,0.2-0.8,0.6-1,1.1l-0.7,2.6c-0.1,0.5-0.5,0.8-1,0.9l-11.8,1.7c-0.5,0.1-0.9-0.1-1-0.6l-0.7-2.4
		c-0.1-0.5-0.5-0.8-1-0.8l-2.4-0.3c-0.5-0.1-0.8-0.4-0.8-0.9V44.9c0-0.5,0.3-0.9,0.8-1.1l2.4-1c0.5-0.2,0.8-0.6,1-1.1l0.7-2.6
		c0.1-0.5,0.5-0.8,1-0.9l11.9-1.7c0.5-0.1,0.9,0.1,1,0.6l0.7,2.4c0.1,0.5,0.5,0.8,1,0.8l2.4,0.3c0.5,0.1,0.8,0.4,0.8,0.9V44
		c0,0.5-0.3,0.8-0.8,0.9l-2.1,0.3c-0.5,0.1-0.9,0.4-1,0.9l-0.7,2.6c-0.1,0.2-0.2,0.4-0.4,0.6c-0.2,0.1-0.4,0.2-0.6,0.3l-11.2,1.6
		c-0.5,0.1-0.8-0.2-0.8-0.7V48.1z"/>
	<path d="M45.7,53.8c0-0.5,0.3-0.9,0.8-1.1l2.5-1c0.5-0.2,0.8-0.6,1-1.1l0.7-2.6c0.1-0.5,0.5-0.8,1-0.9l2.4-0.3
		c0.5-0.1,0.9-0.4,1-0.9l0.1-0.5c0.1-0.1,0.1-0.2,0.1-0.4s0-0.3,0-0.4c0-0.2,0-0.3,0-0.4c0-0.1,0-0.2-0.1-0.3L55,43.5
		c-0.1-0.5-0.5-0.7-1-0.6l-2.4,0.3c-0.5,0.1-0.9-0.1-1-0.6l-0.7-2.4c-0.1-0.5-0.5-0.8-1-0.8l-2.5-0.3c-0.5-0.1-0.8-0.4-0.8-0.9v-2.4
		c0-0.5,0.3-0.8,0.8-0.9l2.4-0.3c0.5-0.1,0.8,0.2,0.8,0.7v2.4c0,0.5,0.2,0.9,0.6,1.2c0.4,0.3,0.8,0.4,1.4,0.3l2.4-0.3
		c0.5-0.1,0.8,0.2,0.8,0.7v1.4c0,0.5,0.2,0.9,0.5,1.2c0.4,0.3,0.8,0.4,1.3,0.3l1.8-0.2c0.5-0.1,0.9-0.3,1.3-0.7s0.5-0.8,0.5-1.4
		v-1.4c0-0.5,0.3-0.8,0.8-0.9l2.4-0.3c0.5-0.1,1-0.3,1.4-0.7c0.4-0.4,0.6-0.8,0.6-1.4V33c0-0.5,0.3-0.8,0.8-0.9l2.4-0.3
		c0.5-0.1,0.8,0.2,0.8,0.7v2.4c0,0.5-0.3,0.9-0.8,1.1L66,37c-0.5,0.2-0.8,0.6-1,1.1l-0.7,2.6c-0.1,0.5-0.5,0.8-1,0.9L61,41.9
		c-0.5,0.1-0.9,0.4-1,0.9l-0.1,0.5c-0.1,0.2-0.1,0.5-0.1,0.8c0,0.3,0,0.5,0.1,0.7l0.1,0.4c0.1,0.5,0.5,0.7,1,0.6l2.4-0.3
		c0.5-0.1,0.9,0.1,1,0.6l0.7,2.4c0.1,0.5,0.5,0.8,1,0.8l2.5,0.3c0.5,0.1,0.8,0.4,0.8,0.9v2.4c0,0.5-0.3,0.8-0.8,0.9l-2.4,0.3
		c-0.5,0.1-0.8-0.2-0.8-0.7V51c0-0.5-0.2-0.9-0.6-1.2c-0.4-0.3-0.8-0.4-1.4-0.3L61,49.8c-0.5,0.1-0.8-0.2-0.8-0.7v-1.4
		c0-0.5-0.2-0.9-0.5-1.2c-0.4-0.3-0.8-0.4-1.3-0.3l-1.8,0.2c-0.5,0.1-0.9,0.3-1.3,0.7c-0.4,0.4-0.5,0.8-0.5,1.4v1.4
		c0,0.5-0.3,0.8-0.8,0.9l-2.4,0.3c-0.5,0.1-1,0.3-1.4,0.7c-0.4,0.4-0.6,0.8-0.6,1.4v2.4c0,0.5-0.3,0.8-0.8,0.9l-2.4,0.3
		c-0.5,0.1-0.8-0.2-0.8-0.7V53.8z"/>
	<path d="M94.3,46.9l-0.7,2.6c-0.1,0.5-0.5,0.8-1,0.9l-11.9,1.7c-0.5,0.1-0.9-0.1-1-0.6L79,49.1c-0.1-0.5-0.5-0.8-1-0.8l-2.4-0.3
		c-0.5-0.1-0.8-0.4-0.8-0.9V31.7c0-0.5,0.3-0.8,0.8-0.9l17-2.4c0.5-0.1,0.9,0.1,1,0.6l0.7,2.4c0.1,0.5,0.5,0.8,1,0.8l2.4,0.3
		c0.5,0.1,0.8,0.4,0.8,0.9v10.2c0,0.5-0.3,0.9-0.8,1.1l-2.4,1C94.8,46,94.5,46.4,94.3,46.9z M78.8,53.1v6.6c0,0.5-0.3,0.8-0.8,0.9
		L75.7,61c-0.5,0.1-0.8-0.2-0.8-0.7v-6.6c0-0.5,0.3-0.8,0.8-0.9l2.4-0.3C78.6,52.4,78.8,52.6,78.8,53.1z M78.8,46.5
		c0,0.5,0.2,0.9,0.5,1.2c0.4,0.3,0.8,0.4,1.3,0.4l12-1.7c0.5-0.1,0.9-0.3,1.3-0.7c0.4-0.4,0.5-0.9,0.5-1.4V34c0-0.5-0.2-0.9-0.5-1.2
		c-0.4-0.3-0.8-0.4-1.3-0.4l-13,1.8c-0.5,0.1-0.8,0.4-0.8,0.9V46.5z"/>
	<path d="M113.9,41.6V25.2c0-0.5-0.2-0.9-0.5-1.2s-0.8-0.4-1.3-0.4l-7.2,1c-0.5,0.1-0.8-0.2-0.8-0.7v-2.4c0-0.5,0.3-0.8,0.8-0.9
		l7.1-1c0.5-0.1,0.9,0.1,1,0.6l0.7,2.3c0.1,0.5,0.5,0.8,1,0.8l2.5,0.3c0.5,0.1,0.8,0.4,0.8,0.9v16.4c0,0.5,0.2,0.9,0.5,1.2
		s0.8,0.4,1.3,0.4l7.2-1c0.5-0.1,0.8,0.2,0.8,0.7v2.4c0,0.5-0.3,0.8-0.8,0.9l-7.1,1c-0.5,0.1-0.9-0.1-1-0.6l-0.7-2.3
		c-0.1-0.5-0.5-0.8-1-0.8l-2.5-0.3C114.1,42.4,113.9,42.1,113.9,41.6z M113.1,43.6c0.5-0.1,0.8,0.2,0.8,0.7v2.4
		c0,0.5-0.3,0.8-0.8,0.9l-8.2,1.2c-0.5,0.1-0.8-0.2-0.8-0.7v-2.4c0-0.5,0.3-0.8,0.8-0.9L113.1,43.6z"/>
	<path d="M139.1,43.9c-0.5,0.1-0.9-0.1-1-0.6l-0.7-2.4c-0.1-0.5-0.5-0.8-1-0.8l-2.4-0.3c-0.5-0.1-0.8-0.4-0.8-0.9V28.6
		c0-0.5,0.3-0.9,0.8-1.1l2.4-1c0.5-0.2,0.8-0.6,1-1.1l0.7-2.6c0.1-0.5,0.5-0.8,1-0.9l11.8-1.7c0.5-0.1,0.9,0.1,1,0.6l0.7,2.4
		c0.1,0.5,0.5,0.8,1,0.8l2.5,0.3c0.5,0.1,0.8,0.4,0.8,0.9v10.3c0,0.5-0.3,0.9-0.8,1.1l-2.5,1c-0.5,0.2-0.8,0.6-1,1.1l-0.7,2.6
		c-0.1,0.5-0.5,0.8-1,0.9L139.1,43.9z M139.1,25.9c-0.5,0.1-0.9,0.3-1.3,0.7c-0.4,0.4-0.5,0.9-0.5,1.4v10.4c0,0.5,0.2,0.9,0.5,1.2
		s0.8,0.4,1.3,0.3l12-1.7c0.5-0.1,0.9-0.3,1.3-0.7c0.4-0.4,0.5-0.8,0.5-1.4V25.8c0-0.5-0.2-0.9-0.5-1.2c-0.4-0.3-0.8-0.4-1.3-0.4
		L139.1,25.9z"/>
	<path d="M186.1,23.5c0,0.5-0.3,0.8-0.8,0.9l-2.4,0.3c-0.5,0.1-0.8-0.2-0.8-0.7v-2.4c0-0.5-0.2-0.9-0.5-1.2
		c-0.4-0.3-0.8-0.4-1.3-0.4l-13,1.8c-0.5,0.1-0.8,0.4-0.8,0.9v16.4c0,0.5-0.3,0.8-0.8,0.9l-2.4,0.3c-0.5,0.1-0.8-0.2-0.8-0.7V19.4
		c0-0.5,0.3-0.8,0.8-0.9l16.9-2.4c0.5-0.1,0.8,0.1,1,0.6l0.7,2.4c0.1,0.2,0.2,0.4,0.4,0.5c0.2,0.1,0.4,0.1,0.7,0.1l2.4-0.3
		c0.5-0.1,0.8,0.2,0.8,0.7V23.5z"/>
	<path d="M199.6,13.4c0.5-0.1,0.9,0.1,1,0.6l0.7,2.3c0.1,0.5,0.5,0.7,1,0.6l2.4-0.3c0.5-0.1,0.8,0.2,0.8,0.7v11.4
		c0,0.5,0.2,0.9,0.5,1.2c0.4,0.3,0.8,0.4,1.3,0.4l7.2-1c0.5-0.1,0.8,0.2,0.8,0.7v2.4c0,0.5-0.3,0.8-0.8,0.9l-7.1,1
		c-0.5,0.1-0.9-0.1-1-0.6l-0.7-2.3c-0.1-0.5-0.5-0.8-1-0.8l-2.5-0.3c-0.5-0.1-0.8-0.4-0.8-0.9V18.9c0-0.5-0.2-0.9-0.5-1.2
		c-0.4-0.3-0.8-0.4-1.3-0.3l-7.2,1c-0.5,0.1-0.8-0.2-0.8-0.7v-2.4c0-0.5,0.3-0.8,0.8-0.9L199.6,13.4z M200.7,31.3
		c0.5-0.1,0.8,0.2,0.8,0.7v2.4c0,0.5-0.3,0.8-0.8,0.9l-8.2,1.2c-0.5,0.1-0.8-0.2-0.8-0.7v-2.4c0-0.5,0.3-0.8,0.8-0.9L200.7,31.3z
		 M205.1,10.6l-2.8,0.4c-0.5,0.1-0.8-0.2-0.8-0.7V7.9c0-0.5,0.3-0.8,0.8-0.9l2.8-0.4c0.5-0.1,0.8,0.2,0.8,0.7v2.4
		C205.9,10.2,205.6,10.5,205.1,10.6z"/>
	<path d="M241.3,29.5c-0.5,0.1-0.8-0.2-0.8-0.7V13.5c0-0.5-0.2-0.9-0.5-1.2c-0.4-0.3-0.8-0.4-1.3-0.4l-13,1.8
		c-0.5,0.1-0.8,0.4-0.8,0.9V31c0,0.5-0.3,0.8-0.8,0.9l-2.4,0.3c-0.5,0.1-0.8-0.2-0.8-0.7V11.2c0-0.5,0.3-0.8,0.8-0.9l17-2.4
		c0.5-0.1,0.9,0.1,1,0.6l0.7,2.4c0.1,0.5,0.5,0.8,1,0.8l2.4,0.3c0.5,0.1,0.8,0.4,0.8,0.9v15.3c0,0.5-0.3,0.8-0.8,0.9L241.3,29.5z"/>
	<path d="M254.8,27.6c-0.5,0.1-0.8-0.2-0.8-0.7v-2.4c0-0.5-0.3-0.8-0.8-0.9l-2.4-0.3c-0.5-0.1-0.8-0.4-0.8-0.9V12.1
		c0-0.5,0.3-0.9,0.8-1.1l2.4-1c0.5-0.2,0.8-0.6,1-1.1l0.7-2.6c0.1-0.5,0.5-0.8,1-0.9l13-1.8c0.5-0.1,0.8,0.2,0.8,0.7v2.4
		c0,0.5,0.3,0.8,0.8,0.7l2.4-0.3c0.5-0.1,0.8,0.2,0.8,0.7v11.3c0,0.5-0.3,0.9-0.8,1.1l-2.4,1c-0.5,0.2-0.8,0.6-1,1.1l-0.7,2.6
		c-0.1,0.5-0.5,0.8-1,0.9L254.8,27.6z M255.9,23.5l12-1.7c0.5-0.1,0.9-0.3,1.3-0.7c0.4-0.4,0.5-0.9,0.5-1.4V9.3
		c0-0.5-0.2-0.9-0.5-1.2c-0.4-0.3-0.8-0.4-1.3-0.3l-12,1.7c-0.5,0.1-0.9,0.3-1.3,0.7c-0.4,0.4-0.5,0.8-0.5,1.4v10.4
		c0,0.5,0.2,0.9,0.5,1.2C254.9,23.4,255.4,23.5,255.9,23.5z M254,32.7c0-0.5,0.3-0.8,0.8-0.9l13-1.8c0.5-0.1,0.9-0.3,1.3-0.7
		c0.4-0.4,0.5-0.9,0.5-1.4v-1.6c0-0.5,0.3-0.8,0.8-0.9l2.4-0.3c0.5-0.1,0.8,0.2,0.8,0.7v1.5c0,0.5-0.3,0.9-0.8,1.1l-2.4,1
		c-0.5,0.2-0.8,0.6-1,1.1l-0.7,2.6c-0.1,0.5-0.5,0.8-1,0.9l-13,1.8c-0.5,0.1-0.8-0.2-0.8-0.7V32.7z"/>
	<path d="M24.7,100.1c0.5-0.1,0.8,0.2,0.8,0.7v1.2c0,0.5-0.3,0.9-0.8,1.1l-2.5,1c-0.5,0.2-0.8,0.6-1,1.1l-0.7,2.6
		c-0.1,0.5-0.5,0.8-1,0.9l-11.8,1.7c-0.5,0.1-0.9-0.1-1-0.6L6,107.3c-0.1-0.5-0.5-0.8-1-0.8l-2.4-0.3c-0.5-0.1-0.8-0.4-0.8-0.9V95
		c0-0.5,0.3-0.9,0.8-1.1l2.4-1c0.5-0.2,0.8-0.6,1-1.1l0.7-2.6c0.1-0.5,0.5-0.8,1-0.9l11.8-1.7c0.5-0.1,0.9,0.1,1,0.6l0.7,2.4
		c0.1,0.5,0.5,0.8,1,0.8l2.5,0.3c0.5,0.1,0.8,0.4,0.8,0.9v1.2c0,0.5-0.3,0.8-0.8,0.9l-2.4,0.3c-0.5,0.1-0.8-0.2-0.8-0.7v-1.2
		c0-0.5-0.2-0.9-0.5-1.2c-0.4-0.3-0.8-0.4-1.3-0.4l-12,1.7c-0.5,0.1-0.9,0.3-1.3,0.7s-0.5,0.9-0.5,1.4v10.4c0,0.5,0.2,0.9,0.5,1.2
		c0.4,0.3,0.8,0.4,1.3,0.3l12-1.7c0.5-0.1,0.9-0.3,1.3-0.7c0.4-0.4,0.5-0.8,0.5-1.4v-1.2c0-0.5,0.3-0.8,0.8-0.9L24.7,100.1z"/>
	<path d="M36.9,106.2c-0.5,0.1-0.9-0.1-1-0.6l-0.7-2.4c-0.1-0.5-0.5-0.8-1-0.8l-2.4-0.3c-0.5-0.1-0.8-0.4-0.8-0.9V90.9
		c0-0.5,0.3-0.9,0.8-1.1l2.4-1c0.5-0.2,0.8-0.6,1-1.1l0.7-2.6c0.1-0.5,0.5-0.8,1-0.9l11.8-1.7c0.5-0.1,0.9,0.1,1,0.6l0.7,2.4
		c0.1,0.5,0.5,0.8,1,0.8l2.5,0.3c0.5,0.1,0.8,0.4,0.8,0.9v10.3c0,0.5-0.3,0.9-0.8,1.1l-2.5,1c-0.5,0.2-0.8,0.6-1,1.1l-0.7,2.6
		c-0.1,0.5-0.5,0.8-1,0.9L36.9,106.2z M36.9,88.2c-0.5,0.1-0.9,0.3-1.3,0.7c-0.4,0.4-0.5,0.9-0.5,1.4v10.4c0,0.5,0.2,0.9,0.5,1.2
		c0.4,0.3,0.8,0.4,1.3,0.3l12-1.7c0.5-0.1,0.9-0.3,1.3-0.7c0.4-0.4,0.5-0.8,0.5-1.4V88.1c0-0.5-0.2-0.9-0.5-1.2
		c-0.4-0.3-0.8-0.4-1.3-0.4L36.9,88.2z"/>
	<path d="M74.1,84.8v6.4c0,0.5-0.3,0.8-0.8,0.9L71,92.4c-0.2,0-0.4,0-0.6-0.1s-0.2-0.3-0.2-0.5v-6.4c0-0.5-0.2-0.9-0.6-1.2
		c-0.4-0.3-0.8-0.4-1.3-0.4L65,84.2c-0.2,0-0.4,0.1-0.6,0.3c-0.1,0.2-0.2,0.4-0.2,0.6v16.4c0,0.5-0.3,0.8-0.8,0.9l-2.4,0.3
		c-0.5,0.1-0.8-0.2-0.8-0.7V81.7c0-0.5,0.3-0.8,0.8-0.9l7.1-1c0.5-0.1,0.9,0.1,1,0.6l0.7,2.3c0.1,0.5,0.5,0.8,1,0.8l2.5,0.3
		C73.8,84,74.1,84.3,74.1,84.8z M83.9,83.5v15.3c0,0.5-0.3,0.8-0.8,0.9l-2.4,0.3c-0.5,0.1-0.8-0.2-0.8-0.7V84c0-0.5-0.2-0.9-0.5-1.2
		c-0.4-0.3-0.8-0.4-1.3-0.4l-3.2,0.5c-0.5,0.1-0.8-0.2-0.8-0.7v-2.4c0-0.5,0.3-0.8,0.8-0.9l3.2-0.4c0.5-0.1,0.9,0.1,1,0.6l0.7,2.4
		c0.1,0.5,0.5,0.8,1,0.8l2.4,0.3C83.6,82.7,83.9,83,83.9,83.5z"/>
	<path d="M108.9,92.9l-0.7,2.6c-0.1,0.5-0.5,0.8-1,0.9L95.3,98c-0.5,0.1-0.9-0.1-1-0.6L93.6,95c-0.1-0.5-0.5-0.8-1-0.8l-2.4-0.3
		c-0.5-0.1-0.8-0.4-0.8-0.9V77.6c0-0.5,0.3-0.8,0.8-0.9l17-2.4c0.5-0.1,0.9,0.1,1,0.6l0.7,2.4c0.1,0.5,0.5,0.8,1,0.8l2.4,0.3
		c0.5,0.1,0.8,0.4,0.8,0.9v10.2c0,0.5-0.3,0.9-0.8,1.1l-2.4,1C109.4,92,109.1,92.3,108.9,92.9z M93.4,99.1v6.6
		c0,0.5-0.3,0.8-0.8,0.9l-2.4,0.3c-0.5,0.1-0.8-0.2-0.8-0.7v-6.6c0-0.5,0.3-0.8,0.8-0.9l2.4-0.3C93.2,98.3,93.4,98.6,93.4,99.1z
		 M93.4,92.4c0,0.5,0.2,0.9,0.5,1.2c0.4,0.3,0.8,0.4,1.3,0.4l12-1.7c0.5-0.1,0.9-0.3,1.3-0.7s0.5-0.9,0.5-1.4V79.9
		c0-0.5-0.2-0.9-0.5-1.2s-0.8-0.4-1.3-0.4l-13,1.8c-0.5,0.1-0.8,0.4-0.8,0.9V92.4z"/>
	<path d="M124.5,93.9c-0.5,0.1-0.9-0.1-1-0.6l-0.7-2.4c-0.1-0.5-0.5-0.8-1-0.8l-2.4-0.3c-0.5-0.1-0.8-0.4-0.8-0.9V78.6
		c0-0.5,0.3-0.9,0.8-1.1l2.4-1c0.5-0.2,0.8-0.6,1-1.1l0.7-2.6c0.1-0.5,0.5-0.8,1-0.9l11.8-1.7c0.5-0.1,0.9,0.1,1,0.6l0.7,2.4
		c0.1,0.5,0.5,0.8,1,0.8l2.5,0.3c0.5,0.1,0.8,0.4,0.8,0.9v10.3c0,0.5-0.3,0.9-0.8,1.1l-2.5,1c-0.5,0.2-0.8,0.6-1,1.1l-0.7,2.6
		c-0.1,0.5-0.5,0.8-1,0.9L124.5,93.9z M124.5,75.9c-0.5,0.1-0.9,0.3-1.3,0.7c-0.4,0.4-0.5,0.9-0.5,1.4v10.4c0,0.5,0.2,0.9,0.5,1.2
		c0.4,0.3,0.8,0.4,1.3,0.3l12-1.7c0.5-0.1,0.9-0.3,1.3-0.7c0.4-0.4,0.5-0.8,0.5-1.4V75.8c0-0.5-0.2-0.9-0.5-1.2
		c-0.4-0.3-0.8-0.4-1.3-0.4L124.5,75.9z"/>
	<path d="M168.3,87.8c-0.5,0.1-0.8-0.2-0.8-0.7V71.7c0-0.5-0.2-0.9-0.5-1.2c-0.4-0.3-0.8-0.4-1.3-0.4l-13,1.8
		c-0.5,0.1-0.8,0.4-0.8,0.9v16.4c0,0.5-0.3,0.8-0.8,0.9l-2.4,0.3c-0.5,0.1-0.8-0.2-0.8-0.7V69.4c0-0.5,0.3-0.8,0.8-0.9l17-2.4
		c0.5-0.1,0.9,0.1,1,0.6l0.7,2.4c0.1,0.5,0.5,0.8,1,0.8l2.4,0.3c0.5,0.1,0.8,0.4,0.8,0.9v15.3c0,0.5-0.3,0.8-0.8,0.9L168.3,87.8z"/>
	<path d="M183,73.5c0-0.5,0.3-0.8,0.8-0.9l11-1.6c0.5-0.1,0.9-0.3,1.3-0.7c0.4-0.4,0.6-0.9,0.6-1.3v-1.4c0-0.5-0.2-0.9-0.5-1.2
		c-0.4-0.3-0.8-0.4-1.3-0.3l-12,1.7c-0.5,0.1-0.9,0.3-1.3,0.7c-0.4,0.4-0.5,0.8-0.5,1.4v10.4c0,0.5,0.2,0.9,0.5,1.2s0.8,0.4,1.3,0.4
		l12-1.7c0.5-0.1,0.9-0.3,1.3-0.7c0.4-0.4,0.5-0.9,0.5-1.4v-1.2c0-0.5,0.3-0.8,0.8-0.9l2.4-0.3c0.5-0.1,0.8,0.2,0.8,0.7v1.2
		c0,0.5-0.3,0.9-0.8,1.1l-2.5,1c-0.5,0.2-0.8,0.6-1,1.1l-0.7,2.6c-0.1,0.5-0.5,0.8-1,0.9l-11.8,1.7c-0.5,0.1-0.9-0.1-1-0.6l-0.7-2.4
		c-0.1-0.5-0.5-0.8-1-0.8l-2.4-0.3c-0.5-0.1-0.8-0.4-0.8-0.9V70.4c0-0.5,0.3-0.9,0.8-1.1l2.4-1c0.5-0.2,0.8-0.6,1-1.1l0.7-2.6
		c0.1-0.5,0.5-0.8,1-0.9l11.9-1.7c0.5-0.1,0.9,0.1,1,0.6l0.7,2.4c0.1,0.5,0.5,0.8,1,0.8l2.4,0.3c0.5,0.1,0.8,0.4,0.8,0.9v2.4
		c0,0.5-0.3,0.8-0.8,0.9l-2.1,0.3c-0.5,0.1-0.9,0.4-1,0.9l-0.7,2.6c-0.1,0.2-0.2,0.4-0.4,0.6c-0.2,0.1-0.4,0.2-0.6,0.3l-11.2,1.6
		c-0.5,0.1-0.8-0.2-0.8-0.7V73.5z"/>
	<path d="M226.7,79.6c-0.5,0.1-0.8-0.2-0.8-0.7V63.5c0-0.5-0.2-0.9-0.5-1.2c-0.4-0.3-0.8-0.4-1.3-0.4l-13,1.8
		c-0.5,0.1-0.8,0.4-0.8,0.9v16.4c0,0.5-0.3,0.8-0.8,0.9l-2.4,0.3c-0.5,0.1-0.8-0.2-0.8-0.7V61.2c0-0.5,0.3-0.8,0.8-0.9l17-2.4
		c0.5-0.1,0.9,0.1,1,0.6l0.7,2.4c0.1,0.5,0.5,0.8,1,0.8l2.4,0.3c0.5,0.1,0.8,0.4,0.8,0.9v15.3c0,0.5-0.3,0.8-0.8,0.9L226.7,79.6z"/>
	<path d="M242.6,49.3c0.5-0.1,0.8,0.2,0.8,0.7v3.3c0,0.5-0.3,0.9-0.8,1.1l-2.5,1c-0.5,0.2-0.8,0.6-1,1.1l-0.7,2.5
		c-0.1,0.5-0.5,0.8-1,0.9l-2.5,0.3c-0.5,0.1-0.8-0.2-0.8-0.7v-2.4c0-0.5,0.3-0.8,0.8-0.9l2.5-0.4c0.5-0.1,0.9-0.3,1.3-0.7
		c0.4-0.4,0.5-0.9,0.5-1.4v-3.4c0-0.5,0.3-0.8,0.8-0.9L242.6,49.3z M243.6,73.9c-0.1-0.5-0.5-0.7-1-0.6l-2.4,0.3
		c-0.5,0.1-0.8-0.2-0.8-0.7V61.6c0-0.5,0.3-0.9,0.8-1.1l2.5-1c0.5-0.2,0.8-0.6,1-1.1l0.7-2.5c0.1-0.5,0.5-0.8,1-0.9l9-1.3
		c0.5-0.1,0.8,0.2,0.8,0.7v2.4c0,0.5-0.3,0.8-0.8,0.9l-9,1.3c-0.5,0.1-0.9,0.3-1.3,0.7c-0.4,0.4-0.5,0.9-0.5,1.4v10.4
		c0,0.5,0.2,0.9,0.5,1.2c0.3,0.3,0.8,0.4,1.3,0.3l8-1.1c0.5-0.1,0.9-0.3,1.3-0.7s0.5-0.8,0.5-1.4V67c0-0.5,0.3-0.8,0.8-0.9l2.4-0.3
		c0.5-0.1,0.8,0.2,0.8,0.7v2.7c0,0.5-0.3,0.9-0.8,1.1l-2.5,1c-0.5,0.2-0.8,0.6-1,1.1l-0.7,2.6c-0.1,0.5-0.5,0.8-1,0.9l-7.9,1.1
		c-0.5,0.1-0.9-0.1-1-0.6L243.6,73.9z"/>
	<path d="M288.3,65c0,0.5-0.3,0.9-0.8,1.1l-2.4,1c-0.5,0.2-0.8,0.6-1,1.1l-0.7,2.6c-0.1,0.5-0.5,0.8-1,0.9l-11.8,1.7
		c-0.5,0.1-0.9-0.1-1-0.6l-0.7-2.4c-0.1-0.5-0.5-0.8-1-0.8l-2.5-0.3c-0.5-0.1-0.8-0.4-0.8-0.9v-1.2c0-0.5,0.3-0.8,0.8-0.9l2.4-0.3
		c0.5-0.1,0.8,0.2,0.8,0.7v1.2c0,0.5,0.2,0.9,0.5,1.2c0.4,0.3,0.8,0.4,1.3,0.4l12-1.7c0.5-0.1,0.9-0.3,1.3-0.7
		c0.4-0.4,0.5-0.9,0.5-1.4v-1.4c0-0.5-0.2-0.9-0.6-1.2c-0.4-0.3-0.8-0.4-1.3-0.4l-12.2,1.7c-0.5,0.1-0.9-0.1-1-0.6l-0.7-2.4
		c-0.1-0.5-0.5-0.7-1-0.6l-2.1,0.3c-0.5,0.1-0.8-0.2-0.8-0.7v-2.4c0-0.5,0.3-0.9,0.8-1.1l2.4-1c0.5-0.2,0.8-0.6,1-1.1l0.7-2.6
		c0.1-0.5,0.5-0.8,1-0.9l11.8-1.7c0.5-0.1,0.9,0.1,1,0.6l0.7,2.4c0.1,0.5,0.5,0.8,1,0.8l2.5,0.3c0.5,0.1,0.8,0.4,0.8,0.9V56
		c0,0.5-0.3,0.8-0.8,0.9l-2.4,0.3c-0.5,0.1-0.8-0.2-0.8-0.7v-1.2c0-0.5-0.2-0.9-0.5-1.2c-0.4-0.3-0.8-0.4-1.3-0.4l-12,1.7
		c-0.5,0.1-0.9,0.3-1.3,0.7c-0.4,0.4-0.5,0.8-0.5,1.4v1.4c0,0.5,0.2,0.9,0.6,1.2c0.4,0.3,0.8,0.4,1.3,0.4l12.2-1.7
		c0.2,0,0.5,0,0.6,0.1s0.3,0.3,0.4,0.5l0.7,2.4c0.1,0.5,0.5,0.7,1,0.6l2.1-0.3c0.5-0.1,0.8,0.2,0.8,0.7V65z"/>
</g>
</svg>
