<?xml version="1.0" encoding="utf-8"?>
<!-- Generator: Adobe Illustrator 26.3.1, SVG Export Plug-In . SVG Version: 6.00 Build 0)  -->
<svg version="1.1" id="Layer_1" xmlns="http://www.w3.org/2000/svg" xmlns:xlink="http://www.w3.org/1999/xlink" x="0px" y="0px"
	 viewBox="0 0 237.5 106.8" style="enable-background:new 0 0 237.5 106.8;" xml:space="preserve">
<g>
	<path d="M22.1,30.3c0.5-0.1,0.8,0.2,0.8,0.7v15.4c0,0.5,0.2,0.9,0.5,1.2c0.4,0.3,0.8,0.4,1.3,0.4l13-1.8c0.5-0.1,0.8-0.4,0.8-0.9
		V28.8c0-0.5,0.3-0.8,0.8-0.9l2.4-0.3c0.5-0.1,0.8,0.2,0.8,0.7v20.4c0,0.5-0.3,0.8-0.8,0.9l-17,2.4c-0.5,0.1-0.9-0.1-1-0.6l-0.7-2.4
		c-0.1-0.5-0.5-0.8-1-0.8l-2.4-0.3c-0.5-0.1-0.8-0.4-0.8-0.9V31.5c0-0.5,0.3-0.8,0.8-0.9L22.1,30.3z"/>
	<path d="M71.7,39.4c0,0.5-0.3,0.9-0.8,1.1l-2.4,1c-0.5,0.2-0.8,0.6-1,1.1l-0.7,2.6c-0.1,0.5-0.5,0.8-1,0.9L54,47.8
		c-0.5,0.1-0.9-0.1-1-0.6l-0.7-2.4c-0.1-0.5-0.5-0.8-1-0.8l-2.5-0.3c-0.5-0.1-0.8-0.4-0.8-0.9v-1.2c0-0.5,0.3-0.8,0.8-0.9l2.4-0.3
		c0.5-0.1,0.8,0.2,0.8,0.7v1.2c0,0.5,0.2,0.9,0.5,1.2c0.4,0.3,0.8,0.4,1.3,0.4l12-1.7c0.5-0.1,0.9-0.3,1.3-0.7
		c0.4-0.4,0.5-0.9,0.5-1.4v-1.4c0-0.5-0.2-0.9-0.6-1.2c-0.4-0.3-0.8-0.4-1.3-0.4l-12.2,1.7c-0.5,0.1-0.9-0.1-1-0.6L52,35.8
		c-0.1-0.5-0.5-0.7-1-0.6l-2.1,0.3c-0.5,0.1-0.8-0.2-0.8-0.7v-2.4c0-0.5,0.3-0.9,0.8-1.1l2.4-1c0.5-0.2,0.8-0.6,1-1.1l0.7-2.6
		c0.1-0.5,0.5-0.8,1-0.9l11.8-1.7c0.5-0.1,0.9,0.1,1,0.6l0.7,2.4c0.1,0.5,0.5,0.8,1,0.8l2.5,0.3c0.5,0.1,0.8,0.4,0.8,0.9v1.2
		c0,0.5-0.3,0.8-0.8,0.9l-2.4,0.3c-0.5,0.1-0.8-0.2-0.8-0.7v-1.2c0-0.5-0.2-0.9-0.5-1.2c-0.4-0.3-0.8-0.4-1.3-0.4l-12,1.7
		c-0.5,0.1-0.9,0.3-1.3,0.7c-0.4,0.4-0.5,0.8-0.5,1.4v1.4c0,0.5,0.2,0.9,0.6,1.2c0.4,0.3,0.8,0.4,1.3,0.4l12.2-1.7
		c0.2,0,0.5,0,0.6,0.1s0.3,0.3,0.4,0.5l0.7,2.4c0.1,0.5,0.5,0.7,1,0.6l2.1-0.3c0.5-0.1,0.8,0.2,0.8,0.7V39.4z"/>
	<path d="M85.2,21.4c0.5-0.1,0.9,0.1,1,0.6l0.7,2.3c0.1,0.5,0.5,0.7,1,0.6l2.4-0.3c0.5-0.1,0.8,0.2,0.8,0.7v11.4
		c0,0.5,0.2,0.9,0.5,1.2s0.8,0.4,1.3,0.4l7.2-1c0.5-0.1,0.8,0.2,0.8,0.7v2.4c0,0.5-0.3,0.8-0.8,0.9l-7.1,1c-0.5,0.1-0.9-0.1-1-0.6
		l-0.7-2.3c-0.1-0.5-0.5-0.8-1-0.8l-2.5-0.3c-0.5-0.1-0.8-0.4-0.8-0.9V26.9c0-0.5-0.2-0.9-0.5-1.2s-0.8-0.4-1.3-0.3l-7.2,1
		c-0.5,0.1-0.8-0.2-0.8-0.7v-2.4c0-0.5,0.3-0.8,0.8-0.9L85.2,21.4z M86.3,39.3c0.5-0.1,0.8,0.2,0.8,0.7v2.4c0,0.5-0.3,0.8-0.8,0.9
		l-8.2,1.2c-0.5,0.1-0.8-0.2-0.8-0.7v-2.4c0-0.5,0.3-0.8,0.8-0.9L86.3,39.3z M90.7,18.6L87.9,19c-0.5,0.1-0.8-0.2-0.8-0.7v-2.4
		c0-0.5,0.3-0.8,0.8-0.9l2.8-0.4c0.5-0.1,0.8,0.2,0.8,0.7v2.4C91.5,18.2,91.2,18.6,90.7,18.6z"/>
	<path d="M127,37.5c-0.5,0.1-0.8-0.2-0.8-0.7V21.5c0-0.5-0.2-0.9-0.5-1.2c-0.4-0.3-0.8-0.4-1.3-0.4l-13,1.8
		c-0.5,0.1-0.8,0.4-0.8,0.9v16.4c0,0.5-0.3,0.8-0.8,0.9l-2.4,0.3c-0.5,0.1-0.8-0.2-0.8-0.7V19.2c0-0.5,0.3-0.8,0.8-0.9l17-2.4
		c0.5-0.1,0.9,0.1,1,0.6l0.7,2.4c0.1,0.5,0.5,0.8,1,0.8l2.4,0.3c0.5,0.1,0.8,0.4,0.8,0.9v15.3c0,0.5-0.3,0.8-0.8,0.9L127,37.5z"/>
	<path d="M140.5,35.6c-0.5,0.1-0.8-0.2-0.8-0.7v-2.4c0-0.5-0.3-0.8-0.8-0.9l-2.4-0.3c-0.5-0.1-0.8-0.4-0.8-0.9V20.1
		c0-0.5,0.3-0.9,0.8-1.1l2.4-1c0.5-0.2,0.8-0.6,1-1.1l0.7-2.6c0.1-0.5,0.5-0.8,1-0.9l13-1.8c0.5-0.1,0.8,0.2,0.8,0.7v2.4
		c0,0.5,0.3,0.8,0.8,0.7l2.4-0.3c0.5-0.1,0.8,0.2,0.8,0.7v11.3c0,0.5-0.3,0.9-0.8,1.1l-2.4,1c-0.5,0.2-0.8,0.6-1,1.1l-0.7,2.6
		c-0.1,0.5-0.5,0.8-1,0.9L140.5,35.6z M141.5,31.5l12-1.7c0.5-0.1,0.9-0.3,1.3-0.7c0.4-0.4,0.5-0.9,0.5-1.4V17.3
		c0-0.5-0.2-0.9-0.5-1.2c-0.4-0.3-0.8-0.4-1.3-0.3l-12,1.7c-0.5,0.1-0.9,0.3-1.3,0.7c-0.4,0.4-0.5,0.8-0.5,1.4v10.4
		c0,0.5,0.2,0.9,0.5,1.2C140.6,31.5,141,31.6,141.5,31.5z M139.7,40.7c0-0.5,0.3-0.8,0.8-0.9l13-1.8c0.5-0.1,0.9-0.3,1.3-0.7
		c0.4-0.4,0.5-0.9,0.5-1.4v-1.6c0-0.5,0.3-0.8,0.8-0.9l2.4-0.3c0.5-0.1,0.8,0.2,0.8,0.7v1.5c0,0.5-0.3,0.9-0.8,1.1l-2.4,1
		c-0.5,0.2-0.8,0.6-1,1.1l-0.7,2.6c-0.1,0.5-0.5,0.8-1,0.9l-13,1.8c-0.5,0.1-0.8-0.2-0.8-0.7V40.7z"/>
	<path d="M217.7,11c0,0.5-0.3,0.8-0.8,0.9l-2.4,0.3c-0.5,0.1-0.8-0.2-0.8-0.7V9.2c0-0.5-0.2-0.9-0.5-1.2c-0.4-0.3-0.8-0.4-1.3-0.4
		l-12,1.7c-0.5,0.1-0.9,0.3-1.3,0.7c-0.4,0.4-0.5,0.9-0.5,1.4v1.2c0,0.5-0.3,0.8-0.8,0.9l-2.4,0.3c-0.5,0.1-0.8-0.2-0.8-0.7V12
		c0-0.5,0.3-0.9,0.8-1.1l2.5-1c0.5-0.2,0.8-0.6,1-1.1l0.7-2.6c0.1-0.5,0.5-0.8,1-0.9l11.8-1.7c0.5-0.1,0.9,0.1,1,0.6l0.7,2.4
		c0.1,0.5,0.5,0.8,1,0.8l2.4,0.3c0.5,0.1,0.8,0.4,0.8,0.9V11z M217.7,24c0,0.5-0.3,0.8-0.8,0.9l-17,2.4c-0.5,0.1-0.9-0.1-1-0.6
		l-0.7-2.4c-0.1-0.5-0.5-0.8-1-0.8l-2.4-0.3c-0.5-0.1-0.8-0.4-0.8-0.9v-2.4c0-0.5,0.3-0.8,0.8-0.9l2.1-0.3c0.5-0.1,0.9-0.4,1-0.9
		l0.7-2.6c0.1-0.5,0.5-0.8,1-0.9l12.1-1.7c0.5-0.1,0.9,0.1,1,0.6l0.7,2.4c0.1,0.5,0.5,0.8,1,0.8l2.4,0.3c0.5,0.1,0.8,0.4,0.8,0.9V24
		z M213,21.4c0.5-0.1,0.8-0.4,0.8-0.9v-2.4c0-0.5-0.2-0.9-0.5-1.2c-0.4-0.3-0.8-0.4-1.3-0.4l-12,1.7c-0.5,0.1-0.9,0.3-1.3,0.7
		c-0.4,0.4-0.6,0.9-0.6,1.3v1.4c0,0.5,0.2,0.9,0.5,1.2c0.4,0.3,0.8,0.4,1.3,0.3L213,21.4z"/>
	<path d="M27.9,93.6c0,0.5-0.3,0.9-0.8,1.1l-2.4,1c-0.5,0.2-0.8,0.6-1,1.1l-0.7,2.6c-0.1,0.5-0.5,0.8-1,0.9l-11.8,1.7
		c-0.5,0.1-0.9-0.1-1-0.6l-0.7-2.4c-0.1-0.5-0.5-0.8-1-0.8l-2.5-0.3c-0.5-0.1-0.8-0.4-0.8-0.9v-1.2c0-0.5,0.3-0.8,0.8-0.9l2.4-0.3
		c0.5-0.1,0.8,0.2,0.8,0.7v1.2c0,0.5,0.2,0.9,0.5,1.2c0.4,0.3,0.8,0.4,1.3,0.4l12-1.7c0.5-0.1,0.9-0.3,1.3-0.7
		c0.4-0.4,0.5-0.9,0.5-1.4v-1.4c0-0.5-0.2-0.9-0.6-1.2c-0.4-0.3-0.8-0.4-1.3-0.4L10,93c-0.5,0.1-0.9-0.1-1-0.6L8.2,90
		c-0.1-0.5-0.5-0.7-1-0.6l-2.1,0.3c-0.5,0.1-0.8-0.2-0.8-0.7v-2.4c0-0.5,0.3-0.9,0.8-1.1l2.4-1c0.5-0.2,0.8-0.6,1-1.1l0.7-2.6
		c0.1-0.5,0.5-0.8,1-0.9L22,78.3c0.5-0.1,0.9,0.1,1,0.6l0.7,2.4c0.1,0.5,0.5,0.8,1,0.8l2.5,0.3c0.5,0.1,0.8,0.4,0.8,0.9v1.2
		c0,0.5-0.3,0.8-0.8,0.9l-2.4,0.3c-0.5,0.1-0.8-0.2-0.8-0.7v-1.2c0-0.5-0.2-0.9-0.5-1.2c-0.4-0.3-0.8-0.4-1.3-0.4l-12,1.7
		c-0.5,0.1-0.9,0.3-1.3,0.7C8.5,85,8.3,85.5,8.3,86v1.4c0,0.5,0.2,0.9,0.6,1.2c0.4,0.3,0.8,0.4,1.3,0.4l12.2-1.7
		c0.2,0,0.5,0,0.6,0.1c0.2,0.1,0.3,0.3,0.4,0.5l0.7,2.4c0.1,0.5,0.5,0.7,1,0.6l2.1-0.3c0.5-0.1,0.8,0.2,0.8,0.7V93.6z"/>
	<path d="M40.7,69.7c0.5-0.1,0.8,0.2,0.8,0.7v3.3c0,0.5-0.3,0.9-0.8,1.1l-2.5,1c-0.5,0.2-0.8,0.6-1,1.1l-0.7,2.5
		c-0.1,0.5-0.5,0.8-1,0.9l-2.5,0.3c-0.5,0.1-0.8-0.2-0.8-0.7v-2.4c0-0.5,0.3-0.8,0.8-0.9l2.5-0.4c0.5-0.1,0.9-0.3,1.3-0.7
		c0.4-0.4,0.5-0.9,0.5-1.4v-3.4c0-0.5,0.3-0.8,0.8-0.9L40.7,69.7z M41.7,94.3c-0.1-0.5-0.5-0.7-1-0.6L38.3,94
		c-0.5,0.1-0.8-0.2-0.8-0.7V82c0-0.5,0.3-0.9,0.8-1.1l2.5-1c0.5-0.2,0.8-0.6,1-1.1l0.7-2.5c0.1-0.5,0.5-0.8,1-0.9l9-1.3
		c0.5-0.1,0.8,0.2,0.8,0.7v2.4c0,0.5-0.3,0.8-0.8,0.9l-9,1.3c-0.5,0.1-0.9,0.3-1.3,0.7c-0.4,0.4-0.5,0.9-0.5,1.4v10.4
		c0,0.5,0.2,0.9,0.5,1.2c0.3,0.3,0.8,0.4,1.3,0.3l8-1.1c0.5-0.1,0.9-0.3,1.3-0.7c0.4-0.4,0.5-0.8,0.5-1.4v-2.7
		c0-0.5,0.3-0.8,0.8-0.9l2.4-0.3c0.5-0.1,0.8,0.2,0.8,0.7v2.7c0,0.5-0.3,0.9-0.8,1.1l-2.5,1c-0.5,0.2-0.8,0.6-1,1.1l-0.7,2.6
		c-0.1,0.5-0.5,0.8-1,0.9l-7.9,1.1c-0.5,0.1-0.9-0.1-1-0.6L41.7,94.3z"/>
	<path d="M86.3,77.4c0,0.5-0.3,0.8-0.8,0.9l-2.4,0.3c-0.5,0.1-0.8-0.2-0.8-0.7v-2.4c0-0.5-0.2-0.9-0.5-1.2c-0.4-0.3-0.8-0.4-1.3-0.4
		l-13,1.8c-0.5,0.1-0.8,0.4-0.8,0.9v16.4c0,0.5-0.3,0.8-0.8,0.9l-2.4,0.3c-0.5,0.1-0.8-0.2-0.8-0.7V73.4c0-0.5,0.3-0.8,0.8-0.9
		l16.9-2.4c0.5-0.1,0.8,0.1,1,0.6l0.7,2.4c0.1,0.2,0.2,0.4,0.4,0.5c0.2,0.1,0.4,0.1,0.7,0.1l2.4-0.3c0.5-0.1,0.8,0.2,0.8,0.7V77.4z"
		/>
	<path d="M115.5,73.3c0,0.5-0.3,0.8-0.8,0.9l-2.4,0.3c-0.5,0.1-0.8-0.2-0.8-0.7v-2.4c0-0.5-0.2-0.9-0.5-1.2
		c-0.4-0.3-0.8-0.4-1.3-0.4l-12,1.7c-0.5,0.1-0.9,0.3-1.3,0.7c-0.4,0.4-0.5,0.9-0.5,1.4V75c0,0.5-0.3,0.8-0.8,0.9l-2.4,0.3
		c-0.5,0.1-0.8-0.2-0.8-0.7v-1.2c0-0.5,0.3-0.9,0.8-1.1l2.5-1c0.5-0.2,0.8-0.6,1-1.1l0.7-2.6c0.1-0.5,0.5-0.8,1-0.9l11.8-1.7
		c0.5-0.1,0.9,0.1,1,0.6l0.7,2.4c0.1,0.5,0.5,0.8,1,0.8l2.4,0.3c0.5,0.1,0.8,0.4,0.8,0.9V73.3z M115.5,86.3c0,0.5-0.3,0.8-0.8,0.9
		l-17,2.4c-0.5,0.1-0.9-0.1-1-0.6l-0.7-2.4c-0.1-0.5-0.5-0.8-1-0.8l-2.4-0.3c-0.5-0.1-0.8-0.4-0.8-0.9v-2.4c0-0.5,0.3-0.8,0.8-0.9
		l2.1-0.3c0.5-0.1,0.9-0.4,1-0.9l0.7-2.6c0.1-0.5,0.5-0.8,1-0.9l12.1-1.7c0.5-0.1,0.9,0.1,1,0.6l0.7,2.4c0.1,0.5,0.5,0.8,1,0.8
		l2.4,0.3c0.5,0.1,0.8,0.4,0.8,0.9V86.3z M110.8,83.8c0.5-0.1,0.8-0.4,0.8-0.9v-2.4c0-0.5-0.2-0.9-0.5-1.2c-0.4-0.3-0.8-0.4-1.3-0.4
		l-12,1.7c-0.5,0.1-0.9,0.3-1.3,0.7c-0.4,0.4-0.6,0.9-0.6,1.3v1.4c0,0.5,0.2,0.9,0.5,1.2c0.4,0.3,0.8,0.4,1.3,0.3L110.8,83.8z"/>
	<path d="M128.3,57.4c0.5-0.1,0.8,0.2,0.8,0.7v3.3c0,0.5-0.3,0.9-0.8,1.1l-2.5,1c-0.5,0.2-0.8,0.6-1,1.1l-0.7,2.5
		c-0.1,0.5-0.5,0.8-1,0.9l-2.5,0.3c-0.5,0.1-0.8-0.2-0.8-0.7v-2.4c0-0.5,0.3-0.8,0.8-0.9l2.5-0.4c0.5-0.1,0.9-0.3,1.3-0.7
		c0.4-0.4,0.5-0.9,0.5-1.4v-3.4c0-0.5,0.3-0.8,0.8-0.9L128.3,57.4z M129.3,82c-0.1-0.5-0.5-0.7-1-0.6l-2.4,0.3
		c-0.5,0.1-0.8-0.2-0.8-0.7V69.6c0-0.5,0.3-0.9,0.8-1.1l2.5-1c0.5-0.2,0.8-0.6,1-1.1l0.7-2.5c0.1-0.5,0.5-0.8,1-0.9l9-1.3
		c0.5-0.1,0.8,0.2,0.8,0.7v2.4c0,0.5-0.3,0.8-0.8,0.9l-9,1.3c-0.5,0.1-0.9,0.3-1.3,0.7c-0.4,0.4-0.5,0.9-0.5,1.4v10.4
		c0,0.5,0.2,0.9,0.5,1.2c0.3,0.3,0.8,0.4,1.3,0.3l8-1.1c0.5-0.1,0.9-0.3,1.3-0.7c0.4-0.4,0.5-0.8,0.5-1.4v-2.7
		c0-0.5,0.3-0.8,0.8-0.9l2.4-0.3c0.5-0.1,0.8,0.2,0.8,0.7v2.7c0,0.5-0.3,0.9-0.8,1.1l-2.5,1c-0.5,0.2-0.8,0.6-1,1.1l-0.7,2.6
		c-0.1,0.5-0.5,0.8-1,0.9l-7.9,1.1c-0.5,0.1-0.9-0.1-1-0.6L129.3,82z"/>
	<path d="M156.3,69.2c0-0.5,0.3-0.8,0.8-0.9l11-1.6c0.5-0.1,0.9-0.3,1.3-0.7c0.4-0.4,0.6-0.9,0.6-1.3v-1.4c0-0.5-0.2-0.9-0.5-1.2
		c-0.4-0.3-0.8-0.4-1.3-0.3l-12,1.7c-0.5,0.1-0.9,0.3-1.3,0.7c-0.4,0.4-0.5,0.8-0.5,1.4v10.4c0,0.5,0.2,0.9,0.5,1.2
		c0.4,0.3,0.8,0.4,1.3,0.4l12-1.7c0.5-0.1,0.9-0.3,1.3-0.7c0.4-0.4,0.5-0.9,0.5-1.4v-1.2c0-0.5,0.3-0.8,0.8-0.9l2.4-0.3
		c0.5-0.1,0.8,0.2,0.8,0.7v1.2c0,0.5-0.3,0.9-0.8,1.1l-2.5,1c-0.5,0.2-0.8,0.6-1,1.1l-0.7,2.6c-0.1,0.5-0.5,0.8-1,0.9l-11.8,1.7
		c-0.5,0.1-0.9-0.1-1-0.6l-0.7-2.4c-0.1-0.5-0.5-0.8-1-0.8l-2.4-0.3c-0.5-0.1-0.8-0.4-0.8-0.9V66.1c0-0.5,0.3-0.9,0.8-1.1l2.4-1
		c0.5-0.2,0.8-0.6,1-1.1l0.7-2.6c0.1-0.5,0.5-0.8,1-0.9l11.9-1.7c0.5-0.1,0.9,0.1,1,0.6l0.7,2.4c0.1,0.5,0.5,0.8,1,0.8l2.4,0.3
		c0.5,0.1,0.8,0.4,0.8,0.9v2.4c0,0.5-0.3,0.8-0.8,0.9l-2.1,0.3c-0.5,0.1-0.9,0.4-1,0.9l-0.7,2.6c-0.1,0.2-0.2,0.4-0.4,0.6
		c-0.2,0.1-0.4,0.2-0.6,0.3l-11.2,1.6c-0.5,0.1-0.8-0.2-0.8-0.7V69.2z"/>
	<path d="M184.3,77.5c-0.5,0.1-0.8-0.2-0.8-0.7v-2.4c0-0.5-0.3-0.8-0.8-0.9l-2.4-0.3c-0.5-0.1-0.8-0.4-0.8-0.9V62
		c0-0.5,0.3-0.9,0.8-1.1l2.4-1c0.5-0.2,0.8-0.6,1-1.1l0.7-2.6c0.1-0.5,0.5-0.8,1-0.9l13-1.8c0.5-0.1,0.8,0.2,0.8,0.7v2.4
		c0,0.5,0.3,0.8,0.8,0.7l2.4-0.3c0.5-0.1,0.8,0.2,0.8,0.7V69c0,0.5-0.3,0.9-0.8,1.1l-2.4,1c-0.5,0.2-0.8,0.6-1,1.1l-0.7,2.6
		c-0.1,0.5-0.5,0.8-1,0.9L184.3,77.5z M185.3,73.3l12-1.7c0.5-0.1,0.9-0.3,1.3-0.7c0.4-0.4,0.5-0.9,0.5-1.4V59.2
		c0-0.5-0.2-0.9-0.5-1.2c-0.4-0.3-0.8-0.4-1.3-0.3l-12,1.7c-0.5,0.1-0.9,0.3-1.3,0.7c-0.4,0.4-0.5,0.8-0.5,1.4v10.4
		c0,0.5,0.2,0.9,0.5,1.2C184.4,73.3,184.8,73.4,185.3,73.3z M183.5,82.6c0-0.5,0.3-0.8,0.8-0.9l13-1.8c0.5-0.1,0.9-0.3,1.3-0.7
		c0.4-0.4,0.5-0.9,0.5-1.4v-1.6c0-0.5,0.3-0.8,0.8-0.9l2.4-0.3c0.5-0.1,0.8,0.2,0.8,0.7v1.5c0,0.5-0.3,0.9-0.8,1.1l-2.4,1
		c-0.5,0.2-0.8,0.6-1,1.1l-0.7,2.6c-0.1,0.5-0.5,0.8-1,0.9l-13,1.8c-0.5,0.1-0.8-0.2-0.8-0.7V82.6z"/>
	<path d="M231.5,48.8c0.5-0.1,0.8,0.2,0.8,0.7v15.3c0,0.5-0.3,0.9-0.8,1.1l-2.4,1c-0.5,0.2-0.8,0.6-1,1.1l-0.7,2.6
		c-0.1,0.5-0.5,0.8-1,0.9l-13,1.8c-0.5,0.1-0.8-0.2-0.8-0.7v-2.4c0-0.5-0.3-0.8-0.8-0.9l-2.4-0.3c-0.5-0.1-0.8-0.4-0.8-0.9V52.8
		c0-0.5,0.3-0.8,0.8-0.9l2.4-0.3c0.5-0.1,0.8,0.2,0.8,0.7v15.4c0,0.5,0.2,0.9,0.5,1.2c0.4,0.3,0.8,0.4,1.3,0.3l12-1.7
		c0.5-0.1,0.9-0.3,1.3-0.7s0.5-0.9,0.5-1.4V50.1c0-0.5,0.3-0.8,0.8-0.9L231.5,48.8z M212.7,78.5c0-0.5,0.3-0.8,0.8-0.9l13-1.8
		c0.5-0.1,0.9-0.3,1.3-0.7c0.4-0.4,0.5-0.9,0.5-1.4v-1.6c0-0.5,0.3-0.8,0.8-0.9l2.4-0.3c0.5-0.1,0.8,0.2,0.8,0.7V73
		c0,0.5-0.3,0.9-0.8,1.1l-2.4,1c-0.5,0.2-0.8,0.6-1,1.1l-0.7,2.6c-0.1,0.5-0.5,0.8-1,0.9l-13,1.8c-0.5,0.1-0.8-0.2-0.8-0.7V78.5z"/>
</g>
</svg>
