<?xml version="1.0" encoding="utf-8"?>
<!-- Generator: Adobe Illustrator 26.3.1, SVG Export Plug-In . SVG Version: 6.00 Build 0)  -->
<svg version="1.1" id="Layer_1" xmlns="http://www.w3.org/2000/svg" xmlns:xlink="http://www.w3.org/1999/xlink" x="0px" y="0px"
	 viewBox="0 0 261.8 106.8" style="enable-background:new 0 0 261.8 106.8;" xml:space="preserve">
<g>
	<path d="M16.2,41.8v6.4c0,0.5-0.3,0.8-0.8,0.9l-2.3,0.3c-0.2,0-0.4,0-0.6-0.1s-0.2-0.3-0.2-0.5v-6.4c0-0.5-0.2-0.9-0.6-1.2
		c-0.4-0.3-0.8-0.4-1.3-0.4l-3.2,0.4c-0.2,0-0.4,0.1-0.6,0.3c-0.1,0.2-0.2,0.4-0.2,0.6v16.4c0,0.5-0.3,0.8-0.8,0.9l-2.4,0.3
		c-0.5,0.1-0.8-0.2-0.8-0.7V38.7c0-0.5,0.3-0.8,0.8-0.9l7.1-1c0.5-0.1,0.9,0.1,1,0.6l0.7,2.3c0.1,0.5,0.5,0.8,1,0.8l2.5,0.3
		C15.9,40.9,16.2,41.2,16.2,41.8z M26,40.4v15.3c0,0.5-0.3,0.8-0.8,0.9L22.8,57c-0.5,0.1-0.8-0.2-0.8-0.7V40.9
		c0-0.5-0.2-0.9-0.5-1.2c-0.4-0.3-0.8-0.4-1.3-0.4L17,39.8c-0.5,0.1-0.8-0.2-0.8-0.7v-2.4c0-0.5,0.3-0.8,0.8-0.9l3.2-0.4
		c0.5-0.1,0.9,0.1,1,0.6l0.7,2.4c0.1,0.5,0.5,0.8,1,0.8l2.4,0.3C25.7,39.6,26,39.9,26,40.4z"/>
	<path d="M37.6,42.7c0-0.5,0.3-0.8,0.8-0.9l11-1.6c0.5-0.1,0.9-0.3,1.3-0.7c0.4-0.4,0.6-0.9,0.6-1.3v-1.4c0-0.5-0.2-0.9-0.5-1.2
		c-0.4-0.3-0.8-0.4-1.3-0.3l-12,1.7c-0.5,0.1-0.9,0.3-1.3,0.7c-0.4,0.4-0.5,0.8-0.5,1.4v10.4c0,0.5,0.2,0.9,0.5,1.2
		c0.4,0.3,0.8,0.4,1.3,0.4l12-1.7c0.5-0.1,0.9-0.3,1.3-0.7c0.4-0.4,0.5-0.9,0.5-1.4v-1.2c0-0.5,0.3-0.8,0.8-0.9l2.4-0.3
		c0.5-0.1,0.8,0.2,0.8,0.7v1.2c0,0.5-0.3,0.9-0.8,1.1l-2.5,1c-0.5,0.2-0.8,0.6-1,1.1l-0.7,2.6c-0.1,0.5-0.5,0.8-1,0.9l-11.8,1.7
		c-0.5,0.1-0.9-0.1-1-0.6l-0.7-2.4c-0.1-0.5-0.5-0.8-1-0.8l-2.4-0.3c-0.5-0.1-0.8-0.4-0.8-0.9V39.6c0-0.5,0.3-0.9,0.8-1.1l2.4-1
		c0.5-0.2,0.8-0.6,1-1.1l0.7-2.6c0.1-0.5,0.5-0.8,1-0.9l11.9-1.7c0.5-0.1,0.9,0.1,1,0.6l0.7,2.4c0.1,0.5,0.5,0.8,1,0.8l2.4,0.3
		c0.5,0.1,0.8,0.4,0.8,0.9v2.4c0,0.5-0.3,0.8-0.8,0.9l-2.1,0.3c-0.5,0.1-0.9,0.4-1,0.9l-0.7,2.6c-0.1,0.2-0.2,0.4-0.4,0.6
		c-0.2,0.1-0.4,0.2-0.6,0.3l-11.2,1.6c-0.5,0.1-0.8-0.2-0.8-0.7V42.7z"/>
	<path d="M84.4,34.5c0,0.5-0.3,0.8-0.8,0.9l-2.4,0.3c-0.5,0.1-0.8-0.2-0.8-0.7v-2.4c0-0.5-0.2-0.9-0.5-1.2c-0.4-0.3-0.8-0.4-1.3-0.4
		l-12,1.7c-0.5,0.1-0.9,0.3-1.3,0.7c-0.4,0.4-0.5,0.9-0.5,1.4v1.2c0,0.5-0.3,0.8-0.8,0.9l-2.4,0.3c-0.5,0.1-0.8-0.2-0.8-0.7v-1.2
		c0-0.5,0.3-0.9,0.8-1.1l2.5-1c0.5-0.2,0.8-0.6,1-1.1l0.7-2.6c0.1-0.5,0.5-0.8,1-0.9l11.8-1.7c0.5-0.1,0.9,0.1,1,0.6l0.7,2.4
		c0.1,0.5,0.5,0.8,1,0.8l2.4,0.3c0.5,0.1,0.8,0.4,0.8,0.9V34.5z M84.4,47.5c0,0.5-0.3,0.8-0.8,0.9l-17,2.4c-0.5,0.1-0.9-0.1-1-0.6
		L65,47.8c-0.1-0.5-0.5-0.8-1-0.8l-2.4-0.3c-0.5-0.1-0.8-0.4-0.8-0.9v-2.4c0-0.5,0.3-0.8,0.8-0.9l2.1-0.3c0.5-0.1,0.9-0.4,1-0.9
		l0.7-2.6c0.1-0.5,0.5-0.8,1-0.9l12.1-1.7c0.5-0.1,0.9,0.1,1,0.6l0.7,2.4c0.1,0.5,0.5,0.8,1,0.8l2.4,0.3c0.5,0.1,0.8,0.4,0.8,0.9
		V47.5z M79.6,45c0.5-0.1,0.8-0.4,0.8-0.9v-2.4c0-0.5-0.2-0.9-0.5-1.2c-0.4-0.3-0.8-0.4-1.3-0.4l-12,1.7c-0.5,0.1-0.9,0.3-1.3,0.7
		c-0.4,0.4-0.6,0.9-0.6,1.3v1.4c0,0.5,0.2,0.9,0.5,1.2c0.4,0.3,0.8,0.4,1.3,0.3L79.6,45z"/>
	<path d="M113.6,38.4c0,0.5-0.3,0.9-0.8,1.1l-2.4,1c-0.5,0.2-0.8,0.6-1,1.1l-0.7,2.6c-0.1,0.5-0.5,0.8-1,0.9l-11.8,1.7
		c-0.5,0.1-0.9-0.1-1-0.6l-0.7-2.4c-0.1-0.5-0.5-0.8-1-0.8l-2.5-0.3c-0.5-0.1-0.8-0.4-0.8-0.9v-1.2c0-0.5,0.3-0.8,0.8-0.9l2.4-0.3
		c0.5-0.1,0.8,0.2,0.8,0.7v1.2c0,0.5,0.2,0.9,0.5,1.2c0.4,0.3,0.8,0.4,1.3,0.4l12-1.7c0.5-0.1,0.9-0.3,1.3-0.7s0.5-0.9,0.5-1.4v-1.4
		c0-0.5-0.2-0.9-0.6-1.2c-0.4-0.3-0.8-0.4-1.3-0.4l-12.2,1.7c-0.5,0.1-0.9-0.1-1-0.6l-0.7-2.4c-0.1-0.5-0.5-0.7-1-0.6l-2.1,0.3
		c-0.5,0.1-0.8-0.2-0.8-0.7v-2.4c0-0.5,0.3-0.9,0.8-1.1l2.4-1c0.5-0.2,0.8-0.6,1-1.1l0.7-2.6c0.1-0.5,0.5-0.8,1-0.9l11.8-1.7
		c0.5-0.1,0.9,0.1,1,0.6l0.7,2.4c0.1,0.5,0.5,0.8,1,0.8l2.5,0.3c0.5,0.1,0.8,0.4,0.8,0.9v1.2c0,0.5-0.3,0.8-0.8,0.9l-2.4,0.3
		c-0.5,0.1-0.8-0.2-0.8-0.7v-1.2c0-0.5-0.2-0.9-0.5-1.2s-0.8-0.4-1.3-0.4l-12,1.7c-0.5,0.1-0.9,0.3-1.3,0.7
		c-0.4,0.4-0.5,0.8-0.5,1.4v1.4c0,0.5,0.2,0.9,0.6,1.2c0.4,0.3,0.8,0.4,1.3,0.4L108,32c0.2,0,0.5,0,0.6,0.1s0.3,0.3,0.4,0.5l0.7,2.4
		c0.1,0.5,0.5,0.7,1,0.6l2.1-0.3c0.5-0.1,0.8,0.2,0.8,0.7V38.4z"/>
	<path d="M122.4,21c0.5-0.1,0.8,0.2,0.8,0.7v15.4c0,0.5,0.2,0.9,0.5,1.2c0.4,0.3,0.8,0.4,1.3,0.4l13-1.8c0.5-0.1,0.8-0.4,0.8-0.9
		V19.5c0-0.5,0.3-0.8,0.8-0.9l2.4-0.3c0.5-0.1,0.8,0.2,0.8,0.7v20.4c0,0.5-0.3,0.8-0.8,0.9l-17,2.4c-0.5,0.1-0.9-0.1-1-0.6l-0.7-2.4
		c-0.1-0.5-0.5-0.8-1-0.8l-2.4-0.3c-0.5-0.1-0.8-0.4-0.8-0.9V22.3c0-0.5,0.3-0.8,0.8-0.9L122.4,21z"/>
	<path d="M172,22.2c0,0.5-0.3,0.8-0.8,0.9l-2.4,0.3c-0.5,0.1-0.8-0.2-0.8-0.7v-2.4c0-0.5-0.2-0.9-0.5-1.2c-0.4-0.3-0.8-0.4-1.3-0.4
		l-13,1.8c-0.5,0.1-0.8,0.4-0.8,0.9V38c0,0.5-0.3,0.8-0.8,0.9l-2.4,0.3c-0.5,0.1-0.8-0.2-0.8-0.7V18.1c0-0.5,0.3-0.8,0.8-0.9
		l16.9-2.4c0.5-0.1,0.8,0.1,1,0.6l0.7,2.4c0.1,0.2,0.2,0.4,0.4,0.5c0.2,0.1,0.4,0.1,0.7,0.1l2.4-0.3c0.5-0.1,0.8,0.2,0.8,0.7V22.2z"
		/>
	<path d="M185.5,12.1c0.5-0.1,0.9,0.1,1,0.6l0.7,2.3c0.1,0.5,0.5,0.7,1,0.6l2.4-0.3c0.5-0.1,0.8,0.2,0.8,0.7v11.4
		c0,0.5,0.2,0.9,0.5,1.2c0.4,0.3,0.8,0.4,1.3,0.4l7.2-1c0.5-0.1,0.8,0.2,0.8,0.7v2.4c0,0.5-0.3,0.8-0.8,0.9l-7.1,1
		c-0.5,0.1-0.9-0.1-1-0.6l-0.7-2.3c-0.1-0.5-0.5-0.8-1-0.8l-2.5-0.3c-0.5-0.1-0.8-0.4-0.8-0.9V17.7c0-0.5-0.2-0.9-0.5-1.2
		c-0.4-0.3-0.8-0.4-1.3-0.3l-7.2,1c-0.5,0.1-0.8-0.2-0.8-0.7V14c0-0.5,0.3-0.8,0.8-0.9L185.5,12.1z M186.6,30
		c0.5-0.1,0.8,0.2,0.8,0.7v2.4c0,0.5-0.3,0.8-0.8,0.9l-8.2,1.2c-0.5,0.1-0.8-0.2-0.8-0.7v-2.4c0-0.5,0.3-0.8,0.8-0.9L186.6,30z
		 M191,9.4l-2.8,0.4c-0.5,0.1-0.8-0.2-0.8-0.7V6.7c0-0.5,0.3-0.8,0.8-0.9l2.8-0.4c0.5-0.1,0.8,0.2,0.8,0.7v2.4
		C191.8,9,191.5,9.3,191,9.4z"/>
	<path d="M227.2,28.3c-0.5,0.1-0.8-0.2-0.8-0.7V12.2c0-0.5-0.2-0.9-0.5-1.2c-0.4-0.3-0.8-0.4-1.3-0.4l-13,1.8
		c-0.5,0.1-0.8,0.4-0.8,0.9v16.4c0,0.5-0.3,0.8-0.8,0.9l-2.4,0.3c-0.5,0.1-0.8-0.2-0.8-0.7V9.9c0-0.5,0.3-0.8,0.8-0.9l17-2.4
		c0.5-0.1,0.9,0.1,1,0.6l0.7,2.4c0.1,0.5,0.5,0.8,1,0.8l2.4,0.3c0.5,0.1,0.8,0.4,0.8,0.9V27c0,0.5-0.3,0.8-0.8,0.9L227.2,28.3z"/>
	<path d="M240.8,26.4c-0.5,0.1-0.8-0.2-0.8-0.7v-2.4c0-0.5-0.3-0.8-0.8-0.9l-2.4-0.3c-0.5-0.1-0.8-0.4-0.8-0.9V10.9
		c0-0.5,0.3-0.9,0.8-1.1l2.4-1c0.5-0.2,0.8-0.6,1-1.1l0.7-2.6c0.1-0.5,0.5-0.8,1-0.9l13-1.8c0.5-0.1,0.8,0.2,0.8,0.7v2.4
		c0,0.5,0.3,0.8,0.8,0.7l2.4-0.3c0.5-0.1,0.8,0.2,0.8,0.7v11.3c0,0.5-0.3,0.9-0.8,1.1l-2.4,1c-0.5,0.2-0.8,0.6-1,1.1l-0.7,2.6
		c-0.1,0.5-0.5,0.8-1,0.9L240.8,26.4z M241.8,22.2l12-1.7c0.5-0.1,0.9-0.3,1.3-0.7c0.4-0.4,0.5-0.9,0.5-1.4V8.1
		c0-0.5-0.2-0.9-0.5-1.2c-0.4-0.3-0.8-0.4-1.3-0.3l-12,1.7c-0.5,0.1-0.9,0.3-1.3,0.7c-0.4,0.4-0.5,0.8-0.5,1.4v10.4
		c0,0.5,0.2,0.9,0.5,1.2C240.9,22.2,241.3,22.3,241.8,22.2z M240,31.5c0-0.5,0.3-0.8,0.8-0.9l13-1.8c0.5-0.1,0.9-0.3,1.3-0.7
		c0.4-0.4,0.5-0.9,0.5-1.4v-1.6c0-0.5,0.3-0.8,0.8-0.9l2.4-0.3c0.5-0.1,0.8,0.2,0.8,0.7V26c0,0.5-0.3,0.9-0.8,1.1l-2.4,1
		c-0.5,0.2-0.8,0.6-1,1.1l-0.7,2.6c-0.1,0.5-0.5,0.8-1,0.9l-13,1.8c-0.5,0.1-0.8-0.2-0.8-0.7V31.5z"/>
	<path d="M22.8,105c-0.5,0.1-0.9-0.1-1-0.6l-0.7-2.4c-0.1-0.5-0.5-0.8-1-0.8l-2.4-0.3c-0.5-0.1-0.8-0.4-0.8-0.9V89.7
		c0-0.5,0.3-0.9,0.8-1.1l2.4-1c0.5-0.2,0.8-0.6,1-1.1l0.7-2.6c0.1-0.5,0.5-0.8,1-0.9l11.8-1.7c0.5-0.1,0.9,0.1,1,0.6l0.7,2.4
		c0.1,0.5,0.5,0.8,1,0.8l2.5,0.3c0.5,0.1,0.8,0.4,0.8,0.9v10.3c0,0.5-0.3,0.9-0.8,1.1l-2.5,1c-0.5,0.2-0.8,0.6-1,1.1l-0.7,2.6
		c-0.1,0.5-0.5,0.8-1,0.9L22.8,105z M22.8,87c-0.5,0.1-0.9,0.3-1.3,0.7c-0.4,0.4-0.5,0.9-0.5,1.4v10.4c0,0.5,0.2,0.9,0.5,1.2
		c0.4,0.3,0.8,0.4,1.3,0.3l12-1.7c0.5-0.1,0.9-0.3,1.3-0.7c0.4-0.4,0.5-0.8,0.5-1.4V86.9c0-0.5-0.2-0.9-0.5-1.2
		c-0.4-0.3-0.8-0.4-1.3-0.4L22.8,87z"/>
	<path d="M49.4,79.3c0.5-0.1,0.8,0.2,0.8,0.7v15.4c0,0.5,0.2,0.9,0.5,1.2c0.4,0.3,0.8,0.4,1.3,0.4l13-1.8c0.5-0.1,0.8-0.4,0.8-0.9
		V77.8c0-0.5,0.3-0.8,0.8-0.9l2.4-0.3c0.5-0.1,0.8,0.2,0.8,0.7v20.4c0,0.5-0.3,0.8-0.8,0.9l-17,2.4c-0.5,0.1-0.9-0.1-1-0.6l-0.7-2.4
		c-0.1-0.5-0.5-0.8-1-0.8L47,96.7c-0.5-0.1-0.8-0.4-0.8-0.9V80.5c0-0.5,0.3-0.8,0.8-0.9L49.4,79.3z"/>
	<path d="M82.6,68.6c0.5-0.1,0.8,0.2,0.8,0.7v3.3c0,0.5-0.3,0.9-0.8,1.1l-2.5,1c-0.5,0.2-0.8,0.6-1,1.1l-0.7,2.5
		c-0.1,0.5-0.5,0.8-1,0.9L75,79.6c-0.5,0.1-0.8-0.2-0.8-0.7v-2.4c0-0.5,0.3-0.8,0.8-0.9l2.5-0.4c0.5-0.1,0.9-0.3,1.3-0.7
		c0.4-0.4,0.5-0.9,0.5-1.4v-3.4c0-0.5,0.3-0.8,0.8-0.9L82.6,68.6z M83.6,93.2c-0.1-0.5-0.5-0.7-1-0.6l-2.4,0.3
		c-0.5,0.1-0.8-0.2-0.8-0.7V80.9c0-0.5,0.3-0.9,0.8-1.1l2.5-1c0.5-0.2,0.8-0.6,1-1.1l0.7-2.5c0.1-0.5,0.5-0.8,1-0.9l9-1.3
		c0.5-0.1,0.8,0.2,0.8,0.7V76c0,0.5-0.3,0.8-0.8,0.9l-9,1.3c-0.5,0.1-0.9,0.3-1.3,0.7c-0.4,0.4-0.5,0.9-0.5,1.4v10.4
		c0,0.5,0.2,0.9,0.5,1.2c0.3,0.3,0.8,0.4,1.3,0.3l8-1.1c0.5-0.1,0.9-0.3,1.3-0.7C94.9,90,95,89.6,95,89v-2.7c0-0.5,0.3-0.8,0.8-0.9
		l2.4-0.3c0.5-0.1,0.8,0.2,0.8,0.7v2.7c0,0.5-0.3,0.9-0.8,1.1l-2.5,1c-0.5,0.2-0.8,0.6-1,1.1l-0.7,2.6c-0.1,0.5-0.5,0.8-1,0.9
		l-7.9,1.1c-0.5,0.1-0.9-0.1-1-0.6L83.6,93.2z"/>
	<path d="M127.4,82.5c0.5-0.1,0.8,0.2,0.8,0.7v1.2c0,0.5-0.3,0.9-0.8,1.1l-2.5,1c-0.5,0.2-0.8,0.6-1,1.1l-0.7,2.6
		c-0.1,0.5-0.5,0.8-1,0.9l-11.8,1.7c-0.5,0.1-0.9-0.1-1-0.6l-0.7-2.4c-0.1-0.5-0.5-0.8-1-0.8l-2.4-0.3c-0.5-0.1-0.8-0.4-0.8-0.9
		V77.4c0-0.5,0.3-0.9,0.8-1.1l2.4-1c0.5-0.2,0.8-0.6,1-1.1l0.7-2.6c0.1-0.5,0.5-0.8,1-0.9l11.8-1.7c0.5-0.1,0.9,0.1,1,0.6L124,72
		c0.1,0.5,0.5,0.8,1,0.8l2.5,0.3c0.5,0.1,0.8,0.4,0.8,0.9v1.2c0,0.5-0.3,0.8-0.8,0.9l-2.4,0.3c-0.5,0.1-0.8-0.2-0.8-0.7v-1.2
		c0-0.5-0.2-0.9-0.5-1.2c-0.4-0.3-0.8-0.4-1.3-0.4l-12,1.7c-0.5,0.1-0.9,0.3-1.3,0.7c-0.4,0.4-0.5,0.9-0.5,1.4v10.4
		c0,0.5,0.2,0.9,0.5,1.2c0.4,0.3,0.8,0.4,1.3,0.3l12-1.7c0.5-0.1,0.9-0.3,1.3-0.7c0.4-0.4,0.5-0.8,0.5-1.4v-1.2
		c0-0.5,0.3-0.8,0.8-0.9L127.4,82.5z"/>
	<path d="M139.6,88.6c-0.5,0.1-0.9-0.1-1-0.6l-0.7-2.4c-0.1-0.5-0.5-0.8-1-0.8l-2.4-0.3c-0.5-0.1-0.8-0.4-0.8-0.9V73.3
		c0-0.5,0.3-0.9,0.8-1.1l2.4-1c0.5-0.2,0.8-0.6,1-1.1l0.7-2.6c0.1-0.5,0.5-0.8,1-0.9l11.8-1.7c0.5-0.1,0.9,0.1,1,0.6l0.7,2.4
		c0.1,0.5,0.5,0.8,1,0.8l2.5,0.3c0.5,0.1,0.8,0.4,0.8,0.9v10.3c0,0.5-0.3,0.9-0.8,1.1l-2.5,1c-0.5,0.2-0.8,0.6-1,1.1l-0.7,2.6
		c-0.1,0.5-0.5,0.8-1,0.9L139.6,88.6z M139.6,70.6c-0.5,0.1-0.9,0.3-1.3,0.7c-0.4,0.4-0.5,0.9-0.5,1.4V83c0,0.5,0.2,0.9,0.5,1.2
		c0.4,0.3,0.8,0.4,1.3,0.3l12-1.7c0.5-0.1,0.9-0.3,1.3-0.7c0.4-0.4,0.5-0.8,0.5-1.4V70.5c0-0.5-0.2-0.9-0.5-1.2
		c-0.4-0.3-0.8-0.4-1.3-0.4L139.6,70.6z"/>
	<path d="M176.8,67.2v6.4c0,0.5-0.3,0.8-0.8,0.9l-2.3,0.3c-0.2,0-0.4,0-0.6-0.1s-0.2-0.3-0.2-0.5v-6.4c0-0.5-0.2-0.9-0.6-1.2
		c-0.4-0.3-0.8-0.4-1.3-0.4l-3.2,0.4c-0.2,0-0.4,0.1-0.6,0.3c-0.1,0.2-0.2,0.4-0.2,0.6v16.4c0,0.5-0.3,0.8-0.8,0.9l-2.4,0.3
		c-0.5,0.1-0.8-0.2-0.8-0.7V64.1c0-0.5,0.3-0.8,0.8-0.9l7.1-1c0.5-0.1,0.9,0.1,1,0.6l0.7,2.3c0.1,0.5,0.5,0.8,1,0.8l2.5,0.3
		C176.6,66.4,176.8,66.7,176.8,67.2z M186.6,65.9v15.3c0,0.5-0.3,0.8-0.8,0.9l-2.4,0.3c-0.5,0.1-0.8-0.2-0.8-0.7V66.4
		c0-0.5-0.2-0.9-0.5-1.2c-0.4-0.3-0.8-0.4-1.3-0.4l-3.2,0.4c-0.5,0.1-0.8-0.2-0.8-0.7v-2.4c0-0.5,0.3-0.8,0.8-0.9l3.2-0.4
		c0.5-0.1,0.9,0.1,1,0.6l0.7,2.4c0.1,0.5,0.5,0.8,1,0.8l2.4,0.3C186.4,65,186.6,65.3,186.6,65.9z"/>
	<path d="M198.2,68.2c0-0.5,0.3-0.8,0.8-0.9l11-1.6c0.5-0.1,0.9-0.3,1.3-0.7c0.4-0.4,0.6-0.9,0.6-1.3v-1.4c0-0.5-0.2-0.9-0.5-1.2
		c-0.4-0.3-0.8-0.4-1.3-0.3l-12,1.7c-0.5,0.1-0.9,0.3-1.3,0.7c-0.4,0.4-0.5,0.8-0.5,1.4v10.4c0,0.5,0.2,0.9,0.5,1.2
		c0.4,0.3,0.8,0.4,1.3,0.4l12-1.7c0.5-0.1,0.9-0.3,1.3-0.7c0.4-0.4,0.5-0.9,0.5-1.4v-1.2c0-0.5,0.3-0.8,0.8-0.9l2.4-0.3
		c0.5-0.1,0.8,0.2,0.8,0.7V72c0,0.5-0.3,0.9-0.8,1.1l-2.5,1c-0.5,0.2-0.8,0.6-1,1.1l-0.7,2.6c-0.1,0.5-0.5,0.8-1,0.9L198,80.4
		c-0.5,0.1-0.9-0.1-1-0.6l-0.7-2.4c-0.1-0.5-0.5-0.8-1-0.8l-2.4-0.3c-0.5-0.1-0.8-0.4-0.8-0.9V65c0-0.5,0.3-0.9,0.8-1.1l2.4-1
		c0.5-0.2,0.8-0.6,1-1.1l0.7-2.6c0.1-0.5,0.5-0.8,1-0.9l11.9-1.7c0.5-0.1,0.9,0.1,1,0.6l0.7,2.4c0.1,0.5,0.5,0.8,1,0.8l2.4,0.3
		c0.5,0.1,0.8,0.4,0.8,0.9v2.4c0,0.5-0.3,0.8-0.8,0.9l-2.1,0.3c-0.5,0.1-0.9,0.4-1,0.9l-0.7,2.6c-0.1,0.2-0.2,0.4-0.4,0.6
		s-0.4,0.2-0.6,0.3L199,71.2c-0.5,0.1-0.8-0.2-0.8-0.7V68.2z"/>
	<path d="M245,67.9c0,0.5-0.3,0.9-0.8,1.1l-2.4,1c-0.5,0.2-0.8,0.6-1,1.1l-0.7,2.6c-0.1,0.5-0.5,0.8-1,0.9l-11.8,1.7
		c-0.5,0.1-0.9-0.1-1-0.6l-0.7-2.4c-0.1-0.5-0.5-0.8-1-0.8l-2.5-0.3c-0.5-0.1-0.8-0.4-0.8-0.9V70c0-0.5,0.3-0.8,0.8-0.9l2.4-0.3
		c0.5-0.1,0.8,0.2,0.8,0.7v1.2c0,0.5,0.2,0.9,0.5,1.2c0.4,0.3,0.8,0.4,1.3,0.4l12-1.7c0.5-0.1,0.9-0.3,1.3-0.7s0.5-0.9,0.5-1.4v-1.4
		c0-0.5-0.2-0.9-0.6-1.2c-0.4-0.3-0.8-0.4-1.3-0.4L227,67.3c-0.5,0.1-0.9-0.1-1-0.6l-0.7-2.4c-0.1-0.5-0.5-0.7-1-0.6l-2.1,0.3
		c-0.5,0.1-0.8-0.2-0.8-0.7v-2.4c0-0.5,0.3-0.9,0.8-1.1l2.4-1c0.5-0.2,0.8-0.6,1-1.1l0.7-2.6c0.1-0.5,0.5-0.8,1-0.9l11.8-1.7
		c0.5-0.1,0.9,0.1,1,0.6l0.7,2.4c0.1,0.5,0.5,0.8,1,0.8l2.5,0.3c0.5,0.1,0.8,0.4,0.8,0.9v1.2c0,0.5-0.3,0.8-0.8,0.9l-2.4,0.3
		c-0.5,0.1-0.8-0.2-0.8-0.7v-1.2c0-0.5-0.2-0.9-0.5-1.2s-0.8-0.4-1.3-0.4l-12,1.7c-0.5,0.1-0.9,0.3-1.3,0.7
		c-0.4,0.4-0.5,0.8-0.5,1.4v1.4c0,0.5,0.2,0.9,0.6,1.2c0.4,0.3,0.8,0.4,1.3,0.4l12.2-1.7c0.2,0,0.5,0,0.6,0.1s0.3,0.3,0.4,0.5
		l0.7,2.4c0.1,0.5,0.5,0.7,1,0.6l2.1-0.3c0.5-0.1,0.8,0.2,0.8,0.7V67.9z"/>
</g>
</svg>
