<?xml version="1.0" encoding="utf-8"?>
<!-- Generator: Adobe Illustrator 26.3.1, SVG Export Plug-In . SVG Version: 6.00 Build 0)  -->
<svg version="1.1" id="Layer_1" xmlns="http://www.w3.org/2000/svg" xmlns:xlink="http://www.w3.org/1999/xlink" x="0px" y="0px"
	 viewBox="0 0 262.3 93.4" style="enable-background:new 0 0 262.3 93.4;" xml:space="preserve">
<g>
	<path d="M53.1,42.1c-0.4,0.1-0.7-0.1-0.7-0.6v-2c0-0.4-0.2-0.7-0.6-0.7l-2-0.2c-0.4-0.1-0.6-0.3-0.6-0.7v-8.5
		c0-0.4,0.2-0.7,0.6-0.9l2-0.8c0.4-0.2,0.7-0.5,0.8-0.9l0.6-2.1c0.1-0.4,0.4-0.7,0.8-0.7l10.7-1.5c0.4-0.1,0.7,0.1,0.7,0.6v2
		c0,0.4,0.2,0.6,0.7,0.6l1.9-0.3c0.4-0.1,0.7,0.1,0.7,0.6v9.3c0,0.4-0.2,0.7-0.6,0.9l-2,0.8c-0.4,0.2-0.7,0.5-0.8,0.9l-0.6,2.1
		c-0.1,0.4-0.4,0.7-0.8,0.7L53.1,42.1z M53.9,38.7l9.8-1.4c0.4-0.1,0.8-0.3,1.1-0.6c0.3-0.3,0.4-0.7,0.4-1.1v-8.5
		c0-0.4-0.1-0.8-0.4-1c-0.3-0.2-0.7-0.3-1.1-0.3l-9.8,1.4c-0.4,0.1-0.8,0.2-1.1,0.6c-0.3,0.3-0.4,0.7-0.4,1.1v8.5
		c0,0.4,0.1,0.8,0.4,1C53.2,38.7,53.5,38.8,53.9,38.7z M52.4,46.3c0-0.4,0.2-0.7,0.7-0.7L63.8,44c0.4-0.1,0.8-0.3,1.1-0.6
		c0.3-0.3,0.4-0.7,0.4-1.1V41c0-0.4,0.2-0.7,0.7-0.7l1.9-0.3c0.4-0.1,0.7,0.1,0.7,0.6v1.2c0,0.4-0.2,0.7-0.6,0.9l-2,0.8
		c-0.4,0.2-0.7,0.5-0.8,0.9l-0.6,2.1c-0.1,0.4-0.4,0.7-0.8,0.7l-10.7,1.5c-0.4,0.1-0.7-0.1-0.7-0.6V46.3z"/>
	<path d="M78,28.6c0-0.4,0.2-0.7,0.7-0.7l9-1.3c0.4-0.1,0.7-0.3,1-0.6c0.3-0.3,0.5-0.7,0.5-1.1v-1.1c0-0.4-0.1-0.8-0.4-1
		c-0.3-0.2-0.7-0.3-1.1-0.3l-9.8,1.4c-0.4,0.1-0.8,0.2-1.1,0.6c-0.3,0.3-0.4,0.7-0.4,1.1V34c0,0.4,0.1,0.7,0.4,1
		c0.3,0.3,0.6,0.4,1.1,0.3l9.8-1.4c0.4-0.1,0.8-0.3,1.1-0.6c0.3-0.3,0.4-0.7,0.4-1.1v-1c0-0.4,0.2-0.7,0.7-0.7l1.9-0.3
		c0.4-0.1,0.7,0.1,0.7,0.6v1c0,0.4-0.2,0.7-0.6,0.9l-2.1,0.8c-0.4,0.2-0.7,0.5-0.8,0.9l-0.6,2.1c-0.1,0.4-0.4,0.7-0.8,0.7l-9.7,1.4
		c-0.4,0.1-0.7-0.1-0.8-0.5l-0.6-2c-0.1-0.4-0.4-0.6-0.8-0.7l-2-0.3c-0.4-0.1-0.6-0.3-0.6-0.7V26c0-0.4,0.2-0.7,0.6-0.9l2-0.8
		c0.4-0.2,0.7-0.5,0.8-0.9l0.6-2.1c0.1-0.4,0.4-0.7,0.8-0.7l9.8-1.4c0.4-0.1,0.7,0.1,0.8,0.5l0.6,2c0.1,0.4,0.4,0.6,0.8,0.7l2,0.2
		c0.4,0.1,0.6,0.3,0.6,0.7v1.9c0,0.4-0.2,0.7-0.7,0.7l-1.7,0.2c-0.4,0.1-0.7,0.3-0.8,0.7l-0.6,2.1c0,0.2-0.1,0.4-0.3,0.5
		c-0.2,0.1-0.3,0.2-0.5,0.2l-9.2,1.3C78.2,31.2,78,31,78,30.6V28.6z"/>
	<path d="M102.9,12.1c0.4-0.1,0.7,0.1,0.7,0.6v2.7c0,0.4-0.2,0.7-0.6,0.9l-2,0.8c-0.4,0.2-0.7,0.5-0.8,0.9l-0.6,2.1
		c-0.1,0.4-0.4,0.7-0.8,0.7l-2,0.3c-0.4,0.1-0.7-0.1-0.7-0.6v-1.9c0-0.4,0.2-0.7,0.7-0.7l2.1-0.3c0.4-0.1,0.8-0.3,1.1-0.6
		c0.3-0.3,0.4-0.7,0.4-1.1v-2.8c0-0.4,0.2-0.7,0.7-0.7L102.9,12.1z M103.7,32.3c-0.1-0.4-0.4-0.6-0.8-0.5l-2,0.3
		c-0.4,0.1-0.7-0.1-0.7-0.6v-9.3c0-0.4,0.2-0.7,0.6-0.9l2-0.8c0.4-0.2,0.7-0.5,0.8-0.9l0.6-2.1c0.1-0.4,0.4-0.7,0.8-0.7l7.4-1
		c0.4-0.1,0.7,0.1,0.7,0.6v1.9c0,0.4-0.2,0.7-0.7,0.7l-7.4,1c-0.4,0.1-0.8,0.3-1.1,0.6c-0.3,0.3-0.4,0.7-0.4,1.1v8.5
		c0,0.4,0.1,0.8,0.4,1c0.3,0.2,0.6,0.3,1,0.3l6.6-0.9c0.4-0.1,0.8-0.2,1.1-0.6c0.3-0.3,0.4-0.7,0.4-1.1v-2.2c0-0.4,0.2-0.7,0.7-0.7
		l1.9-0.3c0.4-0.1,0.7,0.1,0.7,0.6v2.2c0,0.4-0.2,0.7-0.6,0.9l-2.1,0.8c-0.4,0.2-0.7,0.5-0.8,0.9l-0.6,2.1c-0.1,0.4-0.4,0.7-0.8,0.7
		l-6.5,0.9c-0.4,0.1-0.7-0.1-0.8-0.5L103.7,32.3z"/>
	<path d="M126.8,8.8c0.4-0.1,0.7,0.1,0.7,0.6v2.7c0,0.4-0.2,0.7-0.6,0.9l-2,0.8c-0.4,0.2-0.7,0.5-0.8,0.9l-0.6,2.1
		c-0.1,0.4-0.4,0.7-0.8,0.7l-2,0.3c-0.4,0.1-0.7-0.1-0.7-0.6v-1.9c0-0.4,0.2-0.7,0.7-0.7l2.1-0.3c0.4-0.1,0.8-0.3,1.1-0.6
		c0.3-0.3,0.4-0.7,0.4-1.1V9.8c0-0.4,0.2-0.7,0.7-0.7L126.8,8.8z M127.7,29c-0.1-0.4-0.4-0.6-0.8-0.5l-2,0.3
		c-0.4,0.1-0.7-0.1-0.7-0.6v-9.3c0-0.4,0.2-0.7,0.6-0.9l2-0.8c0.4-0.2,0.7-0.5,0.8-0.9l0.6-2.1c0.1-0.4,0.4-0.7,0.8-0.7l7.4-1
		c0.4-0.1,0.7,0.1,0.7,0.6v1.9c0,0.4-0.2,0.7-0.7,0.7l-7.4,1c-0.4,0.1-0.8,0.3-1.1,0.6c-0.3,0.3-0.4,0.7-0.4,1.1v8.5
		c0,0.4,0.1,0.8,0.4,1c0.3,0.2,0.6,0.3,1,0.3l6.6-0.9c0.4-0.1,0.8-0.2,1.1-0.6c0.3-0.3,0.4-0.7,0.4-1.1v-2.2c0-0.4,0.2-0.7,0.7-0.7
		l1.9-0.3c0.4-0.1,0.7,0.1,0.7,0.6V25c0,0.4-0.2,0.7-0.6,0.9l-2.1,0.8c-0.4,0.2-0.7,0.5-0.8,0.9l-0.6,2.1c-0.1,0.4-0.4,0.7-0.8,0.7
		l-6.5,0.9c-0.4,0.1-0.7-0.1-0.8-0.5L127.7,29z"/>
	<path d="M151.4,10.2c0.4-0.1,0.7,0.1,0.8,0.5l0.6,1.9c0.1,0.4,0.4,0.6,0.8,0.5l2-0.3c0.4-0.1,0.7,0.1,0.7,0.6v9.4
		c0,0.4,0.1,0.7,0.4,1c0.3,0.3,0.6,0.4,1.1,0.3l5.9-0.8c0.4-0.1,0.7,0.1,0.7,0.6v1.9c0,0.4-0.2,0.7-0.7,0.7l-5.8,0.8
		c-0.4,0.1-0.7-0.1-0.8-0.5l-0.6-1.9c-0.1-0.4-0.4-0.6-0.8-0.7l-2-0.3c-0.4-0.1-0.6-0.3-0.6-0.7v-8.5c0-0.4-0.1-0.8-0.4-1
		c-0.3-0.2-0.7-0.3-1.1-0.3l-5.9,0.8c-0.4,0.1-0.7-0.1-0.7-0.6v-1.9c0-0.4,0.2-0.7,0.7-0.7L151.4,10.2z M152.3,24.9
		c0.4-0.1,0.7,0.1,0.7,0.6v1.9c0,0.4-0.2,0.7-0.7,0.7l-6.7,0.9c-0.4,0.1-0.7-0.1-0.7-0.6v-1.9c0-0.4,0.2-0.7,0.7-0.7L152.3,24.9z
		 M155.9,8l-2.3,0.3c-0.4,0.1-0.7-0.1-0.7-0.6v-2c0-0.4,0.2-0.7,0.7-0.7l2.3-0.3c0.4-0.1,0.7,0.1,0.7,0.6v2
		C156.5,7.7,156.3,7.9,155.9,8z"/>
	<path d="M185.6,23.5c-0.4,0.1-0.7-0.1-0.7-0.6V10.3c0-0.4-0.1-0.7-0.4-1c-0.3-0.3-0.7-0.4-1.1-0.3l-10.7,1.5
		c-0.4,0.1-0.7,0.3-0.7,0.7v13.4c0,0.4-0.2,0.7-0.7,0.7l-1.9,0.3c-0.4,0.1-0.7-0.1-0.7-0.6V8.4c0-0.4,0.2-0.7,0.7-0.7l13.9-2
		c0.4-0.1,0.7,0.1,0.8,0.5l0.6,2c0.1,0.4,0.4,0.6,0.8,0.7l2,0.3c0.4,0.1,0.6,0.3,0.6,0.7v12.6c0,0.4-0.2,0.7-0.7,0.7L185.6,23.5z"/>
	<path d="M196.7,21.9c-0.4,0.1-0.7-0.1-0.7-0.6v-2c0-0.4-0.2-0.7-0.6-0.7l-2-0.2c-0.4-0.1-0.6-0.3-0.6-0.7V9.2
		c0-0.4,0.2-0.7,0.6-0.9l2-0.8c0.4-0.2,0.7-0.5,0.8-0.9l0.6-2.1c0.1-0.4,0.4-0.7,0.8-0.7l10.7-1.5c0.4-0.1,0.7,0.1,0.7,0.6v2
		c0,0.4,0.2,0.6,0.7,0.6l1.9-0.3c0.4-0.1,0.7,0.1,0.7,0.6v9.3c0,0.4-0.2,0.7-0.6,0.9l-2,0.8c-0.4,0.2-0.7,0.5-0.8,0.9l-0.6,2.1
		c-0.1,0.4-0.4,0.7-0.8,0.7L196.7,21.9z M197.5,18.5l9.8-1.4c0.4-0.1,0.8-0.3,1.1-0.6c0.3-0.3,0.4-0.7,0.4-1.1V6.9
		c0-0.4-0.1-0.8-0.4-1c-0.3-0.2-0.7-0.3-1.1-0.3L197.5,7c-0.4,0.1-0.8,0.2-1.1,0.6c-0.3,0.3-0.4,0.7-0.4,1.1v8.5
		c0,0.4,0.1,0.8,0.4,1C196.8,18.5,197.1,18.6,197.5,18.5z M196,26.1c0-0.4,0.2-0.7,0.7-0.7l10.7-1.5c0.4-0.1,0.8-0.3,1.1-0.6
		c0.3-0.3,0.4-0.7,0.4-1.1v-1.3c0-0.4,0.2-0.7,0.7-0.7l1.9-0.3c0.4-0.1,0.7,0.1,0.7,0.6v1.2c0,0.4-0.2,0.7-0.6,0.9l-2,0.8
		c-0.4,0.2-0.7,0.5-0.8,0.9l-0.6,2.1c-0.1,0.4-0.4,0.7-0.8,0.7l-10.7,1.5c-0.4,0.1-0.7-0.1-0.7-0.6V26.1z"/>
	<path d="M7.8,69.8c0.4-0.1,0.7,0.1,0.8,0.5l0.6,1.9c0.1,0.4,0.4,0.6,0.8,0.5l2-0.3c0.4-0.1,0.7,0.1,0.7,0.6v9.4
		c0,0.4,0.1,0.7,0.4,1c0.3,0.3,0.6,0.4,1.1,0.3l5.9-0.8c0.4-0.1,0.7,0.1,0.7,0.6v1.9c0,0.4-0.2,0.7-0.7,0.7l-5.8,0.8
		c-0.4,0.1-0.7-0.1-0.8-0.5l-0.6-1.9c-0.1-0.4-0.4-0.6-0.8-0.7l-2-0.3c-0.4-0.1-0.6-0.3-0.6-0.7v-8.5c0-0.4-0.1-0.8-0.4-1
		C8.6,73,8.2,73,7.8,73L2,73.8c-0.4,0.1-0.7-0.1-0.7-0.6v-1.9c0-0.4,0.2-0.7,0.7-0.7L7.8,69.8z M8.7,84.4c0.4-0.1,0.7,0.1,0.7,0.6
		v1.9c0,0.4-0.2,0.7-0.7,0.7L2,88.6c-0.4,0.1-0.7-0.1-0.7-0.6v-1.9c0-0.4,0.2-0.7,0.7-0.7L8.7,84.4z M12.3,67.5L10,67.8
		c-0.4,0.1-0.7-0.1-0.7-0.6v-2c0-0.4,0.2-0.7,0.7-0.7l2.3-0.3c0.4-0.1,0.7,0.1,0.7,0.6v2C12.9,67.2,12.7,67.4,12.3,67.5z"/>
	<path d="M42,83c-0.4,0.1-0.7-0.1-0.7-0.6V69.8c0-0.4-0.1-0.7-0.4-1c-0.3-0.3-0.7-0.4-1.1-0.3L29.1,70c-0.4,0.1-0.7,0.3-0.7,0.7
		v13.4c0,0.4-0.2,0.7-0.7,0.7l-1.9,0.3c-0.4,0.1-0.7-0.1-0.7-0.6V68c0-0.4,0.2-0.7,0.7-0.7l13.9-2c0.4-0.1,0.7,0.1,0.8,0.5l0.6,2
		c0.1,0.4,0.4,0.6,0.8,0.7l2,0.3c0.4,0.1,0.6,0.3,0.6,0.7V82c0,0.4-0.2,0.7-0.7,0.7L42,83z"/>
	<path d="M68.5,74.4c0,0.4-0.2,0.7-0.6,0.9l-2,0.8c-0.4,0.2-0.7,0.5-0.8,0.9l-0.6,2.1c-0.1,0.4-0.4,0.7-0.8,0.7L54,81.3
		c-0.4,0.1-0.7-0.1-0.8-0.5l-0.6-2c-0.1-0.4-0.4-0.6-0.8-0.7l-2.1-0.3c-0.4-0.1-0.6-0.3-0.6-0.7v-1c0-0.4,0.2-0.7,0.7-0.7l1.9-0.3
		c0.4-0.1,0.7,0.1,0.7,0.6v1c0,0.4,0.1,0.7,0.4,1c0.3,0.3,0.6,0.4,1.1,0.3l9.8-1.4c0.4-0.1,0.8-0.3,1.1-0.6c0.3-0.3,0.4-0.7,0.4-1.1
		v-1.1c0-0.4-0.2-0.7-0.5-1c-0.3-0.3-0.7-0.4-1-0.3l-10,1.4c-0.4,0.1-0.7-0.1-0.8-0.5l-0.6-2c-0.1-0.4-0.4-0.6-0.8-0.5l-1.7,0.2
		c-0.4,0.1-0.7-0.1-0.7-0.6v-1.9c0-0.4,0.2-0.7,0.6-0.9l2-0.8c0.4-0.2,0.7-0.5,0.8-0.9l0.6-2.1c0.1-0.4,0.4-0.7,0.8-0.7l9.7-1.4
		c0.4-0.1,0.7,0.1,0.8,0.5l0.6,2c0.1,0.4,0.4,0.6,0.8,0.7l2.1,0.3c0.4,0.1,0.6,0.3,0.6,0.7v1c0,0.4-0.2,0.7-0.7,0.7l-1.9,0.3
		c-0.4,0.1-0.7-0.1-0.7-0.6v-1c0-0.4-0.1-0.7-0.4-1c-0.3-0.3-0.7-0.4-1.1-0.3l-9.8,1.4c-0.4,0.1-0.8,0.2-1.1,0.6
		c-0.3,0.3-0.4,0.7-0.4,1.1v1.1c0,0.4,0.2,0.7,0.5,1c0.3,0.3,0.7,0.4,1,0.3l10-1.4c0.2,0,0.4,0,0.5,0.1c0.2,0.1,0.3,0.2,0.3,0.4
		l0.6,2c0.1,0.4,0.4,0.6,0.8,0.5l1.7-0.2c0.4-0.1,0.7,0.1,0.7,0.6V74.4z"/>
	<path d="M89,73.7l-0.6,2.1c-0.1,0.4-0.4,0.7-0.8,0.7L77.9,78c-0.4,0.1-0.7-0.1-0.8-0.5l-0.6-2c-0.1-0.4-0.4-0.6-0.8-0.7l-2-0.3
		c-0.4-0.1-0.6-0.3-0.6-0.7V61.2c0-0.4,0.2-0.7,0.7-0.7l13.9-2c0.4-0.1,0.7,0.1,0.8,0.5l0.6,2c0.1,0.4,0.4,0.6,0.8,0.7l2,0.3
		c0.4,0.1,0.6,0.3,0.6,0.7v8.4c0,0.4-0.2,0.7-0.6,0.9l-2,0.8C89.4,73,89.1,73.3,89,73.7z M76.3,78.8v5.4c0,0.4-0.2,0.7-0.7,0.7
		l-1.9,0.3c-0.4,0.1-0.7-0.1-0.7-0.6v-5.4c0-0.4,0.2-0.7,0.7-0.7l1.9-0.3C76.1,78.2,76.3,78.4,76.3,78.8z M76.3,73.4
		c0,0.4,0.1,0.7,0.4,1c0.3,0.3,0.6,0.4,1.1,0.3l9.8-1.4c0.4-0.1,0.8-0.3,1.1-0.6c0.3-0.3,0.4-0.7,0.4-1.1v-8.5c0-0.4-0.1-0.7-0.4-1
		c-0.3-0.3-0.7-0.4-1.1-0.3L77,63.3c-0.4,0.1-0.7,0.3-0.7,0.7V73.4z"/>
	<path d="M103.5,56.3c0.4-0.1,0.7,0.1,0.8,0.5l0.6,1.9c0.1,0.4,0.4,0.6,0.8,0.5l2-0.3c0.4-0.1,0.7,0.1,0.7,0.6v9.4
		c0,0.4,0.1,0.7,0.4,1c0.3,0.3,0.6,0.4,1.1,0.3l5.9-0.8c0.4-0.1,0.7,0.1,0.7,0.6v1.9c0,0.4-0.2,0.7-0.7,0.7l-5.8,0.8
		c-0.4,0.1-0.7-0.1-0.8-0.5l-0.6-1.9c-0.1-0.4-0.4-0.6-0.8-0.7l-2-0.3c-0.4-0.1-0.6-0.3-0.6-0.7v-8.5c0-0.4-0.1-0.8-0.4-1
		c-0.3-0.2-0.7-0.3-1.1-0.3l-5.9,0.8c-0.4,0.1-0.7-0.1-0.7-0.6v-1.9c0-0.4,0.2-0.7,0.7-0.7L103.5,56.3z M104.4,71
		c0.4-0.1,0.7,0.1,0.7,0.6v1.9c0,0.4-0.2,0.7-0.7,0.7l-6.7,0.9C97.3,75.2,97,75,97,74.6v-1.9c0-0.4,0.2-0.7,0.7-0.7L104.4,71z
		 M108,54l-2.3,0.3c-0.4,0.1-0.7-0.1-0.7-0.6v-2c0-0.4,0.2-0.7,0.7-0.7l2.3-0.3c0.4-0.1,0.7,0.1,0.7,0.6v2
		C108.7,53.7,108.5,54,108,54z"/>
	<path d="M140.3,57.9c0,0.4-0.2,0.7-0.7,0.7l-1.9,0.3c-0.4,0.1-0.7-0.1-0.7-0.6v-1.9c0-0.4-0.1-0.7-0.4-1c-0.3-0.3-0.7-0.4-1.1-0.3
		l-10.7,1.5c-0.4,0.1-0.7,0.3-0.7,0.7v13.4c0,0.4-0.2,0.7-0.7,0.7l-1.9,0.3c-0.4,0.1-0.7-0.1-0.7-0.6V54.5c0-0.4,0.2-0.7,0.7-0.7
		l13.8-1.9c0.4-0.1,0.7,0.1,0.8,0.5l0.6,2c0,0.2,0.1,0.3,0.3,0.4c0.2,0.1,0.3,0.1,0.5,0.1l1.9-0.3c0.4-0.1,0.7,0.1,0.7,0.6V57.9z"/>
	<path d="M164.2,54.5c0,0.4-0.2,0.7-0.7,0.7l-1.9,0.3c-0.4,0.1-0.7-0.1-0.7-0.6V53c0-0.4-0.1-0.7-0.4-1c-0.3-0.3-0.7-0.4-1.1-0.3
		l-9.8,1.4c-0.4,0.1-0.8,0.3-1.1,0.6c-0.3,0.3-0.4,0.7-0.4,1.1v1c0,0.4-0.2,0.7-0.7,0.7l-1.9,0.3c-0.4,0.1-0.7-0.1-0.7-0.6v-1
		c0-0.4,0.2-0.7,0.6-0.9l2.1-0.8c0.4-0.2,0.7-0.5,0.8-0.9l0.6-2.1c0.1-0.4,0.4-0.7,0.8-0.7l9.7-1.4c0.4-0.1,0.7,0.1,0.8,0.5l0.6,2
		c0.1,0.4,0.4,0.6,0.8,0.7l2,0.3c0.4,0.1,0.6,0.3,0.6,0.7V54.5z M164.2,65.2c0,0.4-0.2,0.7-0.7,0.7l-13.9,2
		c-0.4,0.1-0.7-0.1-0.8-0.5l-0.6-2c-0.1-0.4-0.4-0.6-0.8-0.7l-2-0.2c-0.4-0.1-0.6-0.3-0.6-0.7v-1.9c0-0.4,0.2-0.7,0.7-0.7l1.7-0.2
		c0.4-0.1,0.7-0.3,0.8-0.7l0.6-2.1c0.1-0.4,0.4-0.6,0.8-0.7l9.9-1.4c0.4-0.1,0.7,0.1,0.8,0.5l0.6,2c0.1,0.4,0.4,0.6,0.8,0.7l2,0.3
		c0.4,0.1,0.6,0.3,0.6,0.7V65.2z M160.3,63.1c0.4-0.1,0.7-0.3,0.7-0.7v-1.9c0-0.4-0.1-0.7-0.4-1c-0.3-0.3-0.7-0.4-1.1-0.3l-9.8,1.4
		c-0.4,0.1-0.7,0.3-1,0.6c-0.3,0.3-0.5,0.7-0.5,1.1v1.1c0,0.4,0.1,0.8,0.4,1c0.3,0.2,0.6,0.3,1.1,0.3L160.3,63.1z"/>
	<path d="M174.7,41.4c0.4-0.1,0.7,0.1,0.7,0.6v2.7c0,0.4-0.2,0.7-0.6,0.9l-2,0.8c-0.4,0.2-0.7,0.5-0.8,0.9l-0.6,2.1
		c-0.1,0.4-0.4,0.7-0.8,0.7l-2,0.3c-0.4,0.1-0.7-0.1-0.7-0.6v-1.9c0-0.4,0.2-0.7,0.7-0.7l2.1-0.3c0.4-0.1,0.8-0.3,1.1-0.6
		c0.3-0.3,0.4-0.7,0.4-1.1v-2.8c0-0.4,0.2-0.7,0.7-0.7L174.7,41.4z M175.5,61.6c-0.1-0.4-0.4-0.6-0.8-0.5l-2,0.3
		c-0.4,0.1-0.7-0.1-0.7-0.6v-9.3c0-0.4,0.2-0.7,0.6-0.9l2-0.8c0.4-0.2,0.7-0.5,0.8-0.9l0.6-2.1c0.1-0.4,0.4-0.7,0.8-0.7l7.4-1
		c0.4-0.1,0.7,0.1,0.7,0.6v1.9c0,0.4-0.2,0.7-0.7,0.7l-7.4,1c-0.4,0.1-0.8,0.3-1.1,0.6c-0.3,0.3-0.4,0.7-0.4,1.1v8.5
		c0,0.4,0.1,0.8,0.4,1c0.3,0.2,0.6,0.3,1,0.3l6.6-0.9c0.4-0.1,0.8-0.2,1.1-0.6c0.3-0.3,0.4-0.7,0.4-1.1v-2.2c0-0.4,0.2-0.7,0.7-0.7
		l1.9-0.3c0.4-0.1,0.7,0.1,0.7,0.6v2.2c0,0.4-0.2,0.7-0.6,0.9l-2.1,0.8c-0.4,0.2-0.7,0.5-0.8,0.9l-0.6,2.1c-0.1,0.4-0.4,0.7-0.8,0.7
		l-6.5,0.9c-0.4,0.1-0.7-0.1-0.8-0.5L175.5,61.6z"/>
	<path d="M199.3,42.9c0.4-0.1,0.7,0.1,0.8,0.5l0.6,1.9c0.1,0.4,0.4,0.6,0.8,0.5l2-0.3c0.4-0.1,0.7,0.1,0.7,0.6v9.4
		c0,0.4,0.1,0.7,0.4,1c0.3,0.3,0.6,0.4,1.1,0.3l5.9-0.8c0.4-0.1,0.7,0.1,0.7,0.6v1.9c0,0.4-0.2,0.7-0.7,0.7l-5.8,0.8
		c-0.4,0.1-0.7-0.1-0.8-0.5l-0.6-1.9c-0.1-0.4-0.4-0.6-0.8-0.7l-2-0.3c-0.4-0.1-0.6-0.3-0.6-0.7v-8.5c0-0.4-0.1-0.8-0.4-1
		c-0.3-0.2-0.7-0.3-1.1-0.3l-5.9,0.8c-0.4,0.1-0.7-0.1-0.7-0.6v-1.9c0-0.4,0.2-0.7,0.7-0.7L199.3,42.9z M200.2,57.5
		c0.4-0.1,0.7,0.1,0.7,0.6V60c0,0.4-0.2,0.7-0.7,0.7l-6.7,0.9c-0.4,0.1-0.7-0.1-0.7-0.6v-1.9c0-0.4,0.2-0.7,0.7-0.7L200.2,57.5z
		 M203.8,40.6l-2.3,0.3c-0.4,0.1-0.7-0.1-0.7-0.6v-2c0-0.4,0.2-0.7,0.7-0.7l2.3-0.3c0.4-0.1,0.7,0.1,0.7,0.6v2
		C204.4,40.3,204.2,40.5,203.8,40.6z"/>
	<path d="M221.5,57.8c-0.4,0.1-0.7-0.1-0.8-0.5l-0.6-2c-0.1-0.4-0.4-0.6-0.8-0.7l-2-0.2c-0.4-0.1-0.6-0.3-0.6-0.7v-8.4
		c0-0.4,0.2-0.7,0.6-0.9l2-0.8c0.4-0.2,0.7-0.5,0.8-0.9l0.6-2.1c0.1-0.4,0.4-0.7,0.8-0.7l9.7-1.4c0.4-0.1,0.7,0.1,0.8,0.5l0.6,2
		c0.1,0.4,0.4,0.6,0.8,0.7l2.1,0.3c0.4,0.1,0.6,0.3,0.6,0.7v8.4c0,0.4-0.2,0.7-0.6,0.9l-2.1,0.8c-0.4,0.2-0.7,0.5-0.8,0.9l-0.6,2.1
		c-0.1,0.4-0.4,0.7-0.8,0.7L221.5,57.8z M221.5,43c-0.4,0.1-0.8,0.3-1.1,0.6c-0.3,0.3-0.4,0.7-0.4,1.1v8.5c0,0.4,0.1,0.8,0.4,1
		c0.3,0.2,0.6,0.3,1.1,0.3l9.8-1.4c0.4-0.1,0.8-0.2,1.1-0.6c0.3-0.3,0.4-0.7,0.4-1.1v-8.5c0-0.4-0.1-0.7-0.4-1
		c-0.3-0.3-0.7-0.4-1.1-0.3L221.5,43z"/>
	<path d="M257.4,52.7c-0.4,0.1-0.7-0.1-0.7-0.6V39.6c0-0.4-0.1-0.7-0.4-1c-0.3-0.3-0.7-0.4-1.1-0.3l-10.7,1.5
		c-0.4,0.1-0.7,0.3-0.7,0.7V54c0,0.4-0.2,0.7-0.7,0.7l-1.9,0.3c-0.4,0.1-0.7-0.1-0.7-0.6V37.7c0-0.4,0.2-0.7,0.7-0.7l13.9-2
		c0.4-0.1,0.7,0.1,0.8,0.5l0.6,2c0.1,0.4,0.4,0.6,0.8,0.7l2,0.3c0.4,0.1,0.6,0.3,0.6,0.7v12.6c0,0.4-0.2,0.7-0.7,0.7L257.4,52.7z"/>
</g>
</svg>
