<?xml version="1.0" encoding="utf-8"?>
<!-- Generator: Adobe Illustrator 26.3.1, SVG Export Plug-In . SVG Version: 6.00 Build 0)  -->
<svg version="1.1" id="Layer_1" xmlns="http://www.w3.org/2000/svg" xmlns:xlink="http://www.w3.org/1999/xlink" x="0px" y="0px"
	 viewBox="0 0 598.5 338.8" style="enable-background:new 0 0 598.5 338.8;" xml:space="preserve">
<g>
	<path d="M27.6,89.4l23.9-3.8c1-0.2,1.9-0.7,2.6-1.5c0.7-0.8,1.1-1.8,1.1-2.8v-6.7c0-1.1,0.5-1.7,1.6-1.9l4.7-0.7
		c1.1-0.2,1.6,0.3,1.6,1.3V80c0,1.1-0.5,1.8-1.5,2.2l-4.9,2.1c-1,0.4-1.7,1.2-1.9,2.2l-1.4,5.2c-0.3,1.1-0.9,1.7-2,1.8l-23.9,3.8
		c-1,0.2-1.9,0.7-2.6,1.5c-0.7,0.8-1.1,1.8-1.1,2.8v20.6c0,1,0.4,1.8,1.1,2.4c0.7,0.6,1.6,0.8,2.6,0.7l26.1-4.1
		c1.1-0.2,1.6-0.8,1.6-1.9V94.6c0-1.1,0.5-1.7,1.6-1.9l4.7-0.7c1.1-0.2,1.6,0.3,1.6,1.3v32.8c0,1.1-0.5,1.7-1.6,1.9l-33.9,5.4
		c-1.1,0.2-1.7-0.2-2-1.2l-1.4-4.7c-0.3-1-0.9-1.5-1.9-1.6l-4.9-0.6c-1-0.1-1.5-0.7-1.5-1.8v-20.5c0-1.1,0.5-1.8,1.5-2.2l4.9-2.1
		c1-0.4,1.7-1.2,1.9-2.2l1.4-5.1C25.9,90.2,26.5,89.6,27.6,89.4z"/>
	<path d="M86.2,99.7c0-1.1,0.5-1.7,1.6-1.9l22.1-3.5c1-0.2,1.8-0.6,2.6-1.5c0.7-0.8,1.1-1.7,1.1-2.7v-2.8c0-1.1-0.4-1.9-1.1-2.4
		c-0.7-0.6-1.6-0.7-2.6-0.6l-24,3.8c-1,0.2-1.9,0.6-2.6,1.4c-0.7,0.8-1.1,1.7-1.1,2.8V113c0,1,0.4,1.8,1.1,2.4
		c0.7,0.6,1.6,0.8,2.6,0.7l24-3.8c1-0.2,1.9-0.7,2.6-1.5c0.7-0.8,1.1-1.8,1.1-2.8v-2.5c0-1.1,0.5-1.7,1.6-1.9l4.7-0.7
		c1.1-0.2,1.6,0.3,1.6,1.3v2.4c0,1.1-0.5,1.8-1.5,2.2l-5,2.2c-1,0.4-1.7,1.2-1.9,2.2l-1.4,5.2c-0.3,1.1-0.9,1.7-2,1.8L86,124.1
		c-1.1,0.2-1.7-0.2-2-1.2l-1.4-4.7c-0.3-1-0.9-1.5-1.9-1.6l-4.9-0.6c-1-0.1-1.5-0.7-1.5-1.8V93.7c0-1.1,0.5-1.8,1.5-2.2l4.9-2.1
		c1-0.4,1.7-1.2,1.9-2.2L84,82c0.3-1.1,0.9-1.7,2-1.8l23.8-3.8c1.1-0.2,1.7,0.2,2,1.2l1.4,4.7c0.3,1,0.9,1.5,1.9,1.6l4.9,0.5
		c1,0.1,1.5,0.7,1.5,1.8v4.7c0,1.1-0.5,1.7-1.6,1.9l-4.2,0.7c-1.1,0.2-1.7,0.8-2,1.8l-1.4,5.3c-0.1,0.5-0.3,0.9-0.7,1.2
		c-0.4,0.3-0.8,0.5-1.3,0.6l-22.4,3.5c-1.1,0.2-1.6-0.3-1.6-1.3V99.7z"/>
	<path d="M178.2,93.8c1.1-0.2,1.6,0.3,1.6,1.3v2.4c0,1.1-0.5,1.8-1.5,2.2l-5,2.1c-1,0.4-1.7,1.2-1.9,2.2l-1.4,5.2
		c-0.3,1.1-0.9,1.7-2,1.8l-23.7,3.7c-1.1,0.2-1.7-0.2-2-1.2l-1.4-4.7c-0.3-1-0.9-1.5-1.9-1.6l-4.9-0.5c-1-0.1-1.5-0.7-1.5-1.8V84.5
		c0-1.1,0.5-1.8,1.5-2.2l4.9-2.1c1-0.4,1.7-1.2,1.9-2.2l1.4-5.2c0.3-1.1,0.9-1.7,2-1.8l23.7-3.7c1.1-0.2,1.7,0.2,2,1.2l1.4,4.7
		c0.3,1,0.9,1.5,1.9,1.6l5,0.6c1,0.1,1.5,0.7,1.5,1.8v2.4c0,1.1-0.5,1.7-1.6,1.9l-4.7,0.7c-1.1,0.2-1.6-0.3-1.6-1.3v-2.5
		c0-1-0.4-1.8-1.1-2.4c-0.7-0.6-1.6-0.8-2.6-0.7l-24,3.8c-1,0.2-1.9,0.7-2.6,1.5c-0.7,0.8-1.1,1.8-1.1,2.8v20.7
		c0,1.1,0.4,1.9,1.1,2.4c0.7,0.6,1.6,0.7,2.6,0.6l24-3.8c1-0.2,1.9-0.6,2.6-1.4c0.7-0.8,1.1-1.7,1.1-2.8v-2.5c0-1.1,0.5-1.7,1.6-1.9
		L178.2,93.8z"/>
	<path d="M202.9,81.2c0-1.1,0.5-1.7,1.6-1.9l22.1-3.5c1-0.2,1.8-0.6,2.6-1.5c0.7-0.8,1.1-1.7,1.1-2.7v-2.8c0-1.1-0.4-1.9-1.1-2.4
		c-0.7-0.6-1.6-0.7-2.6-0.6l-24,3.8c-1,0.2-1.9,0.6-2.6,1.4c-0.7,0.8-1.1,1.7-1.1,2.8v20.7c0,1,0.4,1.8,1.1,2.4
		c0.7,0.6,1.6,0.8,2.6,0.7l24-3.8c1-0.2,1.9-0.7,2.6-1.5c0.7-0.8,1.1-1.8,1.1-2.8v-2.5c0-1.1,0.5-1.7,1.6-1.9l4.7-0.7
		c1.1-0.2,1.6,0.3,1.6,1.3v2.4c0,1.1-0.5,1.8-1.5,2.2l-5,2.2c-1,0.4-1.7,1.2-1.9,2.2l-1.4,5.2c-0.3,1.1-0.9,1.7-2,1.8l-23.7,3.7
		c-1.1,0.2-1.7-0.2-2-1.2l-1.4-4.7c-0.3-1-0.9-1.5-1.9-1.6l-4.9-0.6c-1-0.1-1.5-0.7-1.5-1.8V75.2c0-1.1,0.5-1.8,1.5-2.2l4.9-2.1
		c1-0.4,1.7-1.2,1.9-2.2l1.4-5.2c0.3-1.1,0.9-1.7,2-1.8l23.8-3.8c1.1-0.2,1.7,0.2,2,1.2l1.4,4.7c0.3,1,0.9,1.5,1.9,1.6l4.9,0.5
		c1,0.1,1.5,0.7,1.5,1.8v4.7c0,1.1-0.5,1.7-1.6,1.9l-4.2,0.7c-1.1,0.2-1.7,0.8-2,1.8l-1.4,5.3c-0.1,0.5-0.3,0.9-0.7,1.2
		c-0.4,0.3-0.8,0.5-1.3,0.6l-22.4,3.5c-1.1,0.2-1.6-0.3-1.6-1.3V81.2z"/>
	<path d="M288.2,85.6l-1.4,5.2c-0.3,1.1-0.9,1.7-2,1.8L261,96.4c-1.1,0.2-1.7-0.2-2-1.2l-1.4-4.7c-0.3-1-0.9-1.5-1.9-1.6l-4.9-0.6
		c-1-0.1-1.5-0.7-1.5-1.8V55.9c0-1.1,0.5-1.7,1.6-1.9l33.9-5.4c1.1-0.2,1.7,0.2,2,1.2l1.4,4.7c0.3,1,0.9,1.5,1.9,1.6l4.9,0.6
		c1,0.1,1.5,0.7,1.5,1.8V79c0,1.1-0.5,1.8-1.5,2.2l-4.9,2.1C289.1,83.8,288.5,84.6,288.2,85.6z M257.3,98.6v13.2
		c0,1.1-0.5,1.7-1.6,1.9l-4.7,0.7c-1.1,0.2-1.6-0.3-1.6-1.3V99.8c0-1.1,0.5-1.7,1.6-1.9l4.7-0.7C256.7,97.1,257.3,97.5,257.3,98.6z
		 M257.3,85.3c0,1,0.4,1.8,1.1,2.4c0.7,0.6,1.6,0.8,2.6,0.7l24-3.8c1-0.2,1.9-0.7,2.6-1.5c0.7-0.8,1.1-1.8,1.1-2.8V59.7
		c0-1-0.4-1.8-1.1-2.4c-0.7-0.6-1.6-0.8-2.6-0.7l-26.1,4.1c-1.1,0.2-1.6,0.8-1.6,1.9V85.3z"/>
	<path d="M322,30.8c1.1-0.2,1.6,0.3,1.6,1.3v6.6c0,1.1-0.5,1.8-1.5,2.2l-5,2.1c-1,0.4-1.7,1.2-1.9,2.2l-1.4,5.1
		c-0.3,1.1-0.9,1.7-2,1.8l-5,0.8c-1.1,0.2-1.6-0.3-1.6-1.3V47c0-1.1,0.5-1.7,1.6-1.9l5-0.8c1-0.2,1.9-0.7,2.6-1.5
		c0.7-0.8,1.1-1.8,1.1-2.8v-6.7c0-1.1,0.5-1.7,1.6-1.9L322,30.8z M324,79.9c-0.3-1-0.9-1.4-2-1.2l-4.8,0.8c-1.1,0.2-1.6-0.3-1.6-1.3
		V55.5c0-1.1,0.5-1.8,1.5-2.2l5-2.1c1-0.4,1.7-1.2,1.9-2.2l1.4-5.1c0.3-1.1,0.9-1.7,2-1.8l18-2.8c1.1-0.2,1.6,0.3,1.6,1.3v4.7
		c0,1.1-0.5,1.7-1.6,1.9l-18.1,2.9c-1,0.2-1.9,0.7-2.6,1.5c-0.7,0.8-1.1,1.8-1.1,2.8v20.8c0,1.1,0.3,1.9,1,2.4
		c0.7,0.6,1.5,0.8,2.6,0.6l16.1-2.5c1-0.2,1.9-0.6,2.6-1.4c0.7-0.8,1.1-1.7,1.1-2.8v-5.4c0-1.1,0.5-1.7,1.6-1.9l4.7-0.7
		c1.1-0.2,1.6,0.3,1.6,1.3v5.4c0,1.1-0.5,1.8-1.5,2.2l-5,2.1c-1,0.4-1.7,1.2-1.9,2.2l-1.4,5.2c-0.3,1.1-0.9,1.7-2,1.8l-15.7,2.5
		c-1.1,0.2-1.7-0.2-2-1.2L324,79.9z"/>
	<path d="M381.9,33.3c1.1-0.2,1.7,0.2,2,1.2l1.4,4.7c0.3,1,0.9,1.4,2,1.2l4.8-0.8c1.1-0.2,1.6,0.3,1.6,1.3v22.9c0,1,0.4,1.8,1.1,2.4
		c0.7,0.6,1.6,0.8,2.6,0.7l14.3-2.3c1.1-0.2,1.6,0.3,1.6,1.3v4.7c0,1.1-0.5,1.7-1.6,1.9l-14.2,2.3c-1.1,0.2-1.7-0.2-2-1.2l-1.4-4.7
		c-0.3-1-0.9-1.5-1.9-1.6l-5-0.6c-1-0.1-1.5-0.7-1.5-1.8V44.3c0-1.1-0.4-1.9-1.1-2.5c-0.7-0.6-1.6-0.8-2.6-0.6l-14.3,2.3
		c-1.1,0.2-1.6-0.3-1.6-1.3v-4.7c0-1.1,0.5-1.7,1.6-1.9L381.9,33.3z M384,69c1.1-0.2,1.6,0.3,1.6,1.3v4.7c0,1.1-0.5,1.7-1.6,1.9
		l-16.4,2.6c-1.1,0.2-1.6-0.3-1.6-1.3v-4.7c0-1.1,0.5-1.7,1.6-1.9L384,69z M392.8,27.6l-5.6,0.9c-1.1,0.2-1.6-0.3-1.6-1.3v-4.8
		c0-1.1,0.5-1.7,1.6-1.9l5.6-0.9c1.1-0.2,1.6,0.3,1.6,1.3v4.8C394.4,26.8,393.9,27.4,392.8,27.6z"/>
	<path d="M432.9,54.8c-0.3-1-0.9-1.5-1.9-1.6l-5-0.5c-1-0.1-1.5-0.7-1.5-1.8V28.1c0-1.1,0.5-1.7,1.6-1.9l4.7-0.7
		c1.1-0.2,1.6,0.3,1.6,1.3v22.9c0,1.1,0.4,1.9,1.1,2.4c0.7,0.6,1.6,0.7,2.6,0.6l4.3-0.7c1.1-0.2,1.6,0.3,1.6,1.3V56
		c0,1,0.4,1.8,1.1,2.5c0.7,0.7,1.6,0.9,2.6,0.7l4.8-0.8c1-0.2,1.9-0.7,2.6-1.6c0.7-0.9,1.1-1.8,1.1-2.8v-2.6c0-1.1,0.5-1.7,1.6-1.9
		L460,49c1-0.2,1.9-0.6,2.6-1.4c0.7-0.8,1.1-1.7,1.1-2.8V21.9c0-1.1,0.5-1.7,1.6-1.9l4.7-0.7c1.1-0.2,1.6,0.3,1.6,1.3v22.8
		c0,1.1-0.5,1.8-1.5,2.2l-5,2.1c-1,0.4-1.7,1.2-1.9,2.2l-1.4,5.2c-0.3,1.1-0.9,1.7-2,1.8l-4.1,0.6c-1.1,0.2-1.7,0.8-2,1.8l-1.4,5.1
		c-0.3,1.1-0.9,1.7-2,1.8l-4.6,0.7c-1.1,0.2-1.7-0.2-2-1.2l-1.4-4.7c-0.3-1-0.9-1.4-2-1.2l-4.1,0.6c-1.1,0.2-1.7-0.2-2-1.2
		L432.9,54.8z"/>
	<path d="M494.7,35c0-1.1,0.5-1.7,1.6-1.9l22.1-3.5c1-0.2,1.8-0.6,2.6-1.5c0.7-0.8,1.1-1.7,1.1-2.7v-2.8c0-1.1-0.4-1.9-1.1-2.4
		c-0.7-0.6-1.6-0.7-2.6-0.6l-24,3.8c-1,0.2-1.9,0.6-2.6,1.4c-0.7,0.8-1.1,1.7-1.1,2.8v20.7c0,1,0.4,1.8,1.1,2.4
		c0.7,0.6,1.6,0.8,2.6,0.7l24-3.8c1-0.2,1.9-0.7,2.6-1.5c0.7-0.8,1.1-1.8,1.1-2.8v-2.5c0-1.1,0.5-1.7,1.6-1.9l4.7-0.7
		c1.1-0.2,1.6,0.3,1.6,1.3v2.4c0,1.1-0.5,1.8-1.5,2.2l-5,2.2c-1,0.4-1.7,1.2-1.9,2.2l-1.4,5.2c-0.3,1.1-0.9,1.7-2,1.8l-23.7,3.7
		c-1.1,0.2-1.7-0.2-2-1.2l-1.4-4.7c-0.3-1-0.9-1.5-1.9-1.6l-4.9-0.6c-1-0.1-1.5-0.7-1.5-1.8V29c0-1.1,0.5-1.8,1.5-2.2l4.9-2.1
		c1-0.4,1.7-1.2,1.9-2.2l1.4-5.2c0.3-1.1,0.9-1.7,2-1.8l23.8-3.8c1.1-0.2,1.7,0.2,2,1.2l1.4,4.7c0.3,1,0.9,1.5,1.9,1.6l4.9,0.5
		c1,0.1,1.5,0.7,1.5,1.8v4.7c0,1.1-0.5,1.7-1.6,1.9l-4.2,0.7c-1.1,0.2-1.7,0.8-2,1.8l-1.4,5.3c-0.1,0.5-0.3,0.9-0.7,1.2
		c-0.4,0.3-0.8,0.5-1.3,0.6l-22.4,3.5c-1.1,0.2-1.6-0.3-1.6-1.3V35z"/>
	<path d="M31.8,184.7c1.1-0.2,1.7,0.2,2,1.2l1.4,4.7c0.3,1,0.9,1.4,2,1.2l4.8-0.8c1.1-0.2,1.6,0.3,1.6,1.3v22.9c0,1,0.4,1.8,1.1,2.4
		c0.7,0.6,1.6,0.8,2.6,0.7l14.3-2.3c1.1-0.2,1.6,0.3,1.6,1.3v4.7c0,1.1-0.5,1.7-1.6,1.9l-14.2,2.3c-1.1,0.2-1.7-0.2-2-1.2l-1.4-4.7
		c-0.3-1-0.9-1.5-1.9-1.6l-5-0.6c-1-0.1-1.5-0.7-1.5-1.8v-20.7c0-1.1-0.4-1.9-1.1-2.5c-0.7-0.6-1.6-0.8-2.6-0.6l-14.3,2.3
		c-1.1,0.2-1.6-0.3-1.6-1.3v-4.7c0-1.1,0.5-1.7,1.6-1.9L31.8,184.7z M33.9,220.4c1.1-0.2,1.6,0.3,1.6,1.3v4.7c0,1.1-0.5,1.7-1.6,1.9
		l-16.4,2.6c-1.1,0.2-1.6-0.3-1.6-1.3v-4.7c0-1.1,0.5-1.7,1.6-1.9L33.9,220.4z M42.7,178.9l-5.6,0.9c-1.1,0.2-1.6-0.3-1.6-1.3v-4.8
		c0-1.1,0.5-1.7,1.6-1.9l5.6-0.9c1.1-0.2,1.6,0.3,1.6,1.3v4.8C44.3,178.2,43.8,178.8,42.7,178.9z"/>
	<path d="M115.1,215.4c-1.1,0.2-1.6-0.3-1.6-1.3v-30.7c0-1-0.4-1.8-1.1-2.4c-0.7-0.6-1.6-0.8-2.6-0.7l-26.1,4.1
		c-1.1,0.2-1.6,0.8-1.6,1.9V219c0,1.1-0.5,1.7-1.6,1.9l-4.7,0.7c-1.1,0.2-1.6-0.3-1.6-1.3v-40.8c0-1.1,0.5-1.7,1.6-1.9l33.9-5.4
		c1.1-0.2,1.7,0.2,2,1.2l1.4,4.7c0.3,1,0.9,1.5,1.9,1.6l4.9,0.6c1,0.1,1.5,0.7,1.5,1.8v30.6c0,1.1-0.5,1.7-1.6,1.9L115.1,215.4z"/>
	<path d="M146.9,154.4c1.1-0.2,1.6,0.3,1.6,1.3v6.6c0,1.1-0.5,1.8-1.5,2.2l-5,2.1c-1,0.4-1.7,1.2-1.9,2.2l-1.4,5.1
		c-0.3,1.1-0.9,1.7-2,1.8l-5,0.8c-1.1,0.2-1.6-0.3-1.6-1.3v-4.7c0-1.1,0.5-1.7,1.6-1.9l5-0.8c1-0.2,1.9-0.7,2.6-1.5
		c0.7-0.8,1.1-1.8,1.1-2.8V157c0-1.1,0.5-1.7,1.6-1.9L146.9,154.4z M148.9,203.6c-0.3-1-0.9-1.4-2-1.2l-4.8,0.8
		c-1.1,0.2-1.6-0.3-1.6-1.3v-22.7c0-1.1,0.5-1.8,1.5-2.2l5-2.1c1-0.4,1.7-1.2,1.9-2.2l1.4-5.1c0.3-1.1,0.9-1.7,2-1.8l18-2.8
		c1.1-0.2,1.6,0.3,1.6,1.3v4.7c0,1.1-0.5,1.7-1.6,1.9l-18.1,2.9c-1,0.2-1.9,0.7-2.6,1.5c-0.7,0.8-1.1,1.8-1.1,2.8v20.8
		c0,1.1,0.3,1.9,1,2.4c0.7,0.6,1.5,0.8,2.6,0.6l16.1-2.5c1-0.2,1.9-0.6,2.6-1.4c0.7-0.8,1.1-1.7,1.1-2.8v-5.4c0-1.1,0.5-1.7,1.6-1.9
		l4.7-0.7c1.1-0.2,1.6,0.3,1.6,1.3v5.4c0,1.1-0.5,1.8-1.5,2.2l-5,2.1c-1,0.4-1.7,1.2-1.9,2.2l-1.4,5.2c-0.3,1.1-0.9,1.7-2,1.8
		l-15.7,2.5c-1.1,0.2-1.7-0.2-2-1.2L148.9,203.6z"/>
	<path d="M202.9,177.1c0-1.1,0.5-1.7,1.6-1.9l22.1-3.5c1-0.2,1.8-0.6,2.6-1.5c0.7-0.8,1.1-1.7,1.1-2.7v-2.8c0-1.1-0.4-1.9-1.1-2.4
		c-0.7-0.6-1.6-0.7-2.6-0.6l-24,3.8c-1,0.2-1.9,0.6-2.6,1.4c-0.7,0.8-1.1,1.7-1.1,2.8v20.7c0,1,0.4,1.8,1.1,2.4
		c0.7,0.6,1.6,0.8,2.6,0.7l24-3.8c1-0.2,1.9-0.7,2.6-1.5c0.7-0.8,1.1-1.8,1.1-2.8V183c0-1.1,0.5-1.7,1.6-1.9l4.7-0.7
		c1.1-0.2,1.6,0.3,1.6,1.3v2.4c0,1.1-0.5,1.8-1.5,2.2l-5,2.2c-1,0.4-1.7,1.2-1.9,2.2l-1.4,5.2c-0.3,1.1-0.9,1.7-2,1.8l-23.7,3.7
		c-1.1,0.2-1.7-0.2-2-1.2l-1.4-4.7c-0.3-1-0.9-1.5-1.9-1.6l-4.9-0.6c-1-0.1-1.5-0.7-1.5-1.8v-20.5c0-1.1,0.5-1.8,1.5-2.2l4.9-2.1
		c1-0.4,1.7-1.2,1.9-2.2l1.4-5.2c0.3-1.1,0.9-1.7,2-1.8l23.8-3.8c1.1-0.2,1.7,0.2,2,1.2l1.4,4.7c0.3,1,0.9,1.5,1.9,1.6l4.9,0.5
		c1,0.1,1.5,0.7,1.5,1.8v4.7c0,1.1-0.5,1.7-1.6,1.9l-4.2,0.7c-1.1,0.2-1.7,0.8-2,1.8l-1.4,5.3c-0.1,0.5-0.3,0.9-0.7,1.2
		c-0.4,0.3-0.8,0.5-1.3,0.6l-22.4,3.5c-1.1,0.2-1.6-0.3-1.6-1.3V177.1z"/>
	<path d="M296.5,159.1c0,1.1-0.5,1.7-1.6,1.9l-4.7,0.7c-1.1,0.2-1.6-0.3-1.6-1.3v-4.7c0-1-0.4-1.8-1.1-2.4c-0.7-0.6-1.6-0.8-2.6-0.7
		l-26.1,4.1c-1.1,0.2-1.6,0.8-1.6,1.9v32.8c0,1.1-0.5,1.7-1.6,1.9l-4.7,0.7c-1.1,0.2-1.6-0.3-1.6-1.3v-40.8c0-1.1,0.5-1.7,1.6-1.9
		l33.7-5.3c1-0.2,1.7,0.2,2,1.2l1.4,4.7c0.1,0.5,0.4,0.8,0.8,1c0.4,0.2,0.8,0.3,1.3,0.2l4.7-0.7c1.1-0.2,1.6,0.3,1.6,1.3V159.1z"/>
	<path d="M320.2,136.5c0-1.1,0.5-1.7,1.6-1.9l4.8-0.8c1.1-0.2,1.7-0.8,2-1.8l1.4-5.1c0.3-1.1,0.9-1.7,2-1.8l21.3-3.4
		c1.1-0.2,1.6,0.3,1.6,1.3v4.7c0,1.1-0.5,1.7-1.6,1.9l-21.4,3.4c-1,0.2-1.9,0.6-2.6,1.4c-0.7,0.8-1.1,1.7-1.1,2.8v4.6
		c0,1.1-0.5,1.8-1.5,2.2l-5,2.1c-1,0.4-1.7,1.2-1.9,2.2l-1.4,5.1c-0.3,1.1-0.9,1.7-2,1.8l-7.1,1.1c-1.1,0.2-1.6-0.3-1.6-1.3v-4.7
		c0-1.1,0.5-1.7,1.6-1.9l7.2-1.1c1-0.2,1.9-0.7,2.6-1.5c0.7-0.8,1.1-1.8,1.1-2.8V136.5z M321.8,182.7c-1.1,0.2-1.6-0.3-1.6-1.3
		v-22.8c0-1.1,0.5-1.8,1.5-2.2l5-2.1c1-0.4,1.7-1.2,1.9-2.2l1.4-5.1c0.3-1.1,0.9-1.7,2-1.8l17.3-2.7c1.1-0.2,1.6,0.3,1.6,1.3v4.7
		c0,1.1-0.5,1.7-1.6,1.9l-17.4,2.8c-1,0.2-1.9,0.7-2.6,1.5c-0.7,0.8-1.1,1.8-1.1,2.8v22.9c0,1.1-0.5,1.7-1.6,1.9L321.8,182.7z"/>
	<path d="M413.2,140.6c0,1.1-0.5,1.7-1.6,1.9l-4.7,0.7c-1.1,0.2-1.6-0.3-1.6-1.3v-4.7c0-1-0.4-1.8-1.1-2.4c-0.7-0.6-1.6-0.8-2.6-0.7
		l-24,3.8c-1,0.2-1.9,0.7-2.6,1.5c-0.7,0.8-1.1,1.8-1.1,2.8v2.5c0,1.1-0.5,1.7-1.6,1.9l-4.7,0.7c-1.1,0.2-1.6-0.3-1.6-1.3v-2.4
		c0-1.1,0.5-1.8,1.5-2.2l5-2.2c1-0.4,1.7-1.2,1.9-2.2l1.4-5.2c0.3-1.1,0.9-1.7,2-1.8l23.7-3.7c1.1-0.2,1.7,0.2,2,1.2l1.4,4.7
		c0.3,1,0.9,1.5,1.9,1.6l4.9,0.6c1,0.1,1.5,0.7,1.5,1.8V140.6z M413.2,166.6c0,1.1-0.5,1.7-1.6,1.9l-33.9,5.4
		c-1.1,0.2-1.7-0.2-2-1.2l-1.4-4.7c-0.3-1-0.9-1.5-1.9-1.6l-4.9-0.5c-1-0.1-1.5-0.7-1.5-1.8v-4.7c0-1.1,0.5-1.7,1.6-1.9l4.2-0.7
		c1.1-0.2,1.7-0.8,2-1.8l1.4-5.3c0.3-1,0.9-1.6,2-1.8l24.2-3.8c1.1-0.2,1.7,0.2,2,1.2l1.4,4.7c0.3,1,0.9,1.5,1.9,1.6l4.9,0.6
		c1,0.1,1.5,0.7,1.5,1.8V166.6z M403.7,161.7c1.1-0.2,1.6-0.8,1.6-1.9v-4.7c0-1-0.4-1.8-1.1-2.4c-0.7-0.6-1.6-0.8-2.6-0.7l-24,3.8
		c-1,0.2-1.8,0.6-2.6,1.5c-0.7,0.8-1.1,1.7-1.1,2.7v2.8c0,1.1,0.4,1.9,1.1,2.4c0.7,0.6,1.6,0.7,2.6,0.6L403.7,161.7z"/>
	<path d="M470,143.6c1.1-0.2,1.6,0.3,1.6,1.3v2.4c0,1.1-0.5,1.8-1.5,2.2l-5,2.1c-1,0.4-1.7,1.2-1.9,2.2l-1.4,5.2
		c-0.3,1.1-0.9,1.7-2,1.8l-23.7,3.7c-1.1,0.2-1.7-0.2-2-1.2l-1.4-4.7c-0.3-1-0.9-1.5-1.9-1.6l-4.9-0.5c-1-0.1-1.5-0.7-1.5-1.8v-20.5
		c0-1.1,0.5-1.8,1.5-2.2l4.9-2.1c1-0.4,1.7-1.2,1.9-2.2l1.4-5.2c0.3-1.1,0.9-1.7,2-1.8l23.7-3.7c1.1-0.2,1.7,0.2,2,1.2l1.4,4.7
		c0.3,1,0.9,1.5,1.9,1.6l5,0.6c1,0.1,1.5,0.7,1.5,1.8v2.4c0,1.1-0.5,1.7-1.6,1.9l-4.7,0.7c-1.1,0.2-1.6-0.3-1.6-1.3v-2.5
		c0-1-0.4-1.8-1.1-2.4c-0.7-0.6-1.6-0.8-2.6-0.7l-24,3.8c-1,0.2-1.9,0.7-2.6,1.5c-0.7,0.8-1.1,1.8-1.1,2.8v20.7
		c0,1.1,0.4,1.9,1.1,2.4c0.7,0.6,1.6,0.7,2.6,0.6l24-3.8c1-0.2,1.9-0.6,2.6-1.4c0.7-0.8,1.1-1.7,1.1-2.8v-2.5c0-1.1,0.5-1.7,1.6-1.9
		L470,143.6z"/>
	<path d="M494.7,130.9c0-1.1,0.5-1.7,1.6-1.9l22.1-3.5c1-0.2,1.8-0.6,2.6-1.5c0.7-0.8,1.1-1.7,1.1-2.7v-2.8c0-1.1-0.4-1.9-1.1-2.4
		c-0.7-0.6-1.6-0.7-2.6-0.6l-24,3.8c-1,0.2-1.9,0.6-2.6,1.4c-0.7,0.8-1.1,1.7-1.1,2.8v20.7c0,1,0.4,1.8,1.1,2.4
		c0.7,0.6,1.6,0.8,2.6,0.7l24-3.8c1-0.2,1.9-0.7,2.6-1.5c0.7-0.8,1.1-1.8,1.1-2.8v-2.5c0-1.1,0.5-1.7,1.6-1.9l4.7-0.7
		c1.1-0.2,1.6,0.3,1.6,1.3v2.4c0,1.1-0.5,1.8-1.5,2.2l-5,2.2c-1,0.4-1.7,1.2-1.9,2.2l-1.4,5.2c-0.3,1.1-0.9,1.7-2,1.8l-23.7,3.7
		c-1.1,0.2-1.7-0.2-2-1.2l-1.4-4.7c-0.3-1-0.9-1.5-1.9-1.6l-4.9-0.6c-1-0.1-1.5-0.7-1.5-1.8v-20.5c0-1.1,0.5-1.8,1.5-2.2l4.9-2.1
		c1-0.4,1.7-1.2,1.9-2.2l1.4-5.2c0.3-1.1,0.9-1.7,2-1.8l23.8-3.8c1.1-0.2,1.7,0.2,2,1.2l1.4,4.7c0.3,1,0.9,1.5,1.9,1.6l4.9,0.5
		c1,0.1,1.5,0.7,1.5,1.8v4.7c0,1.1-0.5,1.7-1.6,1.9l-4.2,0.7c-1.1,0.2-1.7,0.8-2,1.8l-1.4,5.3c-0.1,0.5-0.3,0.9-0.7,1.2
		c-0.4,0.3-0.8,0.5-1.3,0.6l-22.4,3.5c-1.1,0.2-1.6-0.3-1.6-1.3V130.9z"/>
	<path d="M588.3,128.7c0,1.1-0.5,1.8-1.5,2.2l-4.9,2.1c-1,0.4-1.7,1.2-1.9,2.2l-1.4,5.2c-0.3,1.1-0.9,1.7-2,1.8l-23.7,3.7
		c-1.1,0.2-1.7-0.2-2-1.2l-1.4-4.7c-0.3-1-0.9-1.5-1.9-1.6l-5-0.6c-1-0.1-1.5-0.7-1.5-1.8v-2.4c0-1.1,0.5-1.7,1.6-1.9l4.7-0.7
		c1.1-0.2,1.6,0.3,1.6,1.3v2.5c0,1,0.4,1.8,1.1,2.4c0.7,0.6,1.6,0.8,2.6,0.7l24-3.8c1-0.2,1.9-0.7,2.6-1.5c0.7-0.8,1.1-1.8,1.1-2.8
		v-2.7c0-1-0.4-1.7-1.1-2.3c-0.7-0.6-1.6-0.8-2.6-0.7l-24.3,3.8c-1.1,0.2-1.7-0.2-2-1.1l-1.4-4.8c-0.3-1-0.9-1.4-2-1.2l-4.2,0.7
		c-1.1,0.2-1.6-0.3-1.6-1.3v-4.7c0-1.1,0.5-1.8,1.5-2.2l4.9-2.1c1-0.4,1.7-1.2,1.9-2.2l1.4-5.2c0.3-1.1,0.9-1.7,2-1.8l23.7-3.7
		c1.1-0.2,1.7,0.2,2,1.2l1.4,4.7c0.3,1,0.9,1.5,1.9,1.6l5,0.6c1,0.1,1.5,0.7,1.5,1.8v2.4c0,1.1-0.5,1.7-1.6,1.9l-4.7,0.7
		c-1.1,0.2-1.6-0.3-1.6-1.3v-2.5c0-1-0.4-1.8-1.1-2.4c-0.7-0.6-1.6-0.8-2.6-0.7l-24,3.8c-1,0.2-1.9,0.6-2.6,1.4
		c-0.7,0.8-1.1,1.7-1.1,2.8v2.8c0,1,0.4,1.7,1.1,2.3c0.7,0.6,1.6,0.8,2.6,0.7l24.3-3.8c0.5-0.1,0.9,0,1.3,0.2c0.4,0.2,0.6,0.5,0.7,1
		l1.4,4.8c0.3,1,0.9,1.4,2,1.2l4.2-0.7c1.1-0.2,1.6,0.3,1.6,1.3V128.7z"/>
	<path d="M28.4,278.7c0-1.1,0.5-1.7,1.6-1.9l4.8-0.8c1.1-0.2,1.7-0.8,2-1.8l1.4-5.1c0.3-1.1,0.9-1.7,2-1.8l21.3-3.4
		c1.1-0.2,1.6,0.3,1.6,1.3v4.7c0,1.1-0.5,1.7-1.6,1.9l-21.4,3.4c-1,0.2-1.9,0.6-2.6,1.4c-0.7,0.8-1.1,1.7-1.1,2.8v4.6
		c0,1.1-0.5,1.8-1.5,2.2l-5,2.1c-1,0.4-1.7,1.2-1.9,2.2l-1.4,5.1c-0.3,1.1-0.9,1.7-2,1.8l-7.1,1.1c-1.1,0.2-1.6-0.3-1.6-1.3v-4.7
		c0-1.1,0.5-1.7,1.6-1.9l7.2-1.1c1-0.2,1.9-0.7,2.6-1.5c0.7-0.8,1.1-1.8,1.1-2.8V278.7z M30,324.8c-1.1,0.2-1.6-0.3-1.6-1.3v-22.8
		c0-1.1,0.5-1.8,1.5-2.2l5-2.1c1-0.4,1.7-1.2,1.9-2.2l1.4-5.1c0.3-1.1,0.9-1.7,2-1.8l17.3-2.7c1.1-0.2,1.6,0.3,1.6,1.3v4.7
		c0,1.1-0.5,1.7-1.6,1.9l-17.4,2.8c-1,0.2-1.9,0.7-2.6,1.5c-0.7,0.8-1.1,1.8-1.1,2.8v22.9c0,1.1-0.5,1.7-1.6,1.9L30,324.8z"/>
	<path d="M121.4,282.8c0,1.1-0.5,1.7-1.6,1.9l-4.7,0.7c-1.1,0.2-1.6-0.3-1.6-1.3v-4.7c0-1-0.4-1.8-1.1-2.4c-0.7-0.6-1.6-0.8-2.6-0.7
		l-26.1,4.1c-1.1,0.2-1.6,0.8-1.6,1.9V315c0,1.1-0.5,1.7-1.6,1.9l-4.7,0.7c-1.1,0.2-1.6-0.3-1.6-1.3v-40.8c0-1.1,0.5-1.7,1.6-1.9
		l33.7-5.3c1-0.2,1.7,0.2,2,1.2l1.4,4.7c0.1,0.5,0.4,0.8,0.8,1c0.4,0.2,0.8,0.3,1.3,0.2l4.7-0.7c1.1-0.2,1.6,0.3,1.6,1.3V282.8z"/>
	<path d="M179.8,273.5c0,1.1-0.5,1.7-1.6,1.9l-4.7,0.7c-1.1,0.2-1.6-0.3-1.6-1.3v-4.7c0-1-0.4-1.8-1.1-2.4c-0.7-0.6-1.6-0.8-2.6-0.7
		l-24,3.8c-1,0.2-1.9,0.7-2.6,1.5c-0.7,0.8-1.1,1.8-1.1,2.8v2.5c0,1.1-0.5,1.7-1.6,1.9l-4.7,0.7c-1.1,0.2-1.6-0.3-1.6-1.3v-2.4
		c0-1.1,0.5-1.8,1.5-2.2l5-2.2c1-0.4,1.7-1.2,1.9-2.2l1.4-5.2c0.3-1.1,0.9-1.7,2-1.8l23.7-3.7c1.1-0.2,1.7,0.2,2,1.2l1.4,4.7
		c0.3,1,0.9,1.5,1.9,1.6l4.9,0.6c1,0.1,1.5,0.7,1.5,1.8V273.5z M179.8,299.5c0,1.1-0.5,1.7-1.6,1.9l-33.9,5.4
		c-1.1,0.2-1.7-0.2-2-1.2l-1.4-4.7c-0.3-1-0.9-1.5-1.9-1.6l-4.9-0.5c-1-0.1-1.5-0.7-1.5-1.8v-4.7c0-1.1,0.5-1.7,1.6-1.9l4.2-0.7
		c1.1-0.2,1.7-0.8,2-1.8l1.4-5.3c0.3-1,0.9-1.6,2-1.8l24.2-3.8c1.1-0.2,1.7,0.2,2,1.2l1.4,4.7c0.3,1,0.9,1.5,1.9,1.6l4.9,0.6
		c1,0.1,1.5,0.7,1.5,1.8V299.5z M170.3,294.6c1.1-0.2,1.6-0.8,1.6-1.9v-4.7c0-1-0.4-1.8-1.1-2.4c-0.7-0.6-1.6-0.8-2.6-0.7l-24,3.8
		c-1,0.2-1.8,0.6-2.6,1.5c-0.7,0.8-1.1,1.7-1.1,2.7v2.8c0,1.1,0.4,1.9,1.1,2.4c0.7,0.6,1.6,0.7,2.6,0.6L170.3,294.6z"/>
	<path d="M218.6,262.7v12.7c0,1.1-0.5,1.7-1.6,1.9l-4.6,0.7c-0.5,0.1-0.9,0-1.2-0.3c-0.3-0.2-0.5-0.6-0.5-1.1v-12.8
		c0-1-0.4-1.8-1.1-2.4c-0.7-0.6-1.6-0.8-2.6-0.7l-6.4,1c-0.5,0.1-0.9,0.3-1.2,0.7c-0.3,0.4-0.4,0.8-0.4,1.3v32.8
		c0,1.1-0.5,1.7-1.6,1.9l-4.7,0.7c-1.1,0.2-1.6-0.3-1.6-1.3V257c0-1.1,0.5-1.7,1.6-1.9l14.2-2.3c1.1-0.2,1.7,0.2,2,1.2l1.4,4.7
		c0.3,1,0.9,1.5,1.9,1.6l5,0.6C218.1,261,218.6,261.6,218.6,262.7z M238.2,259.7v30.6c0,1.1-0.5,1.7-1.6,1.9l-4.7,0.7
		c-1.1,0.2-1.6-0.3-1.6-1.3v-30.7c0-1-0.4-1.8-1.1-2.5c-0.7-0.6-1.6-0.9-2.6-0.7l-6.4,1c-1.1,0.2-1.6-0.3-1.6-1.3v-4.7
		c0-1.1,0.5-1.7,1.6-1.9l6.3-1c1.1-0.2,1.7,0.2,2,1.2l1.4,4.7c0.3,1,0.9,1.5,1.9,1.6l4.9,0.6C237.7,258,238.2,258.6,238.2,259.7z"/>
	<path d="M261.3,263.8c0-1.1,0.5-1.7,1.6-1.9l22.1-3.5c1-0.2,1.8-0.6,2.6-1.5c0.7-0.8,1.1-1.7,1.1-2.7v-2.8c0-1.1-0.4-1.9-1.1-2.4
		c-0.7-0.6-1.6-0.7-2.6-0.6l-24,3.8c-1,0.2-1.9,0.6-2.6,1.4c-0.7,0.8-1.1,1.7-1.1,2.8v20.7c0,1,0.4,1.8,1.1,2.4
		c0.7,0.6,1.6,0.8,2.6,0.7l24-3.8c1-0.2,1.9-0.7,2.6-1.5c0.7-0.8,1.1-1.8,1.1-2.8v-2.5c0-1.1,0.5-1.7,1.6-1.9l4.7-0.7
		c1.1-0.2,1.6,0.3,1.6,1.3v2.4c0,1.1-0.5,1.8-1.5,2.2l-5,2.2c-1,0.4-1.7,1.2-1.9,2.2l-1.4,5.2c-0.3,1.1-0.9,1.7-2,1.8l-23.7,3.7
		c-1.1,0.2-1.7-0.2-2-1.2l-1.4-4.7c-0.3-1-0.9-1.5-1.9-1.6l-4.9-0.6c-1-0.1-1.5-0.7-1.5-1.8v-20.5c0-1.1,0.5-1.8,1.5-2.2l4.9-2.1
		c1-0.4,1.7-1.2,1.9-2.2l1.4-5.2c0.3-1.1,0.9-1.7,2-1.8l23.8-3.8c1.1-0.2,1.7,0.2,2,1.2l1.4,4.7c0.3,1,0.9,1.5,1.9,1.6l4.9,0.5
		c1,0.1,1.5,0.7,1.5,1.8v4.7c0,1.1-0.5,1.7-1.6,1.9l-4.2,0.7c-1.1,0.2-1.7,0.8-2,1.8l-1.4,5.3c-0.1,0.5-0.3,0.9-0.7,1.2
		c-0.4,0.3-0.8,0.5-1.3,0.6l-22.4,3.5c-1.1,0.2-1.6-0.3-1.6-1.3V263.8z"/>
	<path d="M307.7,269.2v-30.7c0-1.1,0.5-1.7,1.6-1.9l4.7-0.7c1.1-0.2,1.6,0.3,1.6,1.3v30.9c0,1.1,0.4,1.9,1.1,2.4
		c0.7,0.6,1.6,0.7,2.6,0.6l6.4-1c1.1-0.2,1.6,0.3,1.6,1.3v4.7c0,1.1-0.5,1.7-1.6,1.9l-6.2,1c-1.1,0.2-1.7-0.2-2-1.2l-1.4-4.7
		c-0.3-1-0.9-1.5-1.9-1.6l-5-0.5C308.2,270.8,307.7,270.3,307.7,269.2z M354.9,261.7c0,1.1-0.5,1.8-1.5,2.2l-5,2.1
		c-1,0.4-1.7,1.2-1.9,2.2l-1.4,5.2c-0.3,1.1-0.9,1.7-2,1.8l-4,0.6c-1.1,0.2-1.7-0.2-2-1.2l-1.4-4.7c-0.3-1-0.9-1.5-1.9-1.6l-5-0.6
		c-1-0.1-1.4-0.7-1.4-1.8v-18.7c0-1.1,0.5-1.7,1.6-1.9l4.7-0.7c1.1-0.2,1.6,0.3,1.6,1.3v18.8c0,1,0.4,1.8,1.1,2.4
		c0.7,0.6,1.6,0.8,2.6,0.7l4.3-0.7c1-0.2,1.9-0.6,2.6-1.4c0.7-0.8,1.1-1.7,1.1-2.8v-30.9c0-1.1,0.5-1.7,1.6-1.9l4.7-0.7
		c1.1-0.2,1.6,0.3,1.6,1.3V261.7z"/>
	<path d="M377.7,269.8c-1.1,0.2-1.7-0.2-2-1.2l-1.4-4.7c-0.3-1-0.9-1.5-1.9-1.6l-4.9-0.5c-1-0.1-1.5-0.7-1.5-1.8v-20.5
		c0-1.1,0.5-1.8,1.5-2.2l4.9-2.1c1-0.4,1.7-1.2,1.9-2.2l1.4-5.2c0.3-1.1,0.9-1.7,2-1.8l23.7-3.7c1.1-0.2,1.7,0.2,2,1.2l1.4,4.7
		c0.3,1,0.9,1.5,1.9,1.6l5,0.6c1,0.1,1.5,0.7,1.5,1.8v20.5c0,1.1-0.5,1.8-1.5,2.2l-5,2.1c-1,0.4-1.7,1.2-1.9,2.2l-1.4,5.2
		c-0.3,1.1-0.9,1.7-2,1.8L377.7,269.8z M377.7,233.8c-1,0.2-1.9,0.7-2.6,1.5c-0.7,0.8-1.1,1.8-1.1,2.8v20.7c0,1.1,0.4,1.9,1.1,2.4
		c0.7,0.6,1.6,0.7,2.6,0.6l24-3.8c1-0.2,1.9-0.6,2.6-1.4c0.7-0.8,1.1-1.7,1.1-2.8v-20.7c0-1-0.4-1.8-1.1-2.4
		c-0.7-0.6-1.6-0.8-2.6-0.7L377.7,233.8z"/>
	<path d="M471.6,227.3c0,1.1-0.5,1.7-1.6,1.9l-4.7,0.7c-1.1,0.2-1.6-0.3-1.6-1.3v-4.7c0-1-0.4-1.8-1.1-2.4c-0.7-0.6-1.6-0.8-2.6-0.7
		l-26.1,4.1c-1.1,0.2-1.6,0.8-1.6,1.9v32.8c0,1.1-0.5,1.7-1.6,1.9l-4.7,0.7c-1.1,0.2-1.6-0.3-1.6-1.3V220c0-1.1,0.5-1.7,1.6-1.9
		l33.7-5.3c1-0.2,1.7,0.2,2,1.2l1.4,4.7c0.1,0.5,0.4,0.8,0.8,1c0.4,0.2,0.8,0.3,1.3,0.2l4.7-0.7c1.1-0.2,1.6,0.3,1.6,1.3V227.3z"/>
	<path d="M494.4,233.3c-1.1,0.2-1.7-0.2-2-1.2l-1.4-4.7c-0.3-1-0.9-1.5-1.9-1.6l-4.9-0.6c-1-0.1-1.5-0.7-1.5-1.8v-24.6
		c0-1.1,0.5-1.7,1.6-1.9l4.7-0.7c1.1-0.2,1.6,0.3,1.6,1.3v24.7c0,1,0.4,1.8,1.1,2.4c0.7,0.6,1.6,0.8,2.6,0.7l13.7-2.2
		c1-0.2,1.9-0.6,2.6-1.5c0.7-0.8,1.1-1.7,1.1-2.7v-2.7c0-1.1,0.5-1.7,1.6-1.9l4.8-0.8c1.1-0.2,2-0.6,2.7-1.4
		c0.7-0.8,1.1-1.7,1.1-2.8v-4.9c0-1.1,0.5-1.7,1.6-1.9l4.7-0.7c1.1-0.2,1.6,0.3,1.6,1.3v4.8c0,1.1-0.5,1.8-1.5,2.2l-5,2.1
		c-1,0.4-1.7,1.2-1.9,2.2l-1.4,5.2c-0.3,1.1-0.9,1.7-2,1.8l-4.7,0.7c-1.1,0.2-1.7,0.8-2,1.8l-0.2,0.9c-0.1,0.4-0.2,1-0.2,1.5
		c0,0.6,0.1,1.1,0.2,1.5l0.2,0.8c0.3,1,0.9,1.4,2,1.2l4.7-0.7c1.1-0.2,1.7,0.2,2,1.2l1.4,4.7c0.3,1,0.9,1.5,1.9,1.6l5,0.5
		c1,0.1,1.5,0.7,1.5,1.8v4.8c0,1.1-0.5,1.7-1.6,1.9l-4.7,0.7c-1.1,0.2-1.6-0.3-1.6-1.3v-4.9c0-1.1-0.4-1.9-1.1-2.4
		c-0.7-0.5-1.7-0.7-2.7-0.6l-4.8,0.8c-1.1,0.2-1.6-0.3-1.6-1.3v-2.7c0-1-0.4-1.8-1.1-2.4c-0.7-0.6-1.6-0.8-2.6-0.6L494.4,233.3z
		 M482.8,251.5v-14.8c0-1.1,0.5-1.7,1.6-1.9l4.7-0.7c1.1-0.2,1.6,0.3,1.6,1.3v14.8c0,1.1-0.5,1.7-1.6,1.9l-4.7,0.7
		C483.3,253,482.8,252.6,482.8,251.5z"/>
</g>
</svg>
