<?xml version="1.0" encoding="utf-8"?>
<!-- Generator: Adobe Illustrator 26.3.1, SVG Export Plug-In . SVG Version: 6.00 Build 0)  -->
<svg version="1.1" id="Layer_1" xmlns="http://www.w3.org/2000/svg" xmlns:xlink="http://www.w3.org/1999/xlink" x="0px" y="0px"
	 viewBox="0 0 289.3 156.9" style="enable-background:new 0 0 289.3 156.9;" xml:space="preserve">
<g>
	<path d="M7.1,36.6l12-1.7c0.5-0.1,0.9-0.3,1.3-0.7c0.4-0.4,0.5-0.9,0.5-1.4v-3.4c0-0.5,0.3-0.8,0.8-0.9l2.4-0.3
		c0.5-0.1,0.8,0.2,0.8,0.7v3.3c0,0.5-0.3,0.9-0.8,1.1l-2.4,1c-0.5,0.2-0.8,0.6-1,1.1L20,38c-0.1,0.5-0.5,0.8-1,0.9l-12,1.7
		c-0.5,0.1-0.9,0.3-1.3,0.7c-0.4,0.4-0.5,0.9-0.5,1.4V53c0,0.5,0.2,0.9,0.5,1.2c0.4,0.3,0.8,0.4,1.3,0.4l13-1.8
		c0.5-0.1,0.8-0.4,0.8-0.9V39.4c0-0.5,0.3-0.8,0.8-0.9l2.4-0.3c0.5-0.1,0.8,0.2,0.8,0.7v16.4c0,0.5-0.3,0.8-0.8,0.9l-17,2.4
		c-0.5,0.1-0.9-0.1-1-0.6l-0.7-2.4c-0.1-0.5-0.5-0.8-1-0.8L2,54.4c-0.5-0.1-0.8-0.4-0.8-0.9V43.2c0-0.5,0.3-0.9,0.8-1.1l2.4-1
		c0.5-0.2,0.8-0.6,1-1.1l0.7-2.5C6.2,36.9,6.6,36.6,7.1,36.6z"/>
	<path d="M36.4,42.2c0-0.5,0.3-0.8,0.8-0.9l11-1.6c0.5-0.1,0.9-0.3,1.3-0.7c0.4-0.4,0.6-0.9,0.6-1.3v-1.4c0-0.5-0.2-0.9-0.5-1.2
		c-0.4-0.3-0.8-0.4-1.3-0.3l-12,1.7c-0.5,0.1-0.9,0.3-1.3,0.7c-0.4,0.4-0.5,0.8-0.5,1.4v10.4c0,0.5,0.2,0.9,0.5,1.2
		c0.4,0.3,0.8,0.4,1.3,0.4l12-1.7c0.5-0.1,0.9-0.3,1.3-0.7c0.4-0.4,0.5-0.9,0.5-1.4v-1.2c0-0.5,0.3-0.8,0.8-0.9l2.4-0.3
		c0.5-0.1,0.8,0.2,0.8,0.7v1.2c0,0.5-0.3,0.9-0.8,1.1l-2.5,1c-0.5,0.2-0.8,0.6-1,1.1l-0.7,2.6c-0.1,0.5-0.5,0.8-1,0.9l-11.8,1.7
		c-0.5,0.1-0.9-0.1-1-0.6l-0.7-2.4c-0.1-0.5-0.5-0.8-1-0.8l-2.4-0.3c-0.5-0.1-0.8-0.4-0.8-0.9V39.1c0-0.5,0.3-0.9,0.8-1.1l2.4-1
		c0.5-0.2,0.8-0.6,1-1.1l0.7-2.6c0.1-0.5,0.5-0.8,1-0.9l11.9-1.7c0.5-0.1,0.9,0.1,1,0.6l0.7,2.4c0.1,0.5,0.5,0.8,1,0.8l2.4,0.3
		c0.5,0.1,0.8,0.4,0.8,0.9v2.4c0,0.5-0.3,0.8-0.8,0.9l-2.1,0.3c-0.5,0.1-0.9,0.4-1,0.9l-0.7,2.6c-0.1,0.2-0.2,0.4-0.4,0.6
		s-0.4,0.2-0.6,0.3l-11.2,1.6c-0.5,0.1-0.8-0.2-0.8-0.7V42.2z"/>
	<path d="M82.5,40.1c0.5-0.1,0.8,0.2,0.8,0.7V42c0,0.5-0.3,0.9-0.8,1.1l-2.5,1c-0.5,0.2-0.8,0.6-1,1.1l-0.7,2.6
		c-0.1,0.5-0.5,0.8-1,0.9l-11.8,1.7c-0.5,0.1-0.9-0.1-1-0.6l-0.7-2.4c-0.1-0.5-0.5-0.8-1-0.8l-2.4-0.3c-0.5-0.1-0.8-0.4-0.8-0.9
		V35.1c0-0.5,0.3-0.9,0.8-1.1l2.4-1c0.5-0.2,0.8-0.6,1-1.1l0.7-2.6c0.1-0.5,0.5-0.8,1-0.9l11.8-1.7c0.5-0.1,0.9,0.1,1,0.6l0.7,2.4
		c0.1,0.5,0.5,0.8,1,0.8l2.5,0.3c0.5,0.1,0.8,0.4,0.8,0.9v1.2c0,0.5-0.3,0.8-0.8,0.9l-2.4,0.3c-0.5,0.1-0.8-0.2-0.8-0.7v-1.2
		c0-0.5-0.2-0.9-0.5-1.2c-0.4-0.3-0.8-0.4-1.3-0.4l-12,1.7c-0.5,0.1-0.9,0.3-1.3,0.7c-0.4,0.4-0.5,0.9-0.5,1.4v10.4
		c0,0.5,0.2,0.9,0.5,1.2c0.4,0.3,0.8,0.4,1.3,0.3l12-1.7c0.5-0.1,0.9-0.3,1.3-0.7c0.4-0.4,0.5-0.8,0.5-1.4v-1.2
		c0-0.5,0.3-0.8,0.8-0.9L82.5,40.1z"/>
	<path d="M94.8,34c0-0.5,0.3-0.8,0.8-0.9l11-1.6c0.5-0.1,0.9-0.3,1.3-0.7c0.4-0.4,0.6-0.9,0.6-1.3v-1.4c0-0.5-0.2-0.9-0.5-1.2
		c-0.4-0.3-0.8-0.4-1.3-0.3l-12,1.7c-0.5,0.1-0.9,0.3-1.3,0.7c-0.4,0.4-0.5,0.8-0.5,1.4v10.4c0,0.5,0.2,0.9,0.5,1.2s0.8,0.4,1.3,0.4
		l12-1.7c0.5-0.1,0.9-0.3,1.3-0.7c0.4-0.4,0.5-0.9,0.5-1.4v-1.2c0-0.5,0.3-0.8,0.8-0.9l2.4-0.3c0.5-0.1,0.8,0.2,0.8,0.7v1.2
		c0,0.5-0.3,0.9-0.8,1.1l-2.5,1c-0.5,0.2-0.8,0.6-1,1.1l-0.7,2.6c-0.1,0.5-0.5,0.8-1,0.9l-11.8,1.7c-0.5,0.1-0.9-0.1-1-0.6L93,43.3
		c-0.1-0.5-0.5-0.8-1-0.8l-2.4-0.3c-0.5-0.1-0.8-0.4-0.8-0.9V30.9c0-0.5,0.3-0.9,0.8-1.1l2.4-1c0.5-0.2,0.8-0.6,1-1.1l0.7-2.6
		c0.1-0.5,0.5-0.8,1-0.9l11.9-1.7c0.5-0.1,0.9,0.1,1,0.6l0.7,2.4c0.1,0.5,0.5,0.8,1,0.8l2.4,0.3c0.5,0.1,0.8,0.4,0.8,0.9V30
		c0,0.5-0.3,0.8-0.8,0.9l-2.1,0.3c-0.5,0.1-0.9,0.4-1,0.9l-0.7,2.6c-0.1,0.2-0.2,0.4-0.4,0.6c-0.2,0.1-0.4,0.2-0.6,0.3l-11.2,1.6
		c-0.5,0.1-0.8-0.2-0.8-0.7V34z"/>
	<path d="M137.5,37l-0.7,2.6c-0.1,0.5-0.5,0.8-1,0.9l-11.9,1.7c-0.5,0.1-0.9-0.1-1-0.6l-0.7-2.4c-0.1-0.5-0.5-0.8-1-0.8l-2.4-0.3
		c-0.5-0.1-0.8-0.4-0.8-0.9V21.8c0-0.5,0.3-0.8,0.8-0.9l17-2.4c0.5-0.1,0.9,0.1,1,0.6l0.7,2.4c0.1,0.5,0.5,0.8,1,0.8l2.4,0.3
		c0.5,0.1,0.8,0.4,0.8,0.9v10.2c0,0.5-0.3,0.9-0.8,1.1l-2.4,1C138,36.1,137.6,36.5,137.5,37z M122,43.2v6.6c0,0.5-0.3,0.8-0.8,0.9
		l-2.4,0.3c-0.5,0.1-0.8-0.2-0.8-0.7v-6.6c0-0.5,0.3-0.8,0.8-0.9l2.4-0.3C121.7,42.5,122,42.7,122,43.2z M122,36.6
		c0,0.5,0.2,0.9,0.5,1.2c0.4,0.3,0.8,0.4,1.3,0.4l12-1.7c0.5-0.1,0.9-0.3,1.3-0.7c0.4-0.4,0.5-0.9,0.5-1.4V24.1
		c0-0.5-0.2-0.9-0.5-1.2c-0.4-0.3-0.8-0.4-1.3-0.4l-13,1.8c-0.5,0.1-0.8,0.4-0.8,0.9V36.6z"/>
	<path d="M154.4,9.9c0.5-0.1,0.8,0.2,0.8,0.7v3.3c0,0.5-0.3,0.9-0.8,1.1l-2.5,1c-0.5,0.2-0.8,0.6-1,1.1l-0.7,2.5
		c-0.1,0.5-0.5,0.8-1,0.9l-2.5,0.3c-0.5,0.1-0.8-0.2-0.8-0.7v-2.4c0-0.5,0.3-0.8,0.8-0.9l2.5-0.4c0.5-0.1,0.9-0.3,1.3-0.7
		c0.4-0.4,0.5-0.9,0.5-1.4v-3.4c0-0.5,0.3-0.8,0.8-0.9L154.4,9.9z M155.4,34.5c-0.1-0.5-0.5-0.7-1-0.6l-2.4,0.3
		c-0.5,0.1-0.8-0.2-0.8-0.7V22.2c0-0.5,0.3-0.9,0.8-1.1l2.5-1c0.5-0.2,0.8-0.6,1-1.1l0.7-2.5c0.1-0.5,0.5-0.8,1-0.9l9-1.3
		c0.5-0.1,0.8,0.2,0.8,0.7v2.4c0,0.5-0.3,0.8-0.8,0.9l-9,1.3c-0.5,0.1-0.9,0.3-1.3,0.7c-0.4,0.4-0.5,0.9-0.5,1.4V32
		c0,0.5,0.2,0.9,0.5,1.2c0.3,0.3,0.8,0.4,1.3,0.3l8-1.1c0.5-0.1,0.9-0.3,1.3-0.7c0.4-0.4,0.5-0.8,0.5-1.4v-2.7
		c0-0.5,0.3-0.8,0.8-0.9l2.4-0.3c0.5-0.1,0.8,0.2,0.8,0.7v2.7c0,0.5-0.3,0.9-0.8,1.1l-2.5,1c-0.5,0.2-0.8,0.6-1,1.1l-0.7,2.6
		c-0.1,0.5-0.5,0.8-1,0.9l-7.9,1.1c-0.5,0.1-0.9-0.1-1-0.6L155.4,34.5z"/>
	<path d="M184.4,11.7c0.5-0.1,0.9,0.1,1,0.6l0.7,2.3c0.1,0.5,0.5,0.7,1,0.6l2.4-0.3c0.5-0.1,0.8,0.2,0.8,0.7V27
		c0,0.5,0.2,0.9,0.5,1.2c0.4,0.3,0.8,0.4,1.3,0.4l7.2-1c0.5-0.1,0.8,0.2,0.8,0.7v2.4c0,0.5-0.3,0.8-0.8,0.9l-7.1,1
		c-0.5,0.1-0.9-0.1-1-0.6l-0.7-2.3c-0.1-0.5-0.5-0.8-1-0.8l-2.5-0.3c-0.5-0.1-0.8-0.4-0.8-0.9V17.2c0-0.5-0.2-0.9-0.5-1.2
		c-0.4-0.3-0.8-0.4-1.3-0.3l-7.2,1c-0.5,0.1-0.8-0.2-0.8-0.7v-2.4c0-0.5,0.3-0.8,0.8-0.9L184.4,11.7z M185.5,29.5
		c0.5-0.1,0.8,0.2,0.8,0.7v2.4c0,0.5-0.3,0.8-0.8,0.9l-8.2,1.2c-0.5,0.1-0.8-0.2-0.8-0.7v-2.4c0-0.5,0.3-0.8,0.8-0.9L185.5,29.5z
		 M189.9,8.9l-2.8,0.4c-0.5,0.1-0.8-0.2-0.8-0.7V6.2c0-0.5,0.3-0.8,0.8-0.9l2.8-0.4c0.5-0.1,0.8,0.2,0.8,0.7V8
		C190.7,8.5,190.4,8.8,189.9,8.9z"/>
	<path d="M209.9,22.9c-0.1-0.5-0.5-0.8-1-0.8l-2.5-0.3c-0.5-0.1-0.8-0.4-0.8-0.9V9.5c0-0.5,0.3-0.8,0.8-0.9l2.4-0.3
		c0.5-0.1,0.8,0.2,0.8,0.7v11.4c0,0.5,0.2,0.9,0.5,1.2c0.4,0.3,0.8,0.4,1.3,0.3l2.2-0.3c0.5-0.1,0.8,0.2,0.8,0.7v1.3
		c0,0.5,0.2,0.9,0.5,1.3c0.4,0.3,0.8,0.5,1.3,0.4l2.4-0.3c0.5-0.1,0.9-0.3,1.3-0.8c0.4-0.4,0.5-0.9,0.5-1.4v-1.3
		c0-0.5,0.3-0.8,0.8-0.9l2.2-0.3c0.5-0.1,0.9-0.3,1.3-0.7c0.4-0.4,0.5-0.8,0.5-1.4V6.7c0-0.5,0.3-0.8,0.8-0.9l2.4-0.3
		c0.5-0.1,0.8,0.2,0.8,0.7v11.4c0,0.5-0.3,0.9-0.8,1.1l-2.5,1c-0.5,0.2-0.8,0.6-1,1.1l-0.7,2.6c-0.1,0.5-0.5,0.8-1,0.9l-2,0.3
		c-0.5,0.1-0.9,0.4-1,0.9l-0.7,2.5c-0.1,0.5-0.5,0.8-1,0.9l-2.3,0.3c-0.5,0.1-0.9-0.1-1-0.6l-0.7-2.3c-0.1-0.5-0.5-0.7-1-0.6l-2,0.3
		c-0.5,0.1-0.9-0.1-1-0.6L209.9,22.9z"/>
	<path d="M240.8,13.5c0-0.5,0.3-0.8,0.8-0.9l11-1.6c0.5-0.1,0.9-0.3,1.3-0.7c0.4-0.4,0.6-0.9,0.6-1.3V7.6c0-0.5-0.2-0.9-0.5-1.2
		c-0.4-0.3-0.8-0.4-1.3-0.3l-12,1.7c-0.5,0.1-0.9,0.3-1.3,0.7c-0.4,0.4-0.5,0.8-0.5,1.4v10.4c0,0.5,0.2,0.9,0.5,1.2
		c0.4,0.3,0.8,0.4,1.3,0.4l12-1.7c0.5-0.1,0.9-0.3,1.3-0.7c0.4-0.4,0.5-0.9,0.5-1.4v-1.2c0-0.5,0.3-0.8,0.8-0.9l2.4-0.3
		c0.5-0.1,0.8,0.2,0.8,0.7v1.2c0,0.5-0.3,0.9-0.8,1.1l-2.5,1c-0.5,0.2-0.8,0.6-1,1.1l-0.7,2.6c-0.1,0.5-0.5,0.8-1,0.9l-11.8,1.7
		c-0.5,0.1-0.9-0.1-1-0.6l-0.7-2.4c-0.1-0.5-0.5-0.8-1-0.8l-2.4-0.3c-0.5-0.1-0.8-0.4-0.8-0.9V10.4c0-0.5,0.3-0.9,0.8-1.1l2.4-1
		c0.5-0.2,0.8-0.6,1-1.1l0.7-2.6c0.1-0.5,0.5-0.8,1-0.9l11.9-1.7c0.5-0.1,0.9,0.1,1,0.6l0.7,2.4c0.1,0.5,0.5,0.8,1,0.8l2.4,0.3
		c0.5,0.1,0.8,0.4,0.8,0.9v2.4c0,0.5-0.3,0.8-0.8,0.9l-2.1,0.3c-0.5,0.1-0.9,0.4-1,0.9l-0.7,2.6c-0.1,0.2-0.2,0.4-0.4,0.6
		c-0.2,0.1-0.4,0.2-0.6,0.3l-11.2,1.6c-0.5,0.1-0.8-0.2-0.8-0.7V13.5z"/>
	<path d="M9.2,84.3c0.5-0.1,0.9,0.1,1,0.6l0.7,2.3c0.1,0.5,0.5,0.7,1,0.6l2.4-0.3c0.5-0.1,0.8,0.2,0.8,0.7v11.4
		c0,0.5,0.2,0.9,0.5,1.2c0.4,0.3,0.8,0.4,1.3,0.4l7.2-1c0.5-0.1,0.8,0.2,0.8,0.7v2.4c0,0.5-0.3,0.8-0.8,0.9l-7.1,1
		c-0.5,0.1-0.9-0.1-1-0.6l-0.7-2.3c-0.1-0.5-0.5-0.8-1-0.8l-2.5-0.3c-0.5-0.1-0.8-0.4-0.8-0.9V89.8c0-0.5-0.2-0.9-0.5-1.2
		c-0.4-0.3-0.8-0.4-1.3-0.3l-7.2,1c-0.5,0.1-0.8-0.2-0.8-0.7v-2.4c0-0.5,0.3-0.8,0.8-0.9L9.2,84.3z M10.3,102.2
		c0.5-0.1,0.8,0.2,0.8,0.7v2.4c0,0.5-0.3,0.8-0.8,0.9l-8.2,1.2c-0.5,0.1-0.8-0.2-0.8-0.7v-2.4c0-0.5,0.3-0.8,0.8-0.9L10.3,102.2z
		 M14.7,81.5l-2.8,0.4c-0.5,0.1-0.8-0.2-0.8-0.7v-2.4c0-0.5,0.3-0.8,0.8-0.9l2.8-0.4c0.5-0.1,0.8,0.2,0.8,0.7v2.4
		C15.5,81.1,15.2,81.4,14.7,81.5z"/>
	<path d="M50.9,100.4c-0.5,0.1-0.8-0.2-0.8-0.7V84.4c0-0.5-0.2-0.9-0.5-1.2c-0.4-0.3-0.8-0.4-1.3-0.4l-13,1.8
		c-0.5,0.1-0.8,0.4-0.8,0.9v16.4c0,0.5-0.3,0.8-0.8,0.9l-2.4,0.3c-0.5,0.1-0.8-0.2-0.8-0.7V82.1c0-0.5,0.3-0.8,0.8-0.9l17-2.4
		c0.5-0.1,0.9,0.1,1,0.6l0.7,2.4c0.1,0.5,0.5,0.8,1,0.8l2.4,0.3c0.5,0.1,0.8,0.4,0.8,0.9v15.3c0,0.5-0.3,0.8-0.8,0.9L50.9,100.4z"/>
	<path d="M66.8,70.2c0.5-0.1,0.8,0.2,0.8,0.7v3.3c0,0.5-0.3,0.9-0.8,1.1l-2.5,1c-0.5,0.2-0.8,0.6-1,1.1L62.7,80
		c-0.1,0.5-0.5,0.8-1,0.9l-2.5,0.3c-0.5,0.1-0.8-0.2-0.8-0.7v-2.4c0-0.5,0.3-0.8,0.8-0.9l2.5-0.4c0.5-0.1,0.9-0.3,1.3-0.7
		s0.5-0.9,0.5-1.4v-3.4c0-0.5,0.3-0.8,0.8-0.9L66.8,70.2z M67.8,94.8c-0.1-0.5-0.5-0.7-1-0.6l-2.4,0.3c-0.5,0.1-0.8-0.2-0.8-0.7
		V82.5c0-0.5,0.3-0.9,0.8-1.1l2.5-1c0.5-0.2,0.8-0.6,1-1.1l0.7-2.5c0.1-0.5,0.5-0.8,1-0.9l9-1.3c0.5-0.1,0.8,0.2,0.8,0.7v2.4
		c0,0.5-0.3,0.8-0.8,0.9l-9,1.3c-0.5,0.1-0.9,0.3-1.3,0.7c-0.4,0.4-0.5,0.9-0.5,1.4v10.4c0,0.5,0.2,0.9,0.5,1.2
		c0.3,0.3,0.8,0.4,1.3,0.3l8-1.1c0.5-0.1,0.9-0.3,1.3-0.7c0.4-0.4,0.5-0.8,0.5-1.4v-2.7c0-0.5,0.3-0.8,0.8-0.9l2.4-0.3
		c0.5-0.1,0.8,0.2,0.8,0.7V90c0,0.5-0.3,0.9-0.8,1.1l-2.5,1c-0.5,0.2-0.8,0.6-1,1.1l-0.7,2.6c-0.1,0.5-0.5,0.8-1,0.9l-7.9,1.1
		c-0.5,0.1-0.9-0.1-1-0.6L67.8,94.8z"/>
	<path d="M94.8,82c0-0.5,0.3-0.8,0.8-0.9l11-1.6c0.5-0.1,0.9-0.3,1.3-0.7c0.4-0.4,0.6-0.9,0.6-1.3v-1.4c0-0.5-0.2-0.9-0.5-1.2
		c-0.4-0.3-0.8-0.4-1.3-0.3l-12,1.7c-0.5,0.1-0.9,0.3-1.3,0.7c-0.4,0.4-0.5,0.8-0.5,1.4v10.4c0,0.5,0.2,0.9,0.5,1.2s0.8,0.4,1.3,0.4
		l12-1.7c0.5-0.1,0.9-0.3,1.3-0.7c0.4-0.4,0.5-0.9,0.5-1.4v-1.2c0-0.5,0.3-0.8,0.8-0.9l2.4-0.3c0.5-0.1,0.8,0.2,0.8,0.7v1.2
		c0,0.5-0.3,0.9-0.8,1.1l-2.5,1c-0.5,0.2-0.8,0.6-1,1.1l-0.7,2.6c-0.1,0.5-0.5,0.8-1,0.9l-11.8,1.7c-0.5,0.1-0.9-0.1-1-0.6L93,91.3
		c-0.1-0.5-0.5-0.8-1-0.8l-2.4-0.3c-0.5-0.1-0.8-0.4-0.8-0.9V78.9c0-0.5,0.3-0.9,0.8-1.1l2.4-1c0.5-0.2,0.8-0.6,1-1.1l0.7-2.6
		c0.1-0.5,0.5-0.8,1-0.9l11.9-1.7c0.5-0.1,0.9,0.1,1,0.6l0.7,2.4c0.1,0.5,0.5,0.8,1,0.8l2.4,0.3c0.5,0.1,0.8,0.4,0.8,0.9V78
		c0,0.5-0.3,0.8-0.8,0.9l-2.1,0.3c-0.5,0.1-0.9,0.4-1,0.9l-0.7,2.6c-0.1,0.2-0.2,0.4-0.4,0.6c-0.2,0.1-0.4,0.2-0.6,0.3l-11.2,1.6
		c-0.5,0.1-0.8-0.2-0.8-0.7V82z"/>
	<path d="M141.7,73.9c0,0.5-0.3,0.8-0.8,0.9l-2.4,0.3c-0.5,0.1-0.8-0.2-0.8-0.7v-2.4c0-0.5-0.2-0.9-0.5-1.2
		c-0.4-0.3-0.8-0.4-1.3-0.4l-13,1.8c-0.5,0.1-0.8,0.4-0.8,0.9v16.4c0,0.5-0.3,0.8-0.8,0.9l-2.4,0.3c-0.5,0.1-0.8-0.2-0.8-0.7V69.8
		c0-0.5,0.3-0.8,0.8-0.9l16.9-2.4c0.5-0.1,0.8,0.1,1,0.6l0.7,2.4c0.1,0.2,0.2,0.4,0.4,0.5c0.2,0.1,0.4,0.1,0.7,0.1l2.4-0.3
		c0.5-0.1,0.8,0.2,0.8,0.7V73.9z"/>
	<path d="M153.5,62.8c0-0.5,0.3-0.8,0.8-0.9l2.4-0.3c0.5-0.1,0.9-0.4,1-0.9l0.7-2.5c0.1-0.5,0.5-0.8,1-0.9l10.7-1.5
		c0.5-0.1,0.8,0.2,0.8,0.7v2.4c0,0.5-0.3,0.8-0.8,0.9l-10.7,1.5c-0.5,0.1-0.9,0.3-1.3,0.7c-0.4,0.4-0.5,0.9-0.5,1.4v2.3
		c0,0.5-0.3,0.9-0.8,1.1l-2.5,1c-0.5,0.2-0.8,0.6-1,1.1l-0.7,2.5c-0.1,0.5-0.5,0.8-1,0.9l-3.6,0.5c-0.5,0.1-0.8-0.2-0.8-0.7v-2.4
		c0-0.5,0.3-0.8,0.8-0.9l3.6-0.5c0.5-0.1,0.9-0.3,1.3-0.7c0.4-0.4,0.5-0.9,0.5-1.4V62.8z M154.3,85.9c-0.5,0.1-0.8-0.2-0.8-0.7V73.8
		c0-0.5,0.3-0.9,0.8-1.1l2.5-1c0.5-0.2,0.8-0.6,1-1.1l0.7-2.5c0.1-0.5,0.5-0.8,1-0.9l8.7-1.2c0.5-0.1,0.8,0.2,0.8,0.7V69
		c0,0.5-0.3,0.8-0.8,0.9l-8.7,1.2c-0.5,0.1-0.9,0.3-1.3,0.7c-0.4,0.4-0.5,0.9-0.5,1.4v11.4c0,0.5-0.3,0.8-0.8,0.9L154.3,85.9z"/>
	<path d="M200.1,65.7c0,0.5-0.3,0.8-0.8,0.9l-2.4,0.3c-0.5,0.1-0.8-0.2-0.8-0.7v-2.4c0-0.5-0.2-0.9-0.5-1.2
		c-0.4-0.3-0.8-0.4-1.3-0.4l-12,1.7c-0.5,0.1-0.9,0.3-1.3,0.7c-0.4,0.4-0.5,0.9-0.5,1.4v1.2c0,0.5-0.3,0.8-0.8,0.9l-2.4,0.3
		c-0.5,0.1-0.8-0.2-0.8-0.7v-1.2c0-0.5,0.3-0.9,0.8-1.1l2.5-1c0.5-0.2,0.8-0.6,1-1.1l0.7-2.6c0.1-0.5,0.5-0.8,1-0.9l11.8-1.7
		c0.5-0.1,0.9,0.1,1,0.6l0.7,2.4c0.1,0.5,0.5,0.8,1,0.8l2.4,0.3c0.5,0.1,0.8,0.4,0.8,0.9V65.7z M200.1,78.7c0,0.5-0.3,0.8-0.8,0.9
		l-17,2.4c-0.5,0.1-0.9-0.1-1-0.6l-0.7-2.4c-0.1-0.5-0.5-0.8-1-0.8l-2.4-0.3c-0.5-0.1-0.8-0.4-0.8-0.9v-2.4c0-0.5,0.3-0.8,0.8-0.9
		l2.1-0.3c0.5-0.1,0.9-0.4,1-0.9l0.7-2.6c0.1-0.5,0.5-0.8,1-0.9l12.1-1.7c0.5-0.1,0.9,0.1,1,0.6l0.7,2.4c0.1,0.5,0.5,0.8,1,0.8
		l2.4,0.3c0.5,0.1,0.8,0.4,0.8,0.9V78.7z M195.3,76.1c0.5-0.1,0.8-0.4,0.8-0.9v-2.4c0-0.5-0.2-0.9-0.5-1.2c-0.4-0.3-0.8-0.4-1.3-0.4
		l-12,1.7c-0.5,0.1-0.9,0.3-1.3,0.7c-0.4,0.4-0.6,0.9-0.6,1.3v1.4c0,0.5,0.2,0.9,0.5,1.2c0.4,0.3,0.8,0.4,1.3,0.3L195.3,76.1z"/>
	<path d="M228.5,67.6c0.5-0.1,0.8,0.2,0.8,0.7v1.2c0,0.5-0.3,0.9-0.8,1.1l-2.5,1c-0.5,0.2-0.8,0.6-1,1.1l-0.7,2.6
		c-0.1,0.5-0.5,0.8-1,0.9l-11.8,1.7c-0.5,0.1-0.9-0.1-1-0.6l-0.7-2.4c-0.1-0.5-0.5-0.8-1-0.8l-2.4-0.3c-0.5-0.1-0.8-0.4-0.8-0.9
		V62.5c0-0.5,0.3-0.9,0.8-1.1l2.4-1c0.5-0.2,0.8-0.6,1-1.1l0.7-2.6c0.1-0.5,0.5-0.8,1-0.9l11.8-1.7c0.5-0.1,0.9,0.1,1,0.6l0.7,2.4
		c0.1,0.5,0.5,0.8,1,0.8l2.5,0.3c0.5,0.1,0.8,0.4,0.8,0.9v1.2c0,0.5-0.3,0.8-0.8,0.9l-2.4,0.3c-0.5,0.1-0.8-0.2-0.8-0.7v-1.2
		c0-0.5-0.2-0.9-0.5-1.2s-0.8-0.4-1.3-0.4l-12,1.7c-0.5,0.1-0.9,0.3-1.3,0.7c-0.4,0.4-0.5,0.9-0.5,1.4v10.4c0,0.5,0.2,0.9,0.5,1.2
		c0.4,0.3,0.8,0.4,1.3,0.3l12-1.7c0.5-0.1,0.9-0.3,1.3-0.7c0.4-0.4,0.5-0.8,0.5-1.4v-1.2c0-0.5,0.3-0.8,0.8-0.9L228.5,67.6z"/>
	<path d="M240.8,61.5c0-0.5,0.3-0.8,0.8-0.9l11-1.6c0.5-0.1,0.9-0.3,1.3-0.7c0.4-0.4,0.6-0.9,0.6-1.3v-1.4c0-0.5-0.2-0.9-0.5-1.2
		c-0.4-0.3-0.8-0.4-1.3-0.3l-12,1.7c-0.5,0.1-0.9,0.3-1.3,0.7c-0.4,0.4-0.5,0.8-0.5,1.4v10.4c0,0.5,0.2,0.9,0.5,1.2
		c0.4,0.3,0.8,0.4,1.3,0.4l12-1.7c0.5-0.1,0.9-0.3,1.3-0.7c0.4-0.4,0.5-0.9,0.5-1.4v-1.2c0-0.5,0.3-0.8,0.8-0.9l2.4-0.3
		c0.5-0.1,0.8,0.2,0.8,0.7v1.2c0,0.5-0.3,0.9-0.8,1.1l-2.5,1c-0.5,0.2-0.8,0.6-1,1.1l-0.7,2.6c-0.1,0.5-0.5,0.8-1,0.9l-11.8,1.7
		c-0.5,0.1-0.9-0.1-1-0.6l-0.7-2.4c-0.1-0.5-0.5-0.8-1-0.8l-2.4-0.3c-0.5-0.1-0.8-0.4-0.8-0.9V58.4c0-0.5,0.3-0.9,0.8-1.1l2.4-1
		c0.5-0.2,0.8-0.6,1-1.1l0.7-2.6c0.1-0.5,0.5-0.8,1-0.9l11.9-1.7c0.5-0.1,0.9,0.1,1,0.6l0.7,2.4c0.1,0.5,0.5,0.8,1,0.8l2.4,0.3
		c0.5,0.1,0.8,0.4,0.8,0.9v2.4c0,0.5-0.3,0.8-0.8,0.9l-2.1,0.3c-0.5,0.1-0.9,0.4-1,0.9l-0.7,2.6c-0.1,0.2-0.2,0.4-0.4,0.6
		c-0.2,0.1-0.4,0.2-0.6,0.3l-11.2,1.6c-0.5,0.1-0.8-0.2-0.8-0.7V61.5z"/>
	<path d="M287.7,61.3c0,0.5-0.3,0.9-0.8,1.1l-2.4,1c-0.5,0.2-0.8,0.6-1,1.1l-0.7,2.6c-0.1,0.5-0.5,0.8-1,0.9L270,69.6
		c-0.5,0.1-0.9-0.1-1-0.6l-0.7-2.4c-0.1-0.5-0.5-0.8-1-0.8l-2.5-0.3c-0.5-0.1-0.8-0.4-0.8-0.9v-1.2c0-0.5,0.3-0.8,0.8-0.9l2.4-0.3
		c0.5-0.1,0.8,0.2,0.8,0.7v1.2c0,0.5,0.2,0.9,0.5,1.2c0.4,0.3,0.8,0.4,1.3,0.4l12-1.7c0.5-0.1,0.9-0.3,1.3-0.7
		c0.4-0.4,0.5-0.9,0.5-1.4v-1.4c0-0.5-0.2-0.9-0.6-1.2c-0.4-0.3-0.8-0.4-1.3-0.4l-12.2,1.7c-0.5,0.1-0.9-0.1-1-0.6l-0.7-2.4
		c-0.1-0.5-0.5-0.7-1-0.6l-2.1,0.3c-0.5,0.1-0.8-0.2-0.8-0.7v-2.4c0-0.5,0.3-0.9,0.8-1.1l2.4-1c0.5-0.2,0.8-0.6,1-1.1l0.7-2.6
		c0.1-0.5,0.5-0.8,1-0.9l11.8-1.7c0.5-0.1,0.9,0.1,1,0.6l0.7,2.4c0.1,0.5,0.5,0.8,1,0.8l2.5,0.3c0.5,0.1,0.8,0.4,0.8,0.9v1.2
		c0,0.5-0.3,0.8-0.8,0.9l-2.4,0.3c-0.5,0.1-0.8-0.2-0.8-0.7v-1.2c0-0.5-0.2-0.9-0.5-1.2c-0.4-0.3-0.8-0.4-1.3-0.4l-12,1.7
		c-0.5,0.1-0.9,0.3-1.3,0.7c-0.4,0.4-0.5,0.8-0.5,1.4v1.4c0,0.5,0.2,0.9,0.6,1.2s0.8,0.4,1.3,0.4l12.2-1.7c0.2,0,0.5,0,0.6,0.1
		c0.2,0.1,0.3,0.3,0.4,0.5l0.7,2.4c0.1,0.5,0.5,0.7,1,0.6l2.1-0.3c0.5-0.1,0.8,0.2,0.8,0.7V61.3z"/>
	<path d="M7.5,131.3c0-0.5,0.3-0.8,0.8-0.9l2.4-0.3c0.5-0.1,0.9-0.4,1-0.9l0.7-2.5c0.1-0.5,0.5-0.8,1-0.9l10.7-1.5
		c0.5-0.1,0.8,0.2,0.8,0.7v2.4c0,0.5-0.3,0.8-0.8,0.9l-10.7,1.5c-0.5,0.1-0.9,0.3-1.3,0.7c-0.4,0.4-0.5,0.9-0.5,1.4v2.3
		c0,0.5-0.3,0.9-0.8,1.1l-2.5,1c-0.5,0.2-0.8,0.6-1,1.1l-0.7,2.5c-0.1,0.5-0.5,0.8-1,0.9l-3.6,0.5c-0.5,0.1-0.8-0.2-0.8-0.7v-2.4
		c0-0.5,0.3-0.8,0.8-0.9l3.6-0.5c0.5-0.1,0.9-0.3,1.3-0.7c0.4-0.4,0.5-0.9,0.5-1.4V131.3z M8.3,154.4c-0.5,0.1-0.8-0.2-0.8-0.7
		v-11.4c0-0.5,0.3-0.9,0.8-1.1l2.5-1c0.5-0.2,0.8-0.6,1-1.1l0.7-2.5c0.1-0.5,0.5-0.8,1-0.9l8.7-1.2c0.5-0.1,0.8,0.2,0.8,0.7v2.4
		c0,0.5-0.3,0.8-0.8,0.9l-8.7,1.2c-0.5,0.1-0.9,0.3-1.3,0.7c-0.4,0.4-0.5,0.9-0.5,1.4v11.4c0,0.5-0.3,0.8-0.8,0.9L8.3,154.4z"/>
	<path d="M54.1,134.2c0,0.5-0.3,0.8-0.8,0.9l-2.4,0.3c-0.5,0.1-0.8-0.2-0.8-0.7v-2.4c0-0.5-0.2-0.9-0.5-1.2
		c-0.4-0.3-0.8-0.4-1.3-0.4l-13,1.8c-0.5,0.1-0.8,0.4-0.8,0.9v16.4c0,0.5-0.3,0.8-0.8,0.9l-2.4,0.3c-0.5,0.1-0.8-0.2-0.8-0.7v-20.4
		c0-0.5,0.3-0.8,0.8-0.9l16.9-2.4c0.5-0.1,0.8,0.1,1,0.6l0.7,2.4c0.1,0.2,0.2,0.4,0.4,0.5s0.4,0.1,0.7,0.1l2.4-0.3
		c0.5-0.1,0.8,0.2,0.8,0.7V134.2z"/>
	<path d="M83.3,130.1c0,0.5-0.3,0.8-0.8,0.9l-2.4,0.3c-0.5,0.1-0.8-0.2-0.8-0.7v-2.4c0-0.5-0.2-0.9-0.5-1.2
		c-0.4-0.3-0.8-0.4-1.3-0.4l-12,1.7c-0.5,0.1-0.9,0.3-1.3,0.7c-0.4,0.4-0.5,0.9-0.5,1.4v1.2c0,0.5-0.3,0.8-0.8,0.9l-2.4,0.3
		c-0.5,0.1-0.8-0.2-0.8-0.7v-1.2c0-0.5,0.3-0.9,0.8-1.1l2.5-1c0.5-0.2,0.8-0.6,1-1.1l0.7-2.6c0.1-0.5,0.5-0.8,1-0.9l11.8-1.7
		c0.5-0.1,0.9,0.1,1,0.6l0.7,2.4c0.1,0.5,0.5,0.8,1,0.8l2.4,0.3c0.5,0.1,0.8,0.4,0.8,0.9V130.1z M83.3,143.1c0,0.5-0.3,0.8-0.8,0.9
		l-17,2.4c-0.5,0.1-0.9-0.1-1-0.6l-0.7-2.4c-0.1-0.5-0.5-0.8-1-0.8l-2.4-0.3c-0.5-0.1-0.8-0.4-0.8-0.9V139c0-0.5,0.3-0.8,0.8-0.9
		l2.1-0.3c0.5-0.1,0.9-0.4,1-0.9l0.7-2.6c0.1-0.5,0.5-0.8,1-0.9l12.1-1.7c0.5-0.1,0.9,0.1,1,0.6l0.7,2.4c0.1,0.5,0.5,0.8,1,0.8
		l2.4,0.3c0.5,0.1,0.8,0.4,0.8,0.9V143.1z M78.5,140.5c0.5-0.1,0.8-0.4,0.8-0.9v-2.4c0-0.5-0.2-0.9-0.5-1.2
		c-0.4-0.3-0.8-0.4-1.3-0.4l-12,1.7c-0.5,0.1-0.9,0.3-1.3,0.7c-0.4,0.4-0.6,0.9-0.6,1.3v1.4c0,0.5,0.2,0.9,0.5,1.2
		c0.4,0.3,0.8,0.4,1.3,0.3L78.5,140.5z"/>
	<path d="M102.7,125v6.4c0,0.5-0.3,0.8-0.8,0.9l-2.3,0.3c-0.2,0-0.4,0-0.6-0.1s-0.2-0.3-0.2-0.5v-6.4c0-0.5-0.2-0.9-0.6-1.2
		c-0.4-0.3-0.8-0.4-1.3-0.4l-3.2,0.5c-0.2,0-0.4,0.1-0.6,0.3c-0.1,0.2-0.2,0.4-0.2,0.6v16.4c0,0.5-0.3,0.8-0.8,0.9l-2.4,0.3
		c-0.5,0.1-0.8-0.2-0.8-0.7v-20.4c0-0.5,0.3-0.8,0.8-0.9l7.1-1c0.5-0.1,0.9,0.1,1,0.6l0.7,2.3c0.1,0.5,0.5,0.8,1,0.8l2.5,0.3
		C102.4,124.1,102.7,124.4,102.7,125z M112.5,123.6V139c0,0.5-0.3,0.8-0.8,0.9l-2.4,0.3c-0.5,0.1-0.8-0.2-0.8-0.7v-15.4
		c0-0.5-0.2-0.9-0.5-1.2c-0.4-0.3-0.8-0.4-1.3-0.4l-3.2,0.5c-0.5,0.1-0.8-0.2-0.8-0.7v-2.4c0-0.5,0.3-0.8,0.8-0.9l3.2-0.4
		c0.5-0.1,0.9,0.1,1,0.6l0.7,2.4c0.1,0.5,0.5,0.8,1,0.8l2.4,0.3C112.2,122.8,112.5,123.1,112.5,123.6z"/>
	<path d="M124,125.9c0-0.5,0.3-0.8,0.8-0.9l11-1.6c0.5-0.1,0.9-0.3,1.3-0.7c0.4-0.4,0.6-0.9,0.6-1.3V120c0-0.5-0.2-0.9-0.5-1.2
		c-0.4-0.3-0.8-0.4-1.3-0.3l-12,1.7c-0.5,0.1-0.9,0.3-1.3,0.7c-0.4,0.4-0.5,0.8-0.5,1.4v10.4c0,0.5,0.2,0.9,0.5,1.2s0.8,0.4,1.3,0.4
		l12-1.7c0.5-0.1,0.9-0.3,1.3-0.7c0.4-0.4,0.5-0.9,0.5-1.4v-1.2c0-0.5,0.3-0.8,0.8-0.9l2.4-0.3c0.5-0.1,0.8,0.2,0.8,0.7v1.2
		c0,0.5-0.3,0.9-0.8,1.1l-2.5,1c-0.5,0.2-0.8,0.6-1,1.1l-0.7,2.6c-0.1,0.5-0.5,0.8-1,0.9l-11.8,1.7c-0.5,0.1-0.9-0.1-1-0.6l-0.7-2.4
		c-0.1-0.5-0.5-0.8-1-0.8l-2.4-0.3c-0.5-0.1-0.8-0.4-0.8-0.9v-10.3c0-0.5,0.3-0.9,0.8-1.1l2.4-1c0.5-0.2,0.8-0.6,1-1.1l0.7-2.6
		c0.1-0.5,0.5-0.8,1-0.9l11.9-1.7c0.5-0.1,0.9,0.1,1,0.6l0.7,2.4c0.1,0.5,0.5,0.8,1,0.8l2.4,0.3c0.5,0.1,0.8,0.4,0.8,0.9v2.4
		c0,0.5-0.3,0.8-0.8,0.9l-2.1,0.3c-0.5,0.1-0.9,0.4-1,0.9l-0.7,2.6c-0.1,0.2-0.2,0.4-0.4,0.6c-0.2,0.1-0.4,0.2-0.6,0.3l-11.2,1.6
		c-0.5,0.1-0.8-0.2-0.8-0.7V125.9z"/>
	<path d="M147.3,129v-15.4c0-0.5,0.3-0.8,0.8-0.9l2.4-0.3c0.5-0.1,0.8,0.2,0.8,0.7v15.4c0,0.5,0.2,0.9,0.5,1.2
		c0.4,0.3,0.8,0.4,1.3,0.3l3.2-0.5c0.5-0.1,0.8,0.2,0.8,0.7v2.4c0,0.5-0.3,0.8-0.8,0.9l-3.1,0.4c-0.5,0.1-0.9-0.1-1-0.6l-0.7-2.4
		c-0.1-0.5-0.5-0.8-1-0.8l-2.5-0.3C147.5,129.9,147.3,129.6,147.3,129z M170.9,125.7c0,0.5-0.3,0.9-0.8,1.1l-2.5,1
		c-0.5,0.2-0.8,0.6-1,1.1l-0.7,2.6c-0.1,0.5-0.5,0.8-1,0.9l-2,0.3c-0.5,0.1-0.9-0.1-1-0.6l-0.7-2.3c-0.1-0.5-0.5-0.8-1-0.8l-2.5-0.3
		c-0.5-0.1-0.7-0.4-0.7-0.9v-9.4c0-0.5,0.3-0.8,0.8-0.9l2.4-0.3c0.5-0.1,0.8,0.2,0.8,0.7v9.4c0,0.5,0.2,0.9,0.5,1.2
		c0.4,0.3,0.8,0.4,1.3,0.4l2.2-0.3c0.5-0.1,0.9-0.3,1.3-0.7c0.4-0.4,0.5-0.8,0.5-1.4v-15.4c0-0.5,0.3-0.8,0.8-0.9l2.4-0.3
		c0.5-0.1,0.8,0.2,0.8,0.7V125.7z"/>
	<path d="M182.3,129.9c-0.5,0.1-0.9-0.1-1-0.6l-0.7-2.4c-0.1-0.5-0.5-0.8-1-0.8l-2.4-0.3c-0.5-0.1-0.8-0.4-0.8-0.9v-10.3
		c0-0.5,0.3-0.9,0.8-1.1l2.4-1c0.5-0.2,0.8-0.6,1-1.1l0.7-2.6c0.1-0.5,0.5-0.8,1-0.9l11.8-1.7c0.5-0.1,0.9,0.1,1,0.6l0.7,2.4
		c0.1,0.5,0.5,0.8,1,0.8l2.5,0.3c0.5,0.1,0.8,0.4,0.8,0.9v10.3c0,0.5-0.3,0.9-0.8,1.1l-2.5,1c-0.5,0.2-0.8,0.6-1,1.1l-0.7,2.6
		c-0.1,0.5-0.5,0.8-1,0.9L182.3,129.9z M182.3,112c-0.5,0.1-0.9,0.3-1.3,0.7c-0.4,0.4-0.5,0.9-0.5,1.4v10.4c0,0.5,0.2,0.9,0.5,1.2
		c0.4,0.3,0.8,0.4,1.3,0.3l12-1.7c0.5-0.1,0.9-0.3,1.3-0.7c0.4-0.4,0.5-0.8,0.5-1.4v-10.4c0-0.5-0.2-0.9-0.5-1.2
		c-0.4-0.3-0.8-0.4-1.3-0.4L182.3,112z"/>
	<path d="M229.3,109.5c0,0.5-0.3,0.8-0.8,0.9l-2.4,0.3c-0.5,0.1-0.8-0.2-0.8-0.7v-2.4c0-0.5-0.2-0.9-0.5-1.2s-0.8-0.4-1.3-0.4
		l-13,1.8c-0.5,0.1-0.8,0.4-0.8,0.9v16.4c0,0.5-0.3,0.8-0.8,0.9l-2.4,0.3c-0.5,0.1-0.8-0.2-0.8-0.7v-20.4c0-0.5,0.3-0.8,0.8-0.9
		l16.9-2.4c0.5-0.1,0.8,0.1,1,0.6l0.7,2.4c0.1,0.2,0.2,0.4,0.4,0.5c0.2,0.1,0.4,0.1,0.7,0.1l2.4-0.3c0.5-0.1,0.8,0.2,0.8,0.7V109.5z
		"/>
	<path d="M240.7,112.7c-0.5,0.1-0.9-0.1-1-0.6l-0.7-2.4c-0.1-0.5-0.5-0.8-1-0.8l-2.4-0.3c-0.5-0.1-0.8-0.4-0.8-0.9V95.4
		c0-0.5,0.3-0.8,0.8-0.9l2.4-0.3c0.5-0.1,0.8,0.2,0.8,0.7v12.4c0,0.5,0.2,0.9,0.5,1.2c0.4,0.3,0.8,0.4,1.3,0.4l6.9-1
		c0.5-0.1,0.9-0.3,1.3-0.7c0.4-0.4,0.5-0.8,0.5-1.4v-1.4c0-0.5,0.3-0.8,0.8-0.9l2.4-0.3c0.5-0.1,1-0.3,1.4-0.7
		c0.4-0.4,0.6-0.8,0.6-1.4v-2.4c0-0.5,0.3-0.8,0.8-0.9l2.4-0.3c0.5-0.1,0.8,0.2,0.8,0.7v2.4c0,0.5-0.3,0.9-0.8,1.1l-2.5,1
		c-0.5,0.2-0.8,0.6-1,1.1l-0.7,2.6c-0.1,0.5-0.5,0.8-1,0.9l-2.4,0.3c-0.5,0.1-0.9,0.4-1,0.9l-0.1,0.5c-0.1,0.2-0.1,0.5-0.1,0.8
		c0,0.3,0,0.5,0.1,0.7l0.1,0.4c0.1,0.5,0.5,0.7,1,0.6l2.4-0.3c0.5-0.1,0.9,0.1,1,0.6l0.7,2.4c0.1,0.5,0.5,0.8,1,0.8l2.5,0.3
		c0.5,0.1,0.8,0.4,0.8,0.9v2.4c0,0.5-0.3,0.8-0.8,0.9l-2.4,0.3c-0.5,0.1-0.8-0.2-0.8-0.7v-2.4c0-0.5-0.2-0.9-0.6-1.2
		c-0.4-0.3-0.8-0.4-1.4-0.3l-2.4,0.3c-0.5,0.1-0.8-0.2-0.8-0.7v-1.4c0-0.5-0.2-0.9-0.5-1.2c-0.4-0.3-0.8-0.4-1.3-0.3L240.7,112.7z
		 M234.9,121.8v-7.4c0-0.5,0.3-0.8,0.8-0.9l2.4-0.3c0.5-0.1,0.8,0.2,0.8,0.7v7.4c0,0.5-0.3,0.8-0.8,0.9l-2.4,0.3
		C235.1,122.5,234.9,122.3,234.9,121.8z"/>
</g>
</svg>
