<?xml version="1.0" encoding="UTF-8"?><svg id="Layer_1" xmlns="http://www.w3.org/2000/svg" viewBox="0 0 559.43 71.5"><g><path d="M98.1,26.02c.58,0,.94,.28,1.09,.82l.74,2.65c.14,.55,.51,.82,1.09,.82h2.61c.58,0,.87,.29,.87,.87v12.43c0,.55,.2,1.02,.59,1.42,.39,.39,.86,.58,1.41,.58h7.78c.58,0,.87,.29,.87,.87v2.56c0,.58-.29,.87-.87,.87h-7.74c-.58,0-.94-.28-1.09-.82l-.74-2.65c-.15-.55-.49-.9-1.04-1.04l-2.7-.74c-.55-.15-.83-.51-.83-1.09v-11.26c0-.58-.19-1.06-.59-1.43-.39-.38-.86-.57-1.41-.57h-7.78c-.58,0-.87-.29-.87-.87v-2.56c0-.58,.29-.87,.87-.87h7.74Zm1.17,19.6c.58,0,.87,.29,.87,.87v2.56c0,.58-.29,.87-.87,.87h-8.91c-.58,0-.87-.29-.87-.87v-2.56c0-.58,.29-.87,.87-.87h8.91Zm4.78-21.78h-3.04c-.58,0-.87-.29-.87-.87v-2.61c0-.58,.29-.87,.87-.87h3.04c.58,0,.87,.29,.87,.87v2.61c0,.58-.29,.87-.87,.87Z"/><path d="M143.45,49.93c-.58,0-.87-.29-.87-.87v-16.69c0-.55-.19-1.02-.59-1.42-.39-.39-.86-.59-1.41-.59h-14.17c-.58,0-.87,.29-.87,.87v17.82c0,.58-.29,.87-.87,.87h-2.56c-.58,0-.87-.29-.87-.87V26.89c0-.58,.29-.87,.87-.87h18.43c.58,0,.94,.28,1.09,.82l.74,2.7c.15,.55,.49,.9,1.04,1.04l2.65,.74c.55,.15,.83,.51,.83,1.09v16.65c0,.58-.29,.87-.87,.87h-2.56Z"/><path d="M160.75,19.5c.58,0,.87,.29,.87,.87v3.61c0,.58-.28,.94-.83,1.09l-2.7,.74c-.55,.15-.9,.5-1.04,1.04l-.74,2.65c-.15,.55-.51,.82-1.09,.82h-2.69c-.58,0-.87-.29-.87-.87v-2.56c0-.58,.29-.87,.87-.87h2.74c.55,0,1.02-.2,1.41-.59,.39-.39,.59-.86,.59-1.42v-3.65c0-.58,.29-.87,.87-.87h2.61Zm1.09,26.91c-.15-.55-.51-.83-1.09-.83h-2.61c-.58,0-.87-.29-.87-.87v-12.34c0-.58,.28-.94,.83-1.09l2.7-.74c.55-.15,.9-.5,1.04-1.04l.74-2.65c.14-.55,.51-.82,1.09-.82h9.78c.58,0,.87,.29,.87,.87v2.56c0,.58-.29,.87-.87,.87h-9.83c-.55,0-1.02,.19-1.41,.59s-.59,.86-.59,1.41v11.3c0,.58,.19,1.05,.56,1.42,.38,.36,.84,.54,1.39,.54h8.74c.55,0,1.02-.18,1.41-.54,.39-.36,.59-.83,.59-1.42v-2.95c0-.58,.29-.87,.87-.87h2.56c.58,0,.87,.29,.87,.87v2.91c0,.58-.28,.94-.83,1.09l-2.74,.7c-.55,.15-.9,.49-1.04,1.04l-.74,2.7c-.15,.55-.51,.82-1.09,.82h-8.56c-.58,0-.94-.28-1.09-.82l-.7-2.7Z"/><path d="M191.18,36.67c0-.58,.29-.87,.87-.87h12c.52,0,.98-.19,1.39-.58,.41-.39,.61-.85,.61-1.37v-1.52c0-.58-.19-1.05-.59-1.41-.39-.36-.86-.54-1.41-.54h-13.04c-.55,0-1.02,.18-1.41,.54-.39,.36-.59,.83-.59,1.41v11.26c0,.55,.2,1.02,.59,1.41,.39,.39,.86,.59,1.41,.59h13.04c.55,0,1.02-.19,1.41-.59,.39-.39,.59-.86,.59-1.41v-1.35c0-.58,.29-.87,.87-.87h2.56c.58,0,.87,.29,.87,.87v1.31c0,.58-.28,.94-.83,1.09l-2.74,.74c-.55,.15-.9,.49-1.04,1.04l-.74,2.7c-.15,.55-.51,.82-1.09,.82h-12.87c-.58,0-.94-.28-1.09-.82l-.74-2.7c-.15-.55-.49-.9-1.04-1.04l-2.65-.74c-.55-.15-.83-.51-.83-1.09v-11.17c0-.58,.28-.94,.83-1.09l2.65-.69c.55-.15,.9-.49,1.04-1.04l.74-2.7c.15-.55,.51-.82,1.09-.82h12.96c.58,0,.94,.28,1.09,.82l.74,2.7c.15,.55,.49,.9,1.04,1.04l2.65,.69c.55,.15,.83,.51,.83,1.09v2.56c0,.58-.29,.87-.87,.87h-2.3c-.58,0-.94,.28-1.09,.83l-.78,2.74c-.06,.26-.19,.46-.39,.59s-.44,.19-.7,.19h-12.17c-.58,0-.87-.29-.87-.87v-2.61Z"/><path d="M242.08,34.93c0,.58-.29,.87-.87,.87h-2.56c-.58,0-.87-.29-.87-.87v-2.56c0-.55-.19-1.02-.59-1.42-.39-.39-.86-.59-1.41-.59h-14.17c-.58,0-.87,.29-.87,.87v17.82c0,.58-.29,.87-.87,.87h-2.56c-.58,0-.87-.29-.87-.87V26.89c0-.58,.29-.87,.87-.87h18.35c.55,0,.91,.28,1.09,.82l.78,2.7c.06,.26,.19,.46,.41,.61s.46,.22,.72,.22h2.56c.58,0,.87,.29,.87,.87v3.7Z"/><path d="M254.95,24.67c0-.58,.29-.87,.87-.87h2.61c.58,0,.94-.28,1.09-.83l.74-2.65c.15-.55,.51-.83,1.09-.83h11.61c.58,0,.87,.29,.87,.87v2.56c0,.58-.29,.87-.87,.87h-11.65c-.55,0-1.02,.19-1.41,.57-.39,.38-.59,.85-.59,1.43v2.48c0,.58-.28,.94-.83,1.09l-2.7,.74c-.55,.15-.9,.49-1.04,1.04l-.74,2.65c-.15,.55-.51,.83-1.09,.83h-3.87c-.58,0-.87-.29-.87-.87v-2.56c0-.58,.29-.87,.87-.87h3.91c.55,0,1.02-.19,1.41-.59,.39-.39,.59-.86,.59-1.41v-3.65Zm.87,25.26c-.58,0-.87-.29-.87-.87v-12.39c0-.58,.28-.94,.83-1.09l2.7-.74c.55-.15,.9-.49,1.04-1.04l.74-2.65c.15-.55,.51-.83,1.09-.83h9.43c.58,0,.87,.29,.87,.87v2.56c0,.58-.29,.87-.87,.87h-9.48c-.55,0-1.02,.19-1.41,.59-.39,.39-.59,.86-.59,1.41v12.43c0,.58-.29,.87-.87,.87h-2.61Z"/><path d="M305.55,34.93c0,.58-.29,.87-.87,.87h-2.57c-.58,0-.86-.29-.86-.87v-2.56c0-.55-.2-1.02-.59-1.42-.4-.39-.86-.59-1.42-.59h-13.04c-.55,0-1.03,.2-1.42,.59-.39,.39-.59,.86-.59,1.42v1.35c0,.58-.29,.87-.87,.87h-2.56c-.58,0-.87-.29-.87-.87v-1.31c0-.58,.28-.94,.83-1.09l2.74-.74c.54-.15,.9-.49,1.04-1.04l.74-2.7c.14-.55,.5-.82,1.08-.82h12.87c.58,0,.94,.28,1.08,.82l.74,2.7c.14,.55,.49,.9,1.04,1.04l2.65,.74c.55,.15,.83,.51,.83,1.09v2.52Zm0,14.13c0,.58-.29,.87-.87,.87h-18.43c-.58,0-.94-.28-1.09-.82l-.74-2.7c-.15-.55-.5-.9-1.05-1.04l-2.65-.7c-.55-.15-.83-.51-.83-1.09v-2.56c0-.58,.29-.87,.87-.87h2.3c.58,0,.94-.28,1.09-.82l.79-2.74c.14-.52,.5-.79,1.08-.79h13.17c.58,0,.94,.28,1.08,.83l.74,2.7c.14,.55,.49,.9,1.04,1.04l2.65,.74c.55,.15,.83,.51,.83,1.09v6.87Zm-5.17-3.48c.58,0,.87-.29,.87-.87v-2.56c0-.55-.2-1.02-.59-1.41-.4-.39-.86-.59-1.42-.59h-13.04c-.52,0-.99,.19-1.39,.59s-.61,.85-.61,1.37v1.52c0,.58,.2,1.05,.59,1.42,.39,.36,.86,.54,1.42,.54h14.17Z"/><path d="M336.42,41.41c.58,0,.87,.29,.87,.87v1.31c0,.58-.28,.94-.82,1.09l-2.74,.7c-.55,.15-.9,.49-1.04,1.04l-.74,2.7c-.15,.55-.51,.82-1.09,.82h-12.87c-.58,0-.94-.28-1.09-.82l-.74-2.7c-.15-.55-.49-.9-1.04-1.04l-2.65-.7c-.55-.15-.83-.51-.83-1.09v-11.17c0-.58,.28-.94,.83-1.09l2.65-.74c.55-.15,.9-.49,1.04-1.04l.74-2.7c.15-.55,.51-.82,1.09-.82h12.87c.58,0,.94,.28,1.09,.82l.74,2.7c.14,.55,.49,.9,1.04,1.04l2.74,.74c.55,.15,.82,.51,.82,1.09v1.31c0,.58-.29,.87-.87,.87h-2.56c-.58,0-.87-.29-.87-.87v-1.35c0-.55-.2-1.02-.59-1.42-.39-.39-.86-.59-1.42-.59h-13.04c-.55,0-1.02,.2-1.41,.59s-.59,.86-.59,1.42v11.26c0,.58,.19,1.05,.59,1.42,.39,.36,.86,.54,1.41,.54h13.04c.55,0,1.02-.18,1.42-.54,.39-.36,.59-.83,.59-1.42v-1.35c0-.58,.29-.87,.87-.87h2.56Z"/><path d="M349.85,36.67c0-.58,.29-.87,.87-.87h12c.52,0,.99-.19,1.39-.58,.4-.39,.61-.85,.61-1.37v-1.52c0-.58-.2-1.05-.59-1.41-.39-.36-.86-.54-1.42-.54h-13.04c-.55,0-1.02,.18-1.41,.54-.39,.36-.59,.83-.59,1.41v11.26c0,.55,.19,1.02,.59,1.41,.39,.39,.86,.59,1.41,.59h13.04c.55,0,1.02-.19,1.42-.59s.59-.86,.59-1.41v-1.35c0-.58,.29-.87,.87-.87h2.56c.58,0,.87,.29,.87,.87v1.31c0,.58-.28,.94-.82,1.09l-2.74,.74c-.55,.15-.9,.49-1.04,1.04l-.74,2.7c-.15,.55-.51,.82-1.09,.82h-12.87c-.58,0-.94-.28-1.09-.82l-.74-2.7c-.15-.55-.49-.9-1.04-1.04l-2.65-.74c-.55-.15-.83-.51-.83-1.09v-11.17c0-.58,.28-.94,.83-1.09l2.65-.69c.55-.15,.9-.49,1.04-1.04l.74-2.7c.15-.55,.51-.82,1.09-.82h12.96c.58,0,.94,.28,1.09,.82l.74,2.7c.15,.55,.49,.9,1.04,1.04l2.65,.69c.55,.15,.82,.51,.82,1.09v2.56c0,.58-.29,.87-.87,.87h-2.3c-.58,0-.94,.28-1.09,.83l-.78,2.74c-.06,.26-.19,.46-.39,.59s-.44,.19-.7,.19h-12.17c-.58,0-.87-.29-.87-.87v-2.61Z"/><path d="M386.62,49.93c-.58,0-.87-.29-.87-.87v-3.04c0-.58,.29-.87,.87-.87h2.61c.58,0,.87,.29,.87,.87v3.04c0,.58-.29,.87-.87,.87h-2.61Z"/><path d="M414.62,19.5c.58,0,.87,.29,.87,.87v3.61c0,.58-.27,.94-.82,1.09l-2.7,.74c-.55,.15-.9,.5-1.04,1.04l-.74,2.65c-.15,.55-.51,.82-1.09,.82h-2.7c-.58,0-.87-.29-.87-.87v-2.56c0-.58,.29-.87,.87-.87h2.74c.55,0,1.02-.2,1.42-.59,.39-.39,.59-.86,.59-1.42v-3.65c0-.58,.29-.87,.87-.87h2.61Zm1.09,26.91c-.15-.55-.51-.83-1.09-.83h-2.61c-.58,0-.87-.29-.87-.87v-12.34c0-.58,.27-.94,.82-1.09l2.7-.74c.55-.15,.9-.5,1.04-1.04l.74-2.65c.15-.55,.51-.82,1.09-.82h9.78c.58,0,.87,.29,.87,.87v2.56c0,.58-.29,.87-.87,.87h-9.82c-.55,0-1.02,.19-1.42,.59-.39,.39-.59,.86-.59,1.41v11.3c0,.58,.19,1.05,.57,1.42,.38,.36,.84,.54,1.39,.54h8.74c.55,0,1.02-.18,1.42-.54,.39-.36,.59-.83,.59-1.42v-2.95c0-.58,.29-.87,.87-.87h2.56c.58,0,.87,.29,.87,.87v2.91c0,.58-.28,.94-.82,1.09l-2.74,.7c-.55,.15-.9,.49-1.04,1.04l-.74,2.7c-.15,.55-.51,.82-1.09,.82h-8.56c-.58,0-.94-.28-1.09-.82l-.7-2.7Z"/><path d="M444.92,49.93c-.58,0-.94-.28-1.09-.82l-.74-2.7c-.15-.55-.49-.9-1.04-1.04l-2.65-.7c-.55-.15-.83-.51-.83-1.09v-11.17c0-.58,.28-.94,.83-1.09l2.65-.74c.55-.15,.9-.49,1.04-1.04l.74-2.7c.15-.55,.51-.82,1.09-.82h12.87c.58,0,.94,.28,1.09,.82l.74,2.7c.14,.55,.49,.9,1.04,1.04l2.74,.74c.55,.15,.82,.51,.82,1.09v11.17c0,.58-.28,.94-.82,1.09l-2.74,.7c-.55,.15-.9,.49-1.04,1.04l-.74,2.7c-.15,.55-.51,.82-1.09,.82h-12.87Zm-.04-19.56c-.55,0-1.02,.2-1.41,.59s-.59,.86-.59,1.42v11.26c0,.58,.19,1.05,.59,1.42,.39,.36,.86,.54,1.41,.54h13.04c.55,0,1.02-.18,1.42-.54,.39-.36,.59-.83,.59-1.42v-11.26c0-.55-.2-1.02-.59-1.42-.39-.39-.86-.59-1.42-.59h-13.04Z"/><path d="M476.66,49.93c-.58,0-.94-.28-1.09-.82l-.74-2.7c-.15-.55-.49-.9-1.04-1.04l-2.65-.7c-.55-.15-.83-.51-.83-1.09v-11.17c0-.58,.28-.94,.83-1.09l2.65-.74c.55-.15,.9-.49,1.04-1.04l.74-2.7c.15-.55,.51-.82,1.09-.82h12.87c.58,0,.94,.28,1.09,.82l.74,2.7c.14,.55,.49,.9,1.04,1.04l2.74,.74c.55,.15,.82,.51,.82,1.09v11.17c0,.58-.28,.94-.82,1.09l-2.74,.7c-.55,.15-.9,.49-1.04,1.04l-.74,2.7c-.15,.55-.51,.82-1.09,.82h-12.87Zm-.04-19.56c-.55,0-1.02,.2-1.41,.59s-.59,.86-.59,1.42v11.26c0,.58,.19,1.05,.59,1.42,.39,.36,.86,.54,1.41,.54h13.04c.55,0,1.02-.18,1.42-.54,.39-.36,.59-.83,.59-1.42v-11.26c0-.55-.2-1.02-.59-1.42-.39-.39-.86-.59-1.42-.59h-13.04Z"/><path d="M512.7,43.58V25.8c0-.55-.2-1.02-.59-1.41s-.86-.59-1.42-.59h-7.78c-.58,0-.87-.29-.87-.87v-2.56c0-.58,.29-.87,.87-.87h7.74c.58,0,.94,.28,1.09,.83l.74,2.65c.15,.55,.49,.9,1.04,1.04l2.7,.74c.55,.15,.83,.51,.83,1.09v17.78c0,.55,.19,1.02,.58,1.42,.39,.39,.86,.58,1.42,.58h7.78c.58,0,.87,.29,.87,.87v2.56c0,.58-.29,.87-.87,.87h-7.74c-.58,0-.94-.28-1.09-.82l-.74-2.65c-.15-.55-.49-.9-1.04-1.04l-2.7-.74c-.55-.15-.82-.51-.82-1.09Zm-.87,2.04c.58,0,.87,.29,.87,.87v2.56c0,.58-.29,.87-.87,.87h-8.91c-.58,0-.87-.29-.87-.87v-2.56c0-.58,.29-.87,.87-.87h8.91Z"/><path d="M559.43,43.54c0,.58-.28,.94-.82,1.09l-2.65,.74c-.55,.15-.9,.49-1.04,1.04l-.74,2.7c-.15,.55-.51,.82-1.09,.82h-12.87c-.58,0-.94-.28-1.09-.82l-.74-2.7c-.15-.55-.5-.9-1.04-1.04l-2.74-.74c-.55-.15-.83-.51-.83-1.09v-1.31c0-.58,.29-.87,.87-.87h2.56c.58,0,.87,.29,.87,.87v1.35c0,.55,.19,1.02,.59,1.41,.39,.39,.86,.59,1.41,.59h13.04c.55,0,1.02-.19,1.42-.59s.59-.86,.59-1.41v-1.48c0-.52-.21-.98-.61-1.37-.41-.39-.87-.59-1.39-.59h-13.21c-.58,0-.94-.26-1.09-.78l-.79-2.74c-.15-.55-.51-.83-1.09-.83h-2.3c-.58,0-.87-.29-.87-.87v-2.56c0-.58,.28-.94,.83-1.09l2.65-.69c.55-.15,.9-.49,1.04-1.04l.74-2.7c.15-.55,.51-.82,1.09-.82h12.87c.58,0,.94,.28,1.09,.82l.74,2.7c.14,.55,.49,.9,1.04,1.04l2.74,.74c.55,.15,.82,.51,.82,1.09v1.31c0,.58-.29,.87-.87,.87h-2.56c-.58,0-.87-.29-.87-.87v-1.35c0-.55-.2-1.02-.59-1.42-.39-.39-.86-.59-1.42-.59h-13.04c-.55,0-1.02,.18-1.41,.54-.39,.36-.59,.83-.59,1.41v1.52c0,.52,.2,.98,.61,1.37,.4,.39,.87,.58,1.39,.58h13.21c.26,0,.5,.07,.7,.2s.33,.33,.39,.59l.78,2.74c.15,.55,.51,.82,1.09,.82h2.3c.58,0,.87,.29,.87,.87v2.52Z"/></g><path d="M62.27,0H9.22C4.13,0,0,4.13,0,9.22V62.27c0,5.09,4.13,9.22,9.22,9.22H62.27c5.09,0,9.22-4.13,9.22-9.22V9.22c0-5.09-4.13-9.22-9.22-9.22Zm-18.86,27.27c-1.05,2.31-1.87,5.03-2.56,7.36-.2,.67-.81,1.13-1.51,1.13h-8.21c-1.24,.06-4.1,.54-4.97,3.64-.02,.09-.05,.18-.07,.27,0,.02-.01,.04-.02,.06-.42,1.78-.78,3.58-1.08,5.4-.12,.76-.78,1.32-1.55,1.32H13.28c-.98,0-1.72-.88-1.56-1.84,.44-2.62,1.02-5.2,1.73-7.72,.19-.68,.81-1.14,1.51-1.14h6.4s.09,0,.13,0c.64-.05,5.65-.58,6.92-3.86,0-.02,.02-.04,.03-.06,.04-.1,.07-.21,.11-.31,.57-1.56,1.24-3.8,2.19-5.63,.27-.52,.81-.86,1.4-.86h9.83c1.15,0,1.91,1.19,1.43,2.23Zm14.81,19.19h-10.17c-.77,0-1.43-.56-1.55-1.32-.4-2.51-.93-4.97-1.58-7.39-.27-1,.48-1.99,1.52-1.99h10.1c.7,0,1.32,.46,1.51,1.14,.71,2.52,1.29,5.1,1.73,7.72,.16,.96-.58,1.84-1.56,1.84Z"/></svg>