<svg width="1495" height="545" viewBox="0 0 1495 545" fill="none" xmlns="http://www.w3.org/2000/svg">
<g clip-path="url(#clip0_881_1032)">
<path opacity="0.4" d="M59.1865 57.3965C63.0806 57.3965 65.6929 55.4556 66.4985 51.9766H64.2769C63.6421 54.125 61.7866 55.3701 59.1987 55.3701C55.7197 55.3701 53.5103 52.6113 53.5103 48.29C53.5103 44.0054 55.7441 41.2222 59.1865 41.2222C61.7012 41.2222 63.7153 42.7358 64.2769 45.043H66.4985C65.937 41.5273 63.0195 39.1958 59.1865 39.1958C54.3647 39.1958 51.252 42.7603 51.252 48.29C51.252 53.8687 54.3281 57.3965 59.1865 57.3965ZM68.8789 57.1035H71.0029V49.7061C71.0029 47.5088 72.3091 46.0684 74.4209 46.0684C76.4106 46.0684 77.4238 47.2769 77.4238 49.291V57.1035H79.5479V48.9004C79.5479 46.0684 77.8633 44.1885 75.0801 44.1885C73.1514 44.1885 71.7598 45.0186 71.0518 46.4346H71.0029V39.4888H68.8789V57.1035ZM87.5068 57.3232C91.0103 57.3232 93.3784 54.7964 93.3784 50.7559C93.3784 46.7031 91.0103 44.1885 87.5068 44.1885C83.9912 44.1885 81.623 46.7031 81.623 50.7559C81.623 54.7964 83.9912 57.3232 87.5068 57.3232ZM87.5068 55.4556C85.2607 55.4556 83.7837 53.7466 83.7837 50.7559C83.7837 47.7651 85.2607 46.0562 87.5068 46.0562C89.7529 46.0562 91.2178 47.7651 91.2178 50.7559C91.2178 53.7466 89.7529 55.4556 87.5068 55.4556ZM95.6367 57.1035H97.7607V44.4082H95.6367V57.1035ZM96.6987 42.272C97.4312 42.272 98.0293 41.6738 98.0293 40.9536C98.0293 40.2212 97.4312 39.6353 96.6987 39.6353C95.9785 39.6353 95.3804 40.2212 95.3804 40.9536C95.3804 41.6738 95.9785 42.272 96.6987 42.272ZM111.176 48.5708C110.908 46.2881 109.016 44.1885 105.842 44.1885C102.338 44.1885 100.007 46.752 100.007 50.7559C100.007 54.8452 102.351 57.3232 105.866 57.3232C108.747 57.3232 110.871 55.541 111.201 53.0142H109.113C108.747 54.54 107.612 55.4556 105.878 55.4556C103.681 55.4556 102.167 53.71 102.167 50.7559C102.167 47.875 103.657 46.0562 105.854 46.0562C107.722 46.0562 108.796 47.1914 109.101 48.5708H111.176ZM118.244 46.0317C120.246 46.0317 121.577 47.5454 121.625 49.6694H114.729C114.863 47.5576 116.254 46.0317 118.244 46.0317ZM121.577 53.4658C121.223 54.6621 120.039 55.48 118.427 55.48C116.145 55.48 114.716 53.8809 114.716 51.4517V51.3296H123.823V50.5239C123.823 46.6787 121.711 44.1885 118.281 44.1885C114.777 44.1885 112.531 46.8618 112.531 50.8047C112.531 54.7964 114.741 57.3232 118.378 57.3232C121.149 57.3232 123.298 55.6875 123.664 53.4658H121.577ZM125.751 47.9116C125.751 49.645 126.85 50.7925 129.084 51.3662L131.318 51.9399C132.746 52.3184 133.271 52.8066 133.271 53.71C133.271 54.8574 132.209 55.5898 130.488 55.5898C128.767 55.5898 127.766 54.8818 127.534 53.5635H125.41C125.629 55.8096 127.57 57.3232 130.354 57.3232C133.32 57.3232 135.407 55.7607 135.407 53.5513C135.407 51.6836 134.479 50.7559 131.916 50.1089L129.951 49.6328C128.51 49.2666 127.839 48.6807 127.839 47.8018C127.839 46.6909 128.864 45.9219 130.415 45.9219C131.977 45.9219 132.966 46.6787 133.112 47.8994H135.139C135.041 45.751 133.112 44.1885 130.488 44.1885C127.692 44.1885 125.751 45.7388 125.751 47.9116Z" fill="#202020"/>
<path opacity="0.4" d="M400.039 39.4888V57.1035H405.959C411.196 57.1035 414.272 53.8442 414.272 48.29C414.272 42.748 411.184 39.4888 405.959 39.4888H400.039ZM402.236 41.4663H405.813C409.817 41.4663 412.026 43.9077 412.026 48.3145C412.026 52.6846 409.804 55.126 405.813 55.126H402.236V41.4663ZM421.767 46.0317C423.769 46.0317 425.1 47.5454 425.149 49.6694H418.252C418.386 47.5576 419.778 46.0317 421.767 46.0317ZM425.1 53.4658C424.746 54.6621 423.562 55.48 421.95 55.48C419.668 55.48 418.24 53.8809 418.24 51.4517V51.3296H427.346V50.5239C427.346 46.6787 425.234 44.1885 421.804 44.1885C418.301 44.1885 416.054 46.8618 416.054 50.8047C416.054 54.7964 418.264 57.3232 421.902 57.3232C424.673 57.3232 426.821 55.6875 427.187 53.4658H425.1ZM440.041 48.5708C439.773 46.2881 437.881 44.1885 434.707 44.1885C431.203 44.1885 428.872 46.752 428.872 50.7559C428.872 54.8452 431.216 57.3232 434.731 57.3232C437.612 57.3232 439.736 55.541 440.066 53.0142H437.978C437.612 54.54 436.477 55.4556 434.743 55.4556C432.546 55.4556 431.032 53.71 431.032 50.7559C431.032 47.875 432.522 46.0562 434.719 46.0562C436.587 46.0562 437.661 47.1914 437.966 48.5708H440.041ZM447.109 46.0317C449.111 46.0317 450.442 47.5454 450.49 49.6694H443.594C443.728 47.5576 445.119 46.0317 447.109 46.0317ZM450.442 53.4658C450.088 54.6621 448.904 55.48 447.292 55.48C445.01 55.48 443.581 53.8809 443.581 51.4517V51.3296H452.688V50.5239C452.688 46.6787 450.576 44.1885 447.146 44.1885C443.642 44.1885 441.396 46.8618 441.396 50.8047C441.396 54.7964 443.606 57.3232 447.243 57.3232C450.014 57.3232 452.163 55.6875 452.529 53.4658H450.442ZM461.001 44.1885C459.157 44.1885 457.68 45.1284 456.899 46.5566H456.85V44.4082H454.836V61.3394H456.96V55.0405H457.009C457.766 56.4321 459.231 57.3232 461.05 57.3232C464.248 57.3232 466.433 54.7354 466.433 50.7559C466.433 46.7764 464.236 44.1885 461.001 44.1885ZM460.586 55.4556C458.413 55.4556 456.948 53.5879 456.948 50.7559C456.948 47.936 458.413 46.0562 460.586 46.0562C462.844 46.0562 464.26 47.8872 464.26 50.7559C464.26 53.6367 462.844 55.4556 460.586 55.4556ZM469.265 41.3442V44.4082H467.373V46.1538H469.265V53.8076C469.265 56.249 470.168 57.2012 472.5 57.2012C473 57.2012 473.586 57.1646 473.843 57.1035V55.3213C473.696 55.3457 473.208 55.3823 472.964 55.3823C471.877 55.3823 471.389 54.8574 471.389 53.6978V46.1538H473.855V44.4082H471.389V41.3442H469.265ZM476.235 57.1035H478.359V44.4082H476.235V57.1035ZM477.297 42.272C478.03 42.272 478.628 41.6738 478.628 40.9536C478.628 40.2212 478.03 39.6353 477.297 39.6353C476.577 39.6353 475.979 40.2212 475.979 40.9536C475.979 41.6738 476.577 42.272 477.297 42.272ZM486.489 57.3232C489.992 57.3232 492.361 54.7964 492.361 50.7559C492.361 46.7031 489.992 44.1885 486.489 44.1885C482.973 44.1885 480.605 46.7031 480.605 50.7559C480.605 54.7964 482.973 57.3232 486.489 57.3232ZM486.489 55.4556C484.243 55.4556 482.766 53.7466 482.766 50.7559C482.766 47.7651 484.243 46.0562 486.489 46.0562C488.735 46.0562 490.2 47.7651 490.2 50.7559C490.2 53.7466 488.735 55.4556 486.489 55.4556ZM494.509 57.1035H496.633V49.6328C496.633 47.4844 497.939 46.0684 499.941 46.0684C501.894 46.0684 502.859 47.1914 502.859 49.2422V57.1035H504.983V48.8638C504.983 45.9829 503.371 44.1885 500.588 44.1885C498.623 44.1885 497.268 45.0674 496.56 46.4346H496.511V44.4082H494.509V57.1035Z" fill="#202020"/>
<path opacity="0.4" d="M628.535 39.4888V57.1035H634.456C639.692 57.1035 642.769 53.8442 642.769 48.29C642.769 42.748 639.68 39.4888 634.456 39.4888H628.535ZM630.732 41.4663H634.309C638.313 41.4663 640.522 43.9077 640.522 48.3145C640.522 52.6846 638.301 55.126 634.309 55.126H630.732V41.4663ZM650.264 46.0317C652.266 46.0317 653.596 47.5454 653.645 49.6694H646.748C646.882 47.5576 648.274 46.0317 650.264 46.0317ZM653.596 53.4658C653.242 54.6621 652.058 55.48 650.447 55.48C648.164 55.48 646.736 53.8809 646.736 51.4517V51.3296H655.842V50.5239C655.842 46.6787 653.73 44.1885 650.3 44.1885C646.797 44.1885 644.551 46.8618 644.551 50.8047C644.551 54.7964 646.76 57.3232 650.398 57.3232C653.169 57.3232 655.317 55.6875 655.684 53.4658H653.596ZM668.538 48.5708C668.269 46.2881 666.377 44.1885 663.203 44.1885C659.7 44.1885 657.368 46.752 657.368 50.7559C657.368 54.8452 659.712 57.3232 663.228 57.3232C666.108 57.3232 668.232 55.541 668.562 53.0142H666.475C666.108 54.54 664.973 55.4556 663.24 55.4556C661.042 55.4556 659.529 53.71 659.529 50.7559C659.529 47.875 661.018 46.0562 663.215 46.0562C665.083 46.0562 666.157 47.1914 666.462 48.5708H668.538ZM675.605 46.0317C677.607 46.0317 678.938 47.5454 678.987 49.6694H672.09C672.224 47.5576 673.616 46.0317 675.605 46.0317ZM678.938 53.4658C678.584 54.6621 677.4 55.48 675.789 55.48C673.506 55.48 672.078 53.8809 672.078 51.4517V51.3296H681.184V50.5239C681.184 46.6787 679.072 44.1885 675.642 44.1885C672.139 44.1885 669.893 46.8618 669.893 50.8047C669.893 54.7964 672.102 57.3232 675.74 57.3232C678.511 57.3232 680.659 55.6875 681.025 53.4658H678.938ZM689.497 44.1885C687.654 44.1885 686.177 45.1284 685.396 46.5566H685.347V44.4082H683.333V61.3394H685.457V55.0405H685.505C686.262 56.4321 687.727 57.3232 689.546 57.3232C692.744 57.3232 694.929 54.7354 694.929 50.7559C694.929 46.7764 692.732 44.1885 689.497 44.1885ZM689.082 55.4556C686.909 55.4556 685.444 53.5879 685.444 50.7559C685.444 47.936 686.909 46.0562 689.082 46.0562C691.34 46.0562 692.756 47.8872 692.756 50.7559C692.756 53.6367 691.34 55.4556 689.082 55.4556ZM697.761 41.3442V44.4082H695.869V46.1538H697.761V53.8076C697.761 56.249 698.665 57.2012 700.996 57.2012C701.497 57.2012 702.083 57.1646 702.339 57.1035V55.3213C702.192 55.3457 701.704 55.3823 701.46 55.3823C700.374 55.3823 699.885 54.8574 699.885 53.6978V46.1538H702.351V44.4082H699.885V41.3442H697.761ZM704.731 57.1035H706.855V44.4082H704.731V57.1035ZM705.793 42.272C706.526 42.272 707.124 41.6738 707.124 40.9536C707.124 40.2212 706.526 39.6353 705.793 39.6353C705.073 39.6353 704.475 40.2212 704.475 40.9536C704.475 41.6738 705.073 42.272 705.793 42.272ZM720.137 44.4082H717.927L714.412 54.8452H714.363L710.859 44.4082H708.625L713.301 57.1035H715.474L720.137 44.4082ZM726.533 46.0317C728.535 46.0317 729.866 47.5454 729.915 49.6694H723.018C723.152 47.5576 724.543 46.0317 726.533 46.0317ZM729.866 53.4658C729.512 54.6621 728.328 55.48 726.716 55.48C724.434 55.48 723.005 53.8809 723.005 51.4517V51.3296H732.112V50.5239C732.112 46.6787 730 44.1885 726.57 44.1885C723.066 44.1885 720.82 46.8618 720.82 50.8047C720.82 54.7964 723.03 57.3232 726.667 57.3232C729.438 57.3232 731.587 55.6875 731.953 53.4658H729.866ZM741.914 57.1035V39.4888H739.717V57.1035H741.914ZM745.002 57.1035H747.126V49.6328C747.126 47.4844 748.433 46.0684 750.435 46.0684C752.388 46.0684 753.352 47.1914 753.352 49.2422V57.1035H755.476V48.8638C755.476 45.9829 753.865 44.1885 751.082 44.1885C749.116 44.1885 747.761 45.0674 747.053 46.4346H747.004V44.4082H745.002V57.1035ZM758.87 41.3442V44.4082H756.978V46.1538H758.87V53.8076C758.87 56.249 759.773 57.2012 762.104 57.2012C762.605 57.2012 763.191 57.1646 763.447 57.1035V55.3213C763.301 55.3457 762.812 55.3823 762.568 55.3823C761.482 55.3823 760.994 54.8574 760.994 53.6978V46.1538H763.459V44.4082H760.994V41.3442H758.87ZM770.454 46.0317C772.456 46.0317 773.787 47.5454 773.835 49.6694H766.938C767.073 47.5576 768.464 46.0317 770.454 46.0317ZM773.787 53.4658C773.433 54.6621 772.249 55.48 770.637 55.48C768.354 55.48 766.926 53.8809 766.926 51.4517V51.3296H776.033V50.5239C776.033 46.6787 773.921 44.1885 770.491 44.1885C766.987 44.1885 764.741 46.8618 764.741 50.8047C764.741 54.7964 766.951 57.3232 770.588 57.3232C773.359 57.3232 775.508 55.6875 775.874 53.4658H773.787ZM778.181 57.1035H780.305V49.1934C780.305 47.3989 781.379 46.2148 783.027 46.2148C783.54 46.2148 783.992 46.2759 784.163 46.3369V44.2739C783.992 44.2495 783.674 44.1885 783.308 44.1885C781.819 44.1885 780.647 45.0796 780.232 46.4834H780.183V44.4082H778.181V57.1035ZM786.58 57.1035H788.704V46.1538H791.292V44.4082H788.691V43.0044C788.691 41.7471 789.241 41.1367 790.388 41.1367C790.742 41.1367 791.096 41.1733 791.353 41.21V39.4888C791.047 39.4399 790.535 39.3911 790.059 39.3911C787.715 39.3911 786.58 40.5508 786.58 42.9922V44.4082H784.81V46.1538H786.58V57.1035ZM796.943 55.5166C795.417 55.5166 794.404 54.7231 794.404 53.5146C794.404 52.3184 795.381 51.5615 797.09 51.4517L800.483 51.2441V52.2817C800.483 54.1128 798.945 55.5166 796.943 55.5166ZM796.467 57.3232C798.176 57.3232 799.788 56.3711 800.544 54.9185H800.593V57.1035H802.607V48.3267C802.607 45.7998 800.728 44.1885 797.749 44.1885C794.746 44.1885 792.866 45.873 792.72 48.0703H794.771C795.039 46.8252 796.064 46.0562 797.7 46.0562C799.458 46.0562 800.483 46.9839 800.483 48.5342V49.5962L796.846 49.8037C793.916 49.9746 792.244 51.3418 792.244 53.5146C792.244 55.7974 793.94 57.3232 796.467 57.3232ZM815.852 48.5708C815.583 46.2881 813.691 44.1885 810.518 44.1885C807.014 44.1885 804.683 46.752 804.683 50.7559C804.683 54.8452 807.026 57.3232 810.542 57.3232C813.423 57.3232 815.547 55.541 815.876 53.0142H813.789C813.423 54.54 812.288 55.4556 810.554 55.4556C808.357 55.4556 806.843 53.71 806.843 50.7559C806.843 47.875 808.333 46.0562 810.53 46.0562C812.397 46.0562 813.472 47.1914 813.777 48.5708H815.852ZM822.92 46.0317C824.922 46.0317 826.252 47.5454 826.301 49.6694H819.404C819.539 47.5576 820.93 46.0317 822.92 46.0317ZM826.252 53.4658C825.898 54.6621 824.714 55.48 823.103 55.48C820.82 55.48 819.392 53.8809 819.392 51.4517V51.3296H828.499V50.5239C828.499 46.6787 826.387 44.1885 822.957 44.1885C819.453 44.1885 817.207 46.8618 817.207 50.8047C817.207 54.7964 819.417 57.3232 823.054 57.3232C825.825 57.3232 827.974 55.6875 828.34 53.4658H826.252Z" fill="#202020"/>
<path opacity="0.4" d="M959.418 57.1035H961.726L963.508 52.062H970.6L972.382 57.1035H974.689L968.146 39.4888H965.974L959.418 57.1035ZM967.036 42.1255H967.084L969.941 50.1943H964.179L967.036 42.1255ZM976.496 57.1035H978.62V39.4888H976.496V57.1035ZM985.615 57.3477C986.03 57.3477 986.481 57.2988 986.75 57.2622V55.541C986.567 55.5532 986.323 55.5898 986.066 55.5898C984.931 55.5898 984.333 55.2114 984.333 53.8564V46.166H986.75V44.4082H984.333V40.978H982.136V44.4082H980.28V46.166H982.136V53.8687C982.136 56.2979 983.283 57.3477 985.615 57.3477ZM989.033 57.1035H991.157V49.2666C991.157 47.3379 992.231 46.1904 993.879 46.1904C994.392 46.1904 994.843 46.2515 995.014 46.3125V44.2495C994.843 44.2251 994.526 44.1641 994.16 44.1641C992.731 44.1641 991.633 45.0918 991.206 46.5566H991.157V44.4082H989.033V57.1035ZM1001.08 57.3477C1003.01 57.3477 1004.3 56.481 1004.99 55.2969H1005.04V57.1035H1007.16V44.4082H1005.04V51.8789C1005.04 54.0396 1003.73 55.4678 1001.73 55.4678C999.775 55.4678 998.811 54.3325 998.811 52.2695V44.4082H996.687V52.6479C996.687 55.541 998.298 57.3477 1001.08 57.3477ZM1011.13 42.2598C1011.87 42.2598 1012.46 41.6616 1012.46 40.9292C1012.46 40.1846 1011.87 39.5986 1011.13 39.5986C1010.4 39.5986 1009.8 40.1846 1009.8 40.9292C1009.8 41.6616 1010.4 42.2598 1011.13 42.2598ZM1010.07 57.1035H1012.19V44.4082H1010.07V57.1035ZM1019.59 57.3477C1022.42 57.3477 1024.52 55.7852 1024.52 53.5635V53.5513C1024.52 51.7446 1023.59 50.7314 1021.03 50.1089L1019.01 49.6206C1017.61 49.2788 1017.04 48.6807 1017.04 47.814V47.8018C1017.04 46.6787 1017.99 45.9341 1019.53 45.9341C1021.1 45.9341 1022.04 46.752 1022.21 47.9849L1022.22 48.0703H1024.25L1024.24 47.9116C1024.08 45.7876 1022.31 44.1641 1019.53 44.1641C1016.78 44.1641 1014.86 45.7144 1014.86 47.8994V47.9116C1014.86 49.7427 1016.02 50.8535 1018.42 51.4272L1020.43 51.9155C1021.87 52.2695 1022.35 52.7822 1022.35 53.6978V53.71C1022.35 54.8574 1021.32 55.5776 1019.6 55.5776C1017.87 55.5776 1016.93 54.833 1016.67 53.5635L1016.65 53.4414H1014.52L1014.53 53.5513C1014.79 55.8218 1016.6 57.3477 1019.59 57.3477ZM1026.73 57.1035H1028.85V49.1445C1028.85 47.3745 1030.07 46.0439 1031.76 46.0439C1033.33 46.0439 1034.36 47.0571 1034.36 48.5952V57.1035H1036.48V49.0347C1036.48 47.3013 1037.67 46.0439 1039.35 46.0439C1041.02 46.0439 1041.99 47.0815 1041.99 48.8271V57.1035H1044.11V48.3389C1044.11 45.812 1042.49 44.1641 1039.97 44.1641C1038.19 44.1641 1036.7 45.0796 1035.99 46.6055H1035.94C1035.4 45.0552 1034.11 44.1641 1032.38 44.1641C1030.74 44.1641 1029.47 45.0063 1028.9 46.2637H1028.85V44.4082H1026.73V57.1035Z" fill="#202020"/>
<rect x="63.7595" y="274.866" width="285.961" height="78.6494" rx="10" fill="#202020"/>
<rect x="643.191" y="293.177" width="40" height="40" rx="20" fill="#202020"/>
<rect x="1202.7" y="293.177" width="40" height="40" rx="20" fill="#202020"/>
<rect x="644.691" y="236.366" width="37" height="37" rx="18.5" stroke="#202020" stroke-width="3"/>
<rect x="1204.2" y="236.366" width="37" height="37" rx="18.5" stroke="#202020" stroke-width="3"/>
<rect x="644.691" y="355.017" width="37" height="37" rx="18.5" stroke="#202020" stroke-width="3"/>
<rect x="1204.2" y="355.017" width="37" height="37" rx="18.5" stroke="#202020" stroke-width="3"/>
<path d="M110.771 324.346C113.335 324.346 115.368 323.081 116.513 321.03H116.565V324.038H119.402V299.377H116.428V309.153H116.36C115.3 307.205 113.249 305.957 110.703 305.957C106.225 305.957 103.166 309.58 103.166 315.151C103.166 320.723 106.242 324.346 110.771 324.346ZM111.335 308.572C114.394 308.572 116.445 311.187 116.445 315.151C116.445 319.133 114.394 321.731 111.335 321.731C108.191 321.731 106.208 319.185 106.208 315.151C106.208 311.135 108.191 308.572 111.335 308.572ZM130.783 324.346C135.688 324.346 139.004 320.808 139.004 315.151C139.004 309.478 135.688 305.957 130.783 305.957C125.862 305.957 122.546 309.478 122.546 315.151C122.546 320.808 125.862 324.346 130.783 324.346ZM130.783 321.731C127.639 321.731 125.571 319.338 125.571 315.151C125.571 310.964 127.639 308.572 130.783 308.572C133.928 308.572 135.979 310.964 135.979 315.151C135.979 319.338 133.928 321.731 130.783 321.731ZM148.882 311.169C148.882 313.596 150.42 315.203 153.547 316.006L156.674 316.809C158.674 317.339 159.409 318.022 159.409 319.287C159.409 320.894 157.922 321.919 155.512 321.919C153.103 321.919 151.701 320.928 151.377 319.082H148.403C148.711 322.227 151.428 324.346 155.324 324.346C159.477 324.346 162.4 322.158 162.4 319.065C162.4 316.45 161.101 315.151 157.512 314.246L154.76 313.579C152.744 313.066 151.804 312.246 151.804 311.016C151.804 309.46 153.239 308.384 155.41 308.384C157.597 308.384 158.982 309.443 159.187 311.152H162.024C161.887 308.145 159.187 305.957 155.512 305.957C151.599 305.957 148.882 308.127 148.882 311.169ZM172.859 324.346C177.763 324.346 181.079 320.808 181.079 315.151C181.079 309.478 177.763 305.957 172.859 305.957C167.937 305.957 164.621 309.478 164.621 315.151C164.621 320.808 167.937 324.346 172.859 324.346ZM172.859 321.731C169.714 321.731 167.646 319.338 167.646 315.151C167.646 310.964 169.714 308.572 172.859 308.572C176.003 308.572 178.054 310.964 178.054 315.151C178.054 319.338 176.003 321.731 172.859 321.731ZM184.087 324.038H187.06V312.896C187.06 310.435 188.769 308.589 191.128 308.589C193.332 308.589 194.768 309.99 194.768 312.126V324.038H197.741V312.742C197.741 310.332 199.399 308.589 201.758 308.589C204.099 308.589 205.449 310.024 205.449 312.451V324.038H208.423V311.768C208.423 308.247 206.15 305.957 202.629 305.957C200.134 305.957 198.049 307.222 197.058 309.341H196.989C196.22 307.188 194.426 305.957 191.999 305.957C189.607 305.957 187.795 307.222 186.958 309.102H186.889V306.265H184.087V324.038ZM219.343 308.538C222.146 308.538 224.008 310.657 224.077 313.63H214.421C214.609 310.674 216.557 308.538 219.343 308.538ZM224.008 318.945C223.513 320.62 221.855 321.765 219.599 321.765C216.404 321.765 214.404 319.526 214.404 316.125V315.955H227.153V314.827C227.153 309.443 224.196 305.957 219.394 305.957C214.489 305.957 211.345 309.7 211.345 315.22C211.345 320.808 214.438 324.346 219.531 324.346C223.41 324.346 226.418 322.056 226.931 318.945H224.008ZM231.118 301.975V306.265H228.469V308.708H231.118V319.424C231.118 322.842 232.383 324.175 235.647 324.175C236.347 324.175 237.168 324.124 237.527 324.038V321.543C237.321 321.577 236.638 321.628 236.296 321.628C234.775 321.628 234.091 320.894 234.091 319.27V308.708H237.544V306.265H234.091V301.975H231.118ZM240.876 324.038H243.85V313.682C243.85 310.605 245.678 308.589 248.635 308.589C251.421 308.589 252.839 310.281 252.839 313.101V324.038H255.813V312.554C255.813 308.589 253.454 305.957 249.558 305.957C246.858 305.957 244.909 307.119 243.918 309.102H243.85V299.377H240.876V324.038ZM259.743 324.038H262.717V306.265H259.743V324.038ZM261.23 303.274C262.256 303.274 263.093 302.437 263.093 301.428C263.093 300.403 262.256 299.583 261.23 299.583C260.222 299.583 259.384 300.403 259.384 301.428C259.384 302.437 260.222 303.274 261.23 303.274ZM266.733 324.038H269.707V313.579C269.707 310.571 271.535 308.589 274.338 308.589C277.072 308.589 278.423 310.161 278.423 313.032V324.038H281.396V312.502C281.396 308.469 279.14 305.957 275.244 305.957C272.492 305.957 270.595 307.188 269.604 309.102H269.536V306.265H266.733V324.038ZM292.419 321.56C289.36 321.56 287.361 319.065 287.361 315.083C287.361 311.101 289.36 308.572 292.419 308.572C295.512 308.572 297.58 311.169 297.58 315.083C297.58 318.997 295.512 321.56 292.419 321.56ZM292.522 330.737C297.426 330.737 300.554 327.917 300.554 323.679V306.265H297.717V309.255H297.666C296.487 307.188 294.402 305.957 291.889 305.957C287.292 305.957 284.319 309.512 284.319 315.083C284.319 320.603 287.292 324.175 291.821 324.175C294.316 324.175 296.418 322.91 297.512 320.979H297.58V323.782C297.58 326.431 295.717 328.208 292.641 328.208C290.42 328.208 288.659 327.131 288.078 325.508H285.019C285.515 328.533 288.608 330.737 292.522 330.737Z" fill="white"/>
<path d="M727.409 246.942H724.47L720.915 261.4H720.847L716.813 246.942H713.942L709.926 261.4H709.858L706.303 246.942H703.347L708.32 264.716H711.345L715.344 250.958H715.412L719.428 264.716H722.453L727.409 246.942ZM730.007 264.716H732.98V254.359C732.98 251.283 734.809 249.267 737.766 249.267C740.551 249.267 741.97 250.958 741.97 253.778V264.716H744.943V253.231C744.943 249.267 742.585 246.635 738.688 246.635C735.988 246.635 734.04 247.797 733.049 249.779H732.98V240.055H730.007V264.716ZM748.874 264.716H751.848V246.942H748.874V264.716ZM750.361 243.952C751.386 243.952 752.224 243.114 752.224 242.106C752.224 241.081 751.386 240.26 750.361 240.26C749.353 240.26 748.515 241.081 748.515 242.106C748.515 243.114 749.353 243.952 750.361 243.952ZM770.629 252.77C770.253 249.574 767.604 246.635 763.161 246.635C758.256 246.635 754.992 250.224 754.992 255.829C754.992 261.554 758.273 265.023 763.195 265.023C767.229 265.023 770.202 262.528 770.664 258.991H767.741C767.229 261.127 765.639 262.409 763.212 262.409C760.136 262.409 758.017 259.965 758.017 255.829C758.017 251.796 760.102 249.25 763.178 249.25C765.793 249.25 767.297 250.839 767.724 252.77H770.629ZM773.552 264.716H776.525V254.359C776.525 251.283 778.354 249.267 781.311 249.267C784.096 249.267 785.515 250.958 785.515 253.778V264.716H788.488V253.231C788.488 249.267 786.13 246.635 782.233 246.635C779.533 246.635 777.585 247.797 776.594 249.779H776.525V240.055H773.552V264.716ZM806.809 265.023C811.713 265.023 815.029 261.486 815.029 255.829C815.029 250.155 811.713 246.635 806.809 246.635C801.887 246.635 798.571 250.155 798.571 255.829C798.571 261.486 801.887 265.023 806.809 265.023ZM806.809 262.409C803.664 262.409 801.596 260.016 801.596 255.829C801.596 251.642 803.664 249.25 806.809 249.25C809.953 249.25 812.004 251.642 812.004 255.829C812.004 260.016 809.953 262.409 806.809 262.409ZM818.037 264.716H821.01V254.257C821.01 251.249 822.839 249.267 825.642 249.267C828.376 249.267 829.726 250.839 829.726 253.71V264.716H832.7V253.18C832.7 249.147 830.444 246.635 826.547 246.635C823.796 246.635 821.899 247.865 820.908 249.779H820.839V246.942H818.037V264.716ZM843.62 249.215C846.423 249.215 848.286 251.334 848.354 254.308H838.698C838.886 251.352 840.834 249.215 843.62 249.215ZM848.286 259.623C847.79 261.298 846.132 262.443 843.876 262.443C840.681 262.443 838.681 260.204 838.681 256.803V256.632H851.43V255.504C851.43 250.121 848.474 246.635 843.671 246.635C838.767 246.635 835.622 250.377 835.622 255.897C835.622 261.486 838.715 265.023 843.808 265.023C847.688 265.023 850.695 262.733 851.208 259.623H848.286Z" fill="#202020"/>
<path d="M1271.04 265.023C1273.61 265.023 1275.64 263.759 1276.78 261.708H1276.84V264.716H1279.67V240.055H1276.7V249.831H1276.63C1275.57 247.882 1273.52 246.635 1270.97 246.635C1266.5 246.635 1263.44 250.258 1263.44 255.829C1263.44 261.4 1266.51 265.023 1271.04 265.023ZM1271.61 249.25C1274.67 249.25 1276.72 251.864 1276.72 255.829C1276.72 259.811 1274.67 262.409 1271.61 262.409C1268.46 262.409 1266.48 259.862 1266.48 255.829C1266.48 251.813 1268.46 249.25 1271.61 249.25ZM1291.05 265.023C1295.96 265.023 1299.27 261.486 1299.27 255.829C1299.27 250.155 1295.96 246.635 1291.05 246.635C1286.13 246.635 1282.82 250.155 1282.82 255.829C1282.82 261.486 1286.13 265.023 1291.05 265.023ZM1291.05 262.409C1287.91 262.409 1285.84 260.016 1285.84 255.829C1285.84 251.642 1287.91 249.25 1291.05 249.25C1294.2 249.25 1296.25 251.642 1296.25 255.829C1296.25 260.016 1294.2 262.409 1291.05 262.409ZM1302.28 264.716H1305.26V254.257C1305.26 251.249 1307.08 249.267 1309.89 249.267C1312.62 249.267 1313.97 250.839 1313.97 253.71V264.716H1316.95V253.18C1316.95 249.147 1314.69 246.635 1310.79 246.635C1308.04 246.635 1306.15 247.865 1305.15 249.779H1305.09V246.942H1302.28V264.716ZM1321.94 248.754L1324.28 240.055H1321.12L1319.46 248.754H1321.94ZM1329.35 242.653V246.942H1326.7V249.386H1329.35V260.102C1329.35 263.52 1330.62 264.853 1333.88 264.853C1334.58 264.853 1335.4 264.801 1335.76 264.716V262.221C1335.56 262.255 1334.87 262.306 1334.53 262.306C1333.01 262.306 1332.33 261.571 1332.33 259.948V249.386H1335.78V246.942H1332.33V242.653H1329.35ZM1346.29 264.716H1349.26V254.359C1349.26 251.283 1351.09 249.267 1354.05 249.267C1356.83 249.267 1358.25 250.958 1358.25 253.778V264.716H1361.23V253.231C1361.23 249.267 1358.87 246.635 1354.97 246.635C1352.27 246.635 1350.32 247.797 1349.33 249.779H1349.26V240.055H1346.29V264.716ZM1372.13 249.215C1374.93 249.215 1376.79 251.334 1376.86 254.308H1367.21C1367.4 251.352 1369.34 249.215 1372.13 249.215ZM1376.79 259.623C1376.3 261.298 1374.64 262.443 1372.39 262.443C1369.19 262.443 1367.19 260.204 1367.19 256.803V256.632H1379.94V255.504C1379.94 250.121 1376.98 246.635 1372.18 246.635C1367.28 246.635 1364.13 250.377 1364.13 255.897C1364.13 261.486 1367.22 265.023 1372.32 265.023C1376.2 265.023 1379.2 262.733 1379.72 259.623H1376.79ZM1383.1 264.716H1386.07V240.055H1383.1V264.716ZM1398.72 246.635C1396.14 246.635 1394.07 247.951 1392.98 249.95H1392.91V246.942H1390.09V270.646H1393.06V261.828H1393.13C1394.19 263.776 1396.24 265.023 1398.79 265.023C1403.27 265.023 1406.33 261.4 1406.33 255.829C1406.33 250.258 1403.25 246.635 1398.72 246.635ZM1398.14 262.409C1395.1 262.409 1393.05 259.794 1393.05 255.829C1393.05 251.881 1395.1 249.25 1398.14 249.25C1401.3 249.25 1403.28 251.813 1403.28 255.829C1403.28 259.862 1401.3 262.409 1398.14 262.409Z" fill="#202020"/>
<path d="M712.028 320.546C708.969 320.546 706.97 318.051 706.97 314.069C706.97 310.087 708.969 307.558 712.028 307.558C715.122 307.558 717.189 310.156 717.189 314.069C717.189 317.983 715.122 320.546 712.028 320.546ZM712.131 329.724C717.036 329.724 720.163 326.904 720.163 322.666V305.251H717.326V308.242H717.275C716.096 306.174 714.011 304.943 711.499 304.943C706.901 304.943 703.928 308.498 703.928 314.069C703.928 319.589 706.901 323.161 711.43 323.161C713.925 323.161 716.027 321.896 717.121 319.965H717.189V322.768C717.189 325.417 715.327 327.194 712.25 327.194C710.029 327.194 708.269 326.118 707.688 324.494H704.628C705.124 327.519 708.217 329.724 712.131 329.724ZM724.196 323.024H727.17V305.251H724.196V323.024ZM725.683 302.26C726.708 302.26 727.546 301.423 727.546 300.415C727.546 299.389 726.708 298.569 725.683 298.569C724.675 298.569 723.837 299.389 723.837 300.415C723.837 301.423 724.675 302.26 725.683 302.26ZM745.764 305.251H742.67L737.749 319.863H737.68L732.775 305.251H729.648L736.193 323.024H739.235L745.764 305.251ZM754.719 307.524C757.521 307.524 759.384 309.643 759.453 312.617H749.797C749.985 309.66 751.933 307.524 754.719 307.524ZM759.384 317.932C758.889 319.606 757.231 320.751 754.975 320.751C751.779 320.751 749.78 318.513 749.78 315.112V314.941H762.529V313.813C762.529 308.43 759.572 304.943 754.77 304.943C749.865 304.943 746.721 308.686 746.721 314.206C746.721 319.794 749.814 323.332 754.907 323.332C758.786 323.332 761.794 321.042 762.307 317.932H759.384ZM765.229 310.156C765.229 312.583 766.767 314.189 769.895 314.992L773.022 315.795C775.021 316.325 775.756 317.009 775.756 318.273C775.756 319.88 774.27 320.905 771.86 320.905C769.45 320.905 768.049 319.914 767.724 318.068H764.75C765.058 321.213 767.775 323.332 771.672 323.332C775.825 323.332 778.747 321.145 778.747 318.051C778.747 315.437 777.448 314.138 773.859 313.232L771.108 312.565C769.091 312.053 768.151 311.232 768.151 310.002C768.151 308.447 769.587 307.37 771.757 307.37C773.945 307.37 775.329 308.43 775.534 310.139H778.371C778.234 307.131 775.534 304.943 771.86 304.943C767.946 304.943 765.229 307.114 765.229 310.156ZM789.018 323.024H791.992V311.882C791.992 309.421 793.701 307.575 796.059 307.575C798.264 307.575 799.699 308.977 799.699 311.113V323.024H802.673V311.728C802.673 309.318 804.331 307.575 806.689 307.575C809.03 307.575 810.38 309.011 810.38 311.438V323.024H813.354V310.754C813.354 307.233 811.081 304.943 807.561 304.943C805.065 304.943 802.98 306.208 801.989 308.327H801.921C801.152 306.174 799.357 304.943 796.931 304.943C794.538 304.943 792.727 306.208 791.889 308.088H791.821V305.251H789.018V323.024ZM824.514 323.332C829.418 323.332 832.734 319.794 832.734 314.138C832.734 308.464 829.418 304.943 824.514 304.943C819.592 304.943 816.276 308.464 816.276 314.138C816.276 319.794 819.592 323.332 824.514 323.332ZM824.514 320.717C821.369 320.717 819.301 318.325 819.301 314.138C819.301 309.951 821.369 307.558 824.514 307.558C827.658 307.558 829.709 309.951 829.709 314.138C829.709 318.325 827.658 320.717 824.514 320.717ZM835.742 323.024H838.715V311.95C838.715 309.438 840.219 307.78 842.526 307.78C843.244 307.78 843.876 307.866 844.116 307.951V305.063C843.876 305.029 843.432 304.943 842.919 304.943C840.834 304.943 839.194 306.191 838.613 308.156H838.544V305.251H835.742V323.024ZM852.814 307.524C855.617 307.524 857.48 309.643 857.548 312.617H847.893C848.081 309.66 850.029 307.524 852.814 307.524ZM857.48 317.932C856.984 319.606 855.327 320.751 853.071 320.751C849.875 320.751 847.875 318.513 847.875 315.112V314.941H860.625V313.813C860.625 308.43 857.668 304.943 852.866 304.943C847.961 304.943 844.816 308.686 844.816 314.206C844.816 319.794 847.91 323.332 853.002 323.332C856.882 323.332 859.89 321.042 860.402 317.932H857.48Z" fill="#202020"/>
<path d="M1264.46 323.024H1267.44V312.668C1267.44 309.592 1269.27 307.575 1272.22 307.575C1275.01 307.575 1276.43 309.267 1276.43 312.087V323.024H1279.4V311.54C1279.4 307.575 1277.04 304.943 1273.14 304.943C1270.44 304.943 1268.5 306.105 1267.5 308.088H1267.44V298.364H1264.46V323.024ZM1290.3 307.524C1293.11 307.524 1294.97 309.643 1295.04 312.617H1285.38C1285.57 309.66 1287.52 307.524 1290.3 307.524ZM1294.97 317.932C1294.47 319.606 1292.81 320.751 1290.56 320.751C1287.36 320.751 1285.36 318.513 1285.36 315.112V314.941H1298.11V313.813C1298.11 308.43 1295.16 304.943 1290.35 304.943C1285.45 304.943 1282.3 308.686 1282.3 314.206C1282.3 319.794 1285.4 323.332 1290.49 323.332C1294.37 323.332 1297.38 321.042 1297.89 317.932H1294.97ZM1301.27 323.024H1304.25V298.364H1301.27V323.024ZM1316.89 304.943C1314.31 304.943 1312.25 306.259 1311.15 308.259H1311.08V305.251H1308.26V328.955H1311.24V320.136H1311.31C1312.37 322.084 1314.42 323.332 1316.96 323.332C1321.44 323.332 1324.5 319.709 1324.5 314.138C1324.5 308.566 1321.42 304.943 1316.89 304.943ZM1316.31 320.717C1313.27 320.717 1311.22 318.103 1311.22 314.138C1311.22 310.19 1313.27 307.558 1316.31 307.558C1319.48 307.558 1321.46 310.122 1321.46 314.138C1321.46 318.171 1319.48 320.717 1316.31 320.717Z" fill="#202020"/>
<path d="M719.377 368.017H716.284L711.362 382.628H711.293L706.389 368.017H703.261L709.807 385.79H712.849L719.377 368.017ZM727.238 383.568C725.102 383.568 723.684 382.458 723.684 380.766C723.684 379.091 725.051 378.031 727.443 377.877L732.194 377.587V379.04C732.194 381.603 730.041 383.568 727.238 383.568ZM726.572 386.098C728.964 386.098 731.22 384.765 732.28 382.731H732.348V385.79H735.168V373.502C735.168 369.965 732.536 367.709 728.366 367.709C724.162 367.709 721.53 370.067 721.325 373.144H724.196C724.572 371.4 726.008 370.324 728.298 370.324C730.759 370.324 732.194 371.623 732.194 373.793V375.28L727.102 375.57C723 375.81 720.659 377.724 720.659 380.766C720.659 383.961 723.034 386.098 726.572 386.098ZM739.099 385.79H742.072V361.129H739.099V385.79ZM760.683 368.017H757.709V378.458C757.709 381.483 755.966 383.466 753.078 383.466C750.327 383.466 748.977 381.911 748.977 379.022V368.017H746.003V379.552C746.003 383.585 748.276 386.098 752.155 386.098C754.89 386.098 756.735 384.953 757.795 382.902H757.863V385.79H760.683V368.017ZM771.672 370.29C774.475 370.29 776.337 372.409 776.406 375.382H766.75C766.938 372.426 768.886 370.29 771.672 370.29ZM776.337 380.697C775.842 382.372 774.184 383.517 771.928 383.517C768.732 383.517 766.733 381.278 766.733 377.877V377.707H779.482V376.579C779.482 371.195 776.525 367.709 771.723 367.709C766.818 367.709 763.674 371.452 763.674 376.972C763.674 382.56 766.767 386.098 771.86 386.098C775.739 386.098 778.747 383.808 779.26 380.697H776.337ZM790.625 363.727V368.017H787.976V370.46H790.625V381.176C790.625 384.594 791.889 385.927 795.153 385.927C795.854 385.927 796.674 385.875 797.033 385.79V383.295C796.828 383.329 796.145 383.38 795.803 383.38C794.282 383.38 793.598 382.646 793.598 381.022V370.46H797.05V368.017H793.598V363.727H790.625ZM807.082 386.098C811.987 386.098 815.302 382.56 815.302 376.903C815.302 371.229 811.987 367.709 807.082 367.709C802.16 367.709 798.845 371.229 798.845 376.903C798.845 382.56 802.16 386.098 807.082 386.098ZM807.082 383.483C803.938 383.483 801.87 381.09 801.87 376.903C801.87 372.716 803.938 370.324 807.082 370.324C810.227 370.324 812.277 372.716 812.277 376.903C812.277 381.09 810.227 383.483 807.082 383.483ZM825.488 385.79H828.461V374.647C828.461 372.187 830.17 370.341 832.529 370.341C834.733 370.341 836.169 371.742 836.169 373.878V385.79H839.143V374.494C839.143 372.084 840.8 370.341 843.159 370.341C845.5 370.341 846.85 371.776 846.85 374.203V385.79H849.824V373.52C849.824 369.999 847.551 367.709 844.03 367.709C841.535 367.709 839.45 368.974 838.459 371.093H838.391C837.622 368.939 835.827 367.709 833.4 367.709C831.008 367.709 829.196 368.974 828.359 370.854H828.291V368.017H825.488V385.79ZM860.744 370.29C863.547 370.29 865.41 372.409 865.478 375.382H855.822C856.01 372.426 857.958 370.29 860.744 370.29ZM865.41 380.697C864.914 382.372 863.256 383.517 861 383.517C857.805 383.517 855.805 381.278 855.805 377.877V377.707H868.554V376.579C868.554 371.195 865.598 367.709 860.795 367.709C855.891 367.709 852.746 371.452 852.746 376.972C852.746 382.56 855.839 386.098 860.932 386.098C864.812 386.098 867.819 383.808 868.332 380.697H865.41ZM870.588 367.572H873.51C873.698 365.128 875.339 363.607 877.919 363.607C880.466 363.607 882.106 365.163 882.106 367.282C882.106 369.11 881.337 370.187 879.355 371.4C877.014 372.802 875.92 374.34 875.937 376.596V378.168H878.928V377.057C878.928 375.263 879.543 374.306 881.713 373.024C883.901 371.708 885.285 369.811 885.285 367.128C885.285 363.607 882.346 360.941 878.039 360.941C873.237 360.941 870.776 363.881 870.588 367.572ZM877.441 385.961C878.552 385.961 879.389 385.106 879.389 384.013C879.389 382.902 878.552 382.064 877.441 382.064C876.347 382.064 875.493 382.902 875.493 384.013C875.493 385.106 876.347 385.961 877.441 385.961Z" fill="#202020"/>
<path d="M1271.04 386.098C1273.61 386.098 1275.64 384.833 1276.78 382.782H1276.84V385.79H1279.67V361.129H1276.7V370.905H1276.63C1275.57 368.957 1273.52 367.709 1270.97 367.709C1266.5 367.709 1263.44 371.332 1263.44 376.903C1263.44 382.475 1266.51 386.098 1271.04 386.098ZM1271.61 370.324C1274.67 370.324 1276.72 372.938 1276.72 376.903C1276.72 380.885 1274.67 383.483 1271.61 383.483C1268.46 383.483 1266.48 380.937 1266.48 376.903C1266.48 372.887 1268.46 370.324 1271.61 370.324ZM1291.05 386.098C1295.96 386.098 1299.27 382.56 1299.27 376.903C1299.27 371.229 1295.96 367.709 1291.05 367.709C1286.13 367.709 1282.82 371.229 1282.82 376.903C1282.82 382.56 1286.13 386.098 1291.05 386.098ZM1291.05 383.483C1287.91 383.483 1285.84 381.09 1285.84 376.903C1285.84 372.716 1287.91 370.324 1291.05 370.324C1294.2 370.324 1296.25 372.716 1296.25 376.903C1296.25 381.09 1294.2 383.483 1291.05 383.483ZM1302.28 385.79H1305.26V375.331C1305.26 372.323 1307.08 370.341 1309.89 370.341C1312.62 370.341 1313.97 371.913 1313.97 374.784V385.79H1316.95V374.254C1316.95 370.221 1314.69 367.709 1310.79 367.709C1308.04 367.709 1306.15 368.939 1305.15 370.854H1305.09V368.017H1302.28V385.79ZM1321.94 369.828L1324.28 361.129H1321.12L1319.46 369.828H1321.94ZM1329.35 363.727V368.017H1326.7V370.46H1329.35V381.176C1329.35 384.594 1330.62 385.927 1333.88 385.927C1334.58 385.927 1335.4 385.875 1335.76 385.79V383.295C1335.56 383.329 1334.87 383.38 1334.53 383.38C1333.01 383.38 1332.33 382.646 1332.33 381.022V370.46H1335.78V368.017H1332.33V363.727H1329.35ZM1346.29 385.79H1349.26V375.434C1349.26 372.357 1351.09 370.341 1354.05 370.341C1356.83 370.341 1358.25 372.033 1358.25 374.853V385.79H1361.23V374.306C1361.23 370.341 1358.87 367.709 1354.97 367.709C1352.27 367.709 1350.32 368.871 1349.33 370.854H1349.26V361.129H1346.29V385.79ZM1372.13 370.29C1374.93 370.29 1376.79 372.409 1376.86 375.382H1367.21C1367.4 372.426 1369.34 370.29 1372.13 370.29ZM1376.79 380.697C1376.3 382.372 1374.64 383.517 1372.39 383.517C1369.19 383.517 1367.19 381.278 1367.19 377.877V377.707H1379.94V376.579C1379.94 371.195 1376.98 367.709 1372.18 367.709C1367.28 367.709 1364.13 371.452 1364.13 376.972C1364.13 382.56 1367.22 386.098 1372.32 386.098C1376.2 386.098 1379.2 383.808 1379.72 380.697H1376.79ZM1383.1 385.79H1386.07V361.129H1383.1V385.79ZM1398.72 367.709C1396.14 367.709 1394.07 369.025 1392.98 371.024H1392.91V368.017H1390.09V391.72H1393.06V382.902H1393.13C1394.19 384.85 1396.24 386.098 1398.79 386.098C1403.27 386.098 1406.33 382.475 1406.33 376.903C1406.33 371.332 1403.25 367.709 1398.72 367.709ZM1398.14 383.483C1395.1 383.483 1393.05 380.868 1393.05 376.903C1393.05 372.956 1395.1 370.324 1398.14 370.324C1401.3 370.324 1403.28 372.887 1403.28 376.903C1403.28 380.937 1401.3 383.483 1398.14 383.483Z" fill="#202020"/>
<g clip-path="url(#clip1_881_1032)">
<path d="M1411.58 329.074V327.823C1411.64 322.651 1411.73 314.719 1405.59 313.736C1405.47 313.709 1405.34 313.693 1405.22 313.693H1402.98C1402.84 313.693 1402.69 313.714 1402.55 313.752C1401.97 311.201 1400.64 309.198 1397.78 308.741C1397.66 308.709 1397.53 308.698 1397.41 308.698H1395.17C1394.86 308.698 1394.56 308.784 1394.3 308.951C1393.67 306.62 1392.32 304.826 1389.64 304.391C1389.52 304.364 1389.39 304.348 1389.27 304.348H1387.04C1386.89 304.348 1386.75 304.369 1386.61 304.407V299.036C1386.61 294.81 1384.67 292.033 1382.2 290.782C1380.22 289.772 1377.88 289.772 1375.9 290.782C1373.45 292.033 1371.53 294.815 1371.53 299.112V321.566L1371.51 321.545L1370.18 320.471C1368.6 319.176 1366.97 317.844 1365.99 317.028C1364.85 316.067 1363.5 315.401 1362.05 315.084C1360.96 314.842 1359.83 314.928 1358.8 315.32C1357.67 315.777 1356.78 316.663 1356.3 317.78C1355.81 318.988 1355.63 320.299 1355.76 321.599C1355.88 322.957 1356.23 324.284 1356.81 325.524C1357.46 326.98 1358.27 328.36 1359.23 329.638L1371.33 348.006C1371.65 350.332 1372.24 352.222 1373.13 353.554C1374.08 355.144 1375.81 356.089 1377.66 356.019H1396.99C1398.82 356.014 1400.61 355.444 1402.11 354.392C1403.76 353.178 1405.13 351.61 1406.1 349.794L1406.32 349.408C1408.92 344.918 1411.44 340.562 1411.71 334.982C1411.72 334.923 1411.72 334.859 1411.71 334.8L1411.58 329.074V329.074ZM1403.53 347.764L1403.3 348.167C1402.57 349.558 1401.53 350.767 1400.28 351.706C1399.32 352.394 1398.17 352.764 1396.99 352.781H1377.61C1376.86 352.791 1376.17 352.394 1375.8 351.749C1375.17 350.799 1374.74 349.273 1374.49 347.238C1374.46 346.986 1374.37 346.744 1374.23 346.534L1361.91 327.845C1361.88 327.796 1361.85 327.743 1361.81 327.694C1361 326.609 1360.31 325.444 1359.76 324.214C1359.34 323.328 1359.08 322.377 1358.98 321.4C1358.88 320.626 1358.98 319.842 1359.26 319.117C1359.4 318.763 1359.67 318.484 1360.02 318.333C1360.48 318.172 1360.97 318.145 1361.45 318.263C1362.37 318.473 1363.23 318.908 1363.95 319.525C1365.09 320.471 1366.72 321.819 1368.15 322.984C1369.14 323.784 1370.25 324.703 1371.28 325.53C1371.36 325.594 1371.44 325.648 1371.53 325.691V328.699C1371.53 329.595 1372.26 330.326 1373.15 330.326C1374.05 330.326 1374.77 329.595 1374.77 328.699V299.106C1374.77 296.206 1375.91 294.418 1377.37 293.671C1378.43 293.123 1379.68 293.123 1380.74 293.671C1382.22 294.428 1383.37 296.211 1383.37 299.042V315.932C1383.37 316.829 1384.1 317.56 1384.99 317.56C1385.89 317.56 1386.61 316.829 1386.61 315.932V307.554C1386.75 307.592 1386.89 307.613 1387.04 307.613H1389.18C1391.99 308.145 1391.69 313.537 1391.46 317.571C1391.4 318.65 1391.34 319.649 1391.34 320.417C1391.34 321.314 1392.07 322.044 1392.96 322.044C1393.86 322.044 1394.59 321.314 1394.59 320.417C1394.59 319.585 1394.63 318.693 1394.69 317.732C1394.84 315.787 1394.86 313.838 1394.78 311.894C1394.91 311.926 1395.05 311.942 1395.19 311.942H1397.33C1400.15 312.474 1399.84 317.866 1399.61 321.899C1399.55 322.979 1399.49 323.978 1399.49 324.751C1399.49 325.643 1400.21 326.362 1401.1 326.362C1401.99 326.362 1402.71 325.643 1402.71 324.751C1402.71 323.919 1402.76 323.027 1402.81 322.066C1402.91 320.444 1403.01 318.655 1402.94 316.931H1405.16C1408.49 317.533 1408.42 323.731 1408.38 327.78V329.08C1408.36 329.16 1408.36 329.236 1408.38 329.316L1408.5 334.848C1408.25 339.612 1405.93 343.629 1403.54 347.764H1403.53ZM1400.38 332.415C1399.64 332.415 1399.04 333.017 1399.04 333.758V339.837C1399.04 340.578 1399.64 341.18 1400.38 341.18C1401.12 341.18 1401.72 340.578 1401.72 339.837V333.758C1401.72 333.017 1401.12 332.415 1400.38 332.415V332.415ZM1392.55 329.73C1391.81 329.73 1391.21 330.331 1391.21 331.072V339.837C1391.21 340.578 1391.81 341.18 1392.55 341.18C1393.29 341.18 1393.89 340.578 1393.89 339.837V331.072C1393.89 330.331 1393.29 329.73 1392.55 329.73V329.73ZM1392.55 329.73C1391.81 329.73 1391.21 330.331 1391.21 331.072V339.837C1391.21 340.578 1391.81 341.18 1392.55 341.18C1393.29 341.18 1393.89 340.578 1393.89 339.837V331.072C1393.89 330.331 1393.29 329.73 1392.55 329.73V329.73ZM1400.38 332.415C1399.64 332.415 1399.04 333.017 1399.04 333.758V339.837C1399.04 340.578 1399.64 341.18 1400.38 341.18C1401.12 341.18 1401.72 340.578 1401.72 339.837V333.758C1401.72 333.017 1401.12 332.415 1400.38 332.415V332.415ZM1400.38 332.415C1399.64 332.415 1399.04 333.017 1399.04 333.758V339.837C1399.04 340.578 1399.64 341.18 1400.38 341.18C1401.12 341.18 1401.72 340.578 1401.72 339.837V333.758C1401.72 333.017 1401.12 332.415 1400.38 332.415V332.415ZM1392.55 329.73C1391.81 329.73 1391.21 330.331 1391.21 331.072V339.837C1391.21 340.578 1391.81 341.18 1392.55 341.18C1393.29 341.18 1393.89 340.578 1393.89 339.837V331.072C1393.89 330.331 1393.29 329.73 1392.55 329.73V329.73Z" fill="black"/>
<path d="M1408.37 329.316C1408.36 329.235 1408.36 329.16 1408.37 329.079V327.78C1408.42 323.73 1408.49 317.532 1405.16 316.931H1402.93C1403 318.655 1402.9 320.443 1402.81 322.065C1402.76 323.027 1402.7 323.918 1402.7 324.751C1402.7 325.642 1401.98 326.362 1401.09 326.362C1400.21 326.362 1399.49 325.642 1399.49 324.751C1399.49 323.977 1399.54 322.978 1399.61 321.899C1399.83 317.865 1400.14 312.473 1397.32 311.942H1395.18C1395.04 311.942 1394.91 311.925 1394.77 311.893C1394.86 313.837 1394.83 315.787 1394.68 317.731C1394.63 318.693 1394.58 319.584 1394.58 320.416C1394.58 321.313 1393.85 322.044 1392.96 322.044C1392.06 322.044 1391.33 321.313 1391.33 320.416C1391.33 319.648 1391.39 318.65 1391.45 317.57C1391.68 313.537 1391.99 308.145 1389.17 307.613H1387.03C1386.89 307.613 1386.75 307.591 1386.61 307.554V315.932C1386.61 316.829 1385.88 317.559 1384.98 317.559C1384.09 317.559 1383.36 316.829 1383.36 315.932V299.041C1383.36 296.211 1382.21 294.428 1380.74 293.671C1379.68 293.123 1378.42 293.123 1377.36 293.671C1375.9 294.417 1374.77 296.206 1374.77 299.106V328.698C1374.77 329.595 1374.05 330.325 1373.15 330.325C1372.25 330.325 1371.53 329.595 1371.53 328.698V325.69C1371.44 325.648 1371.35 325.594 1371.28 325.529C1370.25 324.702 1369.13 323.784 1368.14 322.984C1366.72 321.818 1365.08 320.47 1363.94 319.525C1363.22 318.907 1362.36 318.472 1361.44 318.263C1360.97 318.145 1360.48 318.172 1360.01 318.333C1359.67 318.483 1359.39 318.762 1359.25 319.117C1358.98 319.842 1358.88 320.626 1358.97 321.399C1359.07 322.377 1359.33 323.327 1359.75 324.214C1360.31 325.443 1360.99 326.609 1361.8 327.694C1361.84 327.742 1361.87 327.796 1361.91 327.844L1374.23 346.534C1374.37 346.743 1374.46 346.985 1374.48 347.238C1374.73 349.273 1375.16 350.798 1375.8 351.749C1376.17 352.393 1376.86 352.791 1377.6 352.78H1396.98C1398.16 352.764 1399.31 352.393 1400.27 351.706C1401.53 350.766 1402.56 349.558 1403.29 348.167L1403.53 347.764C1405.92 343.628 1408.24 339.611 1408.49 334.847L1408.36 329.316H1408.37ZM1393.89 339.837C1393.89 340.578 1393.29 341.179 1392.55 341.179C1391.81 341.179 1391.21 340.578 1391.21 339.837V331.072C1391.21 330.331 1391.81 329.729 1392.55 329.729C1393.29 329.729 1393.89 330.331 1393.89 331.072V339.837ZM1401.72 339.837C1401.72 340.578 1401.12 341.179 1400.38 341.179C1399.64 341.179 1399.04 340.578 1399.04 339.837V333.757C1399.04 333.016 1399.64 332.415 1400.38 332.415C1401.12 332.415 1401.72 333.016 1401.72 333.757V339.837Z" fill="white"/>
</g>
<path d="M376.874 313.177C376.874 316.122 379.262 318.51 382.208 318.51C385.153 318.51 387.541 316.122 387.541 313.177C387.541 310.231 385.153 307.843 382.208 307.843C379.262 307.843 376.874 310.231 376.874 313.177ZM611.412 313.884C611.802 313.493 611.802 312.86 611.412 312.47L605.048 306.106C604.657 305.715 604.024 305.715 603.633 306.106C603.243 306.496 603.243 307.129 603.633 307.52L609.29 313.177L603.633 318.834C603.243 319.224 603.243 319.857 603.633 320.248C604.024 320.638 604.657 320.638 605.048 320.248L611.412 313.884ZM382.208 314.177H610.705V312.177H382.208V314.177Z" fill="black"/>
<path d="M936.382 254.866C936.382 257.812 938.77 260.2 941.716 260.2C944.661 260.2 947.049 257.812 947.049 254.866C947.049 251.921 944.661 249.533 941.716 249.533C938.77 249.533 936.382 251.921 936.382 254.866ZM1170.92 255.573C1171.31 255.183 1171.31 254.55 1170.92 254.159L1164.56 247.795C1164.17 247.405 1163.53 247.405 1163.14 247.795C1162.75 248.186 1162.75 248.819 1163.14 249.209L1168.8 254.866L1163.14 260.523C1162.75 260.914 1162.75 261.547 1163.14 261.937C1163.53 262.328 1164.17 262.328 1164.56 261.937L1170.92 255.573ZM941.716 255.866H944.722V253.866H941.716V255.866ZM950.735 255.866H956.749V253.866H950.735V255.866ZM962.762 255.866H968.775V253.866H962.762V255.866ZM974.788 255.866H980.801V253.866H974.788V255.866ZM986.814 255.866H992.827V253.866H986.814V255.866ZM998.84 255.866H1004.85V253.866H998.84V255.866ZM1010.87 255.866H1016.88V253.866H1010.87V255.866ZM1022.89 255.866H1028.91V253.866H1022.89V255.866ZM1034.92 255.866H1040.93V253.866H1034.92V255.866ZM1046.94 255.866H1052.96V253.866H1046.94V255.866ZM1058.97 255.866H1064.98V253.866H1058.97V255.866ZM1071 255.866H1077.01V253.866H1071V255.866ZM1083.02 255.866H1089.04V253.866H1083.02V255.866ZM1095.05 255.866H1101.06V253.866H1095.05V255.866ZM1107.08 255.866H1113.09V253.866H1107.08V255.866ZM1119.1 255.866H1125.11V253.866H1119.1V255.866ZM1131.13 255.866H1137.14V253.866H1131.13V255.866ZM1143.15 255.866H1149.17V253.866H1143.15V255.866ZM1155.18 255.866H1161.19V253.866H1155.18V255.866ZM1167.21 255.866H1170.21V253.866H1167.21V255.866Z" fill="#202020"/>
<path d="M936.382 313.866C936.382 316.812 938.77 319.2 941.716 319.2C944.661 319.2 947.049 316.812 947.049 313.866C947.049 310.921 944.661 308.533 941.716 308.533C938.77 308.533 936.382 310.921 936.382 313.866ZM1170.92 314.573C1171.31 314.183 1171.31 313.55 1170.92 313.159L1164.56 306.795C1164.17 306.405 1163.53 306.405 1163.14 306.795C1162.75 307.186 1162.75 307.819 1163.14 308.209L1168.8 313.866L1163.14 319.523C1162.75 319.914 1162.75 320.547 1163.14 320.937C1163.53 321.328 1164.17 321.328 1164.56 320.937L1170.92 314.573ZM941.716 314.866H944.722V312.866H941.716V314.866ZM950.735 314.866H956.749V312.866H950.735V314.866ZM962.762 314.866H968.775V312.866H962.762V314.866ZM974.788 314.866H980.801V312.866H974.788V314.866ZM986.814 314.866H992.827V312.866H986.814V314.866ZM998.84 314.866H1004.85V312.866H998.84V314.866ZM1010.87 314.866H1016.88V312.866H1010.87V314.866ZM1022.89 314.866H1028.91V312.866H1022.89V314.866ZM1034.92 314.866H1040.93V312.866H1034.92V314.866ZM1046.94 314.866H1052.96V312.866H1046.94V314.866ZM1058.97 314.866H1064.98V312.866H1058.97V314.866ZM1071 314.866H1077.01V312.866H1071V314.866ZM1083.02 314.866H1089.04V312.866H1083.02V314.866ZM1095.05 314.866H1101.06V312.866H1095.05V314.866ZM1107.08 314.866H1113.09V312.866H1107.08V314.866ZM1119.1 314.866H1125.11V312.866H1119.1V314.866ZM1131.13 314.866H1137.14V312.866H1131.13V314.866ZM1143.15 314.866H1149.17V312.866H1143.15V314.866ZM1155.18 314.866H1161.19V312.866H1155.18V314.866ZM1167.21 314.866H1170.21V312.866H1167.21V314.866Z" fill="#202020"/>
<path d="M936.382 372.866C936.382 375.812 938.77 378.2 941.716 378.2C944.661 378.2 947.049 375.812 947.049 372.866C947.049 369.921 944.661 367.533 941.716 367.533C938.77 367.533 936.382 369.921 936.382 372.866ZM1170.92 373.573C1171.31 373.183 1171.31 372.55 1170.92 372.159L1164.56 365.795C1164.17 365.405 1163.53 365.405 1163.14 365.795C1162.75 366.186 1162.75 366.819 1163.14 367.209L1168.8 372.866L1163.14 378.523C1162.75 378.914 1162.75 379.547 1163.14 379.937C1163.53 380.328 1164.17 380.328 1164.56 379.937L1170.92 373.573ZM941.716 373.866H944.722V371.866H941.716V373.866ZM950.735 373.866H956.749V371.866H950.735V373.866ZM962.762 373.866H968.775V371.866H962.762V373.866ZM974.788 373.866H980.801V371.866H974.788V373.866ZM986.814 373.866H992.827V371.866H986.814V373.866ZM998.84 373.866H1004.85V371.866H998.84V373.866ZM1010.87 373.866H1016.88V371.866H1010.87V373.866ZM1022.89 373.866H1028.91V371.866H1022.89V373.866ZM1034.92 373.866H1040.93V371.866H1034.92V373.866ZM1046.94 373.866H1052.96V371.866H1046.94V373.866ZM1058.97 373.866H1064.98V371.866H1058.97V373.866ZM1071 373.866H1077.01V371.866H1071V373.866ZM1083.02 373.866H1089.04V371.866H1083.02V373.866ZM1095.05 373.866H1101.06V371.866H1095.05V373.866ZM1107.08 373.866H1113.09V371.866H1107.08V373.866ZM1119.1 373.866H1125.11V371.866H1119.1V373.866ZM1131.13 373.866H1137.14V371.866H1131.13V373.866ZM1143.15 373.866H1149.17V371.866H1143.15V373.866ZM1155.18 373.866H1161.19V371.866H1155.18V373.866ZM1167.21 373.866H1170.21V371.866H1167.21V373.866Z" fill="#202020"/>
<path d="M414.318 250.736H416.527C419.042 250.736 420.604 252.018 420.604 254.093C420.604 255.937 418.932 257.255 416.6 257.255C414.232 257.255 412.731 256.01 412.535 254.203H410.424C410.582 257.121 412.938 259.159 416.625 259.159C420.079 259.159 422.838 257.047 422.838 254.02C422.838 251.542 421.129 249.894 418.468 249.735V249.687C420.665 249.296 422.081 247.709 422.081 245.5C422.081 242.851 419.701 240.958 416.552 240.958C413.243 240.958 411.022 242.875 410.778 245.866H412.889C413.085 244.022 414.427 242.863 416.454 242.863C418.688 242.863 419.872 244.047 419.872 245.792C419.872 247.575 418.456 248.881 416.429 248.881H414.318V250.736ZM436.766 245.951C434.923 245.951 433.446 246.891 432.665 248.319H432.616V246.171H430.602V263.102H432.726V256.803H432.775C433.531 258.195 434.996 259.086 436.815 259.086C440.013 259.086 442.198 256.498 442.198 252.519C442.198 248.539 440.001 245.951 436.766 245.951ZM436.351 257.218C434.178 257.218 432.714 255.351 432.714 252.519C432.714 249.699 434.178 247.819 436.351 247.819C438.61 247.819 440.026 249.65 440.026 252.519C440.026 255.399 438.61 257.218 436.351 257.218ZM448.534 257.279C447.008 257.279 445.995 256.486 445.995 255.277C445.995 254.081 446.971 253.324 448.68 253.214L452.074 253.007V254.044C452.074 255.875 450.536 257.279 448.534 257.279ZM448.058 259.086C449.767 259.086 451.378 258.134 452.135 256.681H452.184V258.866H454.198V250.089C454.198 247.562 452.318 245.951 449.34 245.951C446.337 245.951 444.457 247.636 444.31 249.833H446.361C446.63 248.588 447.655 247.819 449.291 247.819C451.049 247.819 452.074 248.747 452.074 250.297V251.359L448.436 251.566C445.507 251.737 443.834 253.104 443.834 255.277C443.834 257.56 445.531 259.086 448.058 259.086ZM456.896 258.866H459.02V250.956C459.02 249.162 460.094 247.978 461.742 247.978C462.255 247.978 462.706 248.039 462.877 248.1V246.037C462.706 246.012 462.389 245.951 462.023 245.951C460.533 245.951 459.362 246.842 458.947 248.246H458.898V246.171H456.896V258.866ZM468.553 257.279C467.028 257.279 466.014 256.486 466.014 255.277C466.014 254.081 466.991 253.324 468.7 253.214L472.094 253.007V254.044C472.094 255.875 470.555 257.279 468.553 257.279ZM468.077 259.086C469.786 259.086 471.398 258.134 472.155 256.681H472.203V258.866H474.218V250.089C474.218 247.562 472.338 245.951 469.359 245.951C466.356 245.951 464.476 247.636 464.33 249.833H466.381C466.649 248.588 467.675 247.819 469.31 247.819C471.068 247.819 472.094 248.747 472.094 250.297V251.359L468.456 251.566C465.526 251.737 463.854 253.104 463.854 255.277C463.854 257.56 465.551 259.086 468.077 259.086ZM476.915 258.866H479.039V250.907C479.039 249.149 480.26 247.831 481.945 247.831C483.519 247.831 484.545 248.832 484.545 250.358V258.866H486.669V250.797C486.669 249.076 487.853 247.831 489.537 247.831C491.21 247.831 492.174 248.856 492.174 250.59V258.866H494.298V250.102C494.298 247.587 492.675 245.951 490.16 245.951C488.378 245.951 486.888 246.854 486.18 248.368H486.132C485.582 246.83 484.301 245.951 482.567 245.951C480.858 245.951 479.564 246.854 478.966 248.197H478.917V246.171H476.915V258.866ZM502.098 247.794C504.1 247.794 505.431 249.308 505.48 251.432H498.583C498.717 249.32 500.109 247.794 502.098 247.794ZM505.431 255.229C505.077 256.425 503.893 257.243 502.281 257.243C499.999 257.243 498.571 255.644 498.571 253.214V253.092H507.677V252.287C507.677 248.441 505.565 245.951 502.135 245.951C498.632 245.951 496.385 248.625 496.385 252.567C496.385 256.559 498.595 259.086 502.233 259.086C505.004 259.086 507.152 257.45 507.518 255.229H505.431ZM510.509 243.107V246.171H508.617V247.917H510.509V255.57C510.509 258.012 511.412 258.964 513.744 258.964C514.244 258.964 514.83 258.927 515.087 258.866V257.084C514.94 257.108 514.452 257.145 514.208 257.145C513.121 257.145 512.633 256.62 512.633 255.46V247.917H515.099V246.171H512.633V243.107H510.509ZM522.094 247.794C524.095 247.794 525.426 249.308 525.475 251.432H518.578C518.712 249.32 520.104 247.794 522.094 247.794ZM525.426 255.229C525.072 256.425 523.888 257.243 522.277 257.243C519.994 257.243 518.566 255.644 518.566 253.214V253.092H527.672V252.287C527.672 248.441 525.56 245.951 522.13 245.951C518.627 245.951 516.381 248.625 516.381 252.567C516.381 256.559 518.59 259.086 522.228 259.086C524.999 259.086 527.147 257.45 527.513 255.229H525.426ZM529.821 258.866H531.945V250.956C531.945 249.162 533.019 247.978 534.667 247.978C535.179 247.978 535.631 248.039 535.802 248.1V246.037C535.631 246.012 535.314 245.951 534.948 245.951C533.458 245.951 532.286 246.842 531.871 248.246H531.823V246.171H529.821V258.866ZM537.316 249.674C537.316 251.408 538.414 252.555 540.648 253.129L542.882 253.703C544.31 254.081 544.835 254.569 544.835 255.473C544.835 256.62 543.773 257.353 542.052 257.353C540.331 257.353 539.33 256.645 539.098 255.326H536.974C537.194 257.572 539.135 259.086 541.918 259.086C544.884 259.086 546.971 257.523 546.971 255.314C546.971 253.446 546.044 252.519 543.48 251.872L541.515 251.396C540.074 251.029 539.403 250.443 539.403 249.564C539.403 248.454 540.428 247.685 541.979 247.685C543.541 247.685 544.53 248.441 544.677 249.662H546.703C546.605 247.514 544.677 245.951 542.052 245.951C539.257 245.951 537.316 247.501 537.316 249.674ZM559.569 259.086C563.073 259.086 565.441 256.559 565.441 252.519C565.441 248.466 563.073 245.951 559.569 245.951C556.053 245.951 553.685 248.466 553.685 252.519C553.685 256.559 556.053 259.086 559.569 259.086ZM559.569 257.218C557.323 257.218 555.846 255.509 555.846 252.519C555.846 249.528 557.323 247.819 559.569 247.819C561.815 247.819 563.28 249.528 563.28 252.519C563.28 255.509 561.815 257.218 559.569 257.218ZM568.273 258.866H570.397V247.917H572.985V246.171H570.385V244.767C570.385 243.51 570.934 242.899 572.081 242.899C572.435 242.899 572.789 242.936 573.046 242.973V241.251C572.74 241.203 572.228 241.154 571.752 241.154C569.408 241.154 568.273 242.313 568.273 244.755V246.171H566.503V247.917H568.273V258.866ZM439.269 271.251V288.866H445.189C450.426 288.866 453.502 285.607 453.502 280.053C453.502 274.511 450.414 271.251 445.189 271.251H439.269ZM441.466 273.229H445.043C449.047 273.229 451.256 275.67 451.256 280.077C451.256 284.447 449.034 286.889 445.043 286.889H441.466V273.229ZM460.997 277.794C462.999 277.794 464.33 279.308 464.379 281.432H457.482C457.616 279.32 459.008 277.794 460.997 277.794ZM464.33 285.229C463.976 286.425 462.792 287.243 461.18 287.243C458.898 287.243 457.469 285.644 457.469 283.214V283.092H466.576V282.287C466.576 278.441 464.464 275.951 461.034 275.951C457.531 275.951 455.284 278.625 455.284 282.567C455.284 286.559 457.494 289.086 461.132 289.086C463.903 289.086 466.051 287.45 466.417 285.229H464.33ZM479.271 280.333C479.003 278.051 477.111 275.951 473.937 275.951C470.433 275.951 468.102 278.515 468.102 282.519C468.102 286.608 470.446 289.086 473.961 289.086C476.842 289.086 478.966 287.304 479.296 284.777H477.208C476.842 286.303 475.707 287.218 473.973 287.218C471.776 287.218 470.262 285.473 470.262 282.519C470.262 279.638 471.752 277.819 473.949 277.819C475.817 277.819 476.891 278.954 477.196 280.333H479.271ZM486.339 277.794C488.341 277.794 489.672 279.308 489.72 281.432H482.823C482.958 279.32 484.349 277.794 486.339 277.794ZM489.672 285.229C489.318 286.425 488.134 287.243 486.522 287.243C484.24 287.243 482.811 285.644 482.811 283.214V283.092H491.918V282.287C491.918 278.441 489.806 275.951 486.376 275.951C482.872 275.951 480.626 278.625 480.626 282.567C480.626 286.559 482.836 289.086 486.473 289.086C489.244 289.086 491.393 287.45 491.759 285.229H489.672ZM500.231 275.951C498.387 275.951 496.91 276.891 496.129 278.319H496.08V276.171H494.066V293.102H496.19V286.803H496.239C496.996 288.195 498.461 289.086 500.28 289.086C503.478 289.086 505.663 286.498 505.663 282.519C505.663 278.539 503.466 275.951 500.231 275.951ZM499.816 287.218C497.643 287.218 496.178 285.351 496.178 282.519C496.178 279.699 497.643 277.819 499.816 277.819C502.074 277.819 503.49 279.65 503.49 282.519C503.49 285.399 502.074 287.218 499.816 287.218ZM508.495 273.107V276.171H506.603V277.917H508.495V285.57C508.495 288.012 509.398 288.964 511.73 288.964C512.23 288.964 512.816 288.927 513.073 288.866V287.084C512.926 287.108 512.438 287.145 512.194 287.145C511.107 287.145 510.619 286.62 510.619 285.46V277.917H513.085V276.171H510.619V273.107H508.495ZM515.465 288.866H517.589V276.171H515.465V288.866ZM516.527 274.035C517.26 274.035 517.858 273.437 517.858 272.716C517.858 271.984 517.26 271.398 516.527 271.398C515.807 271.398 515.209 271.984 515.209 272.716C515.209 273.437 515.807 274.035 516.527 274.035ZM525.719 289.086C529.222 289.086 531.591 286.559 531.591 282.519C531.591 278.466 529.222 275.951 525.719 275.951C522.203 275.951 519.835 278.466 519.835 282.519C519.835 286.559 522.203 289.086 525.719 289.086ZM525.719 287.218C523.473 287.218 521.996 285.509 521.996 282.519C521.996 279.528 523.473 277.819 525.719 277.819C527.965 277.819 529.43 279.528 529.43 282.519C529.43 285.509 527.965 287.218 525.719 287.218ZM533.739 288.866H535.863V281.396C535.863 279.247 537.169 277.831 539.171 277.831C541.124 277.831 542.089 278.954 542.089 281.005V288.866H544.213V280.626C544.213 277.746 542.601 275.951 539.818 275.951C537.853 275.951 536.498 276.83 535.79 278.197H535.741V276.171H533.739V288.866Z" fill="black"/>
<path opacity="0.2" d="M382.208 33.1035V516.18" stroke="black" stroke-width="2" stroke-dasharray="4 4"/>
<path opacity="0.2" d="M37 33.1035V516.18" stroke="black" stroke-width="2" stroke-dasharray="4 4"/>
<path opacity="0.2" d="M610.705 33.1035V516.18" stroke="black" stroke-width="2" stroke-dasharray="4 4"/>
<path opacity="0.2" d="M941.716 33.1035V516.18" stroke="black" stroke-width="2" stroke-dasharray="4 4"/>
<path opacity="0.2" d="M1451.19 33.1035V516.18" stroke="black" stroke-width="2" stroke-dasharray="4 4"/>
</g>
<defs>
<clipPath id="clip0_881_1032">
<rect width="1495" height="545" fill="white"/>
</clipPath>
<clipPath id="clip1_881_1032">
<rect width="56" height="66" fill="white" transform="translate(1355.72 290.024)"/>
</clipPath>
</defs>
</svg>
